<svg width="8" height="8" viewBox="0 0 8 8" fill="none" xmlns="http://www.w3.org/2000/svg">
<path d="M3.99863 0C4.66027 0 5.19726 0.545928 5.19726 1.21549V2.78382H6.80137C7.46164 2.78382 8 3.32975 8 3.99931C8 4.66887 7.46164 5.21479 6.80137 5.21479H5.19726V6.78451C5.19726 7.45407 4.66027 8 3.99863 8C3.33836 8 2.8 7.45407 2.8 6.78451V5.21479H1.19863C0.536986 5.21479 0 4.66887 0 3.99931C0 3.32975 0.536986 2.78382 1.19863 2.78382H2.8V1.21549C2.8 0.545928 3.33836 0 3.99863 0Z" fill="#E44E6C"/>
</svg>
