<svg width="34" height="34" viewBox="0 0 34 34" fill="none" xmlns="http://www.w3.org/2000/svg">
<g clip-path="url(#clip0_1268_18212)">
<path fill-rule="evenodd" clip-rule="evenodd" d="M1.62708 1.62714C2.53051 0.723712 3.75451 0.218569 5.03193 0.218569H28.9679C29.5998 0.217931 30.2256 0.341837 30.8096 0.583205C31.3935 0.824573 31.9242 1.17867 32.3712 1.62525C32.8183 2.07183 33.1729 2.60214 33.4149 3.18586C33.6568 3.76958 33.7814 4.39526 33.7814 5.02714V17.5829L30.2454 14.0469C29.9634 13.7645 29.6286 13.5405 29.26 13.3877C28.8914 13.2349 28.4963 13.1562 28.0973 13.1562C27.6983 13.1562 27.3032 13.2349 26.9346 13.3877C26.566 13.5405 26.2312 13.7645 25.9492 14.0469L14.7535 25.2669C14.2891 25.7337 13.989 26.3389 13.8986 26.9911L13.1846 32.0571C13.1015 32.6452 13.1927 33.2447 13.4469 33.7814H5.03193C4.39985 33.7821 3.77384 33.6581 3.18972 33.4166C2.6056 33.175 2.07483 32.8207 1.62776 32.3739C1.1807 31.927 0.826118 31.3965 0.584304 30.8125C0.34249 30.2285 0.218187 29.6025 0.218506 28.9704V5.02714C0.218506 3.75214 0.726078 2.52814 1.62708 1.62714ZM16.1888 32.4846L21.2645 31.7924L19.3144 32.0596L16.1888 32.4846Z" fill="#F2A6B5"/>
<path d="M21.7113 13.4713C22.6632 13.4713 23.5762 13.0931 24.2494 12.42C24.9225 11.7468 25.3007 10.8338 25.3007 9.88185C25.3007 8.92987 24.9225 8.01689 24.2494 7.34374C23.5762 6.67059 22.6632 6.29242 21.7113 6.29242C20.7593 6.29242 19.8463 6.67059 19.1731 7.34374C18.5 8.01689 18.1218 8.92987 18.1218 9.88185C18.1218 10.8338 18.5 11.7468 19.1731 12.42C19.8463 13.0931 20.7593 13.4713 21.7113 13.4713Z" fill="#E44E6C"/>
<path fill-rule="evenodd" clip-rule="evenodd" d="M18.7072 21.3496C18.1218 20.8899 17.5284 20.4405 16.9271 20.0017C13.0733 18.0236 8.80277 16.9944 4.47094 17C3.02513 17 1.60765 17.1101 0.218508 17.3303V28.9705C0.217869 29.6027 0.341936 30.2289 0.583607 30.8132C0.825278 31.3975 1.17981 31.9284 1.6269 32.3755C2.074 32.8226 2.60488 33.1771 3.18916 33.4188C3.77344 33.6605 4.39965 33.7845 5.03194 33.7839H13.4057C13.1761 33.2657 13.0962 32.6937 13.1749 32.1325L13.8938 27.0324C13.9859 26.3816 14.2867 25.7782 14.7511 25.313L18.7072 21.3496Z" fill="#E44E6C"/>
<path d="M32.5548 20.587L21.2814 31.858L16.1838 32.5526L16.9027 27.4526L28.1494 16.184L32.5548 20.587Z" fill="#E44E6C"/>
</g>
<defs>
<clipPath id="clip0_1268_18212">
<rect width="34" height="34" fill="white"/>
</clipPath>
</defs>
</svg>
