<svg width="20" height="14" viewBox="0 0 20 14" fill="none" xmlns="http://www.w3.org/2000/svg">
<path d="M7 7C7 7.79565 7.31607 8.55871 7.87868 9.12132C8.44129 9.68393 9.20435 10 10 10C10.7956 10 11.5587 9.68393 12.1213 9.12132C12.6839 8.55871 13 7.79565 13 7C13 6.20435 12.6839 5.44129 12.1213 4.87868C11.5587 4.31607 10.7956 4 10 4C9.20435 4 8.44129 4.31607 7.87868 4.87868C7.31607 5.44129 7 6.20435 7 7Z" stroke="#E44E6C" stroke-width="2" stroke-linecap="round" stroke-linejoin="round"/>
<path d="M16 7H16.01M4 7H4.01M1 3C1 2.46957 1.21071 1.96086 1.58579 1.58579C1.96086 1.21071 2.46957 1 3 1H17C17.5304 1 18.0391 1.21071 18.4142 1.58579C18.7893 1.96086 19 2.46957 19 3V11C19 11.5304 18.7893 12.0391 18.4142 12.4142C18.0391 12.7893 17.5304 13 17 13H3C2.46957 13 1.96086 12.7893 1.58579 12.4142C1.21071 12.0391 1 11.5304 1 11V3Z" stroke="#E44E6C" stroke-width="2" stroke-linecap="round" stroke-linejoin="round"/>
</svg>
