<svg width="21" height="25" viewBox="0 0 21 25" fill="none" xmlns="http://www.w3.org/2000/svg">
<path d="M18.557 21.875C17.5195 23.425 16.4195 24.9375 14.7445 24.9625C13.0695 25 12.532 23.975 10.632 23.975C8.71948 23.975 8.13199 24.9375 6.54449 25C4.90699 25.0625 3.66949 23.35 2.61949 21.8375C0.481987 18.75 -1.15551 13.0625 1.04449 9.2375C2.13199 7.3375 4.08199 6.1375 6.19449 6.1C7.79448 6.075 9.31948 7.1875 10.307 7.1875C11.282 7.1875 13.132 5.85 15.0695 6.05C15.882 6.0875 18.157 6.375 19.6195 8.525C19.507 8.6 16.907 10.125 16.932 13.2875C16.9695 17.0625 20.2445 18.325 20.282 18.3375C20.2445 18.425 19.757 20.1375 18.557 21.875ZM11.4195 1.875C12.332 0.8375 13.8445 0.05 15.0945 0C15.257 1.4625 14.6695 2.9375 13.7945 3.9875C12.932 5.05 11.507 5.875 10.107 5.7625C9.91948 4.325 10.6195 2.825 11.4195 1.875Z" fill="black"/>
</svg>
