<svg width="23" height="23" viewBox="0 0 23 23" fill="none" xmlns="http://www.w3.org/2000/svg">
<path d="M11.0508 10.2302C10.6685 10.3658 10.3652 10.6692 10.2296 11.0514H9.25391C9.0058 11.0514 8.80469 11.2526 8.80469 11.5006C8.80469 11.7487 9.0058 11.9498 9.25391 11.9498H10.2296C10.415 12.4727 10.9144 12.8483 11.5 12.8483C12.2431 12.8483 12.8477 12.2437 12.8477 11.5006C12.8477 10.915 12.4721 10.4157 11.9492 10.2302V8.35608C11.9492 8.10802 11.7481 7.90686 11.5 7.90686C11.2519 7.90686 11.0508 8.10802 11.0508 8.35608V10.2302Z" fill="url(#paint0_linear_2772_18837)"/>
<path d="M21.832 19.137H15.3086C18.1083 17.735 20.0352 14.8387 20.0352 11.5003C20.0352 6.79396 16.2063 2.96513 11.5 2.96513C10.401 2.96513 9.33674 3.17011 8.33013 3.57409L7.15421 1.49107C6.88091 1.00668 6.38569 0.717468 5.82956 0.717468C5.27342 0.717468 4.77816 1.00668 4.5049 1.49098L1.6569 6.53552C1.38782 7.01169 1.39177 7.57798 1.66741 8.05033C1.94314 8.52287 2.43441 8.80497 2.98151 8.80497H3.39946C3.11102 9.6708 2.96484 10.5746 2.96484 11.5003C2.96484 14.8387 4.89172 17.735 7.69143 19.137H1.16797C0.919865 19.137 0.71875 19.3381 0.71875 19.5862V21.8323C0.71875 22.0804 0.919865 22.2815 1.16797 22.2815H21.832C22.0801 22.2815 22.2812 22.0804 22.2812 21.8323V19.5862C22.2812 19.3381 22.0801 19.137 21.832 19.137ZM11.5 7.0081C11.7481 7.0081 11.9492 6.80699 11.9492 6.55888V6.12835C13.0712 6.22031 14.1227 6.65591 14.9809 7.38432L14.6767 7.68871C14.5014 7.86418 14.5015 8.14862 14.677 8.324C14.8524 8.49933 15.1368 8.49933 15.3123 8.32377L15.6162 8.01965C16.3445 8.8777 16.78 9.92914 16.872 11.0511H16.4414C16.1933 11.0511 15.9922 11.2522 15.9922 11.5003C15.9922 11.7483 16.1933 11.9495 16.4414 11.9495H16.8719C16.78 13.0712 16.3444 14.1226 15.6161 14.9806L15.3121 14.6767C15.1367 14.5013 14.8522 14.5013 14.6768 14.6767C14.5014 14.8521 14.5014 15.1365 14.6768 15.312L14.981 15.6162C14.1229 16.3446 13.0713 16.7803 11.9492 16.8722V16.4417C11.9492 16.1936 11.7481 15.9925 11.5 15.9925C11.2519 15.9925 11.0507 16.1936 11.0507 16.4417V16.872C9.90137 16.7768 8.85334 16.3194 8.02103 15.6145L8.32488 15.3106C8.5003 15.1352 8.50034 14.8507 8.32492 14.6753C8.1495 14.4999 7.86506 14.4999 7.68964 14.6753L7.38574 14.9792C6.68087 14.1469 6.22348 13.0988 6.1282 11.9495H6.55859C6.8067 11.9495 7.00781 11.7483 7.00781 11.5003C7.00781 11.2522 6.8067 11.0511 6.55859 11.0511H6.12869C6.19441 10.2582 6.43349 9.49277 6.8314 8.80497H8.67801C9.22475 8.80497 9.71579 8.523 9.99157 8.05065C10.2674 7.57829 10.2715 7.01196 10.0027 6.53566L9.8988 6.3517C10.2728 6.23518 10.6579 6.16056 11.0508 6.12835V6.55888C11.0508 6.80694 11.2519 7.0081 11.5 7.0081ZM6.27873 3.41435V5.21123C6.27873 5.45928 6.07762 5.66044 5.82951 5.66044C5.58141 5.66044 5.38029 5.45928 5.38029 5.21123V3.41435C5.38029 3.16629 5.58141 2.96513 5.82951 2.96513C6.07762 2.96513 6.27873 3.16625 6.27873 3.41435ZM5.82965 6.10562C6.07991 6.10562 6.28277 6.30849 6.28277 6.55875C6.28277 6.80901 6.07991 7.01187 5.82965 7.01187C5.57939 7.01187 5.37652 6.80901 5.37652 6.55875C5.37647 6.30849 5.57934 6.10562 5.82965 6.10562ZM3.86328 11.5003C3.86328 10.57 4.02828 9.66478 4.35306 8.80497H5.81756C4.67318 11.2148 5.1785 14.0699 7.05444 15.9458C9.48162 18.3716 13.4558 18.4343 15.9424 15.9515C15.9475 15.9465 15.9523 15.9413 15.9572 15.936C17.1385 14.7497 17.7891 13.1751 17.7891 11.5003C17.7891 9.82016 17.1348 8.24085 15.947 7.05352C14.7594 5.86551 13.1802 5.21123 11.5 5.21123C10.7943 5.21123 10.1061 5.32681 9.44855 5.55429L8.77666 4.36418C9.64356 4.03216 10.5573 3.86353 11.5 3.86353C15.7109 3.86353 19.1367 7.28936 19.1367 11.5002C19.1367 15.7111 15.7109 19.137 11.5 19.137C7.28911 19.137 3.86328 15.7112 3.86328 11.5003ZM1.61719 20.0354H18.6875V21.3831H1.61719V20.0354Z" fill="url(#paint1_linear_2772_18837)"/>
<defs>
<linearGradient id="paint0_linear_2772_18837" x1="10.8262" y1="7.90686" x2="10.8262" y2="12.8483" gradientUnits="userSpaceOnUse">
<stop stop-color="#E44E6C"/>
<stop offset="1" stop-color="#B11B39"/>
</linearGradient>
<linearGradient id="paint1_linear_2772_18837" x1="11.5" y1="0.717468" x2="11.5" y2="22.2815" gradientUnits="userSpaceOnUse">
<stop stop-color="#E44E6C"/>
<stop offset="1" stop-color="#B11B39"/>
</linearGradient>
</defs>
</svg>
