<svg width="21" height="24" viewBox="0 0 21 24" fill="none" xmlns="http://www.w3.org/2000/svg">
<path fill-rule="evenodd" clip-rule="evenodd" d="M10.1046 23.9719C10.0062 23.9719 9.90774 23.9156 9.83744 23.8313L0.0659051 9.99648C-0.00439368 9.89806 -0.0184534 9.78559 0.0237258 9.68717L1.93585 4.99121C1.99209 4.86467 2.10457 4.79437 2.24517 4.79437H17.978C18.1046 4.79437 18.2311 4.86467 18.2733 4.99121L20.1854 9.68717C20.2276 9.78559 20.2135 9.89806 20.1573 9.99648L10.3717 23.8313C10.3155 23.9156 10.2171 23.9719 10.1046 23.9719Z" fill="#FBBF2B"/>
<path fill-rule="evenodd" clip-rule="evenodd" d="M4.50879 4.79437H15.7425L10.3436 10.0387C10.2733 10.109 10.1889 10.1371 10.1046 10.1371C10.0343 10.1371 9.94991 10.109 9.87962 10.0387L4.50879 4.79437Z" fill="#FA9721"/>
<path fill-rule="evenodd" clip-rule="evenodd" d="M0.122144 10.0808L0.0659051 9.99648C-0.00439368 9.89806 -0.0184534 9.78559 0.0237258 9.68717L1.37346 6.36907L5.19772 9.37785L9.80932 4.89279V4.87873H9.82338V4.86467H9.83744L9.8515 4.85061H9.86556V4.83655H9.87962L9.89368 4.82249H9.90774L9.9218 4.80843H9.93586H9.94992L9.96398 4.79437H9.97804H9.9921H10.0062H10.0202H10.0343H10.0483H10.0624H10.0765H10.0905H10.1046L10.1186 4.80843H10.1327H10.1468H10.1608V4.82249H10.1749H10.1889V4.83655H10.203L10.2171 4.85061H10.2311V4.86467H10.2452L10.2592 4.87873V4.89279L14.8708 9.37785L18.8076 6.28471L20.1854 9.68717C20.2276 9.78559 20.2135 9.89806 20.1573 9.99648L20.1011 10.0668C15.2083 10.0668 10.3717 10.0387 5.45079 10.0387C5.38049 10.109 5.29614 10.1371 5.22584 10.1371C5.15554 10.1371 5.07118 10.109 5.01494 10.0668L0.122144 10.0808Z" fill="#F9A825"/>
<path fill-rule="evenodd" clip-rule="evenodd" d="M10.1046 23.9719H10.0906H10.0765H10.0624H10.0484H10.0343V23.9578H10.0203H10.0062H9.99215V23.9438H9.97809H9.96403L9.94997 23.9297C9.93591 23.9297 9.92185 23.9156 9.92185 23.9156L9.90779 23.9016H9.89373V23.8875H9.87967V23.8735C9.85155 23.8453 9.82343 23.8172 9.80937 23.7891C9.80937 23.775 9.79531 23.761 9.79531 23.7469V23.7329L5.43679 9.89806C5.38055 9.72934 5.47896 9.54657 5.64768 9.49033C5.8164 9.43409 5.99918 9.53251 6.05541 9.70122H14.1538C14.2101 9.53251 14.3928 9.43409 14.5756 9.49033C14.7443 9.54657 14.8428 9.72934 14.7865 9.89806L10.428 23.7329V23.7469H10.4139V23.761V23.775L10.3999 23.7891V23.8032L10.3858 23.8172C10.3858 23.8172 10.3718 23.8313 10.3718 23.8453L10.3577 23.8594L10.3436 23.8735L10.3296 23.8875L10.3155 23.9016C10.3015 23.9156 10.2733 23.9297 10.2452 23.9438L10.2312 23.9578H10.2171H10.203H10.189V23.9719H10.1749H10.1609H10.1468H10.1327H10.1187H10.1046Z" fill="#FA9721"/>
<path fill-rule="evenodd" clip-rule="evenodd" d="M10.1046 2.3761C9.92185 2.3761 9.78125 2.22144 9.78125 2.03866V0.323374C9.78125 0.140598 9.92185 0 10.1046 0C10.2874 0 10.4421 0.140598 10.4421 0.323374V2.03866C10.4421 2.22144 10.2874 2.3761 10.1046 2.3761Z" fill="#F9A825"/>
<path fill-rule="evenodd" clip-rule="evenodd" d="M13.3102 2.78383C13.282 2.78383 13.2539 2.78383 13.2117 2.78383C13.043 2.72759 12.9446 2.55887 12.9868 2.37609L13.4367 0.717043C13.4789 0.534266 13.6617 0.435848 13.8304 0.478027C14.0132 0.534266 14.1116 0.717043 14.0694 0.88576L13.6195 2.54481C13.5773 2.69947 13.4508 2.78383 13.3102 2.78383Z" fill="#F9A825"/>
<path fill-rule="evenodd" clip-rule="evenodd" d="M16.277 4.02109C16.2207 4.02109 16.1645 4.00703 16.1223 3.97891C15.9536 3.89456 15.9114 3.68366 15.9958 3.529L16.8534 2.03867C16.9519 1.88401 17.1487 1.82777 17.3033 1.92619C17.458 2.01055 17.5142 2.20739 17.4299 2.36204L16.5582 3.85238C16.5019 3.96485 16.3895 4.02109 16.277 4.02109Z" fill="#F9A825"/>
<path fill-rule="evenodd" clip-rule="evenodd" d="M3.93248 4.02109C3.82001 4.02109 3.72159 3.96485 3.65129 3.85238L2.79364 2.36204C2.70929 2.20739 2.75146 2.01055 2.92018 1.92619C3.07484 1.82777 3.27168 1.88401 3.35603 2.03867L4.22774 3.529C4.3121 3.68366 4.25586 3.89456 4.1012 3.97891C4.04496 4.00703 3.98872 4.02109 3.93248 4.02109Z" fill="#F9A825"/>
<path fill-rule="evenodd" clip-rule="evenodd" d="M6.91301 2.78383C6.77241 2.78383 6.63182 2.69947 6.6037 2.54481L6.15379 0.88576C6.11161 0.702983 6.21002 0.534266 6.37874 0.478027C6.56152 0.435848 6.74429 0.534266 6.78647 0.717043L7.23639 2.37609C7.27857 2.54481 7.18015 2.72759 6.99737 2.78383C6.96925 2.78383 6.94113 2.78383 6.91301 2.78383Z" fill="#F9A825"/>
<path fill-rule="evenodd" clip-rule="evenodd" d="M0.164323 10.1371L0.0659051 9.99648C-0.00439368 9.89807 -0.0184534 9.78559 0.0237258 9.68717L0.108084 9.40598H20.1151L20.1854 9.68717C20.2276 9.78559 20.2135 9.89807 20.1573 9.99648L20.0589 10.1371H0.164323Z" fill="#F9A825"/>
</svg>
