<svg width="21" height="21" viewBox="0 0 21 21" fill="none" xmlns="http://www.w3.org/2000/svg">
<g clip-path="url(#clip0_1009_8710)">
<path d="M2.92069 18.8312H18.0242C19.8476 18.8312 20.7771 17.9194 20.7771 16.1136V6.93534C20.7771 5.12954 19.8476 4.22664 18.0242 4.22664H15.9731C15.2893 4.22664 15.0791 4.08638 14.6845 3.64802L13.9743 2.85883C13.5449 2.37708 13.0979 2.11377 12.1861 2.11377H8.69714C7.79424 2.11377 7.34691 2.37708 6.90892 2.85883L6.19865 3.64802C5.81303 4.07741 5.59385 4.22664 4.91013 4.22664H2.92031C1.09693 4.22664 0.16748 5.12954 0.16748 6.93534V16.1136C0.16748 17.9194 1.09731 18.8312 2.92069 18.8312ZM2.94649 17.4197C2.07875 17.4197 1.57905 16.9551 1.57905 16.0432V7.01426C1.57905 6.10238 2.07875 5.63784 2.94649 5.63784H5.26059C6.04979 5.63784 6.47057 5.48898 6.90892 4.99826L7.60125 4.22664C8.10094 3.6656 8.35528 3.52534 9.1355 3.52534H11.7477C12.5279 3.52534 12.7823 3.6656 13.282 4.22664L13.9743 4.99788C14.4126 5.48898 14.8334 5.63784 15.6226 5.63784H17.998C18.8658 5.63784 19.3659 6.10238 19.3659 7.01426V16.0432C19.3659 16.9551 18.8662 17.4197 17.998 17.4197H2.94649ZM10.4682 16.026C11.0979 16.0278 11.7218 15.9049 12.3039 15.6645C12.8859 15.424 13.4147 15.0708 13.8595 14.625C14.3044 14.1793 14.6567 13.6499 14.8961 13.0674C15.1354 12.4849 15.2572 11.8608 15.2542 11.231C15.2542 8.56572 13.1327 6.43601 10.4678 6.43601C7.82042 6.43601 5.69035 8.56572 5.69035 11.231C5.69035 13.8956 7.82042 16.026 10.4678 16.026M16.7705 9.0916C17.3667 9.0916 17.8574 8.60985 17.8574 8.01365C17.8574 7.72539 17.7429 7.44892 17.5391 7.24509C17.3352 7.04125 17.0588 6.92674 16.7705 6.92674C16.4822 6.92674 16.2058 7.04125 16.0019 7.24509C15.7981 7.44892 15.6836 7.72539 15.6836 8.01365C15.6836 8.60985 16.1743 9.0916 16.7705 9.0916ZM10.4682 14.6938C8.56586 14.6938 7.0144 13.1509 7.0144 11.231C7.0144 9.31115 8.55726 7.76867 10.4682 7.76867C10.923 7.76813 11.3735 7.85731 11.7938 8.03111C12.2142 8.20492 12.5961 8.45993 12.9178 8.78154C13.2394 9.10315 13.4944 9.48505 13.6683 9.90537C13.8421 10.3257 13.9314 10.7762 13.9309 11.231C13.9314 11.6859 13.8422 12.1364 13.6684 12.5568C13.4946 12.9772 13.2395 13.3591 12.9179 13.6808C12.5962 14.0024 12.2143 14.2574 11.7939 14.4313C11.3736 14.6051 10.923 14.6943 10.4682 14.6938Z" fill="#CCCCCC"/>
</g>
<defs>
<clipPath id="clip0_1009_8710">
<rect width="20.9455" height="20.9455" fill="white"/>
</clipPath>
</defs>
</svg>
