<svg width="25" height="30" viewBox="0 0 25 30" fill="none" xmlns="http://www.w3.org/2000/svg">
<g filter="url(#filter0_d_1268_15668)">
<path d="M16.3438 19.3164H6.40625C6.33166 19.3164 6.26012 19.346 6.20738 19.3988C6.15463 19.4515 6.125 19.5231 6.125 19.5977C6.125 19.6722 6.15463 19.7438 6.20738 19.7965C6.26012 19.8493 6.33166 19.8789 6.40625 19.8789H16.3438C16.4183 19.8789 16.4899 19.8493 16.5426 19.7965C16.5954 19.7438 16.625 19.6722 16.625 19.5977C16.625 19.5231 16.5954 19.4515 16.5426 19.3988C16.4899 19.346 16.4183 19.3164 16.3438 19.3164Z" fill="#EB7A91"/>
<path d="M16.3438 21.3789H6.40625C6.33166 21.3789 6.26012 21.4085 6.20738 21.4613C6.15463 21.514 6.125 21.5856 6.125 21.6602C6.125 21.7347 6.15463 21.8063 6.20738 21.859C6.26012 21.9118 6.33166 21.9414 6.40625 21.9414H16.3438C16.4183 21.9414 16.4899 21.9118 16.5426 21.859C16.5954 21.8063 16.625 21.7347 16.625 21.6602C16.625 21.5856 16.5954 21.514 16.5426 21.4613C16.4899 21.4085 16.4183 21.3789 16.3438 21.3789Z" fill="#EB7A91"/>
<path d="M17.1875 6.84764V4.78514C17.1873 4.56144 17.0983 4.34697 16.9401 4.18879C16.7819 4.03061 16.5675 3.94164 16.3438 3.94139H14.0846C13.9207 3.34863 13.567 2.82597 13.0776 2.45352C12.5882 2.08108 11.9902 1.87939 11.3752 1.87939C10.7602 1.87939 10.1622 2.08108 9.6728 2.45352C9.18342 2.82597 8.82968 3.34863 8.66581 3.94139H6.40625C6.18255 3.94164 5.96808 4.03061 5.8099 4.18879C5.65172 4.34697 5.56275 4.56144 5.5625 4.78514V6.84764C5.56275 7.07134 5.65172 7.28581 5.8099 7.44399C5.96808 7.60217 6.18255 7.69114 6.40625 7.69139H16.3438C16.5675 7.69114 16.7819 7.60217 16.9401 7.44399C17.0983 7.28581 17.1873 7.07134 17.1875 6.84764ZM11.375 4.59764C11.2637 4.59764 11.155 4.56465 11.0625 4.50284C10.97 4.44103 10.8979 4.35318 10.8553 4.2504C10.8127 4.14762 10.8016 4.03452 10.8233 3.9254C10.845 3.81629 10.8986 3.71606 10.9773 3.63739C11.0559 3.55873 11.1561 3.50515 11.2653 3.48345C11.3744 3.46174 11.4875 3.47288 11.5903 3.51546C11.693 3.55803 11.7809 3.63013 11.8427 3.72263C11.9045 3.81513 11.9375 3.92389 11.9375 4.03514C11.9375 4.18432 11.8782 4.3274 11.7727 4.43289C11.6673 4.53838 11.5242 4.59764 11.375 4.59764Z" fill="#EB7A91"/>
<path d="M11.4146 8.44136C9.73275 8.48486 8.55713 9.62055 8.55713 11.3007C8.55713 11.5494 8.6559 11.7878 8.83172 11.9636C9.00753 12.1395 9.24599 12.2382 9.49463 12.2382C9.74327 12.2382 9.98173 12.1395 10.1575 11.9636C10.3334 11.7878 10.4321 11.5494 10.4321 11.3007C10.4321 10.6488 10.764 10.3207 11.4206 10.3164C11.586 10.304 11.7509 10.3468 11.8894 10.4381C12.0278 10.5294 12.1321 10.6641 12.186 10.8209C12.2398 10.9778 12.2401 11.1482 12.1868 11.3052C12.1335 11.4623 12.0296 11.5973 11.8914 11.689C11.4875 11.9475 11.1437 12.2896 10.8832 12.6923C10.6227 13.0949 10.4516 13.5487 10.3813 14.023C10.3454 14.2692 10.4088 14.5195 10.5575 14.719C10.7062 14.9184 10.928 15.0506 11.1742 15.0865C11.4203 15.1223 11.6706 15.059 11.8701 14.9103C12.0695 14.7616 12.2017 14.5398 12.2376 14.2936C12.269 14.0811 12.3466 13.878 12.465 13.6988C12.5834 13.5195 12.7397 13.3684 12.9229 13.2562C15.0956 11.8837 13.9798 8.37498 11.4146 8.44136Z" fill="#EB7A91"/>
<path d="M11.375 17.4414C11.8928 17.4414 12.3125 17.0217 12.3125 16.5039C12.3125 15.9861 11.8928 15.5664 11.375 15.5664C10.8572 15.5664 10.4375 15.9861 10.4375 16.5039C10.4375 17.0217 10.8572 17.4414 11.375 17.4414Z" fill="#EB7A91"/>
<path d="M4.53125 25.8789H18.2188C18.8899 25.8782 19.5333 25.6112 20.0078 25.1367C20.4823 24.6622 20.7493 24.0188 20.75 23.3477V20.8899C20.7501 20.8175 20.7222 20.7479 20.6722 20.6955C20.6223 20.6431 20.554 20.612 20.4817 20.6087C19.9371 20.5595 19.4018 20.4359 18.8908 20.2413C18.8479 20.2237 18.8015 20.2169 18.7554 20.2214C18.7094 20.226 18.6651 20.2417 18.6266 20.2673C18.588 20.2929 18.5563 20.3275 18.5342 20.3682C18.5122 20.4089 18.5004 20.4544 18.5 20.5007V22.7852C18.4998 23.0089 18.4108 23.2233 18.2526 23.3815C18.0944 23.5397 17.88 23.6287 17.6562 23.6289H5.09375C4.87005 23.6287 4.65558 23.5397 4.4974 23.3815C4.33922 23.2233 4.25025 23.0089 4.25 22.7852V7.78516C4.25022 7.61085 4.30441 7.4409 4.40514 7.29864C4.50586 7.15639 4.64817 7.04882 4.8125 6.99072C4.86733 6.97133 4.9148 6.93543 4.94838 6.88795C4.98196 6.84047 4.99999 6.78375 5 6.72559V4.97266C5 4.89806 4.97037 4.82653 4.91762 4.77378C4.86488 4.72104 4.79334 4.69141 4.71875 4.69141H4.53125C3.86015 4.69215 3.21675 4.95907 2.74221 5.43361C2.26767 5.90815 2.00074 6.55156 2 7.22266V23.3477C2.00074 24.0188 2.26767 24.6622 2.74221 25.1367C3.21675 25.6112 3.86015 25.8782 4.53125 25.8789Z" fill="#EB7A91"/>
<path d="M18.8907 21.918C19.4018 21.7236 19.9371 21.6 20.4817 21.5507C20.554 21.5473 20.6223 21.5163 20.6722 21.4639C20.7222 21.4115 20.7501 21.3418 20.75 21.2694V7.22266C20.7493 6.55156 20.4823 5.90815 20.0078 5.43361C19.5333 4.95907 18.8899 4.69215 18.2187 4.69141H18.0312C17.9567 4.69141 17.8851 4.72104 17.8324 4.77378C17.7796 4.82653 17.75 4.89806 17.75 4.97266V6.72559C17.75 6.78375 17.768 6.84047 17.8016 6.88795C17.8352 6.93543 17.8827 6.97133 17.9375 6.99072C18.1018 7.04882 18.2441 7.15639 18.3449 7.29864C18.4456 7.4409 18.4998 7.61085 18.5 7.78516V21.6591C18.5005 21.7053 18.5123 21.7507 18.5344 21.7914C18.5565 21.832 18.5882 21.8666 18.6267 21.8921C18.6653 21.9177 18.7095 21.9334 18.7555 21.9379C18.8015 21.9424 18.848 21.9356 18.8907 21.918Z" fill="#EB7A91"/>
</g>
<defs>
<filter id="filter0_d_1268_15668" x="-1.87958" y="-0.000186622" width="29.6387" height="29.6387" filterUnits="userSpaceOnUse" color-interpolation-filters="sRGB">
<feFlood flood-opacity="0" result="BackgroundImageFix"/>
<feColorMatrix in="SourceAlpha" type="matrix" values="0 0 0 0 0 0 0 0 0 0 0 0 0 0 0 0 0 0 127 0" result="hardAlpha"/>
<feOffset dx="0.939791" dy="0.939791"/>
<feGaussianBlur stdDeviation="1.40969"/>
<feColorMatrix type="matrix" values="0 0 0 0 0.94902 0 0 0 0 0.65098 0 0 0 0 0.709804 0 0 0 1 0"/>
<feBlend mode="normal" in2="BackgroundImageFix" result="effect1_dropShadow_1268_15668"/>
<feBlend mode="normal" in="SourceGraphic" in2="effect1_dropShadow_1268_15668" result="shape"/>
</filter>
</defs>
</svg>
