<svg width="21" height="21" viewBox="0 0 21 21" fill="none" xmlns="http://www.w3.org/2000/svg">
<path d="M10.4729 15.2729C12.5063 15.2729 14.2256 13.9987 14.9325 12.2183H6.01324C6.71142 13.9987 8.43942 15.2729 10.4729 15.2729ZM7.41833 9.60015C7.76553 9.60015 8.0985 9.46223 8.344 9.21673C8.5895 8.97123 8.72742 8.63825 8.72742 8.29106C8.72742 7.94387 8.5895 7.6109 8.344 7.36539C8.0985 7.11989 7.76553 6.98197 7.41833 6.98197C7.07114 6.98197 6.73817 7.11989 6.49267 7.36539C6.24716 7.6109 6.10924 7.94387 6.10924 8.29106C6.10924 8.63825 6.24716 8.97123 6.49267 9.21673C6.73817 9.46223 7.07114 9.60015 7.41833 9.60015ZM13.5274 9.60015C13.8746 9.60015 14.2076 9.46223 14.4531 9.21673C14.6986 8.97123 14.8365 8.63825 14.8365 8.29106C14.8365 7.94387 14.6986 7.6109 14.4531 7.36539C14.2076 7.11989 13.8746 6.98197 13.5274 6.98197C13.1802 6.98197 12.8473 7.11989 12.6018 7.36539C12.3563 7.6109 12.2183 7.94387 12.2183 8.29106C12.2183 8.63825 12.3563 8.97123 12.6018 9.21673C12.8473 9.46223 13.1802 9.60015 13.5274 9.60015ZM10.4729 17.4547C8.62118 17.4547 6.84533 16.7191 5.53599 15.4098C4.22664 14.1004 3.49106 12.3246 3.49106 10.4729C3.49106 8.62118 4.22664 6.84533 5.53599 5.53599C6.84533 4.22664 8.62118 3.49106 10.4729 3.49106C12.3246 3.49106 14.1004 4.22664 15.4098 5.53599C16.7191 6.84533 17.4547 8.62118 17.4547 10.4729C17.4547 12.3246 16.7191 14.1004 15.4098 15.4098C14.1004 16.7191 12.3246 17.4547 10.4729 17.4547ZM10.4729 1.74561C5.6467 1.74561 1.74561 5.67288 1.74561 10.4729C1.74561 12.7875 2.66508 15.0073 4.30176 16.644C5.11217 17.4544 6.07425 18.0972 7.1331 18.5358C8.19194 18.9744 9.3268 19.2002 10.4729 19.2002C12.7875 19.2002 15.0073 18.2807 16.644 16.644C18.2807 15.0073 19.2002 12.7875 19.2002 10.4729C19.2002 9.3268 18.9744 8.19194 18.5358 7.1331C18.0972 6.07425 17.4544 5.11217 16.644 4.30176C15.8336 3.49136 14.8715 2.84852 13.8127 2.40993C12.7538 1.97134 11.619 1.74561 10.4729 1.74561Z" fill="#CCCCCC"/>
</svg>
