<svg width="24" height="24" viewBox="0 0 24 24" fill="none" xmlns="http://www.w3.org/2000/svg">
<g clip-path="url(#clip0_718_3274)">
<path d="M16.5 0H3C1.3455 0 0 1.3455 0 3V12C0 13.6545 1.3455 15 3 15V18.75C3 19.0425 3.171 19.3095 3.4365 19.431C3.537 19.4775 3.6435 19.5 3.75 19.5C3.9255 19.5 4.0995 19.4385 4.2375 19.3185L9.2775 15H16.5C18.1545 15 19.5 13.6545 19.5 12V3C19.5 1.3455 18.1545 0 16.5 0ZM18 12C18 12.8265 17.3265 13.5 16.5 13.5H9C8.8215 13.5 8.6475 13.563 8.5125 13.6815L4.5 17.1195V14.25C4.5 13.836 4.164 13.5 3.75 13.5H3C2.1735 13.5 1.5 12.8265 1.5 12V3C1.5 2.1735 2.1735 1.5 3 1.5H16.5C17.3265 1.5 18 2.1735 18 3V12Z" fill="#4D4D4D"/>
<path d="M21.9935 4.67544C21.6005 4.54044 21.176 4.74744 21.0395 5.14044C20.9045 5.53194 21.1115 5.95794 21.5045 6.09444C22.0985 6.29844 22.499 6.86394 22.499 7.49994V16.4999C22.499 17.3264 21.8255 17.9999 20.999 17.9999H20.249C19.835 17.9999 19.499 18.3359 19.499 18.7499V21.6194L15.4865 18.1814C15.3515 18.0629 15.1775 17.9999 14.999 17.9999H8.354C7.94 17.9999 7.604 18.3359 7.604 18.7499C7.604 19.1639 7.9385 19.4999 8.354 19.4999H14.7215L19.7615 23.8184C19.8995 23.9384 20.0735 23.9999 20.249 23.9999C20.3555 23.9999 20.462 23.9774 20.5625 23.9309C20.828 23.8094 20.999 23.5424 20.999 23.2499V19.4999C22.6535 19.4999 23.999 18.1544 23.999 16.4999V7.49994C23.999 6.22494 23.1935 5.08944 21.9935 4.67544Z" fill="#4D4D4D"/>
<path d="M14.25 4.5H5.25C4.836 4.5 4.5 4.836 4.5 5.25C4.5 5.664 4.836 6 5.25 6H14.25C14.664 6 15 5.664 15 5.25C15 4.836 14.664 4.5 14.25 4.5Z" fill="#4D4D4D"/>
<path d="M11.25 7.5H5.25C4.836 7.5 4.5 7.836 4.5 8.25C4.5 8.664 4.836 9 5.25 9H11.25C11.664 9 12 8.664 12 8.25C12 7.836 11.664 7.5 11.25 7.5Z" fill="#4D4D4D"/>
</g>
<defs>
<clipPath id="clip0_718_3274">
<rect width="24" height="24" fill="white"/>
</clipPath>
</defs>
</svg>
