<svg width="34" height="32" viewBox="0 0 34 32" fill="none" xmlns="http://www.w3.org/2000/svg">
<g filter="url(#filter0_d_2459_5990)">
<path d="M29.3332 26.6667V9.33333L26.6665 4H5.33317L2.6665 9.33867V26.6667C2.6665 27.0203 2.80698 27.3594 3.05703 27.6095C3.30708 27.8595 3.64622 28 3.99984 28H27.9998C28.3535 28 28.6926 27.8595 28.9427 27.6095C29.1927 27.3594 29.3332 27.0203 29.3332 26.6667ZM5.33317 12H26.6665V25.3333H5.33317V12ZM6.98117 6.66667H25.0185L26.3518 9.33333H5.64917L6.98117 6.66667ZM19.9998 14.6667H11.9998V17.3333H19.9998V14.6667Z" fill="#B11B39"/>
</g>
<defs>
<filter id="filter0_d_2459_5990" x="-1.87958" y="-1.87958" width="37.6387" height="37.6387" filterUnits="userSpaceOnUse" color-interpolation-filters="sRGB">
<feFlood flood-opacity="0" result="BackgroundImageFix"/>
<feColorMatrix in="SourceAlpha" type="matrix" values="0 0 0 0 0 0 0 0 0 0 0 0 0 0 0 0 0 0 127 0" result="hardAlpha"/>
<feOffset dx="0.939791" dy="0.939791"/>
<feGaussianBlur stdDeviation="1.40969"/>
<feColorMatrix type="matrix" values="0 0 0 0 0.94902 0 0 0 0 0.65098 0 0 0 0 0.709804 0 0 0 1 0"/>
<feBlend mode="normal" in2="BackgroundImageFix" result="effect1_dropShadow_2459_5990"/>
<feBlend mode="normal" in="SourceGraphic" in2="effect1_dropShadow_2459_5990" result="shape"/>
</filter>
</defs>
</svg>
