<svg width="22" height="22" viewBox="0 0 22 22" fill="none" xmlns="http://www.w3.org/2000/svg">
<mask id="path-1-inside-1_849_8482" fill="white">
<path fill-rule="evenodd" clip-rule="evenodd" d="M11.0002 1.83295C5.93741 1.83295 1.8335 5.93687 1.8335 10.9996C1.83272 12.3502 2.1304 13.6843 2.70525 14.9064L1.85275 19.0654C1.8224 19.2139 1.82934 19.3676 1.87295 19.5127C1.91657 19.6579 1.99549 19.7899 2.10266 19.8971C2.20984 20.0043 2.34191 20.0832 2.48706 20.1268C2.63222 20.1704 2.78592 20.1774 2.93441 20.147L7.09333 19.2945C8.2795 19.8537 9.605 20.1654 11.0002 20.1654C16.0629 20.1654 20.1668 16.0624 20.1668 10.9987C20.1668 5.93686 16.0629 1.83203 11.0002 1.83203"/>
</mask>
<path d="M1.8335 10.9996L2.8335 11.0002V10.9996H1.8335ZM2.70525 14.9064L3.68488 15.1073L3.75163 14.7816L3.61015 14.4808L2.70525 14.9064ZM1.85275 19.0654L0.873116 18.8646L0.873004 18.8651L1.85275 19.0654ZM2.93441 20.147L3.13467 21.1268L3.13522 21.1267L2.93441 20.147ZM7.09333 19.2945L7.51973 18.39L7.21863 18.2481L6.89252 18.3149L7.09333 19.2945ZM11.0002 1.83295V0.832948C5.38513 0.832948 0.833498 5.38458 0.833498 10.9996H1.8335H2.8335C2.8335 6.48915 6.4897 2.83295 11.0002 2.83295V1.83295ZM1.8335 10.9996L0.833498 10.999C0.832636 12.497 1.16279 13.9766 1.80035 15.3321L2.70525 14.9064L3.61015 14.4808C3.09801 13.392 2.83281 12.2035 2.8335 11.0002L1.8335 10.9996ZM2.70525 14.9064L1.72562 14.7056L0.873116 18.8646L1.85275 19.0654L2.83238 19.2662L3.68488 15.1073L2.70525 14.9064ZM1.85275 19.0654L0.873004 18.8651C0.809541 19.1756 0.824057 19.497 0.91525 19.8005L1.87295 19.5127L2.83065 19.225C2.83462 19.2381 2.83525 19.2521 2.83249 19.2656L1.85275 19.0654ZM1.87295 19.5127L0.91525 19.8005C1.00644 20.104 1.17147 20.3801 1.39556 20.6042L2.10266 19.8971L2.80977 19.19C2.81952 19.1998 2.82669 19.2118 2.83065 19.225L1.87295 19.5127ZM2.10266 19.8971L1.39556 20.6042C1.61964 20.8283 1.8958 20.9933 2.1993 21.0845L2.48706 20.1268L2.77483 19.1691C2.78802 19.1731 2.80003 19.1803 2.80977 19.19L2.10266 19.8971ZM2.48706 20.1268L2.1993 21.0845C2.50281 21.1757 2.82418 21.1902 3.13467 21.1268L2.93441 20.147L2.73416 19.1673C2.74766 19.1645 2.76163 19.1652 2.77483 19.1691L2.48706 20.1268ZM2.93441 20.147L3.13522 21.1267L7.29414 20.2742L7.09333 19.2945L6.89252 18.3149L2.73361 19.1674L2.93441 20.147ZM7.09333 19.2945L6.66693 20.1991C7.98396 20.8199 9.45483 21.1654 11.0002 21.1654V20.1654V19.1654C9.75516 19.1654 8.57504 18.8875 7.51973 18.39L7.09333 19.2945ZM11.0002 20.1654V21.1654C16.6151 21.1654 21.1668 16.6147 21.1668 10.9987H20.1668H19.1668C19.1668 15.51 15.5107 19.1654 11.0002 19.1654V20.1654ZM20.1668 10.9987H21.1668C21.1668 5.38465 16.6153 0.832031 11.0002 0.832031V1.83203V2.83203C15.5106 2.83203 19.1668 6.48908 19.1668 10.9987H20.1668Z" fill="black" mask="url(#path-1-inside-1_849_8482)"/>
</svg>
