<svg width="14" height="14" viewBox="0 0 14 14" fill="none" xmlns="http://www.w3.org/2000/svg">
<path fill-rule="evenodd" clip-rule="evenodd" d="M11.2313 11.2051C10.3394 12.0634 9.23441 12.6678 8.03064 12.9559C7.3467 13.1378 6.63324 13.1808 5.93243 13.0822C5.23162 12.9836 4.55769 12.7456 3.95046 12.3821L3.80524 12.2931L3.77128 12.2744C3.76147 12.2702 3.75127 12.2671 3.74083 12.265C3.72915 12.2637 3.71737 12.2637 3.70569 12.265H3.67876L3.54876 12.2978H3.53237C3.16229 12.3938 2.86132 12.4711 2.62007 12.5168C2.3896 12.5701 2.15102 12.5784 1.9174 12.5414C1.59448 12.4756 1.29804 12.3163 1.06502 12.0833C0.831992 11.8502 0.672676 11.5538 0.606914 11.2309C0.569747 10.9973 0.578098 10.7587 0.631508 10.5282C0.677181 10.2858 0.754475 9.98599 0.850507 9.61592V9.59952C0.866903 9.53628 0.876271 9.49763 0.883298 9.46953C0.890325 9.44142 0.883298 9.44142 0.883298 9.44142C0.887049 9.4195 0.883769 9.39695 0.873929 9.37701C0.873929 9.37701 0.868073 9.3653 0.855191 9.34305C0.842309 9.3208 0.809517 9.26692 0.766186 9.199C0.400568 8.59726 0.15924 7.92835 0.0564545 7.23178C-0.0463309 6.53521 -0.00848904 5.82511 0.167745 5.14341C0.460911 3.92866 1.07722 2.81584 1.95136 1.92284C3.18227 0.691776 4.8518 0.000109801 6.59267 1.30719e-08C8.33355 -0.000109775 10.0032 0.691344 11.2342 1.92225C12.4653 3.15316 13.157 4.82269 13.1571 6.56357C13.1572 8.30444 12.4657 9.97406 11.2348 11.2051H11.2313Z" fill="#F2A6B5"/>
<path d="M9.16669 7.59718C9.73587 7.59718 10.1973 7.13577 10.1973 6.5666C10.1973 5.99742 9.73587 5.53601 9.16669 5.53601C8.59752 5.53601 8.13611 5.99742 8.13611 6.5666C8.13611 7.13577 8.59752 7.59718 9.16669 7.59718Z" fill="#FCE9ED"/>
<path d="M6.59028 7.59718C7.15945 7.59718 7.62086 7.13577 7.62086 6.5666C7.62086 5.99742 7.15945 5.53601 6.59028 5.53601C6.0211 5.53601 5.55969 5.99742 5.55969 6.5666C5.55969 7.13577 6.0211 7.59718 6.59028 7.59718Z" fill="#FCE9ED"/>
<path d="M4.01386 7.59718C4.58304 7.59718 5.04445 7.13577 5.04445 6.5666C5.04445 5.99742 4.58304 5.53601 4.01386 5.53601C3.44468 5.53601 2.98328 5.99742 2.98328 6.5666C2.98328 7.13577 3.44468 7.59718 4.01386 7.59718Z" fill="#FCE9ED"/>
</svg>
