<svg width="21" height="21" viewBox="0 0 21 21" fill="none" xmlns="http://www.w3.org/2000/svg">
<path d="M17.4905 17.5H17.5M17.4905 17.5C16.8678 18.1175 15.7393 17.9637 14.9479 17.9637C13.9765 17.9637 13.5087 18.1537 12.8154 18.847C12.2251 19.4374 11.4337 20.5 10.5 20.5C9.5663 20.5 8.7749 19.4374 8.18457 18.847C7.49128 18.1537 7.02349 17.9637 6.05206 17.9637C5.26068 17.9637 4.13218 18.1175 3.50949 17.5C2.88181 16.8776 3.03628 15.7444 3.03628 14.9479C3.03628 13.9414 2.81616 13.4786 2.09938 12.7618C1.03314 11.6956 0.50002 11.1624 0.5 10.5C0.50001 9.8375 1.03312 9.3044 2.09935 8.23817C2.7392 7.59832 3.03628 6.96428 3.03628 6.05206C3.03628 5.26065 2.88249 4.13214 3.5 3.50944C4.12243 2.88178 5.2556 3.03626 6.05208 3.03626C6.96427 3.03626 7.59832 2.7392 8.23815 2.09937C9.3044 1.03312 9.8375 0.5 10.5 0.5C11.1625 0.5 11.6956 1.03312 12.7618 2.09937C13.4015 2.73907 14.0355 3.03626 14.9479 3.03626C15.7393 3.03626 16.8679 2.88247 17.4906 3.5C18.1182 4.12243 17.9637 5.25559 17.9637 6.05206C17.9637 7.05858 18.1839 7.52137 18.9006 8.23817C19.9669 9.3044 20.5 9.8375 20.5 10.5C20.5 11.1624 19.9669 11.6956 18.9006 12.7618C18.1838 13.4786 17.9637 13.9414 17.9637 14.9479C17.9637 15.7444 18.1182 16.8776 17.4905 17.5Z" stroke="black"/>
<path d="M7.50049 11.3929L9.30049 13L13.5005 8" stroke="black" stroke-linecap="round" stroke-linejoin="round"/>
</svg>
