<svg width="21" height="21" viewBox="0 0 21 21" fill="none" xmlns="http://www.w3.org/2000/svg">
<g clip-path="url(#clip0_141_2986)">
<path d="M19.8151 10.9341H18.5054V10.155C18.5054 9.68106 18.1212 9.29688 17.6472 9.29688H6.17568C5.70173 9.29688 5.31754 9.68106 5.31754 10.155V10.9341H4.00781C3.35305 10.9341 2.82227 11.4649 2.82227 12.1196C2.82227 12.7744 3.35305 13.3052 4.00781 13.3052H5.31754V13.3736C5.31754 16.9721 8.26976 19.8892 11.9114 19.8892C15.5531 19.8892 18.5053 16.9721 18.5053 13.3736V13.3052H19.815C20.4698 13.3052 21.0006 12.7744 21.0006 12.1196C21.0007 11.4649 20.4699 10.9341 19.8151 10.9341Z" fill="#666666"/>
<path d="M7.77635 4.30665C7.68408 4.77152 7.98616 5.22311 8.45096 5.31538L19.703 7.54875C20.1679 7.64102 20.6195 7.33895 20.7118 6.87414L20.7953 6.45331C20.9922 5.4611 18.6842 4.15219 15.516 3.3994C15.687 3.25253 15.8125 3.0501 15.8598 2.81177C15.9721 2.2463 15.6046 1.69688 15.0392 1.58463C14.4737 1.47238 13.9242 1.83983 13.812 2.40537C13.7647 2.64363 13.8034 2.87864 13.9054 3.07971C10.6898 2.56538 8.05682 2.89361 7.85988 3.88581L7.77635 4.30665Z" fill="#666666"/>
<path d="M3.14963 8.1276C3.55021 7.77803 4.05139 7.56511 4.58306 7.56511H7.30867C7.48955 7.56511 7.64713 7.43063 7.66867 7.24189C7.68303 7.11609 7.62504 6.99259 7.526 6.91373L5.90871 5.62589C5.50013 5.3005 5.3097 4.75895 5.46172 4.25925C5.49248 4.15811 5.50901 4.05087 5.50901 3.93956C5.50901 3.37917 5.09014 2.91721 4.54844 2.84825C4.48151 2.83971 4.433 2.78294 4.43592 2.71553C4.4368 2.69467 4.43727 2.67367 4.43727 2.65253C4.43727 1.80808 3.75812 1.12222 2.91618 1.11145C2.18751 1.1021 1.54609 1.62334 1.38946 2.33507C1.38838 2.34002 1.3873 2.34496 1.38628 2.34991C1.31657 2.68274 1.12627 2.97534 0.844382 3.16557C0.335002 3.50938 0 4.09165 0 4.75244C0 5.36073 0.283854 5.90256 0.726369 6.25294C1.08258 6.53497 1.32395 6.94029 1.3581 7.39337C1.35925 7.40841 1.36067 7.42352 1.36243 7.43869C1.42002 7.93534 1.82371 8.33517 2.3209 8.38774C2.6389 8.42134 2.93244 8.31715 3.14963 8.1276Z" fill="#666666"/>
</g>
<defs>
<clipPath id="clip0_141_2986">
<rect width="21" height="21" fill="white"/>
</clipPath>
</defs>
</svg>
