<svg width="21" height="21" viewBox="0 0 21 21" fill="none" xmlns="http://www.w3.org/2000/svg">
<path d="M13.7132 4.79845C14.6089 5.32536 15.7624 5.02543 16.288 4.13002C16.815 3.23436 16.5165 2.08126 15.6209 1.5547C14.7237 1.02805 13.5714 1.32763 13.0451 2.22304C12.5188 3.11914 12.8166 4.27181 13.7132 4.79845Z" fill="#666666"/>
<path d="M16.7868 11.2784C16.6837 11.2784 16.5818 11.2867 16.4807 11.2938L15.8644 8.23589L16.0652 8.16085C16.5207 7.99058 16.7524 7.4832 16.5818 7.02744C16.4113 6.5713 15.9008 6.34056 15.4488 6.51113L13.2357 7.33877L13.1365 6.53316C13.4056 5.96975 13.3732 5.26139 12.933 4.76164C12.0266 3.73278 10.9207 4.22748 10.576 4.50643L6.01143 8.20283L6.01212 8.20386C5.87038 8.3274 5.75208 8.4808 5.67645 8.66687C5.58288 8.89731 5.56559 9.1395 5.60966 9.36656C5.24653 9.39513 4.95818 9.68989 4.95818 10.0604C4.95818 10.4483 5.2719 10.7624 5.65992 10.7642L5.36965 11.4434C5.00153 11.3382 4.61487 11.2783 4.21378 11.2783C1.89058 11.2784 0 13.1682 0 15.4914C0 17.8147 1.89058 19.7049 4.21369 19.7049C6.53701 19.7049 8.4267 17.8147 8.4267 15.4914C8.4267 13.9442 7.58612 12.5931 6.34018 11.8604L6.80811 10.7649H7.56686L10.1412 11.8095L8.76604 14.0633C8.41171 14.6446 8.59547 15.4034 9.17666 15.758C9.37699 15.8802 9.5985 15.9386 9.81724 15.9386C10.2327 15.9386 10.6386 15.7281 10.8711 15.3477L12.124 13.2937L12.9385 13.7853C12.7059 14.3075 12.5738 14.884 12.5738 15.4914C12.5738 17.8147 14.4637 19.7049 16.7868 19.7049C19.1101 19.7049 21 17.8147 21 15.4914C21 13.1682 19.1101 11.2784 16.7868 11.2784ZM4.21369 18.6481C2.47318 18.6481 1.05675 17.2319 1.05675 15.4914C1.05675 13.7509 2.47318 12.335 4.21369 12.335C4.46753 12.335 4.71117 12.3733 4.94772 12.43L4.07328 14.4753C3.57114 14.5445 3.18316 14.9706 3.18316 15.4914C3.18316 16.0603 3.64472 16.522 4.21365 16.522C4.58805 16.522 4.91261 16.3193 5.09292 16.0197H7.31639C7.06332 17.5085 5.77331 18.6481 4.21369 18.6481ZM7.31644 14.9631H5.09296C5.0778 14.938 5.06272 14.9128 5.04547 14.8891L5.91991 12.8435C6.64839 13.3143 7.16573 14.0753 7.31644 14.9631ZM12.6743 12.3918L13.0016 11.8553C13.1902 11.5464 13.2336 11.1704 13.1201 10.8268C13.0065 10.4831 12.7478 10.2069 12.4128 10.0707L10.1612 9.15701L11.5467 8.03466L11.6237 8.66205C11.656 8.92968 11.8101 9.16773 12.0405 9.30776C12.1802 9.39236 12.3386 9.43536 12.4974 9.43536C12.6014 9.43536 12.7058 9.41679 12.8057 9.37959L14.8619 8.61084L15.4439 11.5016C14.6637 11.7648 13.9869 12.2494 13.4859 12.8816L12.6743 12.3918ZM16.0316 14.4186L14.4086 13.4389C14.745 13.0495 15.1682 12.742 15.6558 12.5534L16.0316 14.4186ZM16.7868 18.6481C15.0463 18.6481 13.6306 17.2319 13.6306 15.4914C13.6306 15.0838 13.7145 14.6972 13.8555 14.3391L15.7577 15.4873C15.7577 15.4887 15.757 15.4901 15.757 15.4914C15.757 16.0603 16.2186 16.522 16.7868 16.522C17.3557 16.522 17.8168 16.0603 17.8168 15.4914C17.8168 15.0439 17.5298 14.6669 17.1309 14.5245L16.6921 12.3447C16.7243 12.3437 16.7545 12.335 16.7869 12.335C18.5274 12.335 19.9433 13.7509 19.9433 15.4914C19.9432 17.2319 18.5274 18.6481 16.7868 18.6481Z" fill="#666666"/>
</svg>
