<svg width="32" height="32" viewBox="0 0 32 32" fill="none" xmlns="http://www.w3.org/2000/svg">
<g filter="url(#filter0_d_2491_5996)">
<path d="M9.3335 28C8.60017 28 7.97261 27.7391 7.45083 27.2173C6.92906 26.6956 6.66772 26.0676 6.66683 25.3333V8C6.28906 8 5.97261 7.872 5.7175 7.616C5.46239 7.36 5.33439 7.04356 5.3335 6.66667C5.33261 6.28978 5.46061 5.97333 5.7175 5.71733C5.97439 5.46133 6.29083 5.33333 6.66683 5.33333H12.0002C12.0002 4.95556 12.1282 4.63911 12.3842 4.384C12.6402 4.12889 12.9566 4.00089 13.3335 4H18.6668C19.0446 4 19.3615 4.128 19.6175 4.384C19.8735 4.64 20.0011 4.95644 20.0002 5.33333H25.3335C25.7113 5.33333 26.0282 5.46133 26.2842 5.71733C26.5402 5.97333 26.6677 6.28978 26.6668 6.66667C26.6659 7.04356 26.5379 7.36044 26.2828 7.61733C26.0277 7.87422 25.7113 8.00178 25.3335 8V25.3333C25.3335 26.0667 25.0726 26.6947 24.5508 27.2173C24.0291 27.74 23.4011 28.0009 22.6668 28H9.3335ZM13.3335 22.6667C13.7113 22.6667 14.0282 22.5387 14.2842 22.2827C14.5402 22.0267 14.6677 21.7102 14.6668 21.3333V12C14.6668 11.6222 14.5388 11.3058 14.2828 11.0507C14.0268 10.7956 13.7104 10.6676 13.3335 10.6667C12.9566 10.6658 12.6402 10.7938 12.3842 11.0507C12.1282 11.3076 12.0002 11.624 12.0002 12V21.3333C12.0002 21.7111 12.1282 22.028 12.3842 22.284C12.6402 22.54 12.9566 22.6676 13.3335 22.6667ZM18.6668 22.6667C19.0446 22.6667 19.3615 22.5387 19.6175 22.2827C19.8735 22.0267 20.0011 21.7102 20.0002 21.3333V12C20.0002 11.6222 19.8722 11.3058 19.6162 11.0507C19.3602 10.7956 19.0437 10.6676 18.6668 10.6667C18.2899 10.6658 17.9735 10.7938 17.7175 11.0507C17.4615 11.3076 17.3335 11.624 17.3335 12V21.3333C17.3335 21.7111 17.4615 22.028 17.7175 22.284C17.9735 22.54 18.2899 22.6676 18.6668 22.6667Z" fill="#D90D2F"/>
</g>
<defs>
<filter id="filter0_d_2491_5996" x="-1.87958" y="-1.87958" width="37.6387" height="37.6387" filterUnits="userSpaceOnUse" color-interpolation-filters="sRGB">
<feFlood flood-opacity="0" result="BackgroundImageFix"/>
<feColorMatrix in="SourceAlpha" type="matrix" values="0 0 0 0 0 0 0 0 0 0 0 0 0 0 0 0 0 0 127 0" result="hardAlpha"/>
<feOffset dx="0.939791" dy="0.939791"/>
<feGaussianBlur stdDeviation="1.40969"/>
<feColorMatrix type="matrix" values="0 0 0 0 0.988235 0 0 0 0 0.913725 0 0 0 0 0.929412 0 0 0 1 0"/>
<feBlend mode="normal" in2="BackgroundImageFix" result="effect1_dropShadow_2491_5996"/>
<feBlend mode="normal" in="SourceGraphic" in2="effect1_dropShadow_2491_5996" result="shape"/>
</filter>
</defs>
</svg>
