<svg width="21" height="21" viewBox="0 0 21 21" fill="none" xmlns="http://www.w3.org/2000/svg">
<path d="M0.65625 18.7031H2.625V20.3438H0.65625V18.7031Z" fill="#666666"/>
<path d="M0.65625 3.28125H2.625V18.0469H0.65625V3.28125Z" fill="#666666"/>
<path d="M1.64062 0.65625L0.65625 2.625H2.625L1.64062 0.65625Z" fill="#666666"/>
<path d="M3.28125 14.6406V18.1765C3.42989 18.313 3.58542 18.4397 3.75473 18.5447L3.28125 14.6406Z" fill="#666666"/>
<path d="M3.28125 7.71248C3.35803 7.45588 3.44105 7.20093 3.5385 6.95024C3.46106 6.80882 3.36919 6.62409 3.28125 6.41113V7.71248Z" fill="#666666"/>
<path d="M10.8286 1.96875C9.3038 1.96875 7.86334 2.27489 6.58496 2.82745C7.06271 3.45056 7.54735 4.24823 7.54735 4.92188C7.54735 5.75006 7.19101 6.53264 6.96198 6.95034C7.55326 8.47284 7.76687 10.1227 7.56999 11.7469L6.73721 18.6155C8.65773 17.0405 8.29384 11.4844 10.8286 11.4844C13.7817 11.4844 12.7974 19.0312 16.0786 19.0312C19.3599 19.0312 20.3442 15.4219 20.3442 10.5C20.3442 5.57812 16.0786 1.96875 10.8286 1.96875ZM10.8286 7.54688C9.7412 7.54688 8.85985 6.66553 8.85985 5.57812C8.85985 4.49072 9.7412 3.60938 10.8286 3.60938C11.916 3.60938 12.7974 4.49072 12.7974 5.57812C12.7974 6.66553 11.916 7.54688 10.8286 7.54688ZM14.1099 8.85938C14.1099 7.77197 14.9912 6.89062 16.0786 6.89062C17.166 6.89062 18.0474 7.77197 18.0474 8.85938C18.0474 9.94678 17.166 10.8281 16.0786 10.8281C14.9912 10.8281 14.1099 9.94678 14.1099 8.85938ZM17.063 16.0781C16.157 16.0781 15.4224 15.3435 15.4224 14.4375C15.4224 13.5315 16.157 12.7969 17.063 12.7969C17.9689 12.7969 18.7036 13.5315 18.7036 14.4375C18.7036 15.3435 17.9689 16.0781 17.063 16.0781Z" fill="#666666"/>
<path d="M6.23438 6.89062C6.23438 6.89062 6.89062 5.90625 6.89062 4.92188C6.89062 3.9375 5.25 2.29688 5.25 2.29688C5.25 2.29688 3.60938 3.9375 3.60938 4.92188C3.60938 5.90625 4.26562 6.89062 4.26562 6.89062H6.23438Z" fill="#666666"/>
<path d="M6.48396 7.54688H4.01581C3.56431 8.86791 3.41304 10.2762 3.5817 11.6681L4.51456 19.364C4.55984 19.7361 4.87549 20.0156 5.24988 20.0156C5.62428 20.0156 5.93993 19.7361 5.98521 19.3643L6.91807 11.6685C7.08673 10.2762 6.93546 8.86791 6.48396 7.54688Z" fill="#666666"/>
</svg>
