<svg width="24" height="24" viewBox="0 0 24 24" fill="none" xmlns="http://www.w3.org/2000/svg">
<path fill-rule="evenodd" clip-rule="evenodd" d="M13.0751 10.0712C12.6491 9.14295 11.351 9.14295 10.925 10.0712L9.84849 12.4164L7.39932 12.7612C6.37621 12.9052 6.06215 14.15 6.7307 14.8177L8.5391 16.624L8.08895 19.2063C7.92886 20.1246 8.88826 21.0057 9.83311 20.4723L12 19.2491L14.167 20.4723C15.1118 21.0057 16.0712 20.1246 15.9111 19.2063L15.461 16.624L17.2694 14.8177C17.9379 14.15 17.6239 12.9052 16.6008 12.7612L14.1516 12.4164L13.0751 10.0712ZM11.1426 13.1927L12 11.3247L12.8574 13.1927C13.0229 13.5531 13.36 13.8198 13.7698 13.8774L15.8019 14.1635L14.2955 15.668C14.0118 15.9514 13.8914 16.3543 13.9586 16.74L14.3244 18.8387L12.5759 17.8517C12.2178 17.6495 11.7823 17.6495 11.4242 17.8517L9.67565 18.8387L10.0415 16.74C10.1087 16.3544 9.98828 15.9514 9.7046 15.668L8.19822 14.1635L10.2303 13.8774C10.6401 13.8198 10.9772 13.5531 11.1426 13.1927Z" fill="#4D4D4D"/>
<path fill-rule="evenodd" clip-rule="evenodd" d="M0.75 7.5V20.25C0.75 21.9069 2.09314 23.25 3.75 23.25H20.25C21.9069 23.25 23.25 21.9069 23.25 20.25V5.625C23.25 3.96814 21.9069 2.625 20.25 2.625H18.75V1.5C18.75 1.08579 18.4142 0.75 18 0.75C17.5858 0.75 17.25 1.08579 17.25 1.5V2.625H6.75V1.5C6.75 1.08579 6.41423 0.75 6 0.75C5.58577 0.75 5.25 1.08579 5.25 1.5V2.625H3.75C2.09315 2.625 0.75 3.96814 0.75 5.625V7.5ZM6 4.125H3.75C2.92158 4.125 2.25 4.79659 2.25 5.625V6.75H21.75V5.625C21.75 4.79659 21.0784 4.125 20.25 4.125H6ZM21.75 20.25V8.25H2.25V20.25C2.25 21.0784 2.92157 21.75 3.75 21.75H20.25C21.0784 21.75 21.75 21.0784 21.75 20.25Z" fill="#4D4D4D"/>
</svg>
