<svg width="25" height="25" viewBox="0 0 25 25" fill="none" xmlns="http://www.w3.org/2000/svg">
<g clip-path="url(#clip0_1749_14031)">
<mask id="mask0_1749_14031" style="mask-type:luminance" maskUnits="userSpaceOnUse" x="0" y="-1" width="25" height="26">
<path d="M0.00146484 6.80826L17.7395 -0.000732422L24.5485 17.7373L6.81046 24.5463L0.00146484 6.80826Z" fill="white"/>
</mask>
<g mask="url(#mask0_1749_14031)">
<path d="M8.52359 12.4409L4.82816 13.8595C3.8097 14.2504 3.29877 15.398 3.68972 16.4164L5.95939 22.3291C6.35034 23.3476 7.49791 23.8585 8.51637 23.4676L10.7336 22.6164C11.7521 22.2255 12.263 21.0779 11.8721 20.0595L9.03498 12.6686C8.95668 12.4646 8.72757 12.3626 8.52359 12.4409ZM21.7824 10.5313C21.6119 10.0871 21.2764 9.74104 20.8551 9.55166C21.0553 9.0415 21.0366 8.46696 20.7858 7.95946C20.3388 7.05328 19.2095 6.64302 18.2154 7.0246L13.6508 8.77679C13.6127 8.00365 13.4917 6.60597 13.1036 5.5949C12.4882 3.99182 10.6066 3.16143 9.75147 3.48968C8.98356 3.78446 8.60085 4.42659 8.58429 4.45415C8.52329 4.55812 8.51389 4.68384 8.55701 4.79618L9.51878 7.30168L9.23898 11.5388C9.23082 11.67 9.28712 11.7968 9.39097 11.8773C9.56855 12.0152 9.69775 12.1861 9.77378 12.3842L12.6109 19.775C12.6792 19.9531 12.7281 20.1422 12.7604 20.3545C12.7931 20.57 12.9934 20.7187 13.2085 20.687C13.5611 20.6356 13.8945 20.5543 14.1451 20.4581L20.9291 17.8539C21.734 17.545 22.2301 16.7321 22.1075 15.9201C22.0447 15.5025 21.8452 15.133 21.5483 14.8611C21.989 14.3765 22.1401 13.6723 21.8941 13.0315C21.794 12.7706 21.6377 12.5423 21.4367 12.3591C21.8769 11.8755 22.0284 11.1721 21.7824 10.5313Z" fill="url(#paint0_linear_1749_14031)"/>
</g>
</g>
<defs>
<linearGradient id="paint0_linear_1749_14031" x1="9.01239" y1="3.77339" x2="15.5377" y2="20.7723" gradientUnits="userSpaceOnUse">
<stop stop-color="#F2F2F2"/>
<stop offset="1" stop-color="#FCE9ED"/>
</linearGradient>
<clipPath id="clip0_1749_14031">
<rect width="19" height="19" fill="white" transform="translate(0 6.80899) rotate(-21)"/>
</clipPath>
</defs>
</svg>
