<svg width="18" height="20" viewBox="0 0 18 20" fill="none" xmlns="http://www.w3.org/2000/svg">
<path d="M5.41667 2.16932C5.12935 2.16932 4.8538 2.28346 4.65063 2.48662C4.44747 2.68979 4.33333 2.96534 4.33333 3.25265C4.33333 3.53997 4.44747 3.81552 4.65063 4.01869C4.8538 4.22185 5.12935 4.33599 5.41667 4.33599C5.70398 4.33599 5.97953 4.22185 6.1827 4.01869C6.38586 3.81552 6.5 3.53997 6.5 3.25265C6.5 2.96534 6.38586 2.68979 6.1827 2.48662C5.97953 2.28346 5.70398 2.16932 5.41667 2.16932ZM2.35083 2.16932C2.57465 1.53499 2.98972 0.985708 3.53882 0.597177C4.08791 0.208645 4.74401 0 5.41667 0C6.08932 0 6.74542 0.208645 7.29452 0.597177C7.84362 0.985708 8.25868 1.53499 8.4825 2.16932H16.25C16.5373 2.16932 16.8129 2.28346 17.016 2.48662C17.2192 2.68979 17.3333 2.96534 17.3333 3.25265C17.3333 3.53997 17.2192 3.81552 17.016 4.01869C16.8129 4.22185 16.5373 4.33599 16.25 4.33599H8.4825C8.25868 4.97032 7.84362 5.5196 7.29452 5.90813C6.74542 6.29666 6.08932 6.50531 5.41667 6.50531C4.74401 6.50531 4.08791 6.29666 3.53882 5.90813C2.98972 5.5196 2.57465 4.97032 2.35083 4.33599H1.08333C0.796015 4.33599 0.520466 4.22185 0.317301 4.01869C0.114137 3.81552 0 3.53997 0 3.25265C0 2.96534 0.114137 2.68979 0.317301 2.48662C0.520466 2.28346 0.796015 2.16932 1.08333 2.16932H2.35083ZM11.9167 8.66932C11.6293 8.66932 11.3538 8.78346 11.1506 8.98662C10.9475 9.18979 10.8333 9.46534 10.8333 9.75266C10.8333 10.04 10.9475 10.3155 11.1506 10.5187C11.3538 10.7219 11.6293 10.836 11.9167 10.836C12.204 10.836 12.4795 10.7219 12.6827 10.5187C12.8859 10.3155 13 10.04 13 9.75266C13 9.46534 12.8859 9.18979 12.6827 8.98662C12.4795 8.78346 12.204 8.66932 11.9167 8.66932ZM8.85083 8.66932C9.07465 8.035 9.48972 7.48571 10.0388 7.09718C10.5879 6.70865 11.244 6.5 11.9167 6.5C12.5893 6.5 13.2454 6.70865 13.7945 7.09718C14.3436 7.48571 14.7587 8.035 14.9825 8.66932H16.25C16.5373 8.66932 16.8129 8.78346 17.016 8.98662C17.2192 9.18979 17.3333 9.46534 17.3333 9.75266C17.3333 10.04 17.2192 10.3155 17.016 10.5187C16.8129 10.7219 16.5373 10.836 16.25 10.836H14.9825C14.7587 11.4703 14.3436 12.0196 13.7945 12.4081C13.2454 12.7967 12.5893 13.0053 11.9167 13.0053C11.244 13.0053 10.5879 12.7967 10.0388 12.4081C9.48972 12.0196 9.07465 11.4703 8.85083 10.836H1.08333C0.796015 10.836 0.520466 10.7219 0.317301 10.5187C0.114137 10.3155 0 10.04 0 9.75266C0 9.46534 0.114137 9.18979 0.317301 8.98662C0.520466 8.78346 0.796015 8.66932 1.08333 8.66932H8.85083ZM5.41667 15.1693C5.12935 15.1693 4.8538 15.2835 4.65063 15.4866C4.44747 15.6898 4.33333 15.9653 4.33333 16.2527C4.33333 16.54 4.44747 16.8155 4.65063 17.0187C4.8538 17.2219 5.12935 17.336 5.41667 17.336C5.70398 17.336 5.97953 17.2219 6.1827 17.0187C6.38586 16.8155 6.5 16.54 6.5 16.2527C6.5 15.9653 6.38586 15.6898 6.1827 15.4866C5.97953 15.2835 5.70398 15.1693 5.41667 15.1693ZM2.35083 15.1693C2.57465 14.535 2.98972 13.9857 3.53882 13.5972C4.08791 13.2086 4.74401 13 5.41667 13C6.08932 13 6.74542 13.2086 7.29452 13.5972C7.84362 13.9857 8.25868 14.535 8.4825 15.1693H16.25C16.5373 15.1693 16.8129 15.2835 17.016 15.4866C17.2192 15.6898 17.3333 15.9653 17.3333 16.2527C17.3333 16.54 17.2192 16.8155 17.016 17.0187C16.8129 17.2219 16.5373 17.336 16.25 17.336H8.4825C8.25868 17.9703 7.84362 18.5196 7.29452 18.9081C6.74542 19.2967 6.08932 19.5053 5.41667 19.5053C4.74401 19.5053 4.08791 19.2967 3.53882 18.9081C2.98972 18.5196 2.57465 17.9703 2.35083 17.336H1.08333C0.796015 17.336 0.520466 17.2219 0.317301 17.0187C0.114137 16.8155 0 16.54 0 16.2527C0 15.9653 0.114137 15.6898 0.317301 15.4866C0.520466 15.2835 0.796015 15.1693 1.08333 15.1693H2.35083Z" fill="white"/>
</svg>
