<svg width="24" height="24" viewBox="0 0 24 24" fill="none" xmlns="http://www.w3.org/2000/svg">
<path d="M10.7963 11.76V12.6888C10.8157 13.2907 10.6715 13.8867 10.3789 14.4131C10.1033 14.8869 9.69705 15.2712 9.20878 15.5202C8.68553 15.7866 8.10283 15.9198 7.51656 15.9067C6.85918 15.9206 6.21005 15.7584 5.63645 15.437C5.09614 15.1198 4.66044 14.6514 4.38305 14.0896C4.06237 13.4408 3.90442 12.7237 3.92283 12.0002C3.9157 11.4378 4.00607 10.8788 4.19397 10.3496C4.35635 9.89386 4.61282 9.47734 4.94672 9.12716C5.26661 8.79062 5.65429 8.52781 6.08478 8.35419C6.52953 8.17581 7.0064 8.08662 7.48564 8.09256C7.89353 8.09019 8.29905 8.15321 8.68672 8.28165C9.03991 8.40056 9.37169 8.57656 9.6678 8.8037C9.95321 9.02965 10.1946 9.30554 10.3789 9.61829C10.5633 9.93937 10.6834 10.2961 10.7333 10.6624H9.09461C9.05102 10.4923 8.98078 10.3301 8.88651 10.182C8.79513 10.043 8.67808 9.92272 8.54164 9.82759C8.40349 9.72343 8.24755 9.64525 8.08142 9.59689C7.89293 9.55568 7.69951 9.54166 7.50705 9.55527C7.1384 9.54338 6.77569 9.64208 6.46294 9.8371C6.15919 10.0474 5.92325 10.3416 5.78391 10.6838C5.60553 11.1095 5.51872 11.5698 5.53299 12.0312C5.52348 12.4926 5.60434 12.9504 5.77321 13.3785C5.91948 13.7198 6.15851 14.0123 6.46294 14.2252C6.77213 14.4274 7.13721 14.5296 7.50705 14.5178C7.82813 14.5273 8.14802 14.4583 8.43699 14.3192C8.69923 14.1945 8.91498 13.9896 9.05299 13.7341C9.18143 13.4891 9.24921 13.2168 9.25159 12.9397H7.57959V11.76H10.7963ZM13.7241 8.33278V15.7188C13.7235 15.7462 13.7125 15.7723 13.6932 15.7918C13.674 15.8112 13.648 15.8226 13.6207 15.8235H12.221C12.2069 15.825 12.1926 15.8233 12.1792 15.8186C12.1659 15.8138 12.1537 15.8062 12.1437 15.7961C12.1337 15.7861 12.126 15.774 12.1213 15.7606C12.1165 15.7472 12.1149 15.7329 12.1163 15.7188V8.33397C12.1138 8.31246 12.1186 8.29072 12.1301 8.27234C12.1415 8.25396 12.1589 8.24005 12.1794 8.23289C12.1929 8.22925 12.207 8.22805 12.221 8.22932H13.6207C13.648 8.22991 13.6741 8.24097 13.6936 8.26021C13.7131 8.27946 13.7244 8.30543 13.7253 8.33278M15.0429 15.7188V8.33397C15.0435 8.30641 15.0548 8.28014 15.0743 8.26064C15.0938 8.24115 15.12 8.22993 15.1476 8.22932H20.078V9.55527H16.7982C16.7706 9.55587 16.7444 9.56709 16.7249 9.58659C16.7054 9.60608 16.6941 9.63235 16.6935 9.65992V11.2582C16.6966 11.2849 16.7086 11.3098 16.7276 11.3288C16.7466 11.3478 16.7715 11.3598 16.7982 11.3628H19.7854V12.6888H16.7982C16.7706 12.6894 16.7444 12.7006 16.7249 12.7201C16.7054 12.7396 16.6941 12.7659 16.6935 12.7934V15.7188C16.695 15.7329 16.6934 15.7472 16.6886 15.7606C16.6839 15.774 16.6762 15.7861 16.6662 15.7962C16.6562 15.8062 16.644 15.8138 16.6306 15.8186C16.6173 15.8233 16.603 15.825 16.5889 15.8235H15.1892C15.1725 15.8306 15.1542 15.8334 15.1361 15.8315C15.118 15.8297 15.1007 15.8232 15.0857 15.8128C15.0713 15.802 15.0598 15.7877 15.0523 15.7713C15.0448 15.7549 15.0416 15.7368 15.0429 15.7188Z" fill="#4D4D4D"/>
<path d="M17.5 2.18896H6.5C3.46281 2.18896 1 4.62918 1 7.63902V16.3605C1 19.3704 3.46162 21.8106 6.5 21.8106H17.5C20.5372 21.8106 23 19.3704 23 16.3605V7.63902C23 4.62918 20.5384 2.18896 17.5 2.18896Z" stroke="#4D4D4D" stroke-width="1.78378" stroke-linecap="round" stroke-linejoin="round"/>
</svg>
