<svg width="24" height="24" viewBox="0 0 24 24" fill="none" xmlns="http://www.w3.org/2000/svg">
<g clip-path="url(#clip0_1345_11026)">
<path fill-rule="evenodd" clip-rule="evenodd" d="M16.6815 9.8629C12.9169 9.8629 9.8629 12.9183 9.8629 16.6815C9.8629 20.4446 12.9169 23.5 16.6815 23.5C20.446 23.5 23.5 20.4446 23.5 16.6815C23.5 12.9183 20.446 9.8629 16.6815 9.8629ZM17.0403 2.68548H6.27419V1.96774C6.27419 1.57155 5.95121 1.25 5.55645 1.25C5.16169 1.25 4.83871 1.57155 4.83871 1.96774V2.68548H4.12097C3.36016 2.68548 2.6281 2.98801 2.08979 3.52632C1.55148 4.06463 1.25 4.79493 1.25 5.55645V19.1935C1.25 19.9551 1.55148 20.6854 2.08979 21.2237C2.6281 21.762 3.36016 22.0645 4.12097 22.0645H9.8629C10.2577 22.0645 10.5806 21.743 10.5806 21.3468C10.5806 20.9506 10.2577 20.629 9.8629 20.629H4.12097C3.74056 20.629 3.37449 20.4779 3.10533 20.2084C2.83618 19.9393 2.68548 19.5743 2.68548 19.1935V6.99194H20.629V9.8629C20.629 10.2591 20.952 10.5806 21.3468 10.5806C21.7415 10.5806 22.0645 10.2591 22.0645 9.8629V5.55645C22.0645 4.79493 21.763 4.06463 21.2247 3.52632C20.6864 2.98801 19.9544 2.68548 19.1935 2.68548H18.4758V1.96774C18.4758 1.57155 18.1528 1.25 17.7581 1.25C17.3633 1.25 17.0403 1.57155 17.0403 1.96774V2.68548ZM16.6815 11.2984C19.6529 11.2984 22.0645 13.7104 22.0645 16.6815C22.0645 19.6525 19.6529 22.0645 16.6815 22.0645C13.71 22.0645 11.2984 19.6525 11.2984 16.6815C11.2984 13.7104 13.71 11.2984 16.6815 11.2984ZM19.1935 15.9637H17.3992V12.7339C17.3992 12.3377 17.0762 12.0161 16.6815 12.0161C16.2867 12.0161 15.9637 12.3377 15.9637 12.7339V16.6815C15.9637 17.078 16.2831 17.3992 16.6815 17.3992H19.1935C19.5883 17.3992 19.9113 17.0776 19.9113 16.6815C19.9113 16.2853 19.5883 15.9637 19.1935 15.9637ZM20.629 5.55645C20.629 5.17569 20.4783 4.81072 20.2092 4.54156C19.94 4.27205 19.574 4.12097 19.1935 4.12097H4.12097C3.74056 4.12097 3.37449 4.27205 3.10533 4.54156C2.83618 4.81072 2.68548 5.17569 2.68548 5.55645H11.6573H20.629Z" fill="#4D4D4D"/>
</g>
<defs>
<clipPath id="clip0_1345_11026">
<rect width="24" height="24" fill="white"/>
</clipPath>
</defs>
</svg>
