<svg width="10" height="10" viewBox="0 0 10 10" fill="none" xmlns="http://www.w3.org/2000/svg">
<mask id="path-1-inside-1_2822_8625" fill="white">
<path d="M4.79836 0C5.59233 0 6.23671 0.655114 6.23671 1.45859V3.34058H8.16164C8.95397 3.34058 9.6 3.99569 9.6 4.79917C9.6 5.60264 8.95397 6.25775 8.16164 6.25775H6.23671V8.14141C6.23671 8.94489 5.59233 9.6 4.79836 9.6C4.00603 9.6 3.36 8.94489 3.36 8.14141V6.25775H1.43836C0.644383 6.25775 0 5.60264 0 4.79917C0 3.99569 0.644383 3.34058 1.43836 3.34058H3.36V1.45859C3.36 0.655114 4.00603 0 4.79836 0Z"/>
</mask>
<path d="M4.79836 0C5.59233 0 6.23671 0.655114 6.23671 1.45859V3.34058H8.16164C8.95397 3.34058 9.6 3.99569 9.6 4.79917C9.6 5.60264 8.95397 6.25775 8.16164 6.25775H6.23671V8.14141C6.23671 8.94489 5.59233 9.6 4.79836 9.6C4.00603 9.6 3.36 8.94489 3.36 8.14141V6.25775H1.43836C0.644383 6.25775 0 5.60264 0 4.79917C0 3.99569 0.644383 3.34058 1.43836 3.34058H3.36V1.45859C3.36 0.655114 4.00603 0 4.79836 0Z" fill="white"/>
<path d="M6.23671 3.34058H1.22071V8.35658H6.23671V3.34058ZM6.23671 6.25775V1.24175H1.22071V6.25775H6.23671ZM3.36 6.25775H8.376V1.24175H3.36V6.25775ZM3.36 3.34058V8.35658H8.376V3.34058H3.36ZM4.79836 0V5.016C2.75255 5.016 1.22071 3.35534 1.22071 1.45859H6.23671H11.2527C11.2527 -2.04512 8.43211 -5.016 4.79836 -5.016V0ZM6.23671 1.45859H1.22071V3.34058H6.23671H11.2527V1.45859H6.23671ZM6.23671 3.34058V8.35658H8.16164V3.34058V-1.67542H6.23671V3.34058ZM8.16164 3.34058V8.35658C6.1179 8.35658 4.584 6.69968 4.584 4.79917H9.6H14.616C14.616 1.29171 11.79 -1.67542 8.16164 -1.67542V3.34058ZM9.6 4.79917H4.584C4.584 2.89865 6.1179 1.24175 8.16164 1.24175V6.25775V11.2738C11.79 11.2738 14.616 8.30663 14.616 4.79917H9.6ZM8.16164 6.25775V1.24175H6.23671V6.25775V11.2738H8.16164V6.25775ZM6.23671 6.25775H1.22071V8.14141H6.23671H11.2527V6.25775H6.23671ZM6.23671 8.14141H1.22071C1.22071 6.24465 2.75255 4.584 4.79836 4.584V9.6V14.616C8.4321 14.616 11.2527 11.6451 11.2527 8.14141H6.23671ZM4.79836 9.6V4.584C6.84211 4.584 8.376 6.24091 8.376 8.14141H3.36H-1.656C-1.656 11.6489 1.16994 14.616 4.79836 14.616V9.6ZM3.36 8.14141H8.376V6.25775H3.36H-1.656V8.14141H3.36ZM3.36 6.25775V1.24175H1.43836V6.25775V11.2738H3.36V6.25775ZM1.43836 6.25775V1.24175C3.48416 1.24175 5.016 2.90241 5.016 4.79917H0H-5.016C-5.016 8.30287 -2.1954 11.2738 1.43836 11.2738V6.25775ZM0 4.79917H5.016C5.016 6.69592 3.48417 8.35658 1.43836 8.35658V3.34058V-1.67542C-2.1954 -1.67542 -5.016 1.29547 -5.016 4.79917H0ZM1.43836 3.34058V8.35658H3.36V3.34058V-1.67542H1.43836V3.34058ZM3.36 3.34058H8.376V1.45859H3.36H-1.656V3.34058H3.36ZM3.36 1.45859H8.376C8.376 3.35909 6.84212 5.016 4.79836 5.016V0V-5.016C1.16994 -5.016 -1.656 -2.04886 -1.656 1.45859H3.36Z" fill="white" mask="url(#path-1-inside-1_2822_8625)"/>
</svg>
