<svg width="23" height="23" viewBox="0 0 23 23" fill="none" xmlns="http://www.w3.org/2000/svg">
<path fill-rule="evenodd" clip-rule="evenodd" d="M12.3251 9.32115C11.8991 8.39295 10.601 8.39295 10.175 9.32115L9.09849 11.6664L6.64932 12.0112C5.62621 12.1552 5.31215 13.4 5.9807 14.0677L7.7891 15.874L7.33895 18.4563C7.17886 19.3746 8.13826 20.2557 9.08311 19.7223L11.25 18.4991L13.417 19.7223C14.3618 20.2557 15.3212 19.3746 15.1611 18.4563L14.711 15.874L16.5194 14.0677C17.1879 13.4 16.8739 12.1552 15.8508 12.0112L13.4016 11.6664L12.3251 9.32115ZM10.3926 12.4427L11.25 10.5747L12.1074 12.4427C12.2729 12.8031 12.61 13.0698 13.0198 13.1274L15.0519 13.4135L13.5455 14.918C13.2618 15.2014 13.1414 15.6043 13.2086 15.99L13.5744 18.0887L11.8259 17.1017C11.4678 16.8995 11.0323 16.8995 10.6742 17.1017L8.92565 18.0887L9.2915 15.99C9.35874 15.6044 9.23828 15.2014 8.9546 14.918L7.44822 13.4135L9.48031 13.1274C9.89011 13.0698 10.2272 12.8031 10.3926 12.4427Z" fill="#EB7A91"/>
<path fill-rule="evenodd" clip-rule="evenodd" d="M0 6.75V19.5C0 21.1569 1.34314 22.5 3 22.5H19.5C21.1569 22.5 22.5 21.1569 22.5 19.5V4.875C22.5 3.21814 21.1569 1.875 19.5 1.875H18V0.75C18 0.335786 17.6642 0 17.25 0C16.8358 0 16.5 0.335786 16.5 0.75V1.875H6V0.75C6 0.335786 5.66423 0 5.25 0C4.83577 0 4.5 0.335786 4.5 0.75V1.875H3C1.34315 1.875 0 3.21814 0 4.875V6.75ZM5.25 3.375H3C2.17158 3.375 1.5 4.04659 1.5 4.875V6H21V4.875C21 4.04659 20.3284 3.375 19.5 3.375H5.25ZM21 19.5V7.5H1.5V19.5C1.5 20.3284 2.17157 21 3 21H19.5C20.3284 21 21 20.3284 21 19.5Z" fill="#EB7A91"/>
</svg>
