<svg width="23" height="23" viewBox="0 0 23 23" fill="none" xmlns="http://www.w3.org/2000/svg">
<path fill-rule="evenodd" clip-rule="evenodd" d="M15.4315 8.6129C11.6669 8.6129 8.6129 11.6683 8.6129 15.4315C8.6129 19.1946 11.6669 22.25 15.4315 22.25C19.196 22.25 22.25 19.1946 22.25 15.4315C22.25 11.6683 19.196 8.6129 15.4315 8.6129ZM15.7903 1.43548H5.02419V0.717742C5.02419 0.321548 4.70121 0 4.30645 0C3.91169 0 3.58871 0.321548 3.58871 0.717742V1.43548H2.87097C2.11016 1.43548 1.3781 1.73801 0.83979 2.27632C0.301483 2.81463 0 3.54493 0 4.30645V17.9435C0 18.7051 0.301483 19.4354 0.83979 19.9737C1.3781 20.512 2.11016 20.8145 2.87097 20.8145H8.6129C9.00766 20.8145 9.33064 20.493 9.33064 20.0968C9.33064 19.7006 9.00766 19.379 8.6129 19.379H2.87097C2.49056 19.379 2.12449 19.2279 1.85533 18.9584C1.58618 18.6893 1.43548 18.3243 1.43548 17.9435V5.74194H19.379V8.6129C19.379 9.0091 19.702 9.33064 20.0968 9.33064C20.4915 9.33064 20.8145 9.0091 20.8145 8.6129V4.30645C20.8145 3.54493 20.513 2.81463 19.9747 2.27632C19.4364 1.73801 18.7044 1.43548 17.9435 1.43548H17.2258V0.717742C17.2258 0.321548 16.9028 0 16.5081 0C16.1133 0 15.7903 0.321548 15.7903 0.717742V1.43548ZM15.4315 10.0484C18.4029 10.0484 20.8145 12.4604 20.8145 15.4315C20.8145 18.4025 18.4029 20.8145 15.4315 20.8145C12.46 20.8145 10.0484 18.4025 10.0484 15.4315C10.0484 12.4604 12.46 10.0484 15.4315 10.0484ZM17.9435 14.7137H16.1492V11.4839C16.1492 11.0877 15.8262 10.7661 15.4315 10.7661C15.0367 10.7661 14.7137 11.0877 14.7137 11.4839V15.4315C14.7137 15.828 15.0331 16.1492 15.4315 16.1492H17.9435C18.3383 16.1492 18.6613 15.8276 18.6613 15.4315C18.6613 15.0353 18.3383 14.7137 17.9435 14.7137ZM19.379 4.30645C19.379 3.92569 19.2283 3.56072 18.9592 3.29156C18.69 3.02205 18.324 2.87097 17.9435 2.87097H2.87097C2.49056 2.87097 2.12449 3.02205 1.85533 3.29156C1.58618 3.56072 1.43548 3.92569 1.43548 4.30645H10.4073H19.379Z" fill="#F6B551"/>
</svg>
