<svg width="22" height="13" viewBox="0 0 22 13" fill="none" xmlns="http://www.w3.org/2000/svg">
<path d="M15.1665 7.58334L20.8248 11.3555C20.9063 11.4098 21.0011 11.4409 21.099 11.4456C21.1968 11.4503 21.2941 11.4283 21.3805 11.3821C21.4669 11.3358 21.5391 11.267 21.5895 11.183C21.6398 11.0989 21.6665 11.0028 21.6665 10.9048V2.02584C21.6665 1.93053 21.6414 1.8369 21.5937 1.7544C21.546 1.67191 21.4773 1.60347 21.3947 1.55599C21.312 1.50852 21.2183 1.48369 21.123 1.48401C21.0277 1.48434 20.9342 1.5098 20.8518 1.55784L15.1665 4.875" fill="url(#paint0_linear_1025_7277)"/>
<path d="M13 0H2.16667C0.97005 0 0 0.97005 0 2.16667V10.8333C0 12.03 0.97005 13 2.16667 13H13C14.1966 13 15.1667 12.03 15.1667 10.8333V2.16667C15.1667 0.97005 14.1966 0 13 0Z" fill="url(#paint1_linear_1025_7277)"/>
<defs>
<linearGradient id="paint0_linear_1025_7277" x1="15.1665" y1="1.48401" x2="25.5242" y2="11.685" gradientUnits="userSpaceOnUse">
<stop stop-color="#EB7A91"/>
<stop offset="1" stop-color="#AC1A37"/>
</linearGradient>
<linearGradient id="paint1_linear_1025_7277" x1="0" y1="0" x2="11.6086" y2="20.4433" gradientUnits="userSpaceOnUse">
<stop stop-color="#EB7A91"/>
<stop offset="1" stop-color="#AC1A37"/>
</linearGradient>
</defs>
</svg>
