<svg width="24" height="22" viewBox="0 0 24 22" fill="none" xmlns="http://www.w3.org/2000/svg">
<g filter="url(#filter0_d_1025_6253)">
<path d="M17.2634 7.09219H12.859L13.8213 4.68975C13.9612 4.34759 13.9974 3.97187 13.9255 3.60929C13.8536 3.2467 13.6767 2.91324 13.4169 2.65035C13.27 2.50373 13.0929 2.39084 12.898 2.31951C12.7031 2.24818 12.495 2.22011 12.2881 2.23725C12.0813 2.25439 11.8806 2.31634 11.7001 2.41878C11.5196 2.52123 11.3635 2.66173 11.2427 2.83053L8.66548 6.42885C8.28177 6.96494 7.85504 7.46889 7.38954 7.93572L6.56605 8.75388C6.5283 8.79123 6.49836 8.83572 6.47796 8.88476C6.45757 8.93379 6.44714 8.9864 6.44727 9.03951V15.2311C6.44714 15.2842 6.45757 15.3368 6.47796 15.3859C6.49836 15.4349 6.5283 15.4794 6.56605 15.5168L7.48831 16.443C7.72332 16.6794 8.00286 16.8668 8.31076 16.9944C8.61866 17.122 8.9488 17.1873 9.2821 17.1865H14.2964C14.692 17.1858 15.079 17.0707 15.4106 16.8549C15.7421 16.6391 16.0042 16.332 16.165 15.9705L18.6221 10.4423C18.7795 10.0895 18.8605 9.70742 18.8597 9.32112V8.69382C18.8597 8.26904 18.6909 7.86166 18.3906 7.5613C18.0902 7.26094 17.6828 7.09219 17.2581 7.09219H17.2634Z" fill="#B3B3B3"/>
</g>
<g filter="url(#filter1_d_1025_6253)">
<path d="M3.68588 8.21375C3.49456 8.21374 3.30512 8.25152 3.12844 8.32489C2.95175 8.39827 2.79128 8.50581 2.65625 8.64134C2.52121 8.77688 2.41426 8.93774 2.34153 9.1147C2.2688 9.29166 2.23173 9.48124 2.23243 9.67256V15.1448C2.23243 15.5303 2.38556 15.9 2.65814 16.1726C2.93071 16.4451 3.3004 16.5983 3.68588 16.5983C4.07136 16.5983 4.44105 16.4451 4.71363 16.1726C4.9862 15.9 5.13933 15.5303 5.13933 15.1448V9.67256C5.13933 9.28708 4.9862 8.91738 4.71363 8.6448C4.44105 8.37222 4.07136 8.21908 3.68588 8.21908V8.21375Z" fill="#B3B3B3"/>
</g>
<defs>
<filter id="filter0_d_1025_6253" x="4.21491" y="6.31809e-06" width="19.1097" height="21.6512" filterUnits="userSpaceOnUse" color-interpolation-filters="sRGB">
<feFlood flood-opacity="0" result="BackgroundImageFix"/>
<feColorMatrix in="SourceAlpha" type="matrix" values="0 0 0 0 0 0 0 0 0 0 0 0 0 0 0 0 0 0 127 0" result="hardAlpha"/>
<feOffset dx="1.11618" dy="1.11618"/>
<feGaussianBlur stdDeviation="1.67427"/>
<feColorMatrix type="matrix" values="0 0 0 0 0.819242 0 0 0 0 0.736146 0 0 0 0 0.925 0 0 0 1 0"/>
<feBlend mode="normal" in2="BackgroundImageFix" result="effect1_dropShadow_1025_6253"/>
<feBlend mode="normal" in="SourceGraphic" in2="effect1_dropShadow_1025_6253" result="shape"/>
</filter>
<filter id="filter1_d_1025_6253" x="6.73532e-05" y="5.98139" width="9.6038" height="15.0816" filterUnits="userSpaceOnUse" color-interpolation-filters="sRGB">
<feFlood flood-opacity="0" result="BackgroundImageFix"/>
<feColorMatrix in="SourceAlpha" type="matrix" values="0 0 0 0 0 0 0 0 0 0 0 0 0 0 0 0 0 0 127 0" result="hardAlpha"/>
<feOffset dx="1.11618" dy="1.11618"/>
<feGaussianBlur stdDeviation="1.67427"/>
<feColorMatrix type="matrix" values="0 0 0 0 0.819242 0 0 0 0 0.736146 0 0 0 0 0.925 0 0 0 1 0"/>
<feBlend mode="normal" in2="BackgroundImageFix" result="effect1_dropShadow_1025_6253"/>
<feBlend mode="normal" in="SourceGraphic" in2="effect1_dropShadow_1025_6253" result="shape"/>
</filter>
</defs>
</svg>
