<svg width="24" height="21" viewBox="0 0 24 21" fill="none" xmlns="http://www.w3.org/2000/svg">
<path d="M7.63647 7.63637C7.63647 8.50436 7.98128 9.33679 8.59503 9.95054C9.20879 10.5643 10.0412 10.9091 10.9092 10.9091C11.7772 10.9091 12.6096 10.5643 13.2234 9.95054C13.8371 9.33679 14.1819 8.50436 14.1819 7.63637C14.1819 6.76839 13.8371 5.93596 13.2234 5.32221C12.6096 4.70845 11.7772 4.36365 10.9092 4.36365C10.0412 4.36365 9.20879 4.70845 8.59503 5.32221C7.98128 5.93596 7.63647 6.76839 7.63647 7.63637Z" stroke="#4D4D4D" stroke-width="2.18182" stroke-linecap="round" stroke-linejoin="round"/>
<path d="M18.5449 0C19.4127 0 20.2457 0.344505 20.8594 0.958008C21.4731 1.5717 21.8183 2.40458 21.8184 3.27246V8.18164C21.8184 8.78401 21.3299 9.27227 20.7275 9.27246C20.1251 9.27241 19.6367 8.7841 19.6367 8.18164V3.27246C19.6366 2.98323 19.5209 2.7055 19.3164 2.50098C19.1119 2.29664 18.8341 2.18164 18.5449 2.18164H3.27246C2.98323 2.18171 2.7055 2.29646 2.50098 2.50098C2.29646 2.7055 2.18171 2.98323 2.18164 3.27246V12C2.18166 12.2892 2.2965 12.5669 2.50098 12.7715C2.7055 12.976 2.98323 13.0907 3.27246 13.0908H11.1816C11.7841 13.0908 12.2724 13.5792 12.2725 14.1816C12.2725 14.7841 11.7841 15.2725 11.1816 15.2725H3.27246C2.40458 15.2724 1.5717 14.9281 0.958008 14.3145C0.34436 13.7007 2.34233e-05 12.8679 0 12V3.27246C7.34446e-05 2.40458 0.344318 1.5717 0.958008 0.958008C1.5717 0.344319 2.40458 7.04505e-05 3.27246 0H18.5449ZM4.37402 6.54492C4.97648 6.54492 5.46577 7.03427 5.46582 7.63672C5.46558 8.23901 4.97637 8.72754 4.37402 8.72754H4.36328C3.7611 8.72735 3.2727 8.23889 3.27246 7.63672C3.27251 7.03439 3.76099 6.54511 4.36328 6.54492H4.37402ZM17.4658 6.54492C18.0681 6.54517 18.5566 7.03442 18.5566 7.63672C18.5564 8.23886 18.068 8.72729 17.4658 8.72754H17.4541C16.852 8.7273 16.3635 8.23886 16.3633 7.63672C16.3633 7.03442 16.8518 6.54516 17.4541 6.54492H17.4658Z" fill="#4D4D4D"/>
<path d="M18.5454 13.632V15.2727L19.6363 16.3636" stroke="#4D4D4D" stroke-width="2.18182" stroke-linecap="round" stroke-linejoin="round"/>
<path d="M18.5449 9.81821C19.9915 9.81821 21.3794 10.393 22.4023 11.4159C23.4251 12.4387 23.9999 13.8259 24 15.2723C24 16.7189 23.4253 18.1068 22.4023 19.1297C21.3794 20.1526 19.9915 20.7274 18.5449 20.7274C17.0985 20.7272 15.7113 20.1524 14.6885 19.1297C13.6656 18.1068 13.0908 16.7189 13.0908 15.2723C13.0909 13.8259 13.6657 12.4387 14.6885 11.4159C15.7113 10.3931 17.0985 9.81835 18.5449 9.81821ZM18.5449 11.9998C17.6771 12 16.8451 12.3452 16.2314 12.9588C15.6178 13.5725 15.2726 14.4045 15.2725 15.2723C15.2725 16.1402 15.6178 16.973 16.2314 17.5868C16.8451 18.2003 17.6772 18.5456 18.5449 18.5457C19.4129 18.5457 20.2456 18.2005 20.8594 17.5868C21.4731 16.973 21.8184 16.1403 21.8184 15.2723C21.8182 14.4045 21.4729 13.5725 20.8594 12.9588C20.2456 12.3452 19.4128 11.9998 18.5449 11.9998Z" fill="#4D4D4D"/>
</svg>
