<svg width="20" height="21" viewBox="0 0 20 21" fill="none" xmlns="http://www.w3.org/2000/svg">
<path fill-rule="evenodd" clip-rule="evenodd" d="M9.69953 0C9.30171 0 8.92018 0.158035 8.63887 0.43934C8.35757 0.720644 8.19953 1.10218 8.19953 1.5V1.65C6.50549 1.9958 4.98294 2.91627 3.88957 4.25565C2.79621 5.59502 2.19918 7.27102 2.19953 9V15L0.392033 16.992C-0.482467 17.9565 0.201534 19.5 1.50203 19.5H7.10153C7.36485 19.956 7.74356 20.3347 8.1996 20.598C8.65564 20.8613 9.17295 20.9999 9.69953 20.9999C10.2261 20.9999 10.7434 20.8613 11.1995 20.598C11.6555 20.3347 12.0342 19.956 12.2975 19.5H17.897C19.1975 19.5 19.8815 17.955 19.007 16.992L17.1995 15V9C17.1999 7.27102 16.6029 5.59502 15.5095 4.25565C14.4161 2.91627 12.8936 1.9958 11.1995 1.65V1.5C11.1995 1.10218 11.0415 0.720644 10.7602 0.43934C10.4789 0.158035 10.0974 0 9.69953 0ZM4.44953 15.87L3.86453 16.512L3.19553 17.25H16.2035L15.533 16.512L14.9495 15.8685V9C14.9495 8.31056 14.8137 7.62787 14.5499 6.99091C14.2861 6.35395 13.8994 5.7752 13.4118 5.28769C12.9243 4.80018 12.3456 4.41347 11.7086 4.14963C11.0717 3.88579 10.389 3.75 9.69953 3.75C9.01009 3.75 8.3274 3.88579 7.69045 4.14963C7.05349 4.41347 6.47473 4.80018 5.98722 5.28769C5.49972 5.7752 5.113 6.35395 4.84917 6.99091C4.58533 7.62787 4.44953 8.31056 4.44953 9V15.87Z" fill="#4D4D4D"/>
</svg>
