<svg width="18" height="19" viewBox="0 0 18 19" fill="none" xmlns="http://www.w3.org/2000/svg">
<g clip-path="url(#clip0_344_3)">
<path d="M16.3464 18.0104H8.41091C7.49539 18.0104 6.75049 17.2659 6.75049 16.3504V11.4146C6.75049 10.499 7.49539 9.75452 8.41091 9.75452H16.3464C17.2619 9.75452 18.0068 10.499 18.0068 11.4146V16.3504C18.0067 17.2659 17.2619 18.0104 16.3464 18.0104ZM8.41091 11.2546C8.32226 11.2546 8.25049 11.3264 8.25049 11.4146V16.3505C8.25049 16.4387 8.32226 16.5105 8.41091 16.5105H16.3464C16.435 16.5105 16.5068 16.4387 16.5068 16.3505V11.4146C16.5068 11.3264 16.435 11.2546 16.3464 11.2546H8.41091Z" fill="#4D4D4D"/>
<path d="M15.0088 15.7546H13.5007C13.0866 15.7546 12.7507 15.4187 12.7507 15.0046C12.7507 14.5904 13.0866 14.2546 13.5007 14.2546H15.0088C15.4229 14.2546 15.7588 14.5904 15.7588 15.0046C15.7588 15.4187 15.4229 15.7546 15.0088 15.7546Z" fill="#4D4D4D"/>
<path d="M6.02552 9.00753H6.02297L2.9977 8.99658C2.58317 8.99508 2.24882 8.65818 2.25025 8.24403C2.25175 7.83056 2.58715 7.49658 3.00025 7.49658H3.0028L6.02815 7.50753C6.44267 7.50903 6.77702 7.84593 6.7756 8.26008C6.7741 8.67356 6.43862 9.00753 6.02552 9.00753Z" fill="#4D4D4D"/>
<path d="M5.26449 11.2576H3.00024C2.58609 11.2576 2.25024 10.9218 2.25024 10.5076C2.25024 10.0935 2.58609 9.75757 3.00024 9.75757H5.26449C5.67864 9.75757 6.01449 10.0935 6.01449 10.5076C6.01449 10.9218 5.67864 11.2576 5.26449 11.2576Z" fill="#4D4D4D"/>
<path d="M14.1683 3.63L12.4508 0.3975C12.3233 0.1575 12.0683 0 11.7908 0H2.46832C2.19082 0 1.93582 0.1575 1.80082 0.3975L0.0833238 3.63C0.00832378 3.7725 -0.0141762 3.9225 0.00832386 4.065C0.000823857 4.08 0.000823864 4.1025 0.000823864 4.1175V15.0075C0.000823864 15.42 0.330824 15.7575 0.750824 15.7575H5.22832C5.64082 15.7575 5.97832 15.42 5.97832 15.0075C5.97832 14.595 5.64082 14.2575 5.22832 14.2575H1.50082V4.8675H3.93832H6.37582V5.79C6.37582 6.2025 6.71332 6.54 7.12582 6.54C7.53832 6.54 7.87582 6.2025 7.87582 5.79V4.8675H12.7433V8.2425C12.7433 8.655 13.0808 8.9925 13.4933 8.9925C13.9133 8.9925 14.2433 8.655 14.2433 8.2425V4.095C14.2733 3.945 14.2508 3.78 14.1683 3.63ZM6.37582 3.3675C6.37582 3.3675 5.0205 3.3675 4.15207 3.3675C3.28365 3.3675 1.92832 3.3675 1.92832 3.3675L2.91832 1.5H6.37582V3.3675ZM7.87582 3.3675V1.5H11.3408L12.3308 3.3675H7.87582Z" fill="#4D4D4D"/>
</g>
<defs>
<clipPath id="clip0_344_3">
<rect width="18" height="19" fill="white"/>
</clipPath>
</defs>
</svg>
