<svg width="17" height="21" viewBox="0 0 17 21" fill="none" xmlns="http://www.w3.org/2000/svg">
<path d="M1.5 4.77915C1.5 3.63145 1.5 3.0576 1.75433 2.61901C1.97803 2.2334 2.33497 1.91988 2.774 1.72339C3.27333 1.5 3.92667 1.5 5.23333 1.5H11.7667C13.0733 1.5 13.7267 1.5 14.226 1.72339C14.665 1.91988 15.022 2.2334 15.2457 2.61901C15.5 3.0576 15.5 3.63145 15.5 4.77915V18.4132C15.5 18.9113 15.5 19.1603 15.3822 19.2966C15.3313 19.3558 15.2663 19.4047 15.1917 19.4397C15.1172 19.4748 15.0349 19.4951 14.9505 19.4995C14.7557 19.5097 14.52 19.3714 14.0487 19.0957L8.5 15.8463L2.95133 19.0947C2.48 19.3714 2.24433 19.5097 2.04833 19.4995C1.96414 19.495 1.88206 19.4745 1.80773 19.4395C1.73341 19.4045 1.66862 19.3557 1.61783 19.2966C1.5 19.1603 1.5 18.9113 1.5 18.4132V4.77915Z" stroke="#4D4D4D" stroke-width="3" stroke-linecap="round" stroke-linejoin="round"/>
</svg>
