<svg width="17" height="17" viewBox="0 0 17 17" fill="none" xmlns="http://www.w3.org/2000/svg">
<path d="M8.3256 16.6512C12.9237 16.6512 16.6512 12.9237 16.6512 8.3256C16.6512 3.7275 12.9237 0 8.3256 0C3.7275 0 0 3.7275 0 8.3256C0 12.9237 3.7275 16.6512 8.3256 16.6512Z" fill="url(#paint0_linear_1268_16216)"/>
<path d="M6.05226 12.8804C6.08798 13.1765 5.97799 13.3344 5.71579 13.3635H4.14733C4.01657 13.3392 3.89407 13.2821 3.79135 13.1977C3.68863 13.1132 3.60905 13.004 3.55996 12.8804C2.93805 11.4443 2.62335 9.89399 2.63612 8.32904C2.63612 8.08156 2.64339 7.83689 2.6578 7.59505C2.70855 7.21914 2.8692 7.01708 3.14926 6.97949H5.09182C5.16746 6.98383 5.24141 7.00337 5.30933 7.03694C5.37725 7.07051 5.43777 7.11743 5.48715 7.17489C5.53654 7.23235 5.57384 7.29916 5.59682 7.37135C5.61981 7.44354 5.62798 7.51962 5.62091 7.59505C5.61402 7.83689 5.61059 8.08156 5.61059 8.32904C5.60065 9.85729 5.74926 11.3825 6.05226 12.8804Z" fill="url(#paint1_linear_1268_16216)"/>
<path d="M14.5001 8.91957C14.477 9.14336 14.3822 9.35369 14.2297 9.51916C14.0773 9.68463 13.8754 9.79639 13.6543 9.83777H13.5434C13.8563 9.881 13.985 10.1084 13.9362 10.5323L13.9202 10.614C13.7558 11.2042 13.4503 11.519 12.9851 11.5773H12.6215C12.9119 11.614 13.0114 11.8066 12.9269 12.1638L12.8789 12.3075C12.8166 12.5099 12.6982 12.6903 12.5373 12.8279C12.3764 12.9655 12.1797 13.0546 11.9702 13.0847H7.75147C7.46953 13.0763 7.46195 13.0697 6.8633 12.7474C6.75677 12.6905 6.66507 12.6094 6.59554 12.5107C6.52602 12.4119 6.48069 12.2983 6.46304 12.1788C6.30093 10.9024 6.22146 9.61694 6.22523 8.33034C6.22523 8.28335 6.22523 8.23666 6.22523 8.19029C6.22729 8.04813 6.26449 7.9087 6.33352 7.78441C6.40256 7.66012 6.5013 7.55482 6.6209 7.47794C6.78066 7.33415 6.78062 7.33416 8.27207 4.69616C8.4867 4.31134 8.62113 3.887 8.66717 3.44878C8.7132 3.01056 8.66992 2.56753 8.53994 2.1465C8.54464 2.01211 8.56245 1.95856 8.72785 1.92285C10.4063 2.39275 10.3312 3.64171 10.2316 5.21774C10.2274 5.2941 10.2385 5.37053 10.2642 5.44256C10.2899 5.5146 10.3296 5.58079 10.3811 5.6373C10.4326 5.69381 10.4948 5.7395 10.5642 5.7717C10.6335 5.80389 10.7087 5.82196 10.7851 5.82484H13.6158C14.4399 5.93668 14.4879 7.20446 14.002 7.58789C13.9314 7.63698 13.8561 7.67915 13.7774 7.71383H13.8713C14.6711 7.82942 14.4991 8.91018 14.4973 8.92052" fill="url(#paint2_linear_1268_16216)"/>
<path style="mix-blend-mode:screen" opacity="0.9" d="M2.9163 10.9959C2.44589 10.4005 2.10454 9.71373 1.91399 8.97926C1.72343 8.24478 1.68784 7.47868 1.80947 6.7297C1.93111 5.98073 2.20736 5.26525 2.62055 4.62883C3.03373 3.9924 3.57478 3.44895 4.20943 3.03304C5.51669 2.164 7.0776 1.75829 8.64257 1.88078C10.2075 2.00327 11.6863 2.64689 12.8424 3.70874C11.0078 4.32931 9.2682 5.20162 7.67353 6.30068C5.82291 7.57246 4.21226 9.1621 2.9163 10.9959Z" fill="url(#paint3_radial_1268_16216)"/>
<path style="mix-blend-mode:screen" opacity="0.6" d="M15.4738 4.7974C14.392 3.04227 12.6762 1.77084 10.6822 1.24675C8.68822 0.722653 6.56899 0.98611 4.76402 1.98251C2.95905 2.9789 1.60684 4.63178 0.987765 6.59837C0.368689 8.56496 0.530233 10.6944 1.43896 12.5451C0.869024 11.6204 0.492758 10.5896 0.332941 9.51514C0.173123 8.44073 0.233088 7.34509 0.509209 6.29454C0.78533 5.24399 1.27186 4.26041 1.93931 3.40344C2.60677 2.54646 3.44125 1.83391 4.39221 1.30895C5.34317 0.783998 6.39082 0.457562 7.47165 0.349432C8.55249 0.241301 9.644 0.353721 10.6801 0.679884C11.7162 1.00605 12.6753 1.53917 13.4993 2.24694C14.3233 2.9547 14.995 3.82238 15.4738 4.7974Z" fill="url(#paint4_linear_1268_16216)"/>
<defs>
<linearGradient id="paint0_linear_1268_16216" x1="4.04624" y1="0.732653" x2="12.6549" y2="16.0185" gradientUnits="userSpaceOnUse">
<stop stop-color="#00BFFF"/>
<stop offset="0.996" stop-color="#7062ED"/>
</linearGradient>
<linearGradient id="paint1_linear_1268_16216" x1="2.66313" y1="4.84085" x2="10.2775" y2="10.9488" gradientUnits="userSpaceOnUse">
<stop stop-color="white"/>
<stop offset="0.198" stop-color="#FCFBFD"/>
<stop offset="0.36" stop-color="#F6F1F8"/>
<stop offset="0.51" stop-color="#EAE0EF"/>
<stop offset="0.653" stop-color="#DAC8E3"/>
<stop offset="0.79" stop-color="#C5A8D4"/>
<stop offset="0.922" stop-color="#AC83C1"/>
<stop offset="1" stop-color="#9B69B5"/>
</linearGradient>
<linearGradient id="paint2_linear_1268_16216" x1="8.06525" y1="2.9051" x2="14.1372" y2="12.2523" gradientUnits="userSpaceOnUse">
<stop stop-color="white"/>
<stop offset="0.198" stop-color="#FCFBFD"/>
<stop offset="0.36" stop-color="#F6F1F8"/>
<stop offset="0.51" stop-color="#EAE0EF"/>
<stop offset="0.653" stop-color="#DAC8E3"/>
<stop offset="0.79" stop-color="#C5A8D4"/>
<stop offset="0.922" stop-color="#AC83C1"/>
<stop offset="1" stop-color="#9B69B5"/>
</linearGradient>
<radialGradient id="paint3_radial_1268_16216" cx="0" cy="0" r="1" gradientUnits="userSpaceOnUse" gradientTransform="translate(-166.855 -35.6052) scale(9.01947 8.12497)">
<stop stop-color="#9CDEFF"/>
<stop offset="1" stop-color="#4566FE"/>
</radialGradient>
<linearGradient id="paint4_linear_1268_16216" x1="12.748" y1="1.00699" x2="2.66109" y2="12.1729" gradientUnits="userSpaceOnUse">
<stop stop-color="#231F20"/>
<stop offset="0.536" stop-color="white"/>
<stop offset="1" stop-color="#231F20"/>
</linearGradient>
</defs>
</svg>
