<svg width="11" height="14" viewBox="0 0 11 14" fill="none" xmlns="http://www.w3.org/2000/svg">
<path d="M5.33333 0C2.4 0 0 2.4 0 5.33333C0 8.93333 4.66667 13 4.86667 13.2C5 13.2667 5.2 13.3333 5.33333 13.3333C5.46667 13.3333 5.66667 13.2667 5.8 13.2C6 13 10.6667 8.93333 10.6667 5.33333C10.6667 2.4 8.26666 0 5.33333 0ZM5.33333 11.8C3.93333 10.4667 1.33333 7.6 1.33333 5.33333C1.33333 3.13333 3.13333 1.33333 5.33333 1.33333C7.53333 1.33333 9.33333 3.13333 9.33333 5.33333C9.33333 7.53333 6.73333 10.4667 5.33333 11.8ZM5.33333 2.66667C3.86667 2.66667 2.66667 3.86667 2.66667 5.33333C2.66667 6.8 3.86667 8 5.33333 8C6.8 8 8 6.8 8 5.33333C8 3.86667 6.8 2.66667 5.33333 2.66667ZM5.33333 6.66667C4.6 6.66667 4 6.06667 4 5.33333C4 4.6 4.6 4 5.33333 4C6.06667 4 6.66667 4.6 6.66667 5.33333C6.66667 6.06667 6.06667 6.66667 5.33333 6.66667Z" fill="#333333"/>
</svg>
