<svg width="1024" height="782" viewBox="0 0 1024 782" fill="none" xmlns="http://www.w3.org/2000/svg">
<g clip-path="url(#clip0_5525_1841)">
<path d="M637.578 388.711L834.355 191.934C886.724 139.566 971.628 139.566 1024 191.934L827.219 388.711C774.851 441.079 689.946 441.079 637.578 388.711Z" fill="#4FBFAB"/>
<path d="M764.765 193.474C712.399 141.106 627.492 141.106 575.125 193.474L481.383 287.216C477.836 290.763 472.081 290.753 468.546 287.193L381.721 199.79C380.764 198.833 379.916 197.752 378.879 196.93C326.512 144.562 241.607 144.562 189.239 196.93L0 386.168C52.368 438.536 137.273 438.536 189.642 386.168L281.19 294.619C284.114 291.696 288.854 291.696 291.776 294.619L465.911 468.753C472.384 475.228 482.882 475.228 489.356 468.753L543.059 415.051L543.125 415.116L764.765 193.474Z" fill="#4FBFAB"/>
<path d="M636.8 134.1L585.502 82.8023C578.901 76.2035 578.901 65.5029 585.502 58.9041L639.455 4.9491C646.056 -1.6497 656.755 -1.6497 663.355 4.9491L714.652 56.2472C721.252 62.8477 721.252 73.5467 714.652 80.1471L660.698 134.1C654.098 140.701 643.399 140.701 636.8 134.1Z" fill="#393436"/>
<path d="M478.877 134.1L427.579 82.8023C420.979 76.2035 420.979 65.5029 427.579 58.9041L481.533 4.9491C488.133 -1.6497 498.832 -1.6497 505.432 4.9491L556.731 56.2472C563.329 62.8477 563.329 73.5467 556.731 80.1471L502.776 134.1C496.177 140.701 485.476 140.701 478.877 134.1Z" fill="#393436"/>
<path d="M320.959 134.1L269.661 82.8023C263.061 76.2035 263.061 65.5029 269.661 58.9041L323.614 4.9491C330.215 -1.6497 340.915 -1.6497 347.514 4.9491L398.812 56.2472C405.413 62.8477 405.413 73.5467 398.812 80.1471L344.859 134.1C338.259 140.701 327.558 140.701 320.959 134.1Z" fill="#393436"/>
<path d="M484.855 540.491C484.855 569.288 461.505 592.64 432.705 592.64H397.997V729.449C397.997 758.258 374.645 781.608 345.849 781.608V611.212C345.849 604.667 347.048 598.416 349.247 592.64H262.309C262.309 578.236 268.153 565.2 277.586 555.768C287.018 546.323 300.064 540.491 314.468 540.491H484.855Z" fill="#393436"/>
<path d="M723.254 549.783V720.168C723.254 748.977 699.905 772.317 671.106 772.317V674.01H568.259V720.168C568.259 748.977 544.907 772.317 516.109 772.317V601.931C516.109 587.526 521.953 574.492 531.386 565.06C540.821 555.615 553.867 549.783 568.259 549.783V634.07H671.106V601.931C671.106 587.526 676.938 574.492 686.383 565.06C695.817 555.615 708.851 549.783 723.254 549.783Z" fill="#393436"/>
<path d="M901.939 636.538C895.851 642.597 887.45 646.373 878.173 646.373H846.151V579.199H878.173C896.73 579.199 911.745 594.243 911.745 612.771C911.745 622.049 907.998 630.45 901.939 636.538ZM939.228 669.436C943.326 666.802 947.1 663.729 950.525 660.304C962.876 647.953 970.517 630.889 970.517 612.04C970.517 574.341 939.96 543.783 902.261 543.783H793.992V766.641C822.794 766.641 846.151 743.284 846.151 714.483V680.297H883.617L934.575 755.46C950.762 779.285 983.19 785.489 1007.02 769.333L939.228 669.436Z" fill="#393436"/>
<path d="M111.61 691.916L153.494 596.527L196.812 691.916H111.61ZM201.7 576.595C195.964 563.979 186.129 554.145 174.217 549.286C146.791 537.227 114.8 549.696 102.741 577.122L16.9805 772.435C44.4065 784.495 76.4269 772.026 88.4567 744.572L97.6471 723.673H211.213L221.751 746.825C233.663 773.05 264.571 784.641 290.797 772.729L201.7 576.595Z" fill="#393436"/>
</g>
<defs>
<clipPath id="clip0_5525_1841">
<rect width="1024" height="782" fill="white"/>
</clipPath>
</defs>
</svg>
