<svg width="184" height="158" viewBox="0 0 184 158" fill="none" xmlns="http://www.w3.org/2000/svg">
<path d="M152.321 66.444C150.476 72.8447 147.437 78.6638 143.393 83.9408C134.352 95.7234 122.395 103.584 108.863 109.259C100.456 112.783 91.7206 115.043 82.6355 115.848C80.0517 116.075 77.4328 115.97 74.8315 116.014C74.1626 116.027 73.4937 116.014 72.4881 116.014C74.0533 125.134 76.1212 133.852 80.2397 141.997C80.1216 142.093 80.0036 142.194 79.8768 142.294C79.4615 141.931 79.0155 141.599 78.6395 141.201C72.9297 135.172 67.2854 129.077 61.5012 123.11C55.3323 116.748 49.0585 110.483 42.7716 104.24C41.7179 103.2 41.2544 102.172 41.2588 100.686C41.2938 82.1395 41.2457 63.5934 41.2588 45.0474C41.2675 38.3057 45.8232 33.7326 52.5779 33.6452C57.973 33.5752 63.3725 33.6058 68.7675 33.6102C71.5263 33.6102 71.535 33.6277 71.535 36.4826C71.535 53.599 71.535 70.7198 71.5219 87.8406C71.5219 91.7886 73.7472 94.7834 77.6252 95.8196C82.6268 97.1574 87.7333 96.8863 92.7873 96.3661C106.052 95.002 118.416 90.7567 129.963 84.1637C137.823 79.6824 144.845 74.1125 150.887 67.3446C151.197 66.9949 151.407 66.5577 151.656 66.1555L152.308 66.4484L152.321 66.444Z" fill="#F8D3DA"/>
<path d="M181.465 63.3581C177.338 76.8808 169.066 87.6534 158.962 97.1712C148.771 106.768 137.185 114.559 125.844 122.682C116.129 129.638 106.445 136.677 97.1024 144.127C92.7348 147.607 89.2109 152.149 85.3067 156.215C84.9001 156.639 84.5242 157.094 83.8596 157.85C84.3668 153.046 85.862 149.036 87.8206 145.154C92.1577 136.572 98.0337 129.122 105.234 122.857C113.414 115.748 121.953 109.046 130.387 102.221C138.776 95.4356 147.193 88.6677 154.284 80.4658C161.664 71.9273 167.444 62.5493 168.764 51.0596C169.682 43.0938 168.738 35.3773 163.924 28.6793C157.393 19.5812 148.307 16.5557 137.46 18.1909C127.282 19.7298 118.385 24.2199 110.135 30.1615C107.691 31.9234 105.317 33.7946 102.502 35.9237C102.773 34.9094 102.86 34.3192 103.088 33.7858C110.192 17.1328 122.775 7.20834 140.582 4.64634C156.973 2.28545 172.41 11.3224 179.357 26.3709C184.91 38.4202 185.312 50.758 181.469 63.3537L181.465 63.3581Z" fill="#F8D3DA"/>
<path d="M135.747 1.83211C134.968 2.22122 134.715 2.42671 134.431 2.48792C121.559 5.20731 111.792 12.6004 104.369 23.1107C102.052 26.3897 99.8655 27.7844 95.6728 27.7494C65.1649 27.5133 34.6569 27.6226 4.14466 27.6226H0C1.30723 18.8349 5.5044 12.2943 12.0056 7.0829C18.2401 2.08569 25.5282 0.0920636 33.306 0.0395994C47.9391 -0.0565849 62.5767 0.0264706 77.2054 0.245071C93.6923 0.485532 110.179 0.940221 126.666 1.33807C129.499 1.40365 132.328 1.63974 135.747 1.82774V1.83211Z" fill="#F8D3DA"/>
<path d="M126.224 57.7184C122.53 61.0892 118.932 64.377 115.133 67.844C112.92 65.8722 110.175 63.4195 107.224 60.7919C104.88 63.096 102.559 65.3038 100.338 67.6079C99.4457 68.5348 98.8293 68.5479 97.9024 67.6691C94.759 64.6918 91.5499 61.7844 88.5594 59.0213C92.1008 55.4538 95.5547 51.978 99.1091 48.3929C101.553 50.6751 104.251 53.1978 107.228 55.9784C109.899 53.1059 112.501 50.3166 115.242 47.3699C119.054 50.9637 122.552 54.2558 126.22 57.714L126.224 57.7184Z" fill="#F8D3DA"/>
<path d="M161.738 35.6479C161.738 36.1725 161.301 36.6928 161.069 37.2174C160.855 37.2349 160.637 37.2568 160.422 37.2742C159.207 35.2194 157.935 33.1908 156.824 31.0791C156.623 30.6988 156.899 29.7894 157.257 29.4877C157.568 29.2298 158.446 29.2997 158.844 29.5664C160.986 31.0004 161.76 33.1777 161.743 35.6479H161.738Z" fill="#F8D3DA"/>
<path d="M155.167 26.7308C155.01 27.4478 154.28 28.0467 153.995 28.4402C151.272 28.226 149.077 26.5515 149.505 25.2006C149.724 24.5054 150.804 23.6747 151.543 23.6266C153.204 23.5217 155.429 25.5285 155.167 26.7308Z" fill="#F8D3DA"/>
<path d="M155.167 26.7308C155.01 27.4478 154.28 28.0467 153.995 28.4402C151.272 28.226 149.077 26.5515 149.505 25.2006C149.724 24.5054 150.804 23.6747 151.543 23.6266C153.204 23.5217 155.429 25.5285 155.167 26.7308Z" fill="#F8D3DA"/>
</svg>
