<svg width="24" height="26" viewBox="0 0 24 26" fill="none" xmlns="http://www.w3.org/2000/svg">
<path d="M13.6735 14.5395C14.2688 15.5718 14.6094 16.7696 14.6094 18.0469C14.6094 21.9301 11.4614 25.0781 7.57812 25.0781C3.69486 25.0781 0.5 21.9301 0.5 18.0469C0.5 14.1636 3.69486 11.0156 7.57812 11.0156C9.161 11.0156 10.6217 11.5387 11.7969 12.4213" stroke="#4D4D4D" stroke-miterlimit="10"/>
<path d="M11.7969 23.6724C12.972 24.5551 14.4327 25.0781 16.0156 25.0781C19.8989 25.0781 23.0937 21.9301 23.0937 18.0469C23.0937 13.6052 18.9284 10.1255 14.302 11.2181C11.2478 11.99 8.98438 14.7541 8.98438 18.0469C8.98438 19.3242 9.32497 20.5219 9.92028 21.5542" stroke="#4D4D4D" stroke-miterlimit="10"/>
<path d="M16.0157 11.0156C13.9467 9.22256 12.5271 8.2822 12.5271 6.86222C12.5271 5.83542 13.2388 4.92188 14.2714 4.92188C15.4076 4.92188 15.8775 6.10444 15.9886 6.42188H16.0428C16.1539 6.10444 16.6238 4.92188 17.7599 4.92188C18.7926 4.92188 19.5043 5.83542 19.5043 6.86222C19.5043 8.29514 18.0429 9.2587 16.0157 11.0156Z" stroke="#4D4D4D" stroke-miterlimit="10"/>
<path d="M9.92028 14.5395C9.24983 14.0903 8.44405 13.8281 7.57812 13.8281C5.25177 13.8281 3.3125 15.7205 3.3125 18.0469C3.3125 20.3732 5.25177 22.2656 7.57812 22.2656C9.90448 22.2656 11.7969 20.3732 11.7969 18.0469C11.7969 15.7205 13.6893 13.8281 16.0156 13.8281C18.342 13.8281 20.2812 15.7205 20.2812 18.0469C20.2812 20.3732 18.342 22.2656 16.0156 22.2656C15.1497 22.2656 14.3439 22.0034 13.6735 21.5543" stroke="#4D4D4D" stroke-miterlimit="10"/>
<path d="M15.9673 1.9994C15.9745 1.99978 15.9816 2 15.9888 2C16.2488 2 16.4651 1.72908 16.4764 1.38244L16.4995 0.673162C16.5112 0.317101 16.3021 0.0159809 16.0326 0.000578531C15.7632 -0.0143506 15.5352 0.261472 15.5236 0.617533L15.5005 1.32681C15.4888 1.68292 15.6978 1.98404 15.9673 1.9994Z" fill="#4D4D4D"/>
<path d="M12.227 3.76945C12.3204 3.92248 12.4482 4 12.5763 4C12.6907 4 12.8055 3.93809 12.8965 3.81281C13.0893 3.5471 13.1022 3.097 12.9254 2.80743L12.573 2.23057C12.3961 1.94096 12.0964 1.92155 11.9035 2.18721C11.7107 2.45292 11.6978 2.90302 11.8746 3.19259L12.227 3.76945Z" fill="#4D4D4D"/>
<path d="M19.6089 3.92525C19.7206 3.92525 19.8326 3.86419 19.9214 3.74064L20.2964 3.21879C20.4846 2.95677 20.4972 2.5129 20.3246 2.22734C20.1519 1.94179 19.8593 1.92265 19.6711 2.18458L19.2961 2.70639C19.1079 2.96837 19.0953 3.41228 19.2679 3.69784C19.3591 3.84871 19.4838 3.92525 19.6089 3.92525Z" fill="#4D4D4D"/>
</svg>
