<svg width="21" height="21" viewBox="0 0 21 21" fill="none" xmlns="http://www.w3.org/2000/svg">
<g clip-path="url(#clip0_141_2994)">
<path fill-rule="evenodd" clip-rule="evenodd" d="M10.4691 16.4266C11.4742 16.1473 12.4259 15.7517 13.3684 15.3098C13.4473 14.0528 13.5263 12.9268 13.6057 11.9645C14.6426 13.3426 17.1337 13.9978 19.0879 13.9423L19.4647 12.9058C17.5629 12.2388 15.8678 10.8461 15.3348 8.65242C14.5616 6.16308 13.5355 6.1551 10.5006 6.1551C7.46569 6.1551 6.43963 6.16308 5.66641 8.65242C5.13301 10.8457 3.43789 12.2388 1.53613 12.9058L1.91287 13.9423C3.86713 13.9973 6.35815 13.3421 7.39513 11.9645C7.47451 12.9272 7.55347 14.0528 7.63243 15.3098C8.55601 15.7429 9.48337 16.1524 10.4691 16.4266ZM10.4691 5.22522C11.9122 5.22522 13.0819 4.05552 13.0819 2.6124C13.0819 1.16928 11.9122 0 10.4691 0C9.02599 0 7.85629 1.1697 7.85629 2.6124C7.85629 4.05552 9.02599 5.22522 10.4691 5.22522ZM10.4691 20.1579C12.2117 20.6195 13.5653 20.8639 15.8611 21L16.927 19.8085C16.2269 19.5775 15.1496 19.1041 14.8337 18.9626C15.3873 18.6686 16.4717 18.2146 17.2437 17.687C19.0694 16.4392 17.4495 13.7672 15.297 14.9281C14.5801 15.3145 13.8992 15.6576 13.2608 15.9529C12.1987 16.4447 11.2558 16.8038 10.4687 17.01C9.68161 16.8042 8.73871 16.4451 7.67653 15.9529C7.03855 15.6576 6.35731 15.3145 5.64037 14.9281C3.48787 13.7672 1.86793 16.4392 3.69367 17.687C4.46605 18.2146 5.55049 18.6686 6.10363 18.9626C5.78779 19.1041 4.71049 19.5775 4.01035 19.8085L5.07673 21C7.37245 20.8639 8.72611 20.6195 10.4691 20.1579Z" fill="#666666"/>
</g>
<defs>
<clipPath id="clip0_141_2994">
<rect width="21" height="21" fill="white"/>
</clipPath>
</defs>
</svg>
