<svg width="22" height="19" viewBox="0 0 22 19" fill="none" xmlns="http://www.w3.org/2000/svg">
<path d="M7 7C7 7.79565 7.31607 8.55871 7.87868 9.12132C8.44129 9.68393 9.20435 10 10 10C10.7956 10 11.5587 9.68393 12.1213 9.12132C12.6839 8.55871 13 7.79565 13 7C13 6.20435 12.6839 5.44129 12.1213 4.87868C11.5587 4.31607 10.7956 4 10 4C9.20435 4 8.44129 4.31607 7.87868 4.87868C7.31607 5.44129 7 6.20435 7 7Z" stroke="#D9D9D9" stroke-width="2" stroke-linecap="round" stroke-linejoin="round"/>
<path d="M17 0C17.7957 0 18.5585 0.316297 19.1211 0.878906C19.6837 1.44152 20 2.20435 20 3V7.5C20 8.05229 19.5523 8.5 19 8.5C18.4477 8.5 18 8.05229 18 7.5V3C18 2.73478 17.8946 2.48051 17.707 2.29297C17.5429 2.12883 17.3276 2.02757 17.0986 2.00488L17 2H3C2.73478 2 2.4805 2.10543 2.29297 2.29297C2.10543 2.4805 2 2.73478 2 3V11C2 11.2652 2.10543 11.5195 2.29297 11.707C2.48051 11.8946 2.73478 12 3 12H10.25C10.8023 12 11.25 12.4477 11.25 13C11.25 13.5523 10.8023 14 10.25 14H3C2.20435 14 1.44152 13.6837 0.878906 13.1211C0.316297 12.5585 0 11.7956 0 11V3C0 2.20435 0.316297 1.44152 0.878906 0.878906C1.44152 0.316297 2.20435 0 3 0H17ZM4.00977 6C4.56205 6 5.00977 6.44772 5.00977 7C5.00977 7.55228 4.56205 8 4.00977 8H4C3.44772 8 3 7.55228 3 7C3 6.44772 3.44772 6 4 6H4.00977ZM16.0098 6C16.562 6 17.0098 6.44772 17.0098 7C17.0098 7.55228 16.562 8 16.0098 8H16C15.4477 8 15 7.55228 15 7C15 6.44772 15.4477 6 16 6H16.0098Z" fill="#D9D9D9"/>
<path d="M17 12.496V14L18 15" stroke="#D9D9D9" stroke-width="2" stroke-linecap="round" stroke-linejoin="round"/>
<path d="M17.248 9.00586C18.4838 9.06719 19.6561 9.58579 20.5352 10.4648C21.4728 11.4025 22 12.6739 22 14C22 15.3261 21.4728 16.5975 20.5352 17.5352C19.5975 18.4728 18.3261 19 17 19C15.6739 19 14.4025 18.4728 13.4648 17.5352C12.5858 16.6561 12.0672 15.4838 12.0059 14.248L12 14C12 12.6739 12.5272 11.4025 13.4648 10.4648C14.4025 9.52716 15.6739 9 17 9L17.248 9.00586ZM17 11C16.2044 11 15.4415 11.3163 14.8789 11.8789C14.3163 12.4415 14 13.2044 14 14L14.0146 14.2969C14.0829 14.9835 14.3867 15.6289 14.8789 16.1211C15.4415 16.6837 16.2044 17 17 17C17.7956 17 18.5585 16.6837 19.1211 16.1211C19.6837 15.5585 20 14.7956 20 14C20 13.2044 19.6837 12.4415 19.1211 11.8789C18.6289 11.3867 17.9835 11.0829 17.2969 11.0146L17 11Z" fill="#D9D9D9"/>
</svg>
