<svg width="27" height="8" viewBox="0 0 27 8" fill="none" xmlns="http://www.w3.org/2000/svg">
<path d="M23.1997 7.03026C25.1411 7.03026 26.7148 5.45649 26.7148 3.51513C26.7148 1.57378 25.1411 0 23.1997 0C21.2583 0 19.6846 1.57378 19.6846 3.51513C19.6846 5.45649 21.2583 7.03026 23.1997 7.03026Z" fill="#1877F2"/>
<path d="M13.3579 7.03026C15.2993 7.03026 16.873 5.45649 16.873 3.51513C16.873 1.57378 15.2993 0 13.3579 0C11.4166 0 9.84277 1.57378 9.84277 3.51513C9.84277 5.45649 11.4166 7.03026 13.3579 7.03026Z" fill="#1877F2"/>
<path d="M3.51513 7.03026C5.45648 7.03026 7.03026 5.45649 7.03026 3.51513C7.03026 1.57378 5.45648 0 3.51513 0C1.57378 0 0 1.57378 0 3.51513C0 5.45649 1.57378 7.03026 3.51513 7.03026Z" fill="#1877F2"/>
</svg>
