<svg width="20" height="19" viewBox="0 0 20 19" fill="none" xmlns="http://www.w3.org/2000/svg">
<path d="M13.7812 2.22559C13.7812 2.31261 13.8158 2.39607 13.8774 2.45761C13.9389 2.51914 14.0224 2.55371 14.1094 2.55371H14.7656C14.8526 2.55371 14.9361 2.51914 14.9976 2.45761C15.0592 2.39607 15.0938 2.31261 15.0938 2.22559C15.0938 2.13856 15.0592 2.0551 14.9976 1.99357C14.9361 1.93203 14.8526 1.89746 14.7656 1.89746H14.1094C14.0224 1.89746 13.9389 1.93203 13.8774 1.99357C13.8158 2.0551 13.7812 2.13856 13.7812 2.22559Z" fill="#666666"/>
<path d="M14.9758 4.64076C15.0619 4.64039 15.1444 4.60622 15.2055 4.5456L15.6715 4.08294C15.7333 4.02116 15.768 3.93736 15.768 3.84998C15.768 3.7626 15.7333 3.67879 15.6715 3.61701C15.6097 3.55522 15.5259 3.52051 15.4385 3.52051C15.3511 3.52051 15.2673 3.55522 15.2055 3.61701L14.7429 4.08294C14.6818 4.14442 14.6475 4.22759 14.6475 4.31427C14.6475 4.40096 14.6818 4.48412 14.7429 4.5456C14.7735 4.57601 14.8099 4.60007 14.8499 4.6164C14.8899 4.63273 14.9327 4.64101 14.9758 4.64076Z" fill="#666666"/>
<path d="M16.7344 4.52246V5.17871C16.7344 5.26574 16.7689 5.3492 16.8305 5.41073C16.892 5.47227 16.9755 5.50684 17.0625 5.50684C17.1495 5.50684 17.233 5.47227 17.2945 5.41073C17.3561 5.3492 17.3906 5.26574 17.3906 5.17871V4.52246C17.3906 4.43544 17.3561 4.35198 17.2945 4.29044C17.233 4.22891 17.1495 4.19434 17.0625 4.19434C16.9755 4.19434 16.892 4.22891 16.8305 4.29044C16.7689 4.35198 16.7344 4.43544 16.7344 4.52246Z" fill="#666666"/>
<path d="M15.3033 1.07733C15.3509 1.07693 15.3979 1.06616 15.441 1.04576C15.484 1.02536 15.5221 0.995822 15.5526 0.959206C15.5805 0.926254 15.6015 0.888141 15.6146 0.847047C15.6277 0.805953 15.6325 0.762685 15.6289 0.719716C15.6252 0.676746 15.6131 0.634919 15.5933 0.596627C15.5734 0.558334 15.5463 0.524327 15.5133 0.49655L15.0112 0.0765494C14.9438 0.0204188 14.8568 -0.00662087 14.7694 0.00137873C14.6821 0.00937833 14.6014 0.051762 14.5453 0.119206C14.4892 0.186649 14.4621 0.273629 14.4701 0.361009C14.4781 0.448389 14.5205 0.529013 14.588 0.585143L15.0933 1.00186C15.1523 1.05078 15.2266 1.07748 15.3033 1.07733Z" fill="#666666"/>
<path d="M18.7031 2.22559C18.7031 1.9011 18.6069 1.5839 18.4266 1.3141C18.2464 1.0443 17.9901 0.834022 17.6903 0.709847C17.3906 0.585672 17.0607 0.553182 16.7424 0.616486C16.4242 0.67979 16.1318 0.836044 15.9024 1.06549C15.673 1.29494 15.5167 1.58727 15.4534 1.90552C15.3901 2.22377 15.4226 2.55364 15.5468 2.85343C15.6709 3.15321 15.8812 3.40944 16.151 3.58972C16.4208 3.76999 16.738 3.86621 17.0625 3.86621C17.4976 3.86621 17.9149 3.69336 18.2226 3.38568C18.5303 3.07801 18.7031 2.66071 18.7031 2.22559ZM16.6523 2.26824C16.5388 2.26824 16.4278 2.23457 16.3333 2.17147C16.2389 2.10837 16.1653 2.01869 16.1218 1.91377C16.0784 1.80884 16.067 1.69339 16.0892 1.582C16.1113 1.47061 16.166 1.3683 16.2463 1.28799C16.3266 1.20768 16.4289 1.153 16.5403 1.13084C16.6517 1.10868 16.7672 1.12005 16.8721 1.16352C16.977 1.20698 17.0667 1.28058 17.1298 1.37501C17.1929 1.46944 17.2266 1.58045 17.2266 1.69402C17.2266 1.84632 17.1661 1.99237 17.0584 2.10006C16.9507 2.20774 16.8046 2.26824 16.6523 2.26824Z" fill="#666666"/>
<path d="M5.90625 3.20996V2.88184H6.89062C6.97765 2.88184 7.06111 2.84727 7.12264 2.78573C7.18418 2.72419 7.21875 2.64074 7.21875 2.55371C7.21875 2.46669 7.18418 2.38323 7.12264 2.32169C7.06111 2.26016 6.97765 2.22559 6.89062 2.22559H6.23438C6.23438 1.87749 6.09609 1.54365 5.84995 1.29751C5.60381 1.05137 5.26997 0.913086 4.92188 0.913086H4.26562C3.91753 0.913086 3.58369 1.05137 3.33755 1.29751C3.09141 1.54365 2.95313 1.87749 2.95312 2.22559V2.55371C2.95312 2.64074 2.9877 2.72419 3.04923 2.78573C3.11077 2.84727 3.19423 2.88184 3.28125 2.88184V3.20996C3.28125 3.55806 3.41953 3.8919 3.66567 4.13804C3.91181 4.38418 4.24565 4.52246 4.59375 4.52246C4.94185 4.52246 5.27569 4.38418 5.52183 4.13804C5.76797 3.8919 5.90625 3.55806 5.90625 3.20996Z" fill="#666666"/>
<path d="M19.425 6.49119C19.3508 6.47612 19.2737 6.48715 19.2067 6.52244C19.1397 6.55772 19.087 6.61508 19.0575 6.68479L18.1584 8.78807H17.3906C17.3337 8.78808 17.2777 8.80291 17.2282 8.8311C17.1788 8.85929 17.1375 8.89987 17.1084 8.94885L14.2505 13.7099H12.4688C12.4195 13.7102 12.3709 13.7215 12.3266 13.7431C12.2822 13.7647 12.2434 13.796 12.2128 13.8346L9.68625 16.9912H8.85938C8.9464 16.9912 9.02986 16.9566 9.09139 16.8951C9.15293 16.8336 9.1875 16.7501 9.1875 16.6631C9.1875 16.315 9.04922 15.9811 8.80308 15.735C8.55694 15.4889 8.2231 15.3506 7.875 15.3506H8.20312C8.29015 15.3506 8.37361 15.316 8.43514 15.2545C8.49668 15.1929 8.53125 15.1095 8.53125 15.0224V11.2523C8.53077 11.1482 8.50552 11.0457 8.4576 10.9532C8.40967 10.8608 8.34044 10.7811 8.25562 10.7207L6.5625 9.51979C6.71584 9.49417 6.86352 9.44198 6.99891 9.36557L9.555 7.88901C9.5926 7.86757 9.62559 7.83891 9.65206 7.80467C9.67853 7.77043 9.69797 7.73129 9.70926 7.68951C9.72054 7.64772 9.72345 7.60412 9.71781 7.56121C9.71217 7.5183 9.6981 7.47693 9.67641 7.43948C9.70504 7.48907 9.74615 7.5303 9.79565 7.55909C9.84516 7.58787 9.90133 7.60319 9.95859 7.60354C10.0161 7.60393 10.0726 7.58923 10.1227 7.56088L10.3228 7.44604L11.7731 9.92994L11.4909 10.094C11.4275 10.13 11.3778 10.186 11.3497 10.2534C11.3217 10.3207 11.3169 10.3955 11.3361 10.4659C11.3553 10.5362 11.3974 10.5982 11.4557 10.642C11.5141 10.6858 11.5853 10.7089 11.6583 10.7076C11.7161 10.707 11.7727 10.6912 11.8223 10.6617L12.1045 10.4976L12.2719 10.7798C12.3009 10.8288 12.3422 10.8693 12.3917 10.8975C12.4412 10.9257 12.4971 10.9406 12.5541 10.9406C12.6127 10.9415 12.6704 10.9268 12.7214 10.8979C12.7962 10.8535 12.8504 10.7812 12.8719 10.6969C12.8934 10.6126 12.8806 10.5232 12.8362 10.4484L12.6722 10.1662L12.9544 9.99885C12.9917 9.97714 13.0244 9.94828 13.0505 9.91391C13.0767 9.87955 13.0958 9.84037 13.1068 9.79861C13.1177 9.75684 13.1203 9.71333 13.1145 9.67055C13.1086 9.62777 13.0943 9.58657 13.0725 9.54932C13.0267 9.47965 12.9561 9.43003 12.8751 9.41052C12.794 9.39102 12.7086 9.40311 12.6361 9.44432L12.3539 9.61166L10.815 6.98666C10.8838 6.84188 10.9162 6.6825 10.9093 6.52236C10.9025 6.36222 10.8567 6.20617 10.7759 6.06776C10.695 5.92936 10.5816 5.81279 10.4455 5.72818C10.3093 5.64358 10.1546 5.59349 9.99469 5.58229L9.37125 4.51916C9.35234 4.47732 9.32486 4.43992 9.29059 4.40937C9.25632 4.37882 9.21602 4.3558 9.17229 4.3418C9.12857 4.3278 9.08239 4.32313 9.03675 4.3281C8.99111 4.33306 8.94701 4.34755 8.90732 4.37063C8.86763 4.39371 8.83322 4.42486 8.80632 4.46206C8.77943 4.49927 8.76064 4.54171 8.75117 4.58664C8.7417 4.63156 8.74177 4.67798 8.75136 4.72287C8.76096 4.76777 8.77987 4.81016 8.80688 4.84729L9.34172 5.76276L9.15141 5.87104C9.11408 5.89275 9.08141 5.92161 9.05526 5.95597C9.02911 5.99034 9.01 6.02952 8.99903 6.07128C8.98806 6.11304 8.98543 6.15656 8.99131 6.19934C8.99719 6.24212 9.01145 6.28331 9.03328 6.32057C9.01184 6.28297 8.98318 6.24998 8.94894 6.22351C8.9147 6.19703 8.87557 6.1776 8.83378 6.16631C8.792 6.15503 8.7484 6.15212 8.70548 6.15776C8.66257 6.1634 8.6212 6.17747 8.58375 6.19916L6.59531 7.3476L6.23438 6.70776V5.50682C6.23438 5.24575 6.13066 4.99537 5.94606 4.81076C5.76145 4.62615 5.51107 4.52244 5.25 4.52244H3.9375C3.67643 4.52244 3.42605 4.62615 3.24144 4.81076C3.05684 4.99537 2.95312 5.24575 2.95312 5.50682V5.17869C2.95312 5.09167 2.91855 5.00821 2.85702 4.94667C2.79548 4.88514 2.71202 4.85057 2.625 4.85057H1.96875C1.44661 4.85057 0.945846 5.05799 0.576634 5.4272C0.207421 5.79641 0 6.29717 0 6.81932V8.78807C0 9.22319 0.172851 9.64049 0.480528 9.94817C0.788205 10.2558 1.2055 10.4287 1.64062 10.4287H2.625C2.67483 10.4277 2.72377 10.4153 2.76812 10.3926C2.81246 10.3699 2.85105 10.3373 2.88094 10.2974L2.69391 12.5418L1.02047 13.5787L0.846563 13.2998C0.829532 13.2552 0.802995 13.2149 0.768799 13.1817C0.734602 13.1484 0.693569 13.123 0.648557 13.1073C0.603544 13.0915 0.555636 13.0857 0.508167 13.0904C0.460698 13.095 0.414811 13.1099 0.373702 13.1341C0.332592 13.1583 0.297248 13.1912 0.270132 13.2304C0.243016 13.2696 0.22478 13.3143 0.216693 13.3613C0.208607 13.4083 0.210864 13.4565 0.223309 13.5026C0.235753 13.5486 0.258086 13.5914 0.28875 13.6279L0.459375 13.9068L0.180469 14.0807C0.116406 14.1169 0.066362 14.1736 0.0383731 14.2416C0.0103841 14.3096 0.00607453 14.3851 0.0261366 14.4559C0.0461987 14.5267 0.0894682 14.5887 0.148996 14.6319C0.208524 14.6752 0.280856 14.6971 0.354375 14.6943C0.415808 14.6945 0.476063 14.6775 0.528281 14.6451L0.807187 14.4712L0.984375 14.7599C1.01422 14.8077 1.05586 14.847 1.10528 14.874C1.1547 14.901 1.21025 14.9148 1.26656 14.9142C1.32657 14.9147 1.38558 14.8989 1.43719 14.8682C1.47387 14.8454 1.50569 14.8156 1.53084 14.7805C1.55598 14.7454 1.57394 14.7057 1.58369 14.6636C1.59345 14.6215 1.5948 14.578 1.58768 14.5354C1.58056 14.4928 1.5651 14.452 1.54219 14.4154L1.37156 14.1365L2.57578 13.3818L1.02703 16.1742C0.998232 16.224 0.983071 16.2806 0.983071 16.3382C0.983071 16.3958 0.998232 16.4524 1.02703 16.5023C1.05635 16.5518 1.09816 16.5926 1.14826 16.6209C1.19836 16.6491 1.255 16.6636 1.3125 16.6631C1.22548 16.6631 1.14202 16.6976 1.08048 16.7592C1.01895 16.8207 0.984375 16.9042 0.984375 16.9912V17.9756C0.984375 18.0626 1.01895 18.1461 1.08048 18.2076C1.14202 18.2691 1.22548 18.3037 1.3125 18.3037H0.328125C0.241101 18.3037 0.157641 18.3383 0.0961056 18.3998C0.0345702 18.4613 0 18.5448 0 18.6318C0 18.7188 0.0345702 18.8023 0.0961056 18.8638C0.157641 18.9254 0.241101 18.9599 0.328125 18.9599H19.3594C19.4464 18.9599 19.5299 18.9254 19.5914 18.8638C19.6529 18.8023 19.6875 18.7188 19.6875 18.6318V6.81932C19.689 6.74256 19.6636 6.66768 19.6157 6.60773C19.5677 6.54777 19.5002 6.50653 19.425 6.49119ZM7.875 11.2523V11.7839L7.02187 12.089L6.20156 11.5443C6.24882 11.4252 6.2733 11.2984 6.27375 11.1703C6.27537 11.1473 6.27537 11.1243 6.27375 11.1014L6.39187 11.0292C6.46628 10.9835 6.51949 10.9101 6.5398 10.8252C6.5601 10.7403 6.54584 10.6508 6.50016 10.5764C6.45447 10.5019 6.38109 10.4487 6.29618 10.4284C6.21126 10.4081 6.12175 10.4224 6.04734 10.4681L6.00797 10.4943L5.99156 10.4746L5.76187 10.2449C5.73137 10.2142 5.69508 10.1898 5.6551 10.1731C5.61511 10.1565 5.57222 10.1479 5.52891 10.1479C5.48559 10.1479 5.4427 10.1565 5.40272 10.1731C5.36273 10.1898 5.32644 10.2142 5.29594 10.2449L4.36734 11.1703C4.30263 11.2345 4.26605 11.3219 4.26562 11.4131C4.26596 11.4623 4.27835 11.5108 4.30172 11.5542L3.38953 12.1218L3.50109 10.7831L3.89812 11.1801C3.92851 11.2111 3.96475 11.2358 4.00474 11.2527C4.04473 11.2696 4.08768 11.2784 4.13109 11.2785C4.21764 11.2773 4.3002 11.2419 4.36078 11.1801L5.28938 10.2515C5.35049 10.19 5.38479 10.1069 5.38479 10.0202C5.38479 9.93349 5.35049 9.85033 5.28938 9.78885H5.80781L7.875 11.2523ZM4.44938 12.2367L4.34109 13.0931L3.51422 12.8142L4.44938 12.2367ZM3.9375 5.17869H5.25C5.33702 5.17869 5.42048 5.21326 5.48202 5.2748C5.54356 5.33633 5.57812 5.4198 5.57812 5.50682V8.45994H3.97031L3.66516 8.15479L4.82672 6.99651C5.00293 6.82677 5.10962 6.59748 5.12597 6.35336C5.14233 6.10924 5.06719 5.86777 4.91519 5.67604C4.7632 5.48431 4.54525 5.35605 4.30384 5.31627C4.06242 5.27649 3.81485 5.32805 3.60938 5.46088C3.62052 5.38204 3.65995 5.30994 3.72032 5.25802C3.78069 5.20611 3.85788 5.17791 3.9375 5.17869ZM2.85797 9.20479L2.27391 8.62073C2.21289 8.55978 2.16449 8.4874 2.13146 8.40773C2.09844 8.32807 2.08144 8.24267 2.08144 8.15643C2.08144 8.07019 2.09844 7.98479 2.13146 7.90512C2.16449 7.82546 2.21289 7.75308 2.27391 7.69213L3.91453 6.06791C3.97601 6.0068 4.05917 5.9725 4.14586 5.9725C4.23255 5.9725 4.31571 6.0068 4.37719 6.06791C4.4383 6.12939 4.4726 6.21256 4.4726 6.29924C4.4726 6.38593 4.4383 6.46909 4.37719 6.53057L2.98594 7.92182C2.95518 7.95232 2.93077 7.98861 2.91411 8.0286C2.89746 8.06858 2.88888 8.11147 2.88888 8.15479C2.88888 8.1981 2.89746 8.24099 2.91411 8.28098C2.93077 8.32096 2.95518 8.35725 2.98594 8.38776L4.26562 9.67072L4.59375 9.99885L4.13109 10.4615L2.85797 9.20479ZM3.28125 18.3037C3.36827 18.3037 3.45173 18.2691 3.51327 18.2076C3.5748 18.1461 3.60938 18.0626 3.60938 17.9756C3.60938 17.6275 3.47109 17.2936 3.22495 17.0475C2.97881 16.8014 2.64497 16.6631 2.29688 16.6631H2.95312C3.00889 16.6632 3.06376 16.6491 3.11256 16.6221C3.16136 16.5951 3.20248 16.5561 3.23203 16.5089L4.87266 13.8839C4.89762 13.8429 4.9133 13.797 4.91859 13.7493L5.11875 12.1382C5.17553 12.1429 5.2326 12.1429 5.28938 12.1382C5.45134 12.1372 5.61045 12.0955 5.75203 12.0168L6.5625 12.5746V15.0224C6.5625 15.1095 6.59707 15.1929 6.65861 15.2545C6.72014 15.316 6.8036 15.3506 6.89062 15.3506C6.8036 15.3506 6.72014 15.3851 6.65861 15.4467C6.59707 15.5082 6.5625 15.5917 6.5625 15.6787V16.6631C6.5625 16.7501 6.59707 16.8336 6.65861 16.8951C6.72014 16.9566 6.8036 16.9912 6.89062 16.9912H5.57812C5.53494 16.9909 5.49213 16.9992 5.45216 17.0156C5.41218 17.0319 5.37582 17.0559 5.34516 17.0864L4.13109 18.3037H3.28125ZM19.0312 10.1432L18.2536 10.3073L17.0231 11.7412L15.4645 15.1865L13.207 15.3112L10.9922 18.3037H5.05641L5.71266 17.6474H9.84375C9.89277 17.6476 9.94121 17.6368 9.98549 17.6158C10.0298 17.5948 10.0688 17.5641 10.0997 17.526L12.6263 14.3662H14.4375C14.4944 14.3662 14.5504 14.3514 14.5999 14.3232C14.6494 14.295 14.6906 14.2544 14.7197 14.2054L17.5777 9.44432H18.375C18.4394 9.44427 18.5024 9.42526 18.5561 9.38967C18.6097 9.35408 18.6518 9.30347 18.6769 9.24416L19.0312 8.41729V10.1432Z" fill="#666666"/>
</svg>
