<svg width="21" height="21" viewBox="0 0 21 21" fill="none" xmlns="http://www.w3.org/2000/svg">
<path d="M13.5762 16.0371V14.1914C13.5762 12.4953 12.1961 11.1152 10.5 11.1152H9.88477V16.1504C9.69138 16.0815 9.48631 16.0371 9.26953 16.0371C8.25183 16.0371 7.42383 16.8651 7.42383 17.8828C7.42383 18.9005 8.25183 19.7285 9.26953 19.7285C10.2872 19.7285 11.1152 18.9005 11.1152 17.8828V12.4508C11.8314 12.7049 12.3457 13.3894 12.3457 14.1914V16.0371H13.5762Z" fill="white"/>
<path d="M3.73242 12.3457H6.19336V19.7285H3.73242V12.3457Z" fill="white"/>
<path d="M2.50195 18.498V13.5762C1.14283 13.5762 0 14.678 0 16.0371C0 17.3962 1.14283 18.498 2.50195 18.498Z" fill="white"/>
<path d="M14.8066 12.3457H17.2676V19.7285H14.8066V12.3457Z" fill="white"/>
<path d="M18.498 13.5762V18.498C19.8572 18.498 21 17.3962 21 16.0371C21 14.678 19.8572 13.5762 18.498 13.5762Z" fill="white"/>
<path d="M17.2676 7.99805C17.2676 4.26034 14.2377 1.23047 10.5 1.23047C6.76229 1.23047 3.73242 4.26034 3.73242 7.99805V11.1152H4.96289V7.99805C4.96289 4.93998 7.44193 2.46094 10.5 2.46094C13.5581 2.46094 16.0371 4.93998 16.0371 7.99805V11.1152H17.2676V7.99805Z" fill="white"/>
</svg>
