<svg width="25" height="26" viewBox="0 0 25 26" fill="none" xmlns="http://www.w3.org/2000/svg">
<path fill-rule="evenodd" clip-rule="evenodd" d="M12.0601 6.92508H12.0592C10.2882 6.92508 8.62327 7.61502 7.37156 8.86744C6.29801 9.94022 5.62064 11.3609 5.4642 12.8679C5.3185 14.2717 5.62729 15.6959 6.33537 16.9059L5.98258 18.9238C5.94818 19.1206 6.01176 19.3218 6.15302 19.4631C6.29433 19.6043 6.49549 19.6679 6.6923 19.6335L8.71015 19.2807C9.72431 19.8742 10.8887 20.1871 12.0657 20.1871C12.293 20.1871 12.521 20.1754 12.7482 20.1519C14.2551 19.9954 15.6759 19.3181 16.7486 18.2445C19.3334 15.6592 19.3336 11.4526 16.7485 8.86754C15.496 7.61507 13.831 6.92523 12.06 6.92502L12.0601 6.92508ZM15.8813 17.3774L15.8811 17.3775C14.8438 18.4156 13.4491 18.9538 12.0461 18.9537C11.0465 18.9537 10.0425 18.6802 9.16163 18.1195C9.06258 18.0564 8.94826 18.0235 8.8323 18.0235C8.79713 18.0235 8.76177 18.0266 8.72666 18.0327L7.34126 18.2749L7.5835 16.8895C7.60987 16.7388 7.5789 16.5837 7.49672 16.4546C6.14893 14.3374 6.46094 11.5115 8.2389 9.73477C9.25924 8.71381 10.6159 8.15164 12.0593 8.15164H12.0599C13.5033 8.15179 14.8604 8.71407 15.8813 9.73493C17.9883 11.842 17.9883 15.2704 15.8813 17.3774V17.3774ZM15.7243 13.5561C15.7243 13.8948 15.4497 14.1694 15.111 14.1694H9.02344C8.68475 14.1694 8.41015 13.8948 8.41015 13.5561C8.41015 13.2175 8.68475 12.9429 9.02344 12.9429H15.111C15.4497 12.9429 15.7243 13.2175 15.7243 13.5561ZM15.7243 11.4352C15.7243 11.7739 15.4497 12.0485 15.111 12.0485H9.00897C8.67029 12.0485 8.39569 11.7739 8.39569 11.4352C8.39569 11.0965 8.67029 10.8219 9.00897 10.8219H15.111C15.4497 10.8219 15.7243 11.0965 15.7243 11.4352ZM15.7228 15.6771C15.7228 16.0158 15.4482 16.2903 15.1095 16.2903H14.5619C14.2232 16.2903 13.9487 16.0158 13.9487 15.6771C13.9487 15.3384 14.2232 15.0638 14.5619 15.0638H15.1095C15.4482 15.0638 15.7228 15.3384 15.7228 15.6771ZM13.189 15.6771C13.189 16.0158 12.9144 16.2903 12.5757 16.2903H9.02349C8.6848 16.2903 8.41021 16.0158 8.41021 15.6771C8.41021 15.3384 8.6848 15.0638 9.02349 15.0638H12.5757C12.9144 15.0638 13.189 15.3384 13.189 15.6771ZM0.888354 14.4633C0.892851 14.4633 0.897451 14.4632 0.902 14.4631C1.24058 14.454 1.50772 14.1722 1.49862 13.8336C1.48339 13.2673 1.51554 12.6895 1.59404 12.1165C2.2063 7.66796 5.48945 4.15478 9.8369 3.22576C10.1789 4.1209 11.0461 4.75856 12.06 4.75856C13.3719 4.75856 14.4393 3.69124 14.4393 2.37928C14.4393 1.06731 13.3719 0 12.06 0C10.8774 0 9.89394 0.867385 9.71144 1.9993C7.43974 2.46314 5.30828 3.61473 3.66948 5.27198C1.86715 7.0946 0.72931 9.40355 0.37887 11.9496C0.291273 12.5889 0.255498 13.2339 0.272466 13.8666C0.281461 14.2006 0.555853 14.4651 0.888354 14.4634V14.4633ZM12.06 1.22651C12.6956 1.22651 13.2127 1.74361 13.2127 2.37923C13.2127 3.01484 12.6956 3.53194 12.06 3.53194C11.4244 3.53194 10.9073 3.01484 10.9073 2.37923C10.9073 1.74361 11.4244 1.22651 12.06 1.22651ZM17.5817 22.5635C17.0936 22.8613 16.5768 23.1221 16.0455 23.3385C11.8868 25.0331 7.20332 23.9472 4.22583 20.6474C4.43512 20.3906 4.59012 20.0905 4.67849 19.7609C4.8432 19.1466 4.75862 18.5052 4.44084 17.9554C4.12357 17.4049 3.61071 17.011 2.99666 16.8464C2.38241 16.6817 1.74092 16.7663 1.19045 17.0845C0.640179 17.4026 0.246555 17.9156 0.0820928 18.5291C-0.0824712 19.143 0.0021107 19.7842 0.320251 20.3345C0.63834 20.8848 1.1514 21.2784 1.76484 21.4428C1.96977 21.4978 2.17773 21.5249 2.3843 21.5249C2.67132 21.5249 2.95537 21.4713 3.22521 21.368C4.76246 23.1036 6.82548 24.3737 9.08047 24.9642C10.0875 25.2279 11.1091 25.3565 12.1268 25.3514C13.615 25.3439 15.095 25.0503 16.5082 24.4744C17.1003 24.2333 17.6764 23.9426 18.2206 23.6105C18.5097 23.4341 18.6011 23.0567 18.4247 22.7676C18.2483 22.4785 17.8708 22.3872 17.5817 22.5635L17.5817 22.5635ZM2.08241 20.2581C1.78513 20.1785 1.53644 19.9876 1.38215 19.7207C1.22811 19.4542 1.18718 19.1438 1.2668 18.8467C1.34648 18.5494 1.53736 18.3007 1.80424 18.1464C1.98184 18.0438 2.17895 17.9913 2.37873 17.9913C2.47885 17.9913 2.57968 18.0045 2.67903 18.0311C2.97627 18.1109 3.22455 18.3015 3.37848 18.5685C3.53257 18.8351 3.57351 19.1457 3.49373 19.4433C3.414 19.7406 3.22342 19.9888 2.95634 20.1428C2.68987 20.2968 2.3795 20.3378 2.08241 20.2581ZM24.0378 18.5283C23.9064 18.038 23.6284 17.6126 23.242 17.2996C23.9762 15.1007 24.0446 12.6795 23.4288 10.4321C22.7514 7.96019 21.3203 5.8202 19.2903 4.24345C18.7824 3.84885 18.2422 3.4953 17.6849 3.19254C17.3873 3.03094 17.0149 3.14113 16.8533 3.43877C16.6916 3.73642 16.8018 4.10873 17.0995 4.27038C17.5984 4.5414 18.0824 4.85821 18.5378 5.21208C22.0849 7.96709 23.4862 12.5665 22.1172 16.7949C21.7902 16.7422 21.453 16.7581 21.1233 16.8464C20.5093 17.0111 19.9964 17.4049 19.6796 17.9547C19.3614 18.5051 19.2768 19.1462 19.4414 19.7601C19.6059 20.3736 19.9994 20.8866 20.5498 21.2047C20.9234 21.4207 21.332 21.5233 21.7354 21.5233C22.5578 21.5233 23.3592 21.0967 23.7997 20.3345C24.1179 19.7841 24.2025 19.1426 24.0378 18.5283ZM22.7378 19.7207C22.4195 20.2712 21.7133 20.4605 21.1636 20.1428C20.8967 19.9885 20.7058 19.7399 20.6261 19.4425C20.5464 19.1454 20.5874 18.835 20.7419 18.5678C20.8954 18.3015 21.1437 18.1108 21.441 18.0311C21.5403 18.0045 21.641 17.9913 21.7411 17.9913C21.941 17.9913 22.1384 18.0439 22.3164 18.1468C22.5828 18.3003 22.7734 18.5486 22.8531 18.8459C22.9329 19.1434 22.8919 19.4541 22.7378 19.7207H22.7378ZM1.57927 15.2446C1.76325 15.5276 1.68255 15.9076 1.39809 16.093C1.11506 16.277 0.735085 16.1963 0.549669 15.9133C0.365685 15.6288 0.446331 15.2488 0.730792 15.0649C1.01382 14.8794 1.39385 14.9601 1.57927 15.2446ZM19.8547 22.3455C19.7012 22.6461 19.3324 22.7668 19.0303 22.6133C18.7282 22.4598 18.6089 22.091 18.7625 21.7888C18.9159 21.4867 19.2848 21.3675 19.5869 21.521C19.889 21.6745 20.0082 22.0433 19.8547 22.3455H19.8547ZM15.1925 3.05578C15.1749 2.71684 15.4342 2.4287 15.7731 2.41107C16.112 2.39195 16.4001 2.65275 16.4178 2.99021C16.4354 3.32915 16.1761 3.61729 15.8386 3.63492C15.4997 3.65255 15.2116 3.39324 15.1925 3.05578Z" fill="#4D4D4D"/>
</svg>
