<svg width="152" height="136" viewBox="0 0 152 136" fill="none" xmlns="http://www.w3.org/2000/svg">
<g opacity="0.36">
<path d="M3.61433 57.2592C5.92857 59.5663 9.06735 60.8625 12.3402 60.8625C14.7989 60.8625 17.1818 60.1309 19.1965 58.7887L10.4118 67.5466C8.09753 69.8538 6.79736 72.983 6.79736 76.2458C6.79736 79.5087 8.09749 82.6378 10.4118 84.945C12.726 87.2522 15.8648 88.5484 19.1376 88.5484C21.5963 88.5484 23.9792 87.8168 25.9938 86.4746L21.3834 91.071C19.0692 93.3781 17.769 96.5073 17.769 99.7702C17.769 103.033 19.0691 106.162 21.3834 108.469C23.6977 110.777 26.8364 112.073 30.1093 112.073C32.5679 112.073 34.9508 111.341 36.9654 109.999L35.8392 111.122C33.525 113.429 32.2248 116.558 32.2248 119.821C32.2248 123.084 33.5249 126.213 35.8392 128.52C38.1534 130.827 41.2922 132.124 44.565 132.124C47.8379 132.124 50.9767 130.828 53.2909 128.52L64.9848 116.862C63.6386 118.871 62.9047 121.246 62.9047 123.697C62.9047 126.96 64.2049 130.089 66.5191 132.397C68.8334 134.704 71.9721 136 75.2449 136C78.5178 136 81.6566 134.704 83.9708 132.397L101.739 114.683C100.392 116.692 99.6585 119.067 99.6585 121.518C99.6585 124.781 100.959 127.91 103.273 130.218C105.587 132.525 108.726 133.821 111.999 133.821C115.272 133.821 118.41 132.525 120.725 130.218L148.386 102.641C150.7 100.334 152 97.2048 152 93.9419C152 90.6791 150.7 87.5499 148.386 85.2427C146.071 82.9355 142.933 81.6394 139.66 81.6394C137.201 81.6394 134.818 82.371 132.804 83.713L138.594 77.9405C140.908 75.6333 142.208 72.5041 142.208 69.2413C142.208 65.9785 140.908 62.8493 138.594 60.5421C136.28 58.2349 133.141 56.9388 129.868 56.9388C127.409 56.9388 125.026 57.6704 123.012 59.0125L134.706 47.3543C137.02 45.0471 138.32 41.9179 138.32 38.655C138.32 35.3922 137.02 32.263 134.706 29.9558C132.391 27.6487 129.253 26.3525 125.98 26.3525C123.521 26.3525 121.138 27.084 119.124 28.4261L126.571 21.0018C128.885 18.6946 130.185 15.5654 130.185 12.3025C130.185 9.03966 128.885 5.91046 126.571 3.60333C124.256 1.29616 121.118 0 117.845 0C114.572 0 111.433 1.29616 109.119 3.60333L92.5311 20.1405C93.8773 18.1321 94.6112 15.7564 94.6112 13.3053C94.6112 10.0425 93.3111 6.91322 90.9968 4.60609C88.6826 2.29891 85.5438 1.00271 82.271 1.00271C78.9982 1.00271 75.8593 2.29887 73.5451 4.60609L50.2614 27.8187C51.6076 25.8102 52.3415 23.4345 52.3415 20.9834C52.3415 17.7205 51.0413 14.5913 48.7271 12.2842C46.4129 9.97699 43.2741 8.68083 40.0013 8.68083C36.7284 8.68083 33.5897 9.97699 31.2754 12.2842L3.61437 39.8607C1.30013 42.1679 0 45.2971 0 48.5599C0 51.8227 1.30008 54.952 3.61433 57.2592Z" fill="white"/>
<path d="M140.534 92.421L139.68 93.2721C139.347 93.6049 139.347 94.1443 139.68 94.477C140.014 94.8098 140.555 94.8098 140.889 94.477L141.743 93.6259L142.597 94.477C142.93 94.8098 143.471 94.8098 143.805 94.477C144.139 94.1443 144.139 93.6049 143.805 93.2721L142.951 92.421L143.805 91.5698C144.139 91.2371 144.139 90.6976 143.805 90.3649C143.638 90.1985 143.42 90.1154 143.201 90.1154C142.982 90.1154 142.764 90.1985 142.597 90.3649L141.743 91.2161L140.889 90.3649C140.722 90.1985 140.503 90.1154 140.285 90.1154C140.066 90.1154 139.847 90.1985 139.68 90.3649C139.347 90.6976 139.347 91.2371 139.68 91.5698L140.534 92.421Z" fill="white"/>
<path d="M29.627 128.038L28.7732 128.889C28.4395 129.221 28.4395 129.761 28.7732 130.094C29.107 130.426 29.6481 130.426 29.9818 130.094L30.8356 129.242L31.6894 130.094C32.0232 130.426 32.5642 130.426 32.898 130.094C33.2317 129.761 33.2317 129.221 32.898 128.889L32.0442 128.038L32.898 127.186C33.2317 126.854 33.2317 126.314 32.898 125.981C32.7311 125.815 32.5124 125.732 32.2937 125.732C32.075 125.732 31.8563 125.815 31.6894 125.981L30.8356 126.833L29.9818 125.981C29.8149 125.815 29.5963 125.732 29.3775 125.732C29.1589 125.732 28.9401 125.815 28.7732 125.981C28.4395 126.314 28.4395 126.854 28.7732 127.186L29.627 128.038Z" fill="white"/>
<path d="M7.77988 52.5833L6.92608 53.4344C6.59235 53.7672 6.59235 54.3066 6.92608 54.6393C7.25981 54.972 7.80089 54.972 8.13467 54.6393L8.98846 53.7881L9.84226 54.6393C10.176 54.972 10.7171 54.972 11.0508 54.6393C11.3846 54.3066 11.3846 53.7672 11.0508 53.4344L10.197 52.5833L11.0508 51.7321C11.3846 51.3994 11.3846 50.8599 11.0508 50.5272C10.884 50.3608 10.6653 50.2776 10.4465 50.2776C10.2278 50.2776 10.0091 50.3608 9.84226 50.5272L8.98846 51.3784L8.13467 50.5272C7.96778 50.3608 7.7491 50.2776 7.53037 50.2776C7.3117 50.2776 7.09297 50.3608 6.92608 50.5272C6.59235 50.8599 6.59235 51.3994 6.92608 51.7321L7.77988 52.5833Z" fill="white"/>
<path d="M110.551 8.8349L109.698 9.68609C109.364 10.0188 109.364 10.5583 109.698 10.891C110.031 11.2237 110.572 11.2237 110.906 10.891L111.76 10.0398L112.614 10.891C112.947 11.2237 113.489 11.2237 113.822 10.891C114.156 10.5583 114.156 10.0188 113.822 9.68609L112.969 8.8349L113.822 7.98372C114.156 7.651 114.156 7.11154 113.822 6.77882C113.655 6.61249 113.437 6.5293 113.218 6.5293C112.999 6.5293 112.781 6.61249 112.614 6.77882L111.76 7.63001L110.906 6.77882C110.739 6.61249 110.521 6.5293 110.302 6.5293C110.083 6.5293 109.864 6.61249 109.698 6.77882C109.364 7.11154 109.364 7.651 109.698 7.98372L110.551 8.8349Z" fill="white"/>
<path d="M94.9178 129.224C96.2942 129.224 97.4141 130.341 97.4141 131.713C97.4141 133.085 96.2942 134.202 94.9178 134.202C93.5413 134.202 92.4214 133.085 92.4214 131.713C92.4214 130.341 93.5413 129.224 94.9178 129.224ZM94.9178 132.498C95.3518 132.498 95.7049 132.146 95.7049 131.713C95.7049 131.28 95.3518 130.928 94.9178 130.928C94.4837 130.928 94.1306 131.28 94.1306 131.713C94.1306 132.146 94.4837 132.498 94.9178 132.498Z" fill="white"/>
<path d="M141.967 49.9207C143.344 49.9207 144.463 51.0371 144.463 52.4094C144.463 53.7817 143.344 54.8981 141.967 54.8981C140.591 54.8981 139.471 53.7817 139.471 52.4094C139.471 51.0371 140.591 49.9207 141.967 49.9207ZM141.967 53.1942C142.401 53.1942 142.754 52.8421 142.754 52.4094C142.754 51.9766 142.401 51.6246 141.967 51.6246C141.533 51.6246 141.18 51.9767 141.18 52.4094C141.18 52.8421 141.533 53.1942 141.967 53.1942Z" fill="white"/>
<path d="M37.4617 9.97797C38.8382 9.97797 39.958 11.0944 39.958 12.4667C39.958 13.839 38.8382 14.9554 37.4617 14.9554C36.0852 14.9554 34.9653 13.839 34.9653 12.4667C34.9654 11.0944 36.0852 9.97797 37.4617 9.97797ZM37.4617 13.2515C37.8958 13.2515 38.2488 12.8994 38.2488 12.4667C38.2488 12.034 37.8957 11.682 37.4617 11.682C37.0276 11.682 36.6745 12.034 36.6745 12.4667C36.6745 12.8995 37.0277 13.2515 37.4617 13.2515Z" fill="white"/>
<path d="M13.0867 89.8302C14.4632 89.8302 15.583 90.9466 15.583 92.3189C15.583 93.6912 14.4632 94.8076 13.0867 94.8076C11.7102 94.8076 10.5903 93.6911 10.5903 92.3189C10.5904 90.9466 11.7102 89.8302 13.0867 89.8302ZM13.0867 93.1037C13.5208 93.1037 13.8738 92.7516 13.8738 92.3189C13.8738 91.8862 13.5207 91.5341 13.0867 91.5341C12.6526 91.5341 12.2995 91.8862 12.2995 92.3189C12.2995 92.7516 12.6527 93.1037 13.0867 93.1037Z" fill="white"/>
<path d="M3.61433 57.2592C5.92857 59.5663 9.06735 60.8625 12.3402 60.8625C14.7989 60.8625 17.1818 60.1309 19.1965 58.7887L10.4118 67.5466C8.09753 69.8538 6.79736 72.983 6.79736 76.2458C6.79736 79.5087 8.09749 82.6378 10.4118 84.945C12.726 87.2522 15.8648 88.5484 19.1376 88.5484C21.5963 88.5484 23.9792 87.8168 25.9938 86.4746L21.3834 91.071C19.0692 93.3781 17.769 96.5073 17.769 99.7702C17.769 103.033 19.0691 106.162 21.3834 108.469C23.6977 110.777 26.8364 112.073 30.1093 112.073C32.5679 112.073 34.9508 111.341 36.9654 109.999L35.8392 111.122C33.525 113.429 32.2248 116.558 32.2248 119.821C32.2248 123.084 33.5249 126.213 35.8392 128.52C38.1534 130.827 41.2922 132.124 44.565 132.124C47.8379 132.124 50.9767 130.828 53.2909 128.52L64.9848 116.862C63.6386 118.871 62.9047 121.246 62.9047 123.697C62.9047 126.96 64.2049 130.089 66.5191 132.397C68.8334 134.704 71.9721 136 75.2449 136C78.5178 136 81.6566 134.704 83.9708 132.397L101.739 114.683C100.392 116.692 99.6585 119.067 99.6585 121.518C99.6585 124.781 100.959 127.91 103.273 130.218C105.587 132.525 108.726 133.821 111.999 133.821C115.272 133.821 118.41 132.525 120.725 130.218L148.386 102.641C150.7 100.334 152 97.2048 152 93.9419C152 90.6791 150.7 87.5499 148.386 85.2427C146.071 82.9355 142.933 81.6394 139.66 81.6394C137.201 81.6394 134.818 82.371 132.804 83.713L138.594 77.9405C140.908 75.6333 142.208 72.5041 142.208 69.2413C142.208 65.9785 140.908 62.8493 138.594 60.5421C136.28 58.2349 133.141 56.9388 129.868 56.9388C127.409 56.9388 125.026 57.6704 123.012 59.0125L134.706 47.3543C137.02 45.0471 138.32 41.9179 138.32 38.655C138.32 35.3922 137.02 32.263 134.706 29.9558C132.391 27.6487 129.253 26.3525 125.98 26.3525C123.521 26.3525 121.138 27.084 119.124 28.4261L126.571 21.0018C128.885 18.6946 130.185 15.5654 130.185 12.3025C130.185 9.03966 128.885 5.91046 126.571 3.60333C124.256 1.29616 121.118 0 117.845 0C114.572 0 111.433 1.29616 109.119 3.60333L92.5311 20.1405C93.8773 18.1321 94.6112 15.7564 94.6112 13.3053C94.6112 10.0425 93.3111 6.91322 90.9968 4.60609C88.6826 2.29891 85.5438 1.00271 82.271 1.00271C78.9982 1.00271 75.8593 2.29887 73.5451 4.60609L50.2614 27.8187C51.6076 25.8102 52.3415 23.4345 52.3415 20.9834C52.3415 17.7205 51.0413 14.5913 48.7271 12.2842C46.4129 9.97699 43.2741 8.68083 40.0013 8.68083C36.7284 8.68083 33.5897 9.97699 31.2754 12.2842L3.61437 39.8607C1.30013 42.1679 0 45.2971 0 48.5599C0 51.8227 1.30008 54.952 3.61433 57.2592Z" fill="#F8D3DA"/>
<path d="M140.534 92.421L139.68 93.2721C139.347 93.6049 139.347 94.1443 139.68 94.477C140.014 94.8098 140.555 94.8098 140.889 94.477L141.743 93.6259L142.597 94.477C142.93 94.8098 143.471 94.8098 143.805 94.477C144.139 94.1443 144.139 93.6049 143.805 93.2721L142.951 92.421L143.805 91.5698C144.139 91.2371 144.139 90.6976 143.805 90.3649C143.638 90.1985 143.42 90.1154 143.201 90.1154C142.982 90.1154 142.764 90.1985 142.597 90.3649L141.743 91.2161L140.889 90.3649C140.722 90.1985 140.503 90.1154 140.285 90.1154C140.066 90.1154 139.847 90.1985 139.68 90.3649C139.347 90.6976 139.347 91.2371 139.68 91.5698L140.534 92.421Z" fill="#E44E6C"/>
<path d="M29.627 128.038L28.7732 128.889C28.4395 129.221 28.4395 129.761 28.7732 130.094C29.107 130.426 29.6481 130.426 29.9818 130.094L30.8356 129.242L31.6894 130.094C32.0232 130.426 32.5642 130.426 32.898 130.094C33.2317 129.761 33.2317 129.221 32.898 128.889L32.0442 128.038L32.898 127.186C33.2317 126.854 33.2317 126.314 32.898 125.981C32.7311 125.815 32.5124 125.732 32.2937 125.732C32.075 125.732 31.8563 125.815 31.6894 125.981L30.8356 126.833L29.9818 125.981C29.8149 125.815 29.5963 125.732 29.3775 125.732C29.1589 125.732 28.9401 125.815 28.7732 125.981C28.4395 126.314 28.4395 126.854 28.7732 127.186L29.627 128.038Z" fill="#E44E6C"/>
<path d="M7.77988 52.5833L6.92608 53.4344C6.59235 53.7672 6.59235 54.3066 6.92608 54.6393C7.25981 54.972 7.80089 54.972 8.13467 54.6393L8.98846 53.7881L9.84226 54.6393C10.176 54.972 10.7171 54.972 11.0508 54.6393C11.3846 54.3066 11.3846 53.7672 11.0508 53.4344L10.197 52.5833L11.0508 51.7321C11.3846 51.3994 11.3846 50.8599 11.0508 50.5272C10.884 50.3608 10.6653 50.2776 10.4465 50.2776C10.2278 50.2776 10.0091 50.3608 9.84226 50.5272L8.98846 51.3784L8.13467 50.5272C7.96778 50.3608 7.7491 50.2776 7.53037 50.2776C7.3117 50.2776 7.09297 50.3608 6.92608 50.5272C6.59235 50.8599 6.59235 51.3994 6.92608 51.7321L7.77988 52.5833Z" fill="#E44E6C"/>
<path d="M110.551 8.8349L109.698 9.68609C109.364 10.0188 109.364 10.5583 109.698 10.891C110.031 11.2237 110.572 11.2237 110.906 10.891L111.76 10.0398L112.614 10.891C112.947 11.2237 113.489 11.2237 113.822 10.891C114.156 10.5583 114.156 10.0188 113.822 9.68609L112.969 8.8349L113.822 7.98372C114.156 7.651 114.156 7.11154 113.822 6.77882C113.655 6.61249 113.437 6.5293 113.218 6.5293C112.999 6.5293 112.781 6.61249 112.614 6.77882L111.76 7.63001L110.906 6.77882C110.739 6.61249 110.521 6.5293 110.302 6.5293C110.083 6.5293 109.864 6.61249 109.698 6.77882C109.364 7.11154 109.364 7.651 109.698 7.98372L110.551 8.8349Z" fill="#E44E6C"/>
<path d="M94.9178 129.224C96.2942 129.224 97.4141 130.341 97.4141 131.713C97.4141 133.085 96.2942 134.202 94.9178 134.202C93.5413 134.202 92.4214 133.085 92.4214 131.713C92.4214 130.341 93.5413 129.224 94.9178 129.224ZM94.9178 132.498C95.3518 132.498 95.7049 132.146 95.7049 131.713C95.7049 131.28 95.3518 130.928 94.9178 130.928C94.4837 130.928 94.1306 131.28 94.1306 131.713C94.1306 132.146 94.4837 132.498 94.9178 132.498Z" fill="#E44E6C"/>
<path d="M141.967 49.9207C143.344 49.9207 144.463 51.0371 144.463 52.4094C144.463 53.7817 143.344 54.8981 141.967 54.8981C140.591 54.8981 139.471 53.7817 139.471 52.4094C139.471 51.0371 140.591 49.9207 141.967 49.9207ZM141.967 53.1942C142.401 53.1942 142.754 52.8421 142.754 52.4094C142.754 51.9766 142.401 51.6246 141.967 51.6246C141.533 51.6246 141.18 51.9767 141.18 52.4094C141.18 52.8421 141.533 53.1942 141.967 53.1942Z" fill="#E44E6C"/>
<path d="M37.4617 9.97797C38.8382 9.97797 39.958 11.0944 39.958 12.4667C39.958 13.839 38.8382 14.9554 37.4617 14.9554C36.0852 14.9554 34.9653 13.839 34.9653 12.4667C34.9654 11.0944 36.0852 9.97797 37.4617 9.97797ZM37.4617 13.2515C37.8958 13.2515 38.2488 12.8994 38.2488 12.4667C38.2488 12.034 37.8957 11.682 37.4617 11.682C37.0276 11.682 36.6745 12.034 36.6745 12.4667C36.6745 12.8995 37.0277 13.2515 37.4617 13.2515Z" fill="#E44E6C"/>
<path d="M13.0867 89.8302C14.4632 89.8302 15.583 90.9466 15.583 92.3189C15.583 93.6912 14.4632 94.8076 13.0867 94.8076C11.7102 94.8076 10.5903 93.6911 10.5903 92.3189C10.5904 90.9466 11.7102 89.8302 13.0867 89.8302ZM13.0867 93.1037C13.5208 93.1037 13.8738 92.7516 13.8738 92.3189C13.8738 91.8862 13.5207 91.5341 13.0867 91.5341C12.6526 91.5341 12.2995 91.8862 12.2995 92.3189C12.2995 92.7516 12.6527 93.1037 13.0867 93.1037Z" fill="#E44E6C"/>
<path d="M106.017 86.2265V61.01C106.017 53.4461 99.8449 47.2924 92.2579 47.2924H46.1216V45.3703C46.1216 38.6932 51.5704 33.261 58.2678 33.261H107.988C114.686 33.261 120.135 38.6932 120.135 45.3703V74.1173C120.135 80.7943 114.686 86.2265 107.988 86.2265H106.017Z" fill="#D9D9D9"/>
<path d="M107.988 34.1146C114.214 34.1146 119.278 39.1639 119.278 45.3703V74.1173C119.278 80.3236 114.214 85.3729 107.988 85.3729H106.873V61.0099C106.873 52.9607 100.33 46.4388 92.2576 46.4388H46.9776V45.3702C46.9776 39.1639 52.0423 34.1146 58.2677 34.1146L107.988 34.1146ZM107.988 32.4075H58.2676C51.098 32.4075 45.2651 38.2226 45.2651 45.3703V46.4389V48.146H46.9775H92.2576C99.3725 48.146 105.161 53.9168 105.161 61.01V85.373V87.0801H106.873H107.988C115.158 87.0801 120.991 81.265 120.991 74.1173V45.3703C120.991 38.2226 115.158 32.4075 107.988 32.4075Z" fill="#3B3B3B"/>
<path d="M48.9778 100.544C48.8313 100.418 48.6436 100.348 48.4495 100.348H44.011C37.3135 100.348 31.8647 94.9159 31.8647 88.2389V59.4918C31.8647 52.8148 37.3135 47.3826 44.011 47.3826H93.7315C100.429 47.3826 105.878 52.8148 105.878 59.4918V88.2389C105.878 94.9159 100.429 100.348 93.7315 100.348H67.9703C67.5256 100.348 67.1637 100.709 67.1637 101.152V116.246L48.9778 100.544Z" fill="white"/>
<path d="M109.111 33.5266H59.3902C52.2206 33.5266 46.3877 39.3417 46.3877 46.4894V47.558V47.6482H46.2481H45.1334C37.9638 47.6482 32.1309 53.4632 32.1309 60.611V89.3581C32.1309 96.5058 37.9638 102.321 45.1334 102.321H49.5537L66.3088 116.787L69.1422 119.233V115.496V102.321H94.8538C102.023 102.321 107.856 96.5058 107.856 89.3581V88.2895V88.1993H107.996H109.111C116.28 88.1993 122.113 82.3842 122.113 75.2365V46.4894C122.113 39.3417 116.28 33.5266 109.111 33.5266ZM106.144 84.9739V88.2894V89.358C106.144 95.5643 101.079 100.614 94.8539 100.614H69.0927C68.1741 100.614 67.4299 101.356 67.4299 102.271V115.496L50.6607 101.018C50.3584 100.757 49.9719 100.614 49.5719 100.614H45.1334C38.908 100.614 33.8433 95.5643 33.8433 89.3579V60.6108C33.8433 54.4045 38.908 49.3552 45.1334 49.3552H46.2482H49.5739H94.8539C94.873 49.3552 94.892 49.3559 94.9111 49.356C100.66 50.0366 105.263 54.5 106.135 60.1725C106.14 60.318 106.144 60.464 106.144 60.6108L106.144 84.9739ZM120.401 75.2364C120.401 81.4428 115.336 86.492 109.111 86.492H107.996V62.1291C107.996 61.4101 107.943 60.7037 107.842 60.0127C107.53 53.1982 101.916 47.7396 95.0253 47.6503C94.4852 47.59 93.9365 47.558 93.3802 47.558H48.1002V46.4894C48.1002 40.283 53.1649 35.2337 59.3903 35.2337H109.111C115.336 35.2337 120.401 40.283 120.401 46.4894V75.2364H120.401Z" fill="#D9D9D9"/>
<path d="M93.1737 64.5737V67.8892H46.8135V64.5737H93.1737ZM94.8861 62.8665H93.1737H46.8135H45.1011V64.5737V67.8892V69.5964H46.8135H93.1737H94.8861V67.8892V64.5737V62.8665Z" fill="#D9D9D9"/>
<path d="M85.7242 82.0798V85.3953H46.8135V82.0798H85.7242ZM87.4366 80.3726H85.7242H46.8135H45.1011V82.0798V85.3953V87.1024H46.8135H85.7242H87.4366V85.3953V82.0798V80.3726Z" fill="#D9D9D9"/>
<path d="M92.9076 62.601H44.835V67.6236H92.9076V62.601Z" fill="#E44E6C"/>
<path d="M85.4581 80.107H44.835V85.1297H85.4581V80.107Z" fill="#E44E6C"/>
<path d="M93.7313 46.5292H44.011C36.8411 46.5292 31.0083 52.3442 31.0083 59.4917V88.2391C31.0083 93.051 33.6519 97.259 37.5673 99.4949C39.4676 100.581 41.6682 101.202 44.011 101.202H48.4313L48.4318 101.202L65.1865 115.668L68.0198 118.114V101.202H93.7313C96.074 101.202 98.2747 100.581 100.175 99.4949C104.09 97.259 106.734 93.051 106.734 88.2391V59.4917C106.734 52.3442 100.901 46.5292 93.7313 46.5292ZM105.022 88.2391C105.022 94.4453 99.957 99.4944 93.7313 99.4944H67.9703C67.9559 99.4944 67.9416 99.4944 67.9272 99.4949C67.0284 99.5175 66.3074 100.251 66.3074 101.152V114.377L51.0476 101.202L49.5383 99.8991C49.2408 99.6421 48.8612 99.499 48.4683 99.4949C48.4618 99.4944 48.4558 99.4944 48.4493 99.4944H44.011C37.7857 99.4944 32.7207 94.4453 32.7207 88.2391V59.4917C32.7207 53.2854 37.7857 48.2363 44.011 48.2363H93.7313C99.957 48.2363 105.022 53.2854 105.022 59.4917V88.2391Z" fill="#757575"/>
<path d="M92.0512 63.4545V66.7701H45.6909V63.4545H92.0512ZM93.7636 61.7474H92.0512H45.6909H43.9785V63.4545V66.7701V68.4773H45.6909H92.0512H93.7636V66.7701V63.4545V61.7474Z" fill="#757575"/>
<path d="M84.6016 80.9606V84.2761H45.6909V80.9606H84.6016ZM86.314 79.2534H84.6016H45.6909H43.9785V80.9606V84.2761V85.9833H45.6909H84.6016H86.314V84.2761V80.9606V79.2534Z" fill="#757575"/>
<path d="M49.5386 99.8991L51.0478 101.202H26.1194C25.6469 101.202 25.2632 100.82 25.2632 100.349C25.2632 99.877 25.6469 99.4949 26.1194 99.4949H48.4686C48.8615 99.4991 49.241 99.6421 49.5386 99.8991Z" fill="#757575"/>
<path d="M122.199 100.349C122.199 100.82 121.815 101.202 121.343 101.202H66.3076V101.152C66.3076 100.251 67.0287 99.5175 67.9275 99.4949H121.343C121.815 99.4949 122.199 99.877 122.199 100.349Z" fill="#757575"/>
<path d="M22.5867 101.202H18.6873C18.2144 101.202 17.8311 100.82 17.8311 100.348C17.8311 99.8767 18.2144 99.4945 18.6873 99.4945H22.5867C23.0595 99.4945 23.4429 99.8767 23.4429 100.348C23.4429 100.82 23.0595 101.202 22.5867 101.202Z" fill="#757575"/>
<path d="M34.8294 97.0185H30.9299C30.4571 97.0185 30.0737 96.6363 30.0737 96.1649C30.0737 95.6935 30.4571 95.3113 30.9299 95.3113H34.8294C35.3022 95.3113 35.6856 95.6935 35.6856 96.1649C35.6856 96.6363 35.3022 97.0185 34.8294 97.0185Z" fill="#757575"/>
<path d="M27.3972 97.0185H23.4978C23.0249 97.0185 22.6416 96.6363 22.6416 96.1649C22.6416 95.6935 23.0249 95.3113 23.4978 95.3113H27.3972C27.8701 95.3113 28.2534 95.6935 28.2534 96.1649C28.2534 96.6363 27.8701 97.0185 27.3972 97.0185Z" fill="#757575"/>
<path d="M106.841 97.0185H102.941C102.468 97.0185 102.085 96.6363 102.085 96.1649C102.085 95.6935 102.468 95.3113 102.941 95.3113H106.841C107.314 95.3113 107.697 95.6935 107.697 96.1649C107.697 96.6363 107.314 97.0185 106.841 97.0185Z" fill="#757575"/>
<path d="M114.273 97.0185H110.373C109.9 97.0185 109.517 96.6363 109.517 96.1649C109.517 95.6935 109.9 95.3113 110.373 95.3113H114.273C114.746 95.3113 115.129 95.6935 115.129 96.1649C115.129 96.6363 114.746 97.0185 114.273 97.0185Z" fill="#757575"/>
<path d="M128.775 101.202H124.875C124.402 101.202 124.019 100.82 124.019 100.348C124.019 99.8767 124.402 99.4945 124.875 99.4945H128.775C129.248 99.4945 129.631 99.8767 129.631 100.348C129.631 100.82 129.248 101.202 128.775 101.202Z" fill="#757575"/>
</g>
</svg>
