<svg width="23" height="23" viewBox="0 0 23 23" fill="none" xmlns="http://www.w3.org/2000/svg">
<path fill-rule="evenodd" clip-rule="evenodd" d="M2.48156 8.4746C2.48156 6.227 3.42583 4.07145 5.10665 2.48215C6.78746 0.892857 9.06713 0 11.4442 0C13.8212 0 16.1008 0.892857 17.7817 2.48215C19.4625 4.07145 20.4067 6.227 20.4067 8.4746V13.0315L22.7396 17.4432C22.847 17.6462 22.8977 17.8718 22.8869 18.0986C22.8761 18.3254 22.8042 18.5459 22.6779 18.739C22.5517 18.9321 22.3753 19.0915 22.1656 19.202C21.9559 19.3125 21.7198 19.3706 21.4797 19.3705H16.4043C16.1195 20.4096 15.4779 21.3298 14.5801 21.9867C13.6824 22.6436 12.5793 23 11.4442 23C10.309 23 9.20594 22.6436 8.30819 21.9867C7.41044 21.3298 6.7688 20.4096 6.484 19.3705H1.40862C1.16852 19.3706 0.932396 19.3125 0.722679 19.202C0.512961 19.0915 0.33661 18.9321 0.210375 18.739C0.0841396 18.5459 0.0122118 18.3254 0.00142286 18.0986C-0.00936608 17.8718 0.0413421 17.6462 0.148731 17.4432L2.48156 13.0315V8.4746ZM9.22655 19.3705C9.45131 19.7386 9.77457 20.0442 10.1638 20.2567C10.5531 20.4692 10.9947 20.5811 11.4442 20.5811C11.8936 20.5811 12.3352 20.4692 12.7245 20.2567C13.1137 20.0442 13.437 19.7386 13.6618 19.3705H9.22655ZM11.4442 2.42131C9.74628 2.42131 8.11794 3.05907 6.91736 4.19428C5.71678 5.32949 5.0423 6.86917 5.0423 8.4746V13.0315C5.04228 13.4072 4.94979 13.7778 4.77215 14.1138L3.27411 16.9492H19.6155L18.1174 14.1138C17.9394 13.7779 17.8464 13.4073 17.846 13.0315V8.4746C17.846 6.86917 17.1715 5.32949 15.9709 4.19428C14.7704 3.05907 13.142 2.42131 11.4442 2.42131Z" fill="#EB7A91"/>
</svg>
