<svg width="24" height="29" viewBox="0 0 24 29" fill="none" xmlns="http://www.w3.org/2000/svg">
<path d="M22.249 13.9992C23.2138 13.9992 23.9989 13.2141 23.9989 12.2493C23.9989 11.2845 23.2138 10.4994 22.249 10.4994C21.2842 10.4994 20.4991 11.2845 20.4991 12.2493C20.4991 13.2141 21.2842 13.9992 22.249 13.9992ZM22.249 11.4993C22.6626 11.4993 22.999 11.8357 22.999 12.2493C22.999 12.6629 22.6626 12.9992 22.249 12.9992C21.8354 12.9992 21.4991 12.6629 21.4991 12.2493C21.4991 11.8357 21.8354 11.4993 22.249 11.4993Z" fill="white"/>
<path d="M18.2472 8.31559C18.5598 8.31559 18.8134 8.06211 18.8134 7.7495C18.8134 7.43677 18.5599 7.18329 18.2472 7.18329C17.9345 7.18329 17.681 7.43677 17.681 7.7495C17.681 8.06211 17.9346 8.31559 18.2472 8.31559Z" fill="white"/>
<path d="M1.49899 10.4993H1.99896V10.9993C1.99896 11.2754 2.22257 11.4993 2.49892 11.4993C2.77528 11.4993 2.99889 11.2754 2.99889 10.9993V10.4993H3.49886C3.77521 10.4993 3.99882 10.2755 3.99882 9.99936C3.99882 9.72325 3.77521 9.49939 3.49886 9.49939H2.99889V8.99942C2.99889 8.72331 2.77528 8.49945 2.49892 8.49945C2.22257 8.49945 1.99896 8.72331 1.99896 8.99942V9.49939H1.49899C1.22263 9.49939 0.999023 9.72325 0.999023 9.99936C0.999023 10.2755 1.22263 10.4993 1.49899 10.4993Z" fill="white"/>
<path d="M15.9989 21.4988H7.99948C7.72312 21.4988 7.49951 21.7226 7.49951 21.9987C7.49951 22.2749 7.72312 22.4987 7.99948 22.4987H15.9989C16.2753 22.4987 16.4989 22.2749 16.4989 21.9987C16.4989 21.7226 16.2753 21.4988 15.9989 21.4988Z" fill="white"/>
<path d="M14.9995 22.9986H8.99991C8.72355 22.9986 8.49994 23.2225 8.49994 23.4986C8.49994 23.7747 8.72355 23.9985 8.99991 23.9985H14.9995C15.2759 23.9985 15.4995 23.7747 15.4995 23.4986C15.4995 23.2225 15.2759 22.9986 14.9995 22.9986Z" fill="white"/>
<path d="M23.4985 25.9985H20.9987V19.4989C20.9987 19.2228 20.7751 18.9989 20.4987 18.9989H18.9988V15.4991C18.9988 15.223 18.7752 14.9991 18.4988 14.9991H14.9991V13.4992C14.9991 13.2231 14.7755 12.9993 14.4991 12.9993H13.4992V4.49979C13.4992 3.8907 13.1359 3.34674 12.5735 3.11412C12.0115 2.88076 11.3694 3.00838 10.9437 3.4346L7.65093 6.64141C7.55468 6.73465 7.50056 6.86264 7.49956 6.99613C7.49856 7.12988 7.55131 7.25862 7.64605 7.35299L9.14595 8.8529C9.2417 8.94839 9.38031 8.99601 9.5063 8.99939C9.64154 8.99739 9.76991 8.94102 9.86278 8.8429L10.4995 8.16981V12.9993H9.49955C9.2232 12.9993 8.99959 13.2231 8.99959 13.4992V14.9991H5.49969C5.22334 14.9991 4.99973 15.223 4.99973 15.4991V18.9989H3.49983C3.22347 18.9989 2.99986 19.2228 2.99986 19.4989V25.9985H0.500028C0.223671 25.9985 6.10352e-05 26.2223 6.10352e-05 26.4984V27.9983C6.10352e-05 28.2744 0.223671 28.4983 0.500028 28.4983H23.4985C23.7749 28.4983 23.9985 28.2744 23.9985 27.9983V26.4984C23.9985 26.2223 23.7749 25.9985 23.4985 25.9985ZM9.9994 13.9992H10.9993C11.2757 13.9992 11.4993 13.7753 11.4993 13.4992V6.91364C11.4993 6.70878 11.3743 6.52479 11.1843 6.44904C10.994 6.37342 10.7761 6.42142 10.636 6.57016L9.48955 7.78246L8.71123 7.00413L11.6457 4.14619C11.7897 4.00294 12.004 3.95995 12.1905 4.03782C12.378 4.11544 12.4991 4.29655 12.4991 4.49966V13.4991C12.4991 13.7752 12.7227 13.9991 12.9991 13.9991H13.999V14.999H9.99927V13.9992H9.9994ZM5.99966 15.9991H17.9989V18.9989H5.99966V15.9991ZM3.99979 19.9988H19.9987V25.9985H3.99979V19.9988ZM22.9985 27.4984H0.999994V26.9984H22.9985V27.4984Z" fill="white"/>
<path d="M11.9997 1.99988C12.2761 1.99988 12.4997 1.77602 12.4997 1.49991V0.499969C12.4997 0.223861 12.2761 0 11.9997 0C11.7234 0 11.4998 0.223861 11.4998 0.499969V1.49991C11.4998 1.77602 11.7234 1.99988 11.9997 1.99988Z" fill="white"/>
<path d="M13.4995 1.99997C13.6274 1.99997 13.7554 1.9511 13.853 1.85348L14.353 1.35351C14.5482 1.15827 14.5482 0.841789 14.353 0.646551C14.1577 0.451313 13.8413 0.451313 13.646 0.646551L13.1461 1.14652C12.9508 1.34176 12.9508 1.65824 13.1461 1.85348C13.2437 1.9511 13.3717 1.99997 13.4995 1.99997Z" fill="white"/>
<path d="M10.1468 1.85348C10.2444 1.9511 10.3724 1.99997 10.5002 1.99997C10.6281 1.99997 10.7561 1.9511 10.8537 1.85348C11.049 1.65824 11.049 1.34176 10.8537 1.14652L10.3537 0.646551C10.1585 0.451313 9.84203 0.451313 9.64679 0.646551C9.45156 0.841789 9.45156 1.15827 9.64679 1.35351L10.1468 1.85348Z" fill="white"/>
</svg>
