<svg width="42" height="42" viewBox="0 0 42 42" fill="none" xmlns="http://www.w3.org/2000/svg">
<path d="M0 16C0 7.16344 7.16344 0 16 0H26C34.8366 0 42 7.16344 42 16V26C42 34.8366 34.8366 42 26 42H16C7.16344 42 0 34.8366 0 26V16Z" fill="url(#paint0_linear_1749_14070)"/>
<path d="M31.2496 20.9989C32.2144 20.9989 32.9995 20.2139 32.9995 19.249C32.9995 18.2842 32.2144 17.4991 31.2496 17.4991C30.2848 17.4991 29.4998 18.2842 29.4998 19.249C29.4998 20.2139 30.2848 20.9989 31.2496 20.9989ZM31.2496 18.4991C31.6632 18.4991 31.9996 18.8354 31.9996 19.249C31.9996 19.6626 31.6632 19.999 31.2496 19.999C30.836 19.999 30.4997 19.6626 30.4997 19.249C30.4997 18.8354 30.836 18.4991 31.2496 18.4991Z" fill="white"/>
<path d="M27.2478 15.3153C27.5604 15.3153 27.814 15.0619 27.814 14.7493C27.814 14.4365 27.5605 14.183 27.2478 14.183C26.9351 14.183 26.6816 14.4365 26.6816 14.7493C26.6816 15.0619 26.9352 15.3153 27.2478 15.3153Z" fill="white"/>
<path d="M10.4996 17.4991H10.9996V17.9991C10.9996 18.2752 11.2232 18.499 11.4995 18.499C11.7759 18.499 11.9995 18.2752 11.9995 17.9991V17.4991H12.4995C12.7758 17.4991 12.9994 17.2752 12.9994 16.9991C12.9994 16.723 12.7758 16.4991 12.4995 16.4991H11.9995V15.9992C11.9995 15.7231 11.7759 15.4992 11.4995 15.4992C11.2232 15.4992 10.9996 15.7231 10.9996 15.9992V16.4991H10.4996C10.2232 16.4991 9.99963 16.723 9.99963 16.9991C9.99963 17.2752 10.2232 17.4991 10.4996 17.4991Z" fill="white"/>
<path d="M24.9996 28.4985H17.0001C16.7237 28.4985 16.5001 28.7224 16.5001 28.9985C16.5001 29.2746 16.7237 29.4985 17.0001 29.4985H24.9996C25.2759 29.4985 25.4995 29.2746 25.4995 28.9985C25.4995 28.7224 25.2759 28.4985 24.9996 28.4985Z" fill="white"/>
<path d="M24.0001 29.9984H18.0005C17.7242 29.9984 17.5005 30.2222 17.5005 30.4983C17.5005 30.7744 17.7242 30.9983 18.0005 30.9983H24.0001C24.2765 30.9983 24.5001 30.7744 24.5001 30.4983C24.5001 30.2222 24.2765 29.9984 24.0001 29.9984Z" fill="white"/>
<path d="M32.4991 32.9982H29.9993V26.4986C29.9993 26.2225 29.7757 25.9987 29.4993 25.9987H27.9994V22.4989C27.9994 22.2228 27.7758 21.9989 27.4994 21.9989H23.9997V20.499C23.9997 20.2229 23.7761 19.999 23.4997 19.999H22.4998V11.4995C22.4998 10.8905 22.1365 10.3465 21.5741 10.1139C21.0121 9.88052 20.37 10.0081 19.9443 10.4344L16.6515 13.6412C16.5553 13.7344 16.5012 13.8624 16.5002 13.9959C16.4992 14.1296 16.5519 14.2584 16.6467 14.3527L18.1466 15.8527C18.2423 15.9481 18.3809 15.9958 18.5069 15.9991C18.6422 15.9971 18.7705 15.9408 18.8634 15.8427L19.5001 15.1696V19.999H18.5002C18.2238 19.999 18.0002 20.2229 18.0002 20.499V21.9989H14.5003C14.2239 21.9989 14.0003 22.2228 14.0003 22.4989V25.9987H12.5004C12.2241 25.9987 12.0005 26.2225 12.0005 26.4986V32.9982H9.50064C9.22428 32.9982 9.00067 33.2221 9.00067 33.4982V34.9981C9.00067 35.2742 9.22428 35.4981 9.50064 35.4981H32.4991C32.7755 35.4981 32.9991 35.2742 32.9991 34.9981V33.4982C32.9991 33.2221 32.7755 32.9982 32.4991 32.9982ZM19 20.999H19.9999C20.2763 20.999 20.4999 20.7751 20.4999 20.499V13.9134C20.4999 13.7085 20.3749 13.5245 20.1849 13.4488C19.9946 13.3732 19.7767 13.4212 19.6366 13.5699L18.4902 14.7822L17.7118 14.0039L20.6463 11.1459C20.7903 11.0027 21.0046 10.9597 21.1911 11.0376C21.3786 11.1152 21.4997 11.2963 21.4997 11.4994V20.4989C21.4997 20.775 21.7233 20.9988 21.9997 20.9988H22.9996V21.9988H18.9999V20.999H19ZM15.0003 22.9988H26.9995V25.9987H15.0003V22.9988ZM13.0004 26.9986H28.9993V32.9982H13.0004V26.9986ZM31.9991 34.4981H10.0006V33.9982H31.9991V34.4981Z" fill="white"/>
<path d="M21.0003 8.99963C21.2767 8.99963 21.5003 8.77577 21.5003 8.49966V7.49973C21.5003 7.22362 21.2767 6.99976 21.0003 6.99976C20.724 6.99976 20.5004 7.22362 20.5004 7.49973V8.49966C20.5004 8.77577 20.724 8.99963 21.0003 8.99963Z" fill="white"/>
<path d="M22.5001 8.99972C22.628 8.99972 22.756 8.95085 22.8536 8.85323L23.3536 8.35326C23.5488 8.15802 23.5488 7.84154 23.3536 7.64631C23.1584 7.45107 22.8419 7.45107 22.6466 7.64631L22.1467 8.14628C21.9514 8.34151 21.9514 8.65799 22.1467 8.85323C22.2443 8.95085 22.3723 8.99972 22.5001 8.99972Z" fill="white"/>
<path d="M19.1474 8.85323C19.245 8.95085 19.373 8.99972 19.5008 8.99972C19.6287 8.99972 19.7567 8.95085 19.8543 8.85323C20.0496 8.65799 20.0496 8.34151 19.8543 8.14628L19.3544 7.64631C19.1591 7.45107 18.8426 7.45107 18.6474 7.64631C18.4522 7.84154 18.4522 8.15802 18.6474 8.35326L19.1474 8.85323Z" fill="white"/>
<defs>
<linearGradient id="paint0_linear_1749_14070" x1="11" y1="3.5" x2="40.4243" y2="13.0535" gradientUnits="userSpaceOnUse">
<stop stop-color="#F5C003"/>
<stop offset="1" stop-color="#E44E6C"/>
</linearGradient>
</defs>
</svg>
