<svg width="25" height="25" viewBox="0 0 25 25" fill="none" xmlns="http://www.w3.org/2000/svg">
<path d="M15.8888 7.33326H15.901M1.22217 4.88882C1.22217 3.91637 1.60848 2.98374 2.29611 2.29611C2.98374 1.60848 3.91637 1.22217 4.88882 1.22217H19.5554C20.5279 1.22217 21.4605 1.60848 22.1482 2.29611C22.8358 2.98374 23.2221 3.91637 23.2221 4.88882V19.5554C23.2221 20.5279 22.8358 21.4605 22.1482 22.1482C21.4605 22.8358 20.5279 23.2221 19.5554 23.2221H4.88882C3.91637 23.2221 2.98374 22.8358 2.29611 22.1482C1.60848 21.4605 1.22217 20.5279 1.22217 19.5554V4.88882Z" stroke="#4D4D4D" stroke-width="2.44444" stroke-linecap="round" stroke-linejoin="round"/>
<path d="M1.22217 17.1108L7.33326 10.9997C8.46748 9.90829 9.86569 9.90829 10.9999 10.9997L17.111 17.1108" stroke="#4D4D4D" stroke-width="2.44444" stroke-linecap="round" stroke-linejoin="round"/>
<path d="M14.6665 14.6663L15.8887 13.4441C17.0229 12.3526 18.4212 12.3526 19.5554 13.4441L23.222 17.1107" stroke="#4D4D4D" stroke-width="2.44444" stroke-linecap="round" stroke-linejoin="round"/>
</svg>
