<svg width="64" height="64" viewBox="0 0 64 64" fill="none" xmlns="http://www.w3.org/2000/svg">
<path d="M31.6667 63.3333C27.2861 63.3333 23.1694 62.5016 19.3167 60.838C15.4639 59.1744 12.1125 56.9187 9.2625 54.0708C6.4125 51.2229 4.15678 47.8716 2.49534 44.0167C0.833893 40.1618 0.00211512 36.0451 4.00844e-06 31.6667C-0.0021071 27.2882 0.829671 23.1716 2.49534 19.3167C4.161 15.4618 6.41673 12.1104 9.2625 9.2625C12.1083 6.41461 15.4597 4.15889 19.3167 2.49533C23.1737 0.831778 27.2903 0 31.6667 0C36.043 0 40.1597 0.831778 44.0167 2.49533C47.8737 4.15889 51.2251 6.41461 54.0708 9.2625C56.9166 12.1104 59.1734 15.4618 60.8412 19.3167C62.5089 23.1716 63.3397 27.2882 63.3333 31.6667C63.327 36.0451 62.4952 40.1618 60.838 44.0167C59.1808 47.8716 56.9251 51.2229 54.0708 54.0708C51.2166 56.9187 47.8652 59.1755 44.0167 60.8412C40.1681 62.5068 36.0514 63.3376 31.6667 63.3333ZM31.6667 57C34.5167 57 37.2611 56.5387 39.9 55.6162C42.5389 54.6936 44.9667 53.3604 47.1833 51.6167L11.7167 16.15C9.975 18.3667 8.64184 20.7944 7.71717 23.4333C6.7925 26.0722 6.33123 28.8167 6.33334 31.6667C6.33334 38.7389 8.7875 44.7292 13.6958 49.6375C18.6042 54.5458 24.5944 57 31.6667 57ZM51.6167 47.1833C53.3583 44.9667 54.6915 42.5389 55.6162 39.9C56.5408 37.2611 57.0021 34.5167 57 31.6667C57 24.5944 54.5458 18.6042 49.6375 13.6958C44.7292 8.7875 38.7389 6.33333 31.6667 6.33333C28.8167 6.33333 26.0722 6.79461 23.4333 7.71717C20.7944 8.63972 18.3667 9.97289 16.15 11.7167L51.6167 47.1833Z" fill="#D90D2F"/>
</svg>
