<svg width="26" height="26" viewBox="0 0 26 26" fill="none" xmlns="http://www.w3.org/2000/svg">
<path d="M8.48161 17.5185C6.1518 15.1842 4.36008 12.369 3.23178 9.26999C2.61103 7.57565 3.17978 5.71449 4.45594 4.43832L5.24569 3.64965C5.45801 3.4369 5.7102 3.26812 5.98783 3.15296C6.26547 3.03779 6.56308 2.97852 6.86365 2.97852C7.16422 2.97852 7.46183 3.03779 7.73947 3.15296C8.0171 3.26812 8.26929 3.4369 8.48161 3.64965L10.3309 5.4989C10.5436 5.71122 10.7124 5.96341 10.8276 6.24104C10.9427 6.51868 11.002 6.81629 11.002 7.11686C11.002 7.41743 10.9427 7.71505 10.8276 7.99268C10.7124 8.27031 10.5436 8.5225 10.3309 8.73482L9.87586 9.18982C9.69373 9.37191 9.54926 9.58808 9.45069 9.82601C9.35213 10.0639 9.3014 10.319 9.3014 10.5765C9.3014 10.834 9.35213 11.089 9.45069 11.327C9.54926 11.5649 9.69373 11.7811 9.87586 11.9632L14.0359 16.1242C14.2179 16.3064 14.4341 16.4508 14.672 16.5494C14.91 16.648 15.165 16.6987 15.4225 16.6987C15.6801 16.6987 15.9351 16.648 16.173 16.5494C16.4109 16.4508 16.6271 16.3064 16.8092 16.1242L17.2653 15.6692C17.4776 15.4565 17.7298 15.2877 18.0074 15.1725C18.285 15.0574 18.5827 14.9981 18.8832 14.9981C19.1838 14.9981 19.4814 15.0574 19.759 15.1725C20.0367 15.2877 20.2889 15.4565 20.5012 15.6692L22.3504 17.5185C22.5632 17.7308 22.732 17.983 22.8471 18.2606C22.9623 18.5383 23.0216 18.8359 23.0216 19.1364C23.0216 19.437 22.9623 19.7346 22.8471 20.0123C22.732 20.2899 22.5632 20.5421 22.3504 20.7544L21.5618 21.5431C20.2856 22.8203 18.4244 23.3891 16.7301 22.7683C13.6311 21.64 10.8159 19.8483 8.48161 17.5185Z" stroke="black" stroke-width="1.5" stroke-linejoin="round"/>
</svg>
