<svg width="21" height="21" viewBox="0 0 21 21" fill="none" xmlns="http://www.w3.org/2000/svg">
<g clip-path="url(#clip0_140_2918)">
<path d="M4.96781 11.655L4.12781 12.2391C3.86697 12.4215 3.65386 12.664 3.50651 12.9461C3.35916 13.2282 3.2819 13.5417 3.28125 13.86V21H1.96875C1.44707 20.9985 0.947199 20.7906 0.578317 20.4217C0.209434 20.0528 0.00152356 19.5529 0 19.0312L0 8.53125C0.00152356 8.00957 0.209434 7.5097 0.578317 7.14082C0.947199 6.77193 1.44707 6.56402 1.96875 6.5625H5.25V11.1169C5.24928 11.2226 5.22329 11.3266 5.1742 11.4202C5.12511 11.5138 5.05435 11.5943 4.96781 11.655Z" fill="#666666"/>
<path d="M12.4688 9.84375C11.69 9.84375 10.9287 10.0747 10.2812 10.5073C9.63367 10.94 9.129 11.5549 8.83098 12.2744C8.53296 12.9939 8.45498 13.7856 8.60691 14.5494C8.75884 15.3132 9.13385 16.0148 9.68452 16.5655C10.2352 17.1162 10.9368 17.4912 11.7006 17.6431C12.4644 17.795 13.2561 17.717 13.9756 17.419C14.6951 17.121 15.31 16.6163 15.7427 15.9688C16.1753 15.3213 16.4063 14.56 16.4063 13.7812C16.4054 12.7372 15.9903 11.7362 15.2521 10.9979C14.5138 10.2597 13.5128 9.84458 12.4688 9.84375ZM14.4375 14.4375C14.2636 14.437 14.097 14.3677 13.974 14.2447C13.8511 14.1218 13.7818 13.9551 13.7813 13.7812C13.7802 13.4335 13.6416 13.1002 13.3957 12.8543C13.1498 12.6084 12.8165 12.4698 12.4688 12.4688C12.2947 12.4688 12.1278 12.3996 12.0047 12.2765C11.8816 12.1535 11.8125 11.9865 11.8125 11.8125C11.8125 11.6385 11.8816 11.4715 12.0047 11.3485C12.1278 11.2254 12.2947 11.1562 12.4688 11.1562C12.8135 11.1562 13.1549 11.224 13.4734 11.3559C13.7919 11.4878 14.0813 11.6811 14.3251 11.9249C14.5689 12.1687 14.7622 12.4581 14.8941 12.7766C15.026 13.0951 15.0938 13.4365 15.0938 13.7812C15.0932 13.9551 15.0239 14.1218 14.901 14.2447C14.778 14.3677 14.6114 14.437 14.4375 14.4375Z" fill="#666666"/>
<path d="M19.0313 6.5625H6.56252V11.1169C6.56255 11.4344 6.48553 11.7471 6.33808 12.0283C6.19063 12.3095 5.97715 12.5507 5.71595 12.7312L4.87595 13.3219C4.78835 13.3815 4.71677 13.4618 4.66756 13.5556C4.61834 13.6495 4.593 13.754 4.59377 13.86V21H19.0313C19.5529 20.9985 20.0528 20.7906 20.4217 20.4217C20.7906 20.0528 20.9985 19.5529 21 19.0312V8.53125C20.9985 8.00957 20.7906 7.5097 20.4217 7.14082C20.0528 6.77193 19.5529 6.56402 19.0313 6.5625ZM12.4688 19.0312C11.4304 19.0312 10.4154 18.7233 9.55202 18.1465C8.68866 17.5696 8.01576 16.7497 7.6184 15.7903C7.22104 14.831 7.11707 13.7754 7.31964 12.757C7.52222 11.7386 8.02223 10.8032 8.75646 10.0689C9.49068 9.33471 10.4261 8.8347 11.4445 8.63213C12.4629 8.42956 13.5185 8.53352 14.4779 8.93088C15.4372 9.32824 16.2571 10.0011 16.834 10.8645C17.4109 11.7279 17.7188 12.7429 17.7188 13.7812C17.7169 15.1731 17.1632 16.5074 16.179 17.4915C15.1949 18.4757 13.8606 19.0294 12.4688 19.0312ZM18.375 9.84375H17.7188C17.5447 9.84375 17.3778 9.77461 17.2547 9.65154C17.1317 9.52847 17.0625 9.36155 17.0625 9.1875C17.0625 9.01345 17.1317 8.84653 17.2547 8.72346C17.3778 8.60039 17.5447 8.53125 17.7188 8.53125H18.375C18.5491 8.53125 18.716 8.60039 18.8391 8.72346C18.9621 8.84653 19.0313 9.01345 19.0313 9.1875C19.0313 9.36155 18.9621 9.52847 18.8391 9.65154C18.716 9.77461 18.5491 9.84375 18.375 9.84375Z" fill="#666666"/>
<path d="M15.0938 0H9.84375C9.11888 0 8.53125 0.587626 8.53125 1.3125V2.625C8.53125 3.34987 9.11888 3.9375 9.84375 3.9375H15.0938C15.8186 3.9375 16.4062 3.34987 16.4062 2.625V1.3125C16.4062 0.587626 15.8186 0 15.0938 0Z" fill="#666666"/>
<path d="M15.6124 7.62535C15.5504 7.70338 15.4716 7.76635 15.3818 7.80954C15.292 7.85273 15.1936 7.87502 15.094 7.87473H9.84396C9.74433 7.87502 9.64592 7.85273 9.55612 7.80954C9.46633 7.76635 9.38749 7.70338 9.32553 7.62535C9.2651 7.54599 9.22313 7.45415 9.2027 7.35651C9.18226 7.25888 9.18387 7.15791 9.2074 7.06098L9.66021 5.24316C9.7213 5.24863 9.78264 5.25082 9.84396 5.24973H15.094C15.1553 5.25082 15.2166 5.24863 15.2777 5.24316L15.7305 7.06098C15.7541 7.15791 15.7557 7.25888 15.7352 7.35651C15.7148 7.45415 15.6728 7.54599 15.6124 7.62535Z" fill="#666666"/>
<path d="M3.65617 4.58691H2.625C2.27701 4.58726 1.94337 4.72565 1.69731 4.97172C1.45124 5.21779 1.31285 5.55142 1.3125 5.89941V7.21848C1.3125 7.39252 1.38164 7.55944 1.50471 7.68252C1.62778 7.80559 1.7947 7.87473 1.96875 7.87473H4.31242C4.48646 7.87473 4.65338 7.80559 4.77645 7.68252C4.89953 7.55944 4.96867 7.39252 4.96867 7.21848V5.89941C4.96832 5.55142 4.82993 5.21779 4.58386 4.97172C4.33779 4.72565 4.00416 4.58726 3.65617 4.58691Z" fill="#666666"/>
</g>
<defs>
<clipPath id="clip0_140_2918">
<rect width="21" height="21" fill="white"/>
</clipPath>
</defs>
</svg>
