<svg width="24" height="24" viewBox="0 0 24 24" fill="none" xmlns="http://www.w3.org/2000/svg">
<path d="M23.8766 5.56692C23.7522 5.07918 23.4057 4.67218 22.9516 4.46359L23.0324 4.27858C23.14 4.02966 23.1434 3.75386 23.0391 3.50158C22.9651 3.31657 22.8406 3.16186 22.6825 3.05083L23.1063 2.04506C23.1063 2.04506 23.1063 2.04506 23.1063 2.04171C23.4158 1.29834 23.0626 0.433829 22.3226 0.117692C21.5825 -0.19851 20.7147 0.144628 20.3918 0.88123V0.884581V0.887931L19.9713 1.87688C19.5206 1.79949 19.0564 2.03836 18.868 2.479L11.5924 19.4457C11.5554 19.5298 11.5419 19.6206 11.5486 19.7114L11.7168 22.0054C11.3905 21.5648 11.0507 21.1208 10.6505 20.7339C10.1157 20.2193 9.28821 19.5633 8.28921 19.7921C7.57272 19.9569 7.09174 20.5994 6.66451 21.1679C6.52996 21.3462 6.40212 21.5177 6.28439 21.6455C5.578 22.4158 5.05998 22.3552 4.72696 22.2443C4.43434 22.1433 4.13496 21.9752 3.85239 21.7565C4.30649 21.437 4.75048 21.1039 5.18106 20.7507C5.59141 20.4144 6.06233 19.9973 6.43575 19.4692C6.68468 19.116 6.9706 18.6417 6.96383 18.0968C6.96048 17.5552 6.70485 17.0069 6.28439 16.6335C5.52085 15.9575 4.54872 15.8263 3.54966 16.2602C2.4598 16.7311 1.69291 17.7369 1.55159 18.8839C1.44056 19.782 1.74672 20.7709 2.39252 21.6085C1.67602 22.0761 0.946124 22.5234 0.226275 22.9607C0.00428277 23.0952 -0.0663422 23.3845 0.0682066 23.6065C0.202755 23.8285 0.492022 23.8991 0.714014 23.7646C1.48767 23.2936 2.27144 22.816 3.04168 22.308C3.46885 22.6848 3.94318 22.9707 4.42081 23.1355C5.31889 23.4416 6.18006 23.1523 6.97723 22.2811C7.12525 22.1196 7.2665 21.9313 7.41452 21.7362C7.74419 21.2989 8.11755 20.8011 8.49761 20.7136C8.92477 20.6161 9.38564 20.8314 9.99111 21.4167C10.3981 21.8068 10.7412 22.2778 11.1078 22.7756C11.3668 23.1322 11.6393 23.4988 11.9353 23.8385C12.0295 23.9461 12.1573 24 12.2885 24C12.3793 24 12.4668 23.9731 12.5475 23.9226C12.6181 23.9025 12.6854 23.8655 12.7459 23.8184L15.6354 21.4671L15.6387 21.4638C15.6522 21.4536 15.6657 21.4402 15.6757 21.4301C15.6757 21.4301 15.6757 21.4301 15.6791 21.4268C15.6925 21.4133 15.7026 21.3998 15.7161 21.3864C15.7194 21.3831 15.7228 21.3797 15.7228 21.3763C15.7295 21.3662 15.7362 21.3562 15.7463 21.346C15.7496 21.3393 15.753 21.3359 15.7564 21.3292C15.7631 21.3191 15.7665 21.309 15.7732 21.2989C15.7766 21.2922 15.7799 21.2888 15.7833 21.2821C15.79 21.2686 15.7968 21.2552 15.8035 21.2418V21.2384V21.2351L22.585 5.3281C22.7733 5.42231 22.9146 5.5972 22.9684 5.80238C23.0256 6.02102 22.9751 6.25648 22.8372 6.43478C22.8339 6.43813 22.8305 6.44148 22.8305 6.4449C22.8272 6.44825 22.8238 6.4516 22.8204 6.45502C21.9828 7.66595 21.485 8.76586 21.2596 9.91629C21.1688 10.3771 21.1184 10.8683 21.0982 11.4636C21.0914 11.7226 21.2933 11.9412 21.5523 11.948C21.559 11.948 21.5624 11.948 21.5691 11.948C21.8214 11.948 22.0299 11.7462 22.04 11.4905C22.0568 10.9456 22.1039 10.5016 22.1847 10.0946C22.3831 9.07536 22.8339 8.08984 23.5941 6.98651C23.8968 6.5895 24.0045 6.05807 23.8766 5.56692ZM2.48003 19.0016C2.58094 18.1842 3.13261 17.4644 3.91973 17.1246C4.13167 17.0338 4.394 16.9564 4.67322 16.9564C4.99277 16.9564 5.33249 17.054 5.65881 17.3433C5.8808 17.5384 6.0187 17.831 6.02212 18.1068C6.02547 18.386 5.83377 18.6921 5.66558 18.9309C5.35614 19.3682 4.94573 19.7281 4.58249 20.0275C4.12839 20.3975 3.65747 20.7507 3.17308 21.0871C2.64487 20.4278 2.39594 19.671 2.48003 19.0016ZM12.8739 22.2341L12.773 20.8584C13.1363 21.0837 13.5332 21.2553 13.947 21.3629L12.8739 22.2341ZM14.8518 20.5523C14.0647 20.5119 13.3146 20.1924 12.7428 19.6508L17.3511 8.9037L19.4332 9.79508L14.8518 20.5523ZM19.8032 8.93405L17.721 8.04266L19.8637 3.04754L21.929 3.94563L19.8032 8.93405ZM22.0535 1.60114L21.6465 2.56992L21.0309 2.30082L21.4413 1.33546C21.5119 1.17063 21.707 1.0933 21.8752 1.16728C22.0434 1.23784 22.1208 1.43296 22.0535 1.60114Z" fill="black"/>
</svg>
