<svg width="24" height="24" viewBox="0 0 24 24" fill="none" xmlns="http://www.w3.org/2000/svg">
<g clip-path="url(#clip0_2283_6432)">
<mask id="mask0_2283_6432" style="mask-type:luminance" maskUnits="userSpaceOnUse" x="-1" y="0" width="25" height="24">
<path d="M-0.00366211 1.90735e-06H23.9963V24H-0.00366211V1.90735e-06Z" fill="white"/>
</mask>
<g mask="url(#mask0_2283_6432)">
<path d="M6.37134 23.2969H2.15259V16.2188H6.37134V23.2969Z" stroke="#4D4D4D" stroke-width="1.2" stroke-miterlimit="10" stroke-linecap="round" stroke-linejoin="round"/>
<path d="M6.37061 21.8906H7.77686C8.90148 22.8005 10.3043 23.2969 11.7509 23.2969H14.2076C14.7826 23.2969 15.2997 22.9468 15.5132 22.4129L17.2007 18.1473C17.5703 17.2236 16.89 16.2188 15.8951 16.2188H13.4018C13.4019 14.8125 13.4019 13.4063 13.4019 13.4063C13.4019 11.853 12.1427 10.5938 10.5894 10.5938L10.5893 12.5372C10.5893 13.9317 9.80134 15.2065 8.55409 15.8301C8.04292 16.0857 7.4792 16.2188 6.90765 16.2188H6.37061" stroke="#4D4D4D" stroke-width="1.2" stroke-miterlimit="10" stroke-linecap="round" stroke-linejoin="round"/>
<path d="M11.9956 2.46094C11.9956 2.46094 12.5019 0.703126 14.105 0.703126C15.3537 0.703126 16.2144 1.71089 16.2144 2.90484C16.2144 4.55602 14.4976 5.69625 11.9956 7.78125C9.49361 5.69625 7.77686 4.55602 7.77686 2.90484C7.77686 1.71089 8.63748 0.703126 9.88623 0.703126C11.4894 0.703126 11.9956 2.46094 11.9956 2.46094Z" stroke="#4D4D4D" stroke-width="1.2" stroke-miterlimit="10" stroke-linecap="round" stroke-linejoin="round"/>
<path d="M19.3068 6.51022C20.0832 7.10361 19.6517 8.17639 19.6517 8.17639C19.6517 8.17639 20.5735 7.47843 21.35 8.07186C21.9547 8.5341 21.9835 9.36027 21.524 9.96158C21.154 10.4457 20.5751 10.6193 19.7586 10.7043C19.1723 10.7653 18.4635 10.7807 17.6216 10.8325C17.2125 8.85622 16.802 7.67 17.4377 6.83835C17.8973 6.23699 18.7021 6.04799 19.3068 6.51022Z" stroke="#4D4D4D" stroke-width="1.2" stroke-miterlimit="10" stroke-linecap="round" stroke-linejoin="round"/>
<path d="M4.68479 6.51022C3.9084 7.10361 4.33993 8.17639 4.33993 8.17639C4.33993 8.17639 3.41804 7.47843 2.6416 8.07186C2.03687 8.5341 2.00804 9.36027 2.4676 9.96158C2.83763 10.4457 3.41654 10.6193 4.23301 10.7043C4.81932 10.7653 5.52812 10.7807 6.36999 10.8325C6.77912 8.85622 7.1896 7.67 6.55393 6.83835C6.09432 6.23699 5.28952 6.04799 4.68479 6.51022Z" stroke="#4D4D4D" stroke-width="1.2" stroke-miterlimit="10" stroke-linecap="round" stroke-linejoin="round"/>
</g>
</g>
<defs>
<clipPath id="clip0_2283_6432">
<rect width="24" height="24" fill="white"/>
</clipPath>
</defs>
</svg>
