<svg width="21" height="21" viewBox="0 0 21 21" fill="none" xmlns="http://www.w3.org/2000/svg">
<path d="M8.49319 19.0312H2.625C2.26275 19.0312 1.96875 18.7372 1.96875 18.375V11.8125C1.96875 11.4502 2.26275 11.1562 2.625 11.1562H3.60938V17.3663C3.60938 17.7096 3.87384 17.9944 4.21575 18.0206L4.51894 18.0436C5.99484 18.1565 7.30603 18.4852 8.49319 19.0312Z" fill="#666666"/>
<path d="M19.0313 11.8125V18.375C19.0313 18.7372 18.7373 19.0312 18.375 19.0312H12.5068C13.694 18.4852 15.0052 18.1565 16.4811 18.0443L16.7843 18.0213C17.1262 17.995 17.3906 17.7102 17.3906 17.367V11.1562H18.375C18.7373 11.1562 19.0313 11.4502 19.0313 11.8125Z" fill="#666666"/>
<path d="M16.0447 8.5632C14.2623 8.7417 12.5652 9.23848 10.9922 10.19V18.7213C12.5843 17.7579 14.303 17.2611 16.1096 17.0879C16.2776 17.0715 16.4062 16.9337 16.4062 16.765V8.8933C16.4062 8.6997 16.2376 8.54351 16.0447 8.5632ZM14.6646 14.9255C14.091 14.9997 13.4525 15.2136 12.8645 15.5273C12.791 15.5674 12.7116 15.5857 12.6328 15.5857C12.4569 15.5857 12.287 15.4912 12.1984 15.3259C12.0697 15.0863 12.1603 14.7884 12.4005 14.6598C12.8887 14.3986 13.6559 14.0632 14.5379 13.949C14.8063 13.9097 15.0544 14.1039 15.0892 14.3736C15.1246 14.6434 14.9343 14.8908 14.6646 14.9255ZM14.6646 12.3005C14.091 12.3747 13.4525 12.5886 12.8645 12.9023C12.791 12.9424 12.7116 12.9607 12.6328 12.9607C12.4569 12.9607 12.287 12.8662 12.1984 12.7009C12.0697 12.4613 12.1603 12.1634 12.4005 12.0348C12.8887 11.7736 13.6559 11.4382 14.5379 11.324C14.8063 11.2873 15.0544 11.4789 15.0892 11.7486C15.1246 12.0184 14.9343 12.2658 14.6646 12.3005Z" fill="#666666"/>
<path d="M10.0078 10.19C8.43478 9.23848 6.73838 8.74236 4.95534 8.5632C4.76241 8.54351 4.59375 8.6997 4.59375 8.8933V16.765C4.59375 16.9337 4.72238 17.0715 4.89038 17.0879C6.69703 17.2611 8.41575 17.7579 10.0078 18.7213V10.19ZM6.46144 11.324C7.34409 11.4382 8.11125 11.7736 8.59884 12.0348C8.83837 12.1627 8.92894 12.4607 8.80097 12.7009C8.71238 12.8669 8.54241 12.9607 8.36653 12.9607C8.28778 12.9607 8.20837 12.9424 8.13487 12.9023C7.54688 12.588 6.90834 12.374 6.33478 12.3005C6.06506 12.2658 5.87475 12.019 5.91019 11.7493C5.94562 11.4796 6.19106 11.2886 6.46144 11.324ZM8.80097 15.3259C8.71238 15.4919 8.54241 15.5857 8.36653 15.5857C8.28778 15.5857 8.20837 15.5674 8.13487 15.5273C7.54688 15.213 6.90834 14.999 6.33478 14.9255C6.06506 14.8908 5.87475 14.644 5.91019 14.3743C5.94562 14.1046 6.19041 13.9103 6.46144 13.9497C7.34409 14.0639 8.11125 14.3992 8.59884 14.6604C8.83903 14.7877 8.92959 15.0857 8.80097 15.3259Z" fill="#666666"/>
<path d="M18.3233 2.89731C18.2012 2.65384 17.9066 2.55606 17.6631 2.67681L16.8107 3.10272C16.5344 2.45959 16.0409 1.90703 15.3577 1.58875C13.9225 0.919372 12.2254 1.51393 11.5003 2.90453C11.2017 2.75031 10.8617 2.65778 10.5002 2.65778C10.1386 2.65778 9.79862 2.75031 9.50003 2.90518C8.77422 1.51459 7.07781 0.920028 5.64259 1.5894C4.96009 1.90768 4.46594 2.46025 4.18965 3.10337L3.33719 2.67681C3.09437 2.55606 2.7984 2.65384 2.677 2.89731C2.55559 3.14012 2.65403 3.43543 2.89684 3.5575L3.95734 4.08775C3.92715 4.56353 3.99869 5.05178 4.21459 5.51378C4.903 6.98969 6.66306 7.63018 8.13897 6.94243C9.33728 6.38397 9.97056 5.11872 9.80322 3.8725C10.1668 3.59556 10.8329 3.59556 11.1971 3.8725C11.0297 5.11872 11.663 6.38397 12.8613 6.94243C14.3372 7.63084 16.0973 6.98969 16.7857 5.51378C17.001 5.05178 17.0725 4.56353 17.043 4.08775L18.1028 3.5575C18.3463 3.43543 18.4447 3.14012 18.3233 2.89731ZM7.7229 6.04993C6.73918 6.50865 5.56515 6.08143 5.10644 5.09772C4.64772 4.114 5.07494 2.93997 6.05865 2.48125C7.04237 2.02253 8.2164 2.44975 8.67512 3.43347C9.13384 4.41718 8.70662 5.59122 7.7229 6.04993ZM15.8939 5.09772C15.4352 6.08143 14.2618 6.50865 13.2774 6.04993C12.2937 5.59122 11.8665 4.41784 12.3252 3.43347C12.7839 2.44975 13.9573 2.02253 14.9417 2.48125C15.9254 2.93997 16.3526 4.114 15.8939 5.09772Z" fill="#666666"/>
</svg>
