<svg width="25" height="26" viewBox="0 0 25 26" fill="none" xmlns="http://www.w3.org/2000/svg">
<path d="M14.0235 14.5395C14.6188 15.5718 14.9594 16.7696 14.9594 18.0469C14.9594 21.9301 11.8114 25.0781 7.92813 25.0781C4.04487 25.0781 0.850006 21.9301 0.850006 18.0469C0.850006 14.1636 4.04487 11.0156 7.92813 11.0156C9.51101 11.0156 10.9717 11.5387 12.1469 12.4213" stroke="#4D4D4D" stroke-width="1.7" stroke-miterlimit="10"/>
<path d="M12.1469 23.6724C13.322 24.5551 14.7827 25.0781 16.3656 25.0781C20.2489 25.0781 23.4437 21.9301 23.4437 18.0469C23.4437 13.6052 19.2784 10.1255 14.652 11.2181C11.5978 11.99 9.33437 14.7541 9.33437 18.0469C9.33437 19.3242 9.67496 20.5219 10.2703 21.5542" stroke="#4D4D4D" stroke-width="1.7" stroke-miterlimit="10"/>
<path d="M16.3656 11.0156C14.2966 9.22256 12.877 8.2822 12.877 6.86222C12.877 5.83542 13.5887 4.92188 14.6213 4.92188C15.7575 4.92188 16.2274 6.10444 16.3385 6.42188H16.3927C16.5038 6.10444 16.9737 4.92188 18.1099 4.92188C19.1425 4.92188 19.8542 5.83542 19.8542 6.86222C19.8542 8.29514 18.3928 9.2587 16.3656 11.0156Z" stroke="#4D4D4D" stroke-width="1.7" stroke-miterlimit="10"/>
<path d="M10.2702 14.5395C9.59979 14.0903 8.79401 13.8281 7.92809 13.8281C5.60173 13.8281 3.66246 15.7205 3.66246 18.0469C3.66246 20.3732 5.60173 22.2656 7.92809 22.2656C10.2544 22.2656 12.1468 20.3732 12.1468 18.0469C12.1468 15.7205 14.0392 13.8281 16.3656 13.8281C18.6919 13.8281 20.6312 15.7205 20.6312 18.0469C20.6312 20.3732 18.6919 22.2656 16.3656 22.2656C15.4997 22.2656 14.6939 22.0034 14.0234 21.5543" stroke="#4D4D4D" stroke-width="1.7" stroke-miterlimit="10"/>
<path d="M16.3173 1.9994C16.3245 1.99978 16.3316 2 16.3388 2C16.5988 2 16.8151 1.72908 16.8264 1.38244L16.8495 0.673162C16.8612 0.317101 16.6522 0.0159809 16.3826 0.000578531C16.1132 -0.0143506 15.8852 0.261472 15.8736 0.617533L15.8505 1.32681C15.8388 1.68292 16.0478 1.98404 16.3173 1.9994Z" fill="#4D4D4D"/>
<path d="M12.577 3.76945C12.6705 3.92248 12.7982 4 12.9263 4C13.0407 4 13.1555 3.93809 13.2465 3.81281C13.4393 3.5471 13.4523 3.097 13.2754 2.80743L12.923 2.23057C12.7461 1.94096 12.4464 1.92155 12.2535 2.18721C12.0607 2.45292 12.0478 2.90302 12.2247 3.19259L12.577 3.76945Z" fill="#4D4D4D"/>
<path d="M19.9589 3.92525C20.0706 3.92525 20.1826 3.86419 20.2714 3.74064L20.6464 3.21879C20.8346 2.95677 20.8472 2.5129 20.6746 2.22734C20.5019 1.94179 20.2093 1.92265 20.0211 2.18458L19.6461 2.70639C19.4579 2.96837 19.4453 3.41228 19.6179 3.69784C19.7091 3.84871 19.8338 3.92525 19.9589 3.92525Z" fill="#4D4D4D"/>
</svg>
