<svg width="53" height="53" viewBox="0 0 53 53" fill="none" xmlns="http://www.w3.org/2000/svg">
<circle cx="26.2595" cy="26.2595" r="26.2595" fill="black" fill-opacity="0.7"/>
<circle cx="26.2596" cy="26.2596" r="22.8929" fill="black" fill-opacity="0.7"/>
<path d="M12.667 26.6484C12.667 18.9165 18.935 12.6484 26.667 12.6484C34.399 12.6484 40.667 18.9165 40.667 26.6484C40.667 34.3804 34.399 40.6484 26.667 40.6484C18.935 40.6484 12.667 34.3804 12.667 26.6484Z" fill="black" fill-opacity="0.7"/>
<path d="M39.4673 25.1284C39.1473 22.2484 37.8673 19.6084 35.7873 17.5684C30.7873 12.5684 22.6273 12.5684 17.6273 17.5684C17.4273 17.7684 17.2673 17.9684 17.0673 18.1684L16.8273 16.8484C16.7473 16.3284 16.2273 16.0084 15.7073 16.0884C15.1873 16.1684 14.8673 16.6884 14.9473 17.2084L15.5873 20.7284C15.6273 20.9684 15.7873 21.2084 15.9873 21.3284C16.1473 21.4484 16.3473 21.4884 16.5073 21.4884H16.6673L20.1873 20.8484C20.7073 20.7684 21.0273 20.2484 20.9473 19.7284C20.8673 19.2084 20.3473 18.8884 19.8273 18.9684L18.6673 19.1684C18.7473 19.0884 18.8273 19.0084 18.9073 18.8884C23.2273 14.6484 30.1873 14.6484 34.4673 18.8884C36.2273 20.6484 37.3073 22.8884 37.5873 25.3284C37.6273 25.8084 38.0673 26.1684 38.5073 26.1684H38.6273C39.1473 26.1284 39.5073 25.6484 39.4673 25.1284Z" fill="white"/>
<path d="M37.7871 32.7683C37.7471 32.5683 37.6671 32.3683 37.5471 32.2083C37.5071 32.1683 37.4671 32.1683 37.4671 32.1283L37.4271 32.0883C37.4271 32.0883 37.3871 32.0883 37.3871 32.0483C37.3471 32.0483 37.3071 32.0083 37.2671 32.0083H37.2271C37.1871 32.0083 37.1471 31.9683 37.0671 31.9683C36.9471 31.9683 36.8671 31.9683 36.7471 31.9683L33.2271 32.6083C32.7071 32.6883 32.3871 33.2083 32.4671 33.7283C32.5471 34.2483 33.0671 34.5683 33.5871 34.4883L34.6671 34.2883C34.6271 34.3283 34.5871 34.3683 34.5471 34.4083C30.2671 38.6883 23.3471 38.6883 19.0671 34.4083C16.8271 32.2483 15.7071 29.4483 15.7471 26.4483C15.7471 25.9283 15.3471 25.4883 14.8271 25.4883C14.3071 25.4883 13.8671 25.8883 13.8671 26.4083C13.7871 29.9283 15.1471 33.2483 17.6271 35.7283C20.1471 38.2483 23.4271 39.4883 26.7071 39.4883C29.9871 39.4883 33.2671 38.2483 35.7871 35.7283C35.9471 35.5683 36.1071 35.3683 36.2671 35.2083L36.5071 36.6083C36.5871 37.0483 36.9871 37.3683 37.4271 37.3683H37.5871C38.1071 37.2883 38.4271 36.7683 38.3471 36.2483L37.7871 32.7683Z" fill="white"/>
<path d="M31.027 31.8884C32.467 31.8884 33.627 30.7284 33.627 29.2884V23.8884C33.627 22.4484 32.467 21.2884 31.027 21.2884H30.187L29.587 20.1284C29.307 19.5284 28.667 19.1284 27.987 19.1284H25.307C24.627 19.1284 24.027 19.5284 23.707 20.1284L23.107 21.2884H22.267C20.827 21.2884 19.667 22.4484 19.667 23.8884V29.2884C19.667 30.7284 20.827 31.8884 22.267 31.8884H31.027ZM21.587 29.2884V23.8884C21.587 23.4884 21.907 23.2084 22.267 23.2084H23.707C24.067 23.2084 24.387 23.0084 24.547 22.6884L25.427 21.0484H27.907L28.787 22.6884C28.947 23.0084 29.267 23.2084 29.627 23.2084H31.067C31.467 23.2084 31.747 23.5284 31.747 23.8884V29.2884C31.747 29.6884 31.427 29.9684 31.067 29.9684H22.307C21.907 30.0084 21.587 29.6884 21.587 29.2884Z" fill="white"/>
<path d="M26.6673 28.9683C28.1873 28.9683 29.3873 27.7283 29.3873 26.2483C29.3873 24.7283 28.1473 23.5283 26.6673 23.5283C25.1473 23.5283 23.9473 24.7683 23.9473 26.2483C23.9473 27.7283 25.1473 28.9683 26.6673 28.9683ZM26.6673 25.4083C27.1073 25.4083 27.5073 25.7683 27.5073 26.2483C27.5073 26.6883 27.1473 27.0883 26.6673 27.0883C26.2273 27.0883 25.8273 26.7283 25.8273 26.2483C25.8273 25.7683 26.2273 25.4083 26.6673 25.4083Z" fill="white"/>
</svg>
