<svg width="26" height="28" viewBox="0 0 26 28" fill="none" xmlns="http://www.w3.org/2000/svg">
<path fill-rule="evenodd" clip-rule="evenodd" d="M9.17279 20.6173C11.934 22.375 15.6385 22.0486 18.0475 19.6396C20.8345 16.8526 20.8345 12.3319 18.0475 9.54496C15.2605 6.75797 10.7415 6.75797 7.95453 9.54496C5.54386 11.9556 5.21738 15.6584 6.97515 18.4196L6.50953 21.0829L9.17279 20.6173ZM13.5561 17.5345H9.73254C9.36794 17.5345 9.07238 17.2389 9.07238 16.8743C9.07238 16.5097 9.36794 16.2142 9.73254 16.2142H13.5561C13.9207 16.2142 14.2162 16.5097 14.2162 16.8743C14.2162 17.2389 13.9207 17.5345 13.5561 17.5345ZM16.2834 17.5345H15.6939C15.3293 17.5345 15.0337 17.2389 15.0337 16.8743C15.0337 16.5097 15.3293 16.2142 15.6939 16.2142H16.2834C16.648 16.2142 16.9435 16.5097 16.9435 16.8743C16.9435 17.2389 16.648 17.5345 16.2834 17.5345ZM16.285 15.2516H9.73254C9.36794 15.2516 9.07238 14.956 9.07238 14.5914C9.07238 14.2268 9.36794 13.9313 9.73254 13.9313H16.285C16.6496 13.9313 16.9451 14.2268 16.9451 14.5914C16.9451 14.956 16.6496 15.2516 16.285 15.2516ZM9.71697 11.6499H16.285C16.6496 11.6499 16.9451 11.9455 16.9451 12.3101C16.9451 12.6747 16.6496 12.9703 16.285 12.9703H9.71697C9.35237 12.9703 9.05681 12.6747 9.05681 12.3101C9.05681 11.9455 9.35237 11.6499 9.71697 11.6499ZM0.31209 14.8631C0.297235 14.1818 0.339214 13.4878 0.43698 12.8004C0.827938 10.0612 2.06524 7.58192 4.01513 5.6301C5.77251 3.87101 8.04855 2.64934 10.4726 2.1539C10.6683 0.93459 11.7273 0 13.0009 0C14.4131 0 15.5619 1.14889 15.5619 2.56103C15.5619 3.97318 14.413 5.12201 13.0009 5.12201C11.9102 5.12201 10.9772 4.43632 10.6086 3.47361C5.95171 4.46823 2.42434 8.22089 1.7441 12.9866C1.65651 13.6028 1.61877 14.2246 1.63208 14.8343C1.64006 15.1988 1.35099 15.5008 0.9865 15.5087C0.981603 15.5089 0.976707 15.5089 0.97181 15.5089C0.613863 15.5089 0.319957 15.2228 0.31209 14.8632V14.8631ZM19.8014 24.5394C19.9904 24.8511 19.8909 25.2571 19.5791 25.4461C18.9939 25.8008 18.3719 26.1114 17.7301 26.369C16.2063 26.981 14.6122 27.2889 13.0107 27.2889C11.9147 27.2889 10.8154 27.1448 9.73238 26.8552C7.32947 26.2126 5.13315 24.8521 3.4924 23.0002C3.19773 23.1122 2.89133 23.1675 2.58747 23.1676C1.70124 23.1676 0.838502 22.7081 0.364742 21.8875C0.02231 21.2951 -0.0687447 20.6049 0.108358 19.9442C0.285351 19.2839 0.709044 18.7316 1.30137 18.3893C2.52579 17.6835 4.09502 18.1049 4.80002 19.3282C5.34546 20.2718 5.21815 21.4228 4.56834 22.2236C7.75762 25.7596 12.7709 26.938 17.2381 25.1439C17.8135 24.9129 18.3709 24.6347 18.8947 24.3172C19.2065 24.1282 19.6124 24.2277 19.8014 24.5395L19.8014 24.5394ZM25.6372 21.8874C25.163 22.708 24.2996 23.1674 23.4136 23.1674C22.98 23.1674 22.5413 23.0575 22.1397 22.8261C20.9157 22.1185 20.4955 20.5486 21.2024 19.3258C21.7466 18.3816 22.8072 17.9164 23.8261 18.0791C25.2939 13.5493 23.8074 8.61878 20.0191 5.6471C19.5327 5.26522 19.0131 4.92081 18.4747 4.62332C18.1556 4.44705 18.0398 4.04542 18.2161 3.72626C18.3924 3.40715 18.794 3.29139 19.1132 3.46767C19.7134 3.79927 20.2925 4.18313 20.8342 4.60847C23.0106 6.31573 24.5394 8.62649 25.2551 11.2907C25.9003 13.6925 25.8203 16.2746 25.0369 18.6215C25.9949 19.4016 26.2741 20.7855 25.6372 21.8874ZM1.7112 16.3519C1.90767 16.6591 1.81881 17.0677 1.51159 17.2641C1.20597 17.4622 0.797403 17.3733 0.599393 17.0661C0.402924 16.7605 0.491778 16.3519 0.798999 16.1539C1.10462 15.9574 1.51313 16.0463 1.7112 16.3519ZM21.3435 24.0941C21.1767 24.4185 20.779 24.5463 20.4547 24.3795C20.1303 24.2111 20.004 23.8135 20.1709 23.4891C20.3377 23.1663 20.7354 23.0384 21.0597 23.2053C21.384 23.3722 21.5103 23.7698 21.3435 24.0941ZM16.43 3.30636C16.4128 2.94302 16.6935 2.63272 17.0584 2.61555C17.4217 2.59839 17.732 2.87909 17.7492 3.24397C17.7664 3.60731 17.4857 3.91607 17.1223 3.93478C16.7575 3.95194 16.4487 3.67124 16.43 3.30636Z" fill="url(#paint0_linear_2304_6980)"/>
<defs>
<linearGradient id="paint0_linear_2304_6980" x1="0.0200195" y1="0" x2="26.6341" y2="38.2167" gradientUnits="userSpaceOnUse">
<stop stop-color="#EB7A91"/>
<stop offset="1" stop-color="#AC1A37"/>
</linearGradient>
</defs>
</svg>
