<svg width="26" height="26" viewBox="0 0 26 26" fill="none" xmlns="http://www.w3.org/2000/svg">
<g clip-path="url(#clip0_718_3249)">
<path d="M16.0574 15.9794C16.0574 17.172 17.0275 18.1421 18.2201 18.1421H25.9999V13.8167H18.2201C17.0275 13.8167 16.0574 14.7869 16.0574 15.9794ZM19.3585 15.1425C19.8208 15.6048 19.8208 16.3542 19.3585 16.8164C18.8963 17.2787 18.1468 17.2787 17.6846 16.8164C17.2224 16.3542 17.2223 15.6047 17.6846 15.1425C18.1468 14.6802 18.8963 14.6802 19.3585 15.1425Z" fill="url(#paint0_linear_718_3249)"/>
<path d="M18.2202 19.7756C16.127 19.7756 14.424 18.0727 14.424 15.9794C14.424 13.8862 16.127 12.1833 18.2202 12.1833H25.9999V8.87215C25.9999 7.56083 24.9331 6.49403 23.6218 6.49403H3.67166C2.54779 6.49403 1.63346 5.5797 1.63346 4.45583C1.63346 4.00479 1.26777 3.6391 0.81673 3.6391C0.365691 3.6391 0 4.00479 0 4.45583V21.3543C0 23.3789 1.64709 25.0259 3.67166 25.0259H23.6218C24.9331 25.0259 25.9999 23.9592 25.9999 22.6478V19.7756H18.2202Z" fill="url(#paint1_linear_718_3249)"/>
<path d="M3.26695 4.45583C3.26695 4.679 3.44852 4.86057 3.67169 4.86057H23.2983V3.35217C23.2983 2.04091 22.2315 0.97406 20.9202 0.97406H3.67169C2.67369 0.97406 1.76794 1.37482 1.10547 2.0232C2.32087 2.16659 3.26695 3.20251 3.26695 4.45583Z" fill="url(#paint2_linear_718_3249)"/>
</g>
<defs>
<linearGradient id="paint0_linear_718_3249" x1="16.0574" y1="13.8167" x2="18.451" y2="22.1221" gradientUnits="userSpaceOnUse">
<stop stop-color="#EB7A91"/>
<stop offset="1" stop-color="#AC1A37"/>
</linearGradient>
<linearGradient id="paint1_linear_718_3249" x1="0" y1="3.6391" x2="18.6877" y2="37.9321" gradientUnits="userSpaceOnUse">
<stop stop-color="#EB7A91"/>
<stop offset="1" stop-color="#AC1A37"/>
</linearGradient>
<linearGradient id="paint2_linear_718_3249" x1="1.10547" y1="0.97406" x2="2.03073" y2="8.94922" gradientUnits="userSpaceOnUse">
<stop stop-color="#EB7A91"/>
<stop offset="1" stop-color="#AC1A37"/>
</linearGradient>
<clipPath id="clip0_718_3249">
<rect width="26" height="26" fill="white"/>
</clipPath>
</defs>
</svg>
