<svg width="24" height="28" viewBox="0 0 24 28" fill="none" xmlns="http://www.w3.org/2000/svg">
<path d="M7.65941 14.7768C7.89681 14.7768 8.12424 14.8139 8.35264 14.8472C8.91007 13.9591 9.61488 13.176 10.4362 12.5315C9.57501 12.1925 8.64051 12 7.65946 12C3.45478 12 0 15.4189 0 19.6364C0 23.8538 3.45478 27.2727 7.65946 27.2727C9.16569 27.2727 10.6275 26.8073 11.8122 26.0318C12.6286 25.4974 13.3351 24.811 13.8939 24.0113C14.7495 22.7869 15.2727 21.2503 15.2727 19.6363C15.2727 18.502 15.0194 17.4292 14.5771 16.4613C13.3591 16.9993 12.5042 18.2181 12.5042 19.6363C12.5042 20.5388 12.2413 21.3744 11.8121 22.0994C11.3218 22.9275 10.6015 23.5944 9.73037 24.0113C8.9988 24.3615 8.08202 24.4958 7.65941 24.4958C4.98824 24.4958 2.76843 22.3156 2.76843 19.6363C2.76843 16.9571 4.98824 14.7768 7.65941 14.7768Z" fill="url(#paint0_linear_2304_6596)"/>
<path d="M18.0039 11.8135C19.2577 10.7318 20.4669 9.65691 20.4669 8.12905C20.4669 6.65607 19.4085 5.45459 18.0573 5.45459C17.3247 5.45459 16.7522 5.84595 16.3406 6.31841C15.9289 5.84595 15.3565 5.45459 14.6238 5.45459C13.2727 5.45459 12.2142 6.65607 12.2142 8.12905C12.2142 9.57856 13.2478 10.5651 14.71 11.8394C13.7431 12.0689 12.844 12.4518 12.1879 12.8921C11.3715 13.4398 10.665 14.1432 10.1061 14.9628C9.30899 16.1319 8.72729 17.7749 8.72729 19.4466C8.72729 20.6093 8.98878 21.7041 9.43242 22.6951C10.6451 22.1414 11.4958 20.8961 11.4958 19.4466C11.4958 18.5216 11.7587 17.6653 12.1879 16.9223C12.6782 16.0736 13.3984 15.3901 14.2696 14.9628C14.9482 14.6299 16.0057 14.4663 16.3406 14.4663C19.0117 14.4663 21.2315 16.7007 21.2315 19.4466C21.2315 22.1924 19.0117 24.4268 16.3406 24.4268C16.1039 24.4268 15.8811 24.3785 15.6546 24.3426C15.0994 25.2524 14.3973 26.0555 13.5784 26.7168C14.4368 27.0636 15.3622 27.2728 16.3406 27.2728C20.5453 27.2728 24 23.7688 24 19.4466C24 15.7123 21.4076 12.5941 18.0039 11.8135Z" fill="url(#paint1_linear_2304_6596)"/>
<path d="M16.5264 2.37171C16.5376 2.37217 16.5488 2.37243 16.56 2.37243C16.9676 2.37243 17.3065 2.05106 17.3242 1.63987L17.3605 0.798513C17.3787 0.376149 17.0512 0.0189567 16.6287 0.000686261C16.2065 -0.0170228 15.8492 0.310161 15.831 0.732525L15.7947 1.57388C15.7764 1.9963 16.104 2.35349 16.5264 2.37171Z" fill="url(#paint2_linear_2304_6596)"/>
<path d="M11.6799 4.93872C11.8308 5.10336 12.0372 5.18675 12.2442 5.18675C12.429 5.18675 12.6145 5.12015 12.7615 4.98537C13.073 4.69952 13.0939 4.2153 12.8081 3.90379L12.2388 3.28321C11.953 2.97164 11.4688 2.95076 11.1572 3.23656C10.8457 3.52241 10.8248 4.00662 11.1106 4.31814L11.6799 4.93872Z" fill="url(#paint3_linear_2304_6596)"/>
<path d="M20.8343 5.16081C21.0191 5.16081 21.2046 5.09421 21.3516 4.95943L21.9722 4.39014C22.2837 4.10429 22.3046 3.62007 22.0188 3.30856C21.733 2.99704 21.2488 2.97617 20.9372 3.26191L20.3167 3.83115C20.0051 4.11695 19.9842 4.60122 20.27 4.91273C20.421 5.07732 20.6273 5.16081 20.8343 5.16081Z" fill="url(#paint4_linear_2304_6596)"/>
<defs>
<linearGradient id="paint0_linear_2304_6596" x1="0" y1="12" x2="14.6235" y2="34.0737" gradientUnits="userSpaceOnUse">
<stop stop-color="#EB7A91"/>
<stop offset="1" stop-color="#AC1A37"/>
</linearGradient>
<linearGradient id="paint1_linear_2304_6596" x1="8.72729" y1="5.45459" x2="31.3798" y2="29.3898" gradientUnits="userSpaceOnUse">
<stop stop-color="#EB7A91"/>
<stop offset="1" stop-color="#AC1A37"/>
</linearGradient>
<linearGradient id="paint2_linear_2304_6596" x1="15.7939" y1="0" x2="18.2608" y2="2.45998" gradientUnits="userSpaceOnUse">
<stop stop-color="#EB7A91"/>
<stop offset="1" stop-color="#AC1A37"/>
</linearGradient>
<linearGradient id="paint3_linear_2304_6596" x1="10.9092" y1="3.03516" x2="12.9883" y2="6.0987" gradientUnits="userSpaceOnUse">
<stop stop-color="#EB7A91"/>
<stop offset="1" stop-color="#AC1A37"/>
</linearGradient>
<linearGradient id="paint4_linear_2304_6596" x1="20.0686" y1="3.06055" x2="22.0603" y2="6.14036" gradientUnits="userSpaceOnUse">
<stop stop-color="#EB7A91"/>
<stop offset="1" stop-color="#AC1A37"/>
</linearGradient>
</defs>
</svg>
