<svg width="26" height="26" viewBox="0 0 26 26" fill="none" xmlns="http://www.w3.org/2000/svg">
<path d="M12.9999 13C15.9915 13 18.4166 10.5749 18.4166 7.58335C18.4166 4.59181 15.9915 2.16669 12.9999 2.16669C10.0084 2.16669 7.58325 4.59181 7.58325 7.58335C7.58325 10.5749 10.0084 13 12.9999 13Z" fill="url(#paint0_linear_718_3360)"/>
<path d="M22.3057 23.8333C22.3057 19.6408 18.1349 16.25 12.9999 16.25C7.86492 16.25 3.69409 19.6408 3.69409 23.8333" fill="url(#paint1_linear_718_3360)"/>
<path d="M22.75 24.375C22.75 22.0765 20.7536 20.4137 19.1283 18.7884C17.5029 17.1631 15.2985 16.25 13 16.25C10.7015 16.25 8.49706 17.1631 6.87174 18.7884C5.24643 20.4137 3.25 22.0765 3.25 24.375H3.79167H13H22.75Z" fill="url(#paint2_linear_718_3360)"/>
<circle cx="12.9999" cy="7.58335" r="5.41667" fill="url(#paint3_linear_718_3360)"/>
<defs>
<linearGradient id="paint0_linear_718_3360" x1="7.58325" y1="2.16669" x2="17.9561" y2="17.8241" gradientUnits="userSpaceOnUse">
<stop stop-color="#EB7A91"/>
<stop offset="1" stop-color="#AC1A37"/>
</linearGradient>
<linearGradient id="paint1_linear_718_3360" x1="3.69409" y1="16.25" x2="7.66193" y2="30.9495" gradientUnits="userSpaceOnUse">
<stop stop-color="#EB7A91"/>
<stop offset="1" stop-color="#AC1A37"/>
</linearGradient>
<linearGradient id="paint2_linear_718_3360" x1="3.25" y1="16.25" x2="7.58395" y2="31.9507" gradientUnits="userSpaceOnUse">
<stop stop-color="#EB7A91"/>
<stop offset="1" stop-color="#AC1A37"/>
</linearGradient>
<linearGradient id="paint3_linear_718_3360" x1="7.58325" y1="2.16669" x2="17.9561" y2="17.8241" gradientUnits="userSpaceOnUse">
<stop stop-color="#EB7A91"/>
<stop offset="1" stop-color="#AC1A37"/>
</linearGradient>
</defs>
</svg>
