<svg width="26" height="26" viewBox="0 0 26 26" fill="none" xmlns="http://www.w3.org/2000/svg">
<g clip-path="url(#clip0_2304_6835)">
<path d="M14.6658 18.7282C14.9654 18.4286 15.3107 18.2103 15.6814 18.0731C14.8638 16.9813 14.9958 15.3208 15.9861 14.3661L16.0115 14.3407C16.8544 13.4978 18.0986 13.2896 19.1345 13.7161C19.2666 13.2642 19.5154 12.8478 19.8556 12.5075L19.881 12.4821C20.9474 11.37 22.872 11.37 23.9435 12.4821L24.0146 12.5532L24.1619 12.406C26.6095 9.96338 26.6095 5.99229 24.172 3.54971C21.7294 1.10713 17.7583 1.10713 15.3208 3.54971L13.8634 5.00713L16.631 7.69854C17.865 8.84111 17.8802 10.9536 16.6666 12.1165C15.5138 13.32 13.4369 13.32 12.2841 12.1165L11.3244 11.1669C11.2939 11.1364 11.2431 11.1364 11.2177 11.1669L5.28647 17.0931C4.91069 17.4536 4.91069 18.1087 5.28647 18.4692C5.66733 18.8501 6.28686 18.8501 6.66265 18.4692C6.6728 18.4591 8.37397 16.7579 8.37397 16.7579C8.70913 16.4228 9.25757 16.4228 9.59272 16.7579C9.92788 17.0931 9.92788 17.6415 9.59272 17.9767L7.97788 19.5915C7.54624 20.0028 7.54624 20.7493 7.97788 21.1606C8.38921 21.5923 9.13569 21.5923 9.54702 21.1606L11.1568 19.5509C11.4919 19.2157 12.0404 19.2157 12.3755 19.5509C12.7107 19.886 12.7107 20.4345 12.3755 20.7696L10.7759 22.3692C10.3341 22.8009 10.3291 23.5118 10.7658 23.9485C11.1771 24.3802 11.9236 24.3802 12.3349 23.9485L14.1376 22.1458C13.5333 21.0642 13.7365 19.6118 14.6302 18.7435L14.6658 18.7282Z" fill="url(#paint0_linear_2304_6835)"/>
<path d="M1.72676 3.74791C-0.573628 6.0483 -0.578706 9.79087 1.71661 12.0963L4.86504 15.0721L9.99395 9.94322C10.6643 9.24244 11.8729 9.24244 12.5432 9.94322L13.4979 10.8979C14.0107 11.4311 14.9299 11.4311 15.4377 10.8979C15.7018 10.6338 15.844 10.2885 15.8389 9.91783C15.8338 9.54712 15.6865 9.20181 15.4225 8.94283L10.0904 3.75806C7.79004 1.44751 4.03223 1.44244 1.72676 3.74791Z" fill="url(#paint1_linear_2304_6835)"/>
<path d="M21.4197 19.7998L21.4451 19.7744C21.8869 19.3479 21.892 18.5811 21.4451 18.1545L19.8607 16.5701L18.8553 15.5646C18.4084 15.1178 17.6822 15.1178 17.2354 15.5646L17.21 15.59C16.7682 16.0166 16.7631 16.7834 17.21 17.21L19.7998 19.7998C20.2467 20.2467 20.9729 20.2467 21.4197 19.7998Z" fill="url(#paint2_linear_2304_6835)"/>
<path d="M24.2888 16.9306L24.3142 16.9052C24.7611 16.4584 24.7611 15.7322 24.3142 15.2853L22.7298 13.7009C22.3033 13.2591 21.5365 13.2541 21.1099 13.7009L21.0845 13.7263C20.6427 14.1529 20.6427 14.9197 21.0845 15.3462L22.6689 16.9306C23.1158 17.3775 23.8419 17.3775 24.2888 16.9306Z" fill="url(#paint3_linear_2304_6835)"/>
<path d="M16.89 22.6234C17.3369 23.0703 18.0631 23.0703 18.51 22.6234L18.5354 22.598C18.9822 22.1512 18.9822 21.425 18.5354 20.9781L17.5096 19.9523C17.0627 19.5055 16.3365 19.5055 15.8897 19.9523L15.8643 19.9777C15.4225 20.4043 15.4174 21.1711 15.8643 21.5977L16.89 22.6234Z" fill="url(#paint4_linear_2304_6835)"/>
</g>
<defs>
<linearGradient id="paint0_linear_2304_6835" x1="5.00464" y1="1.71777" x2="27.1634" y2="32.8519" gradientUnits="userSpaceOnUse">
<stop stop-color="#EB7A91"/>
<stop offset="1" stop-color="#AC1A37"/>
</linearGradient>
<linearGradient id="paint1_linear_2304_6835" x1="-0.00170898" y1="2.02197" x2="11.4109" y2="22.9326" gradientUnits="userSpaceOnUse">
<stop stop-color="#EB7A91"/>
<stop offset="1" stop-color="#AC1A37"/>
</linearGradient>
<linearGradient id="paint2_linear_2304_6835" x1="16.8767" y1="15.2295" x2="21.5751" y2="22.316" gradientUnits="userSpaceOnUse">
<stop stop-color="#EB7A91"/>
<stop offset="1" stop-color="#AC1A37"/>
</linearGradient>
<linearGradient id="paint3_linear_2304_6835" x1="20.7532" y1="13.3677" x2="24.4863" y2="18.9999" gradientUnits="userSpaceOnUse">
<stop stop-color="#EB7A91"/>
<stop offset="1" stop-color="#AC1A37"/>
</linearGradient>
<linearGradient id="paint4_linear_2304_6835" x1="15.531" y1="19.6172" x2="18.7311" y2="24.4449" gradientUnits="userSpaceOnUse">
<stop stop-color="#EB7A91"/>
<stop offset="1" stop-color="#AC1A37"/>
</linearGradient>
<clipPath id="clip0_2304_6835">
<rect width="26" height="26" fill="white"/>
</clipPath>
</defs>
</svg>
