<svg width="26" height="26" viewBox="0 0 26 26" fill="none" xmlns="http://www.w3.org/2000/svg">
<g clip-path="url(#clip0_2304_6893)">
<path d="M1.25 25.2383C1.25 25.659 1.59105 26 2.01172 26H5.05859C5.47927 26 5.82031 25.659 5.82031 25.2383V16.8086H2.01172C1.59105 16.8086 1.25 17.1495 1.25 17.5703V25.2383Z" fill="url(#paint0_linear_2304_6893)"/>
<path d="M14.9609 0C13.8742 0 13.1444 0.533356 12.6758 1.10317C12.2072 0.533356 11.4774 0 10.3906 0C8.68199 0 7.34375 1.38211 7.34375 3.14656C7.34375 5.02409 8.88283 6.32379 11.0125 8.05183C11.3822 8.35159 11.775 8.67075 12.1885 9.01515C12.3291 9.13265 12.5025 9.19146 12.6758 9.19146C12.8491 9.19146 13.0224 9.1327 13.163 9.01515C13.5766 8.67075 13.9694 8.35164 14.3391 8.05183C16.4687 6.32384 18.0078 5.02409 18.0078 3.14656C18.0078 1.38211 16.6696 0 14.9609 0Z" fill="url(#paint1_linear_2304_6893)"/>
<path d="M23.6016 11.2541C24.3545 10.2708 24.2654 8.89995 23.2713 8.13879C22.7997 7.77875 22.2916 7.688 21.8296 7.73116C21.7515 7.27297 21.5291 6.80801 21.0575 6.44726C20.0957 5.71307 18.7389 5.93402 17.9652 6.94563C17.1671 7.98929 17.4431 9.23972 17.8254 10.9707L18.0232 11.8901C18.0965 12.2432 18.4135 12.5148 18.8162 12.4956L19.7624 12.445C21.219 12.3746 22.7544 12.3619 23.6016 11.2541Z" fill="url(#paint2_linear_2304_6893)"/>
<path d="M4.29303 6.44711C3.82143 6.80786 3.599 7.27282 3.5209 7.73102C3.06194 7.68861 2.5524 7.77865 2.07927 8.1394C1.12042 8.87283 0.97463 10.2408 1.74899 11.254C2.5943 12.3594 4.10514 12.3732 5.58811 12.4449L6.53431 12.4955C6.93797 12.5146 7.25419 12.2422 7.32726 11.8899L7.52511 10.9706C7.90744 9.23957 8.18344 7.98914 7.38602 6.94548C6.64634 5.97754 5.30505 5.67488 4.29303 6.44711Z" fill="url(#paint3_linear_2304_6893)"/>
<path d="M11.1523 10.7148C10.7313 10.7148 10.3906 11.0555 10.3906 11.4766V13.5817C10.3906 14.8121 9.70701 15.9182 8.60759 16.4679C8.21485 16.6639 7.78062 16.7626 7.34375 16.7876V24.4766H7.84364C9.15654 25.4607 10.767 26 12.411 26H15.0717C16.012 26 16.8444 25.4361 17.194 24.5636L19.0224 19.9425C19.622 18.4429 18.5157 16.8086 16.9002 16.8086H14.961V14.5234C14.9609 12.4235 13.2523 10.7148 11.1523 10.7148Z" fill="url(#paint4_linear_2304_6893)"/>
</g>
<defs>
<linearGradient id="paint0_linear_2304_6893" x1="1.25" y1="16.8086" x2="10.427" y2="23.6965" gradientUnits="userSpaceOnUse">
<stop stop-color="#EB7A91"/>
<stop offset="1" stop-color="#AC1A37"/>
</linearGradient>
<linearGradient id="paint1_linear_2304_6893" x1="7.34375" y1="0" x2="15.5747" y2="14.4149" gradientUnits="userSpaceOnUse">
<stop stop-color="#EB7A91"/>
<stop offset="1" stop-color="#AC1A37"/>
</linearGradient>
<linearGradient id="paint2_linear_2304_6893" x1="17.4512" y1="6.01416" x2="23.5949" y2="15.5275" gradientUnits="userSpaceOnUse">
<stop stop-color="#EB7A91"/>
<stop offset="1" stop-color="#AC1A37"/>
</linearGradient>
<linearGradient id="paint3_linear_2304_6893" x1="1.25195" y1="6.00977" x2="7.40228" y2="15.5237" gradientUnits="userSpaceOnUse">
<stop stop-color="#EB7A91"/>
<stop offset="1" stop-color="#AC1A37"/>
</linearGradient>
<linearGradient id="paint4_linear_2304_6893" x1="7.34375" y1="10.7148" x2="23.0443" y2="29.0787" gradientUnits="userSpaceOnUse">
<stop stop-color="#EB7A91"/>
<stop offset="1" stop-color="#AC1A37"/>
</linearGradient>
<clipPath id="clip0_2304_6893">
<rect width="26" height="26" fill="white"/>
</clipPath>
</defs>
</svg>
