<svg width="26" height="26" viewBox="0 0 26 26" fill="none" xmlns="http://www.w3.org/2000/svg">
<g clip-path="url(#clip0_718_3367)">
<path d="M1.08325 1.08334H19.4999V15.1667H9.20825L4.33325 19.5V15.7083L1.08325 15.1667V1.08334Z" fill="url(#paint0_linear_718_3367)"/>
<path d="M17.875 0H3.25C1.45763 0 0 1.45763 0 3.25V13C0 14.7924 1.45763 16.25 3.25 16.25V20.3125C3.25 20.6294 3.43525 20.9186 3.72287 21.0503C3.83175 21.1006 3.94713 21.125 4.0625 21.125C4.25262 21.125 4.44113 21.0584 4.59063 20.9284L10.0506 16.25H17.875C19.6674 16.25 21.125 14.7924 21.125 13V3.25C21.125 1.45763 19.6674 0 17.875 0ZM19.5 13C19.5 13.8954 18.7704 14.625 17.875 14.625H9.75C9.55663 14.625 9.36813 14.6933 9.22188 14.8216L4.875 18.5461V15.4375C4.875 14.989 4.511 14.625 4.0625 14.625H3.25C2.35462 14.625 1.625 13.8954 1.625 13V3.25C1.625 2.35462 2.35462 1.625 3.25 1.625H17.875C18.7704 1.625 19.5 2.35462 19.5 3.25V13Z" fill="url(#paint1_linear_718_3367)"/>
<path d="M22.7485 4.3335C22.7485 4.3335 23.2904 3.79173 23.8784 4.3335C24.3737 5.41656 25.9982 5.89527 25.9985 7.18018V8.09814C25.9986 8.10693 25.9995 8.11571 25.9995 8.12451V17.8745C25.9995 19.65 24.5694 21.0954 22.8003 21.1226L22.7495 23.2505V25.187C22.7495 25.5039 22.5645 25.7937 22.2769 25.9253C22.168 25.9757 22.0524 25.9995 21.937 25.9995C21.7469 25.9995 21.5581 25.9332 21.4087 25.8032L15.9487 21.1245L11.9175 21.1255C11.6822 21.1254 11.6938 20.8033 11.7573 20.4321C11.671 20.1583 11.7582 19.5635 11.8335 19.0757C11.7294 18.7324 11.5997 18.4167 11.9155 18.4165C11.9154 17.9992 11.4779 17.3335 11.9155 17.3335H20.5825C21.6654 17.3334 22.1937 17.0862 22.1938 16.2534V7.18018C22.1939 6.53952 22.2978 6.17266 22.3042 5.76416C22.298 4.675 22.7372 4.34187 22.7485 4.3335Z" fill="url(#paint2_linear_718_3367)"/>
<path d="M15.4375 4.875H5.6875C5.239 4.875 4.875 5.239 4.875 5.6875C4.875 6.136 5.239 6.5 5.6875 6.5H15.4375C15.886 6.5 16.25 6.136 16.25 5.6875C16.25 5.239 15.886 4.875 15.4375 4.875Z" fill="white"/>
<path d="M12.1875 8.125H5.6875C5.239 8.125 4.875 8.489 4.875 8.9375C4.875 9.386 5.239 9.75 5.6875 9.75H12.1875C12.636 9.75 13 9.386 13 8.9375C13 8.489 12.636 8.125 12.1875 8.125Z" fill="white"/>
<path d="M22.2012 5.5C22.2012 4.39543 23.0966 3.5 24.2012 3.5C25.3057 3.5 26.2012 4.39543 26.2012 5.5V7.5H22.2012V5.5Z" fill="url(#paint3_linear_718_3367)"/>
<path d="M10.9779 17.3353C9.89583 17.3353 9.03655 18.2455 9.09876 19.3258C9.15611 20.3217 9.98041 21.0999 10.9779 21.0999H13.7009L13.3083 17.3353H10.9779Z" fill="url(#paint4_linear_718_3367)"/>
</g>
<defs>
<linearGradient id="paint0_linear_718_3367" x1="1.08325" y1="1.08334" x2="18.7171" y2="27.701" gradientUnits="userSpaceOnUse">
<stop stop-color="#EB7A91"/>
<stop offset="1" stop-color="#AC1A37"/>
</linearGradient>
<linearGradient id="paint1_linear_718_3367" x1="0" y1="0" x2="20.227" y2="30.532" gradientUnits="userSpaceOnUse">
<stop stop-color="#EB7A91"/>
<stop offset="1" stop-color="#AC1A37"/>
</linearGradient>
<linearGradient id="paint2_linear_718_3367" x1="11.7163" y1="4.09229" x2="34.4932" y2="26.5082" gradientUnits="userSpaceOnUse">
<stop stop-color="#EB7A91"/>
<stop offset="1" stop-color="#AC1A37"/>
</linearGradient>
<linearGradient id="paint3_linear_718_3367" x1="22.2012" y1="3.5" x2="26.2045" y2="8.7875" gradientUnits="userSpaceOnUse">
<stop stop-color="#EB7A91"/>
<stop offset="1" stop-color="#AC1A37"/>
</linearGradient>
<linearGradient id="paint4_linear_718_3367" x1="8.99976" y1="16.9999" x2="14.2873" y2="21.0032" gradientUnits="userSpaceOnUse">
<stop stop-color="#EB7A91"/>
<stop offset="1" stop-color="#AC1A37"/>
</linearGradient>
<clipPath id="clip0_718_3367">
<rect width="26" height="26" fill="white"/>
</clipPath>
</defs>
</svg>
