<svg width="26" height="26" viewBox="0 0 26 26" fill="none" xmlns="http://www.w3.org/2000/svg">
<path d="M3.92 0.244995C2.78578 0.592098 1.79285 1.29397 1.08723 2.2474C0.381606 3.20083 0.000516947 4.35552 0 5.54166V5.83333H8.4L3.92 0.244995Z" fill="url(#paint0_linear_7878_15048)"/>
<path d="M17.7448 5.85667L13.0664 0H5.96143L10.6398 5.845L17.7448 5.85667Z" fill="url(#paint1_linear_7878_15048)"/>
<path d="M19.5416 0H15.2949L19.9616 5.83333H25.0716V5.54167C25.0716 4.07395 24.4893 2.66617 23.4526 1.62724C22.4159 0.588306 21.0093 0.00308994 19.5416 0Z" fill="url(#paint2_linear_7878_15048)"/>
<path d="M21.3733 7.61829H0V19.5416C0 21.0114 0.583853 22.4209 1.62312 23.4602C2.66238 24.4994 4.07193 25.0833 5.54167 25.0833H19.5417C21.0114 25.0833 22.421 24.4994 23.4602 23.4602C24.4995 22.4209 25.0833 21.0114 25.0833 19.5416V7.61829H21.3733ZM16.5667 17.9083L13.2883 19.5416C12.9091 19.7351 12.4891 19.8351 12.0633 19.8333C11.5568 19.8301 11.0607 19.6889 10.6283 19.425C10.2316 19.1785 9.90442 18.8348 9.67779 18.4265C9.45115 18.0181 9.33258 17.5586 9.33333 17.0916V13.825C9.33258 13.3579 9.45115 12.8984 9.67779 12.4901C9.90442 12.0817 10.2316 11.7381 10.6283 11.4916C11.0241 11.2446 11.4769 11.104 11.943 11.0836C12.4091 11.0632 12.8725 11.1635 13.2883 11.375L16.5667 13.0083C17.0209 13.2364 17.4028 13.5864 17.6696 14.019C17.9365 14.4517 18.0778 14.95 18.0778 15.4583C18.0778 15.9666 17.9365 16.4649 17.6696 16.8976C17.4028 17.3302 17.0209 17.6801 16.5667 17.9083Z" fill="url(#paint3_linear_7878_15048)"/>
<defs>
<linearGradient id="paint0_linear_7878_15048" x1="0" y1="0.244995" x2="4.28897" y2="9.97634" gradientUnits="userSpaceOnUse">
<stop stop-color="#EB7A91"/>
<stop offset="1" stop-color="#AC1A37"/>
</linearGradient>
<linearGradient id="paint1_linear_7878_15048" x1="5.96143" y1="0" x2="9.57961" y2="10.9883" gradientUnits="userSpaceOnUse">
<stop stop-color="#EB7A91"/>
<stop offset="1" stop-color="#AC1A37"/>
</linearGradient>
<linearGradient id="paint2_linear_7878_15048" x1="15.2949" y1="0" x2="19.4421" y2="10.4919" gradientUnits="userSpaceOnUse">
<stop stop-color="#EB7A91"/>
<stop offset="1" stop-color="#AC1A37"/>
</linearGradient>
<linearGradient id="paint3_linear_7878_15048" x1="0" y1="7.61829" x2="13.8145" y2="37.5667" gradientUnits="userSpaceOnUse">
<stop stop-color="#EB7A91"/>
<stop offset="1" stop-color="#AC1A37"/>
</linearGradient>
</defs>
</svg>
