<svg width="24" height="24" viewBox="0 0 24 24" fill="none" xmlns="http://www.w3.org/2000/svg">
<g clip-path="url(#clip0_1345_11089)">
<path fill-rule="evenodd" clip-rule="evenodd" d="M22.5 12.5032C23.4412 13.7111 24 15.228 24 16.875C24 20.8073 20.8088 24 16.875 24C15.2288 24 13.71 23.4401 12.5025 22.5H3.75C2.955 22.5 2.19003 22.1839 1.62753 21.6214C1.06503 21.0589 0.75 20.2957 0.75 19.5V6.75H22.5V12.5032ZM16.875 11.25C19.98 11.25 22.5 13.7704 22.5 16.875C22.5 19.9796 19.98 22.5 16.875 22.5C13.77 22.5 11.25 19.9796 11.25 16.875C11.25 13.7704 13.77 11.25 16.875 11.25ZM19.5 16.125H17.625V12.75C17.625 12.336 17.2875 12 16.875 12C16.4625 12 16.125 12.336 16.125 12.75V16.875C16.125 17.2894 16.4587 17.625 16.875 17.625H19.5C19.9125 17.625 20.25 17.289 20.25 16.875C20.25 16.461 19.9125 16.125 19.5 16.125ZM0.75 5.25H22.5C22.5 4.45425 22.185 3.69113 21.6225 3.12863C21.06 2.56613 20.295 2.25 19.5 2.25H18.75V1.5C18.75 1.086 18.4125 0.75 18 0.75C17.5875 0.75 17.25 1.086 17.25 1.5V2.25H6V1.5C6 1.086 5.6625 0.75 5.25 0.75C4.8375 0.75 4.5 1.086 4.5 1.5V2.25H3.75C2.955 2.25 2.19003 2.56613 1.62753 3.12863C1.06503 3.69113 0.75 4.45425 0.75 5.25Z" fill="url(#paint0_linear_1345_11089)"/>
</g>
<defs>
<linearGradient id="paint0_linear_1345_11089" x1="0.75" y1="0.75" x2="23.0117" y2="34.3533" gradientUnits="userSpaceOnUse">
<stop stop-color="#EB7A91"/>
<stop offset="1" stop-color="#AC1A37"/>
</linearGradient>
<clipPath id="clip0_1345_11089">
<rect width="24" height="24" fill="white"/>
</clipPath>
</defs>
</svg>
