<svg width="26" height="26" viewBox="0 0 26 26" fill="none" xmlns="http://www.w3.org/2000/svg">
<path d="M21.7099 7.38835L15.4699 3.02251C13.7691 1.83085 11.1583 1.89585 9.52243 3.16335L4.09493 7.39918C3.0116 8.24418 2.15576 9.97751 2.15576 11.3425V18.8175C2.15576 21.58 4.39826 23.8333 7.16076 23.8333H18.8391C21.6016 23.8333 23.8441 21.5908 23.8441 18.8283V11.4833C23.8441 10.0208 22.9016 8.22251 21.7099 7.38835ZM13.8124 19.5C13.8124 19.9442 13.4441 20.3125 12.9999 20.3125C12.5558 20.3125 12.1874 19.9442 12.1874 19.5V16.25C12.1874 15.8058 12.5558 15.4375 12.9999 15.4375C13.4441 15.4375 13.8124 15.8058 13.8124 16.25V19.5Z" fill="url(#paint0_linear_718_3399)"/>
<defs>
<linearGradient id="paint0_linear_718_3399" x1="2.15576" y1="2.16913" x2="22.8901" y2="33.5017" gradientUnits="userSpaceOnUse">
<stop stop-color="#EB7A91"/>
<stop offset="1" stop-color="#AC1A37"/>
</linearGradient>
</defs>
</svg>
