<svg width="27" height="27" viewBox="0 0 27 27" fill="none" xmlns="http://www.w3.org/2000/svg">
<path fill-rule="evenodd" clip-rule="evenodd" d="M26.2081 0.326756C26.009 0.153866 25.7632 0.0438573 25.5017 0.0106322C25.2402 -0.0225929 24.9747 0.0224575 24.7387 0.140089L0.738737 12.1401C0.516861 12.2507 0.33021 12.4209 0.199741 12.6317C0.0692749 12.8425 0.00015831 13.0855 0.00015831 13.3334C0.00015831 13.5813 0.0692749 13.8243 0.199741 14.0351C0.33021 14.2459 0.516861 14.4162 0.738737 14.5268L24.7387 26.5268C24.9746 26.6448 25.2403 26.6902 25.502 26.6572C25.7637 26.6243 26.0098 26.5144 26.2091 26.3415C26.4083 26.1687 26.5519 25.9406 26.6215 25.6861C26.6911 25.4317 26.6836 25.1623 26.6001 24.9121L23.1841 14.6668H16.0014C15.6478 14.6668 15.3086 14.5263 15.0586 14.2762C14.8085 14.0262 14.6681 13.687 14.6681 13.3334C14.6681 12.9798 14.8085 12.6407 15.0586 12.3906C15.3086 12.1406 15.6478 12.0001 16.0014 12.0001H23.1841L26.6014 1.75476C26.6845 1.50464 26.6916 1.2355 26.6219 0.981334C26.5521 0.72717 26.4072 0.499385 26.2081 0.326756Z" fill="url(#paint0_linear_1696_9572)"/>
<defs>
<linearGradient id="paint0_linear_1696_9572" x1="26.6694" y1="0" x2="1.13589" y2="38.5443" gradientUnits="userSpaceOnUse">
<stop stop-color="#EB7A91"/>
<stop offset="1" stop-color="#AC1A37"/>
</linearGradient>
</defs>
</svg>
