<svg width="24" height="24" viewBox="0 0 24 24" fill="none" xmlns="http://www.w3.org/2000/svg">
<path fill-rule="evenodd" clip-rule="evenodd" d="M18.4929 6.935C18.6427 7.06578 18.7344 7.25069 18.7479 7.4491C18.7614 7.6475 18.6956 7.84314 18.5649 7.993L10.7079 16.993C10.6375 17.0736 10.5506 17.1383 10.4532 17.1826C10.3557 17.2269 10.2499 17.2498 10.1429 17.2498C10.0358 17.2498 9.93003 17.2269 9.83258 17.1826C9.73512 17.1383 9.64828 17.0736 9.57788 16.993L6.43488 13.393C6.30881 13.2425 6.24676 13.0486 6.26205 12.8529C6.27734 12.6572 6.36875 12.4753 6.51667 12.3462C6.66458 12.2172 6.85721 12.1512 7.05319 12.1626C7.24917 12.174 7.43288 12.2617 7.56488 12.407L10.1429 15.36L17.4349 7.007C17.5657 6.85719 17.7506 6.76545 17.949 6.75195C18.1474 6.73844 18.343 6.80429 18.4929 6.935Z" fill="#B3B3B3"/>
</svg>
