<svg width="27" height="27" viewBox="0 0 27 27" fill="none" xmlns="http://www.w3.org/2000/svg">
<g filter="url(#filter0_d_1025_5458)">
<path d="M20.6992 14.4683L20.6043 13.5148L20.5727 13.5177L20.542 13.5234L20.6992 14.4683ZM20.6992 14.4683L20.795 15.4219L20.8266 15.419L20.8573 15.4142L20.6992 14.4683ZM16.8275 19.7219L17.4341 18.9802L17.4265 18.9744L16.8275 19.7219ZM16.8275 19.7219L16.2209 20.4637L16.2285 20.4704L16.8275 19.7219ZM8.01466 19.7219L7.40804 18.9811L7.39271 18.9936L7.37833 19.006L8.01466 19.7219ZM8.01466 19.7219L8.62129 20.4646L8.63662 20.4522L8.651 20.4387L8.01466 19.7219ZM4.14204 10.3743V9.41599H4.09412L4.04716 9.42078L4.14204 10.3743ZM4.14204 10.3743V11.3327H4.18996L4.23787 11.3279L4.14204 10.3743ZM15.4216 4.04645C15.4058 3.86212 15.3831 3.67834 15.3555 3.49541C15.3259 3.29402 15.2645 3.09863 15.1734 2.91657L13.4705 3.79632C13.4484 3.7532 13.4532 3.73787 13.4657 3.81357C13.48 3.89887 13.4925 4.0177 13.5145 4.23812L15.4216 4.04645ZM15.5127 4.95687C15.573 5.03545 15.5529 5.07091 15.5194 4.88403C15.4877 4.70578 15.4628 4.45566 15.4216 4.04645L13.5136 4.23716C13.5519 4.61474 13.5845 4.95399 13.6334 5.22424C13.6803 5.48299 13.7627 5.8232 13.988 6.11837L15.5127 4.95687ZM15.5127 4.95687L13.988 6.11837C14.193 6.38751 14.4657 6.59756 14.7783 6.72717C15.0909 6.85678 15.4322 6.90133 15.7676 6.85628L15.5127 4.95687ZM16.2199 4.37707C16.0051 4.5586 15.7843 4.73279 15.5577 4.89937C15.4015 5.00766 15.414 4.96932 15.5127 4.95687L15.7676 6.85628C16.1356 6.80645 16.4346 6.62437 16.6512 6.47295C16.8764 6.3177 17.1399 6.10112 17.4332 5.86057L16.2199 4.37707ZM17.1936 3.75416C17.0007 3.81833 16.8192 3.91279 16.656 4.03399C16.5218 4.12982 16.3713 4.25345 16.2199 4.37707L17.4332 5.86057C17.6047 5.72066 17.6977 5.64495 17.7686 5.59512C17.8309 5.55007 17.8222 5.56541 17.7772 5.57978L17.1936 3.75416ZM18.5391 3.82124C18.1135 3.63681 17.6354 3.61297 17.1936 3.75416L17.7772 5.57978L18.5391 3.82124ZM19.4457 4.53807C19.3166 4.4054 19.1833 4.27692 19.046 4.15282C18.8954 4.01604 18.724 3.90411 18.5381 3.82124L17.7772 5.57978C17.7331 5.56062 17.7264 5.54528 17.7839 5.59607C17.8491 5.65357 17.9344 5.73695 18.0906 5.89316L19.4457 4.53807ZM20.3024 5.39483L19.4457 4.53807L18.0906 5.89316L18.9473 6.74991L20.3024 5.39483ZM21.0192 6.30141C20.9364 6.11558 20.8245 5.94412 20.6877 5.79349C20.5636 5.65651 20.4351 5.52355 20.3024 5.39483L18.9473 6.75087C19.1035 6.90707 19.1869 6.99237 19.2444 7.05753C19.2952 7.11503 19.2799 7.10832 19.2607 7.06424L21.0192 6.30141ZM21.0863 7.64691C21.2275 7.20507 21.2037 6.72702 21.0192 6.30141L19.2607 7.06424L21.0863 7.64691ZM20.4634 8.62058C20.5824 8.47894 20.6968 8.33352 20.8065 8.18453C20.9081 8.0427 21.0173 7.86637 21.0863 7.64691L19.2607 7.06424C19.2751 7.0192 19.2895 7.00962 19.2454 7.07287C19.1955 7.14283 19.1208 7.23578 18.9799 7.40732L20.4634 8.62058ZM19.8836 9.32878C19.8712 9.42749 19.8328 9.43899 19.9411 9.28278C20.0437 9.13424 20.2027 8.93874 20.4634 8.62058L18.9799 7.40732C18.7403 7.70057 18.5228 7.96412 18.3666 8.18932C18.2161 8.40591 18.034 8.70491 17.9842 9.07291L19.8836 9.32878ZM19.8836 9.32878L17.9842 9.07291C17.9392 9.40828 17.9837 9.7496 18.1133 10.0622C18.2429 10.3747 18.453 10.6474 18.7221 10.8525L19.8836 9.32878ZM20.794 9.41983C20.5138 9.39638 20.2345 9.36346 19.9565 9.32112C19.7696 9.28758 19.805 9.26841 19.8836 9.32878L18.7221 10.8525C19.0173 11.0777 19.3565 11.1602 19.6172 11.2071C19.8865 11.255 20.2257 11.2886 20.6033 11.3269L20.794 9.41983ZM21.9239 9.66707C21.7419 9.57603 21.5465 9.51456 21.3451 9.48499C21.1621 9.45736 20.9784 9.43563 20.794 9.41983L20.6033 11.3269C20.7452 11.3394 20.8868 11.3553 21.0279 11.3748C21.1045 11.3882 21.0882 11.393 21.0451 11.371L21.9239 9.66707ZM22.8276 10.6666C22.6573 10.235 22.3362 9.87989 21.9239 9.66707L21.0461 11.3729L22.8276 10.6666ZM22.9618 11.8147C22.9618 11.6192 22.9618 11.4247 22.9512 11.2598C22.9415 11.0564 22.8995 10.8558 22.8267 10.6657L21.0461 11.3729C21.0288 11.3279 21.0346 11.3125 21.0403 11.3892C21.0461 11.4754 21.0461 11.5952 21.0461 11.8166L22.9618 11.8147ZM22.9618 13.026V11.8147H21.0451V13.026H22.9618ZM22.8276 14.1741C22.912 13.9604 22.9397 13.7553 22.9512 13.5799C22.9618 13.4161 22.9618 13.2215 22.9618 13.026H21.0451C21.0451 13.2474 21.0451 13.3672 21.0394 13.4534C21.0336 13.5301 21.0279 13.5148 21.0451 13.4697L22.8276 14.1741ZM21.9239 15.1737C22.3362 14.9608 22.6573 14.6057 22.8276 14.1741L21.0461 13.4707L21.9239 15.1737ZM20.794 15.4209C20.9895 15.4017 21.1822 15.3826 21.3451 15.3557C21.5176 15.327 21.7188 15.2791 21.9239 15.1737L21.0461 13.4707C21.0882 13.4487 21.1045 13.4534 21.0288 13.4659C20.8878 13.4861 20.7462 13.5024 20.6043 13.5148L20.794 15.4209ZM19.8846 15.5119C19.805 15.5723 19.7696 15.5532 19.9565 15.5196C20.1347 15.488 20.3848 15.4621 20.794 15.4209L20.6033 13.5138C20.2267 13.5522 19.8865 13.5847 19.6172 13.6336C19.3575 13.6806 19.0173 13.763 18.7221 13.9882L19.8846 15.5119ZM19.8846 15.5119L18.7221 13.9882C18.453 14.1933 18.2429 14.466 18.1133 14.7786C17.9837 15.0911 17.9392 15.4325 17.9842 15.7678L19.8846 15.5119ZM20.4634 16.2192C20.2819 16.0047 20.1077 15.7842 19.9411 15.5579C19.8328 15.4017 19.8721 15.4132 19.8846 15.5119L17.9842 15.7678C18.034 16.1358 18.2161 16.4348 18.3675 16.6514C18.5237 16.8766 18.7403 17.1402 18.9799 17.4334L20.4634 16.2192ZM21.0863 17.1929C21.0221 17.0003 20.9276 16.8191 20.8065 16.6562C20.7107 16.5211 20.587 16.3716 20.4634 16.2192L18.9799 17.4334C19.1198 17.6049 19.1955 17.697 19.2454 17.7679C19.2904 17.8302 19.276 17.8225 19.2607 17.7775L21.0863 17.1929ZM21.0192 18.5393C21.2039 18.1134 21.2278 17.635 21.0863 17.1929L19.2607 17.7775L21.0192 18.5393ZM20.3024 19.4459C20.4414 19.3069 20.5784 19.1709 20.6877 19.0463C20.8027 18.914 20.9272 18.7502 21.0192 18.5384L19.2607 17.7765C19.2799 17.7324 19.2952 17.7267 19.2444 17.7842C19.1869 17.8493 19.1035 17.9337 18.9473 18.0908L20.3024 19.4459ZM19.4457 20.3017L20.3024 19.4459L18.9473 18.0908L18.0906 18.9466L19.4457 20.3017ZM18.5391 21.0195C18.725 20.9363 18.8964 20.8241 19.047 20.687C19.1706 20.5787 19.3077 20.4407 19.4457 20.3017L18.0906 18.9466C17.9911 19.0485 17.8889 19.1475 17.7839 19.2437C17.7264 19.2955 17.7331 19.2801 17.7772 19.261L18.5391 21.0195ZM17.1936 21.0866C17.6354 21.2278 18.1135 21.2039 18.5391 21.0195L17.7772 19.261L17.1936 21.0866ZM16.2199 20.4637C16.3713 20.5873 16.5208 20.7109 16.656 20.8067C16.7978 20.9074 16.9741 21.0166 17.1936 21.0866L17.7772 19.261C17.8222 19.2753 17.8309 19.2897 17.7676 19.2456C17.6537 19.1603 17.5422 19.0717 17.4332 18.9802L16.2199 20.4637ZM15.5127 19.8848C15.414 19.8705 15.4015 19.8321 15.5577 19.9404C15.7062 20.0439 15.9008 20.202 16.219 20.4627L17.4332 18.9802C17.1399 18.7396 16.8764 18.523 16.6512 18.3668C16.4346 18.2154 16.1356 18.0343 15.7676 17.9845L15.5127 19.8848ZM15.5127 19.8848L15.7676 17.9845C15.4322 17.9394 15.0909 17.984 14.7783 18.1136C14.4657 18.2432 14.193 18.4532 13.988 18.7224L15.5127 19.8848ZM15.4207 20.7943C15.4619 20.3851 15.4877 20.134 15.5194 19.9567C15.5529 19.7698 15.5721 19.8043 15.5117 19.8839L13.988 18.7214C13.7627 19.0166 13.6803 19.3568 13.6334 19.6165C13.5855 19.8867 13.5529 20.226 13.5145 20.6036L15.4207 20.7943ZM15.1725 21.9242C15.2779 21.7191 15.3258 21.5178 15.3545 21.3453C15.3833 21.1824 15.4005 20.9898 15.4207 20.7943L13.5145 20.6036C13.5019 20.7458 13.4853 20.8868 13.4647 21.0281C13.4522 21.1048 13.4475 21.0885 13.4695 21.0454L15.1725 21.9242ZM14.1748 22.8279C14.6057 22.6572 14.9601 22.3361 15.1725 21.9242L13.4705 21.0463L14.1748 22.8279ZM13.0248 22.962C13.2213 22.962 13.4158 22.962 13.5807 22.9515C13.7551 22.94 13.9602 22.9141 14.1748 22.8279L13.4705 21.0463C13.5155 21.0291 13.5308 21.0348 13.4542 21.0406C13.3118 21.0465 13.1692 21.0484 13.0267 21.0463L13.0248 22.962ZM11.8145 22.962H13.0248L13.0258 21.0454H11.8145V22.962ZM10.6664 22.8279C10.8801 22.9122 11.0852 22.94 11.2605 22.9515C11.4244 22.962 11.619 22.962 11.8145 22.962V21.0454C11.5931 21.0454 11.4733 21.0454 11.387 21.0396C11.3104 21.0339 11.3257 21.0281 11.3707 21.0454L10.6664 22.8279ZM9.66683 21.9242C9.87965 22.3364 10.2348 22.6575 10.6664 22.8279L11.3707 21.0454L9.66683 21.9242ZM9.41958 20.7943C9.43875 20.9898 9.45791 21.1824 9.48475 21.3453C9.5135 21.5178 9.56141 21.7191 9.66683 21.9242L11.3727 21.0463C11.3947 21.0885 11.3899 21.1048 11.3775 21.0291C11.3572 20.888 11.3409 20.7465 11.3286 20.6045L9.41958 20.7943ZM9.32854 19.8839C9.26816 19.8053 9.28733 19.7689 9.32087 19.9567C9.3525 20.134 9.37837 20.3851 9.41958 20.7943L11.3267 20.6036C11.2883 20.226 11.2557 19.8867 11.2069 19.6165C11.1599 19.3577 11.0775 19.0175 10.8523 18.7224L9.32854 19.8839ZM9.32854 19.8839L10.8523 18.7224C10.6472 18.4532 10.3745 18.2432 10.0619 18.1136C9.74935 17.984 9.40803 17.9394 9.07266 17.9845L9.32854 19.8839ZM8.62033 20.4637C8.93946 20.203 9.134 20.0439 9.28254 19.9414C9.43875 19.8331 9.42725 19.8714 9.32854 19.8839L9.07266 17.9845C8.70466 18.0343 8.40566 18.2164 8.18908 18.3678C7.96387 18.523 7.70033 18.7396 7.40708 18.9802L8.62033 20.4637ZM7.64666 21.0866C7.83958 21.0224 8.02106 20.9279 8.18429 20.8067C8.31846 20.7109 8.46891 20.5873 8.62033 20.4637L7.40804 18.9811C7.29872 19.0727 7.18783 19.1612 7.07358 19.2466C7.01129 19.2916 7.01991 19.2772 7.06496 19.2619L7.64666 21.0866ZM6.30116 21.0195C6.72677 21.2039 7.20482 21.2278 7.64666 21.0866L7.06304 19.261L6.30116 21.0195ZM5.39362 20.3027C5.53258 20.4416 5.66962 20.5787 5.79421 20.6879C5.9255 20.8029 6.08937 20.9284 6.30212 21.0205L7.06304 19.261C7.10712 19.2801 7.11383 19.2955 7.05633 19.2447C6.95137 19.1485 6.84911 19.0494 6.74966 18.9476L5.39362 20.3027ZM4.53783 19.4459L5.39458 20.3027L6.74966 18.9476L5.89291 18.0908L4.53783 19.4459ZM3.821 18.5393C3.91204 18.7502 4.03758 18.915 4.15258 19.0472C4.26183 19.1709 4.39887 19.3079 4.53783 19.4459L5.89291 18.0908C5.79106 17.9914 5.69199 17.8891 5.59583 17.7842C5.54504 17.7267 5.56037 17.7334 5.57954 17.7775L3.821 18.5393ZM3.75391 17.1938C3.61273 17.6357 3.63656 18.1137 3.821 18.5393L5.57954 17.7775L3.75391 17.1938ZM4.37683 16.2202C4.25782 16.3618 4.1434 16.5072 4.03375 16.6562C3.91255 16.8194 3.81809 17.0009 3.75391 17.1938L5.57954 17.7775C5.56421 17.8225 5.55079 17.8311 5.59487 17.7679C5.64471 17.6979 5.71946 17.6049 5.86033 17.4334L4.37683 16.2202ZM4.95566 15.5119C4.96908 15.4132 5.00741 15.4017 4.89912 15.5579C4.79658 15.7065 4.6375 15.902 4.37683 16.2202L5.86033 17.4334C6.09991 17.1402 6.31746 16.8766 6.47366 16.6514C6.62412 16.4348 6.80621 16.1358 6.85604 15.7678L4.95566 15.5119ZM4.95566 15.5119L6.85604 15.7678C6.90108 15.4325 6.85654 15.0911 6.72693 14.7786C6.59732 14.466 6.38727 14.1933 6.11812 13.9882L4.95566 15.5119ZM4.04525 15.4209C4.45541 15.4621 4.7065 15.488 4.88379 15.5196C5.07066 15.5532 5.03521 15.5723 4.95566 15.5119L6.11812 13.9882C5.82296 13.763 5.48371 13.6806 5.22304 13.6336C4.95375 13.5857 4.6145 13.5522 4.23596 13.5138L4.04525 15.4209ZM2.91633 15.1737C3.12141 15.2791 3.32266 15.327 3.49516 15.3557C3.65808 15.3826 3.85071 15.4027 4.04621 15.4219L4.23596 13.5138C4.09402 13.5018 3.95341 13.4858 3.81237 13.4659C3.73571 13.4525 3.752 13.4477 3.79512 13.4697L2.91633 15.1737ZM2.01358 14.1751C2.18391 14.6067 2.505 14.9618 2.91729 15.1746L3.79608 13.4707L2.01358 14.1751ZM1.87941 13.027C1.87941 13.2225 1.87941 13.417 1.88996 13.5819C1.90146 13.7563 1.92829 13.9614 2.01454 14.176L3.79608 13.4697C3.81333 13.5148 3.80758 13.5301 3.80279 13.4534C3.7966 13.3114 3.79436 13.1692 3.79608 13.027H1.87941ZM1.87941 11.8157V13.027H3.79608V11.8157H1.87941ZM2.01358 10.6666C1.94108 10.8568 1.89935 11.0574 1.88996 11.2608C1.87846 11.4256 1.87941 11.6202 1.87941 11.8166H3.79608C3.79608 11.5943 3.79608 11.4745 3.80279 11.3882C3.80758 11.3116 3.81333 11.3269 3.79608 11.3719L2.01358 10.6666ZM2.91729 9.66899C2.50535 9.88134 2.1843 10.2358 2.01358 10.6666L3.79608 11.3719L2.91729 9.66899ZM4.04716 9.41983C3.85166 9.43995 3.65904 9.45816 3.49612 9.48691C3.32362 9.51566 3.12237 9.56357 2.91729 9.66899L3.79608 11.3719C3.75296 11.394 3.73762 11.3892 3.81333 11.3767C3.95436 11.3565 4.09593 11.3402 4.23787 11.3279L4.04716 9.41983ZM4.95758 9.32974C5.03712 9.26937 5.07258 9.28853 4.88475 9.32207C4.70746 9.3537 4.45637 9.37958 4.04716 9.42078L4.23787 11.3279C4.6145 11.2895 4.95471 11.2569 5.22496 11.2081C5.48466 11.1611 5.82487 11.0787 6.12004 10.8535L4.95758 9.32974ZM4.95758 9.32974L6.12004 10.8535C6.38901 10.6483 6.59887 10.3755 6.72831 10.063C6.85775 9.75041 6.90215 9.40915 6.857 9.07387L4.95758 9.32974ZM4.37779 8.62153C4.63846 8.9397 4.79754 9.1352 4.90104 9.28374C5.00933 9.43995 4.971 9.42845 4.95758 9.32974L6.857 9.07387C6.80716 8.70587 6.62604 8.40782 6.47462 8.19028C6.31841 7.96508 6.10087 7.70153 5.86129 7.40828L4.37779 8.62153ZM3.75487 7.64691C3.82483 7.86732 3.93312 8.0427 4.03471 8.18549C4.13054 8.31966 4.25416 8.47012 4.37779 8.62153L5.86129 7.40828C5.7697 7.29897 5.68118 7.18808 5.59583 7.07382C5.55079 7.01153 5.56612 7.0192 5.5805 7.06424L3.75487 7.64691ZM3.82196 6.30237C3.63776 6.72769 3.61393 7.20536 3.75487 7.64691L5.5805 7.06424L3.82196 6.30237ZM4.53879 5.39483C4.39983 5.53378 4.26279 5.66987 4.15354 5.79445C4.01675 5.94508 3.90482 6.11653 3.82196 6.30237L5.5805 7.06424C5.56133 7.10832 5.546 7.11503 5.59679 7.05657C5.65429 6.99141 5.73766 6.90707 5.89387 6.74991L4.53879 5.39483ZM5.39554 4.53903L4.53879 5.39483L5.89387 6.74991L6.75158 5.89412L5.39554 4.53903ZM6.30212 3.82124C6.11623 3.9044 5.94477 4.01666 5.79421 4.15378C5.65722 4.27789 5.52427 4.40638 5.39554 4.53903L6.75158 5.89412C6.90779 5.73695 6.99212 5.65358 7.05729 5.59703C7.11479 5.54528 7.10808 5.56062 7.064 5.57978L6.30212 3.82124ZM7.64762 3.75416C7.20578 3.61297 6.72773 3.63681 6.30212 3.82124L7.064 5.57978L7.64762 3.75416ZM8.62033 4.37707C8.46891 4.25345 8.32037 4.13078 8.18525 4.03495C8.02208 3.91341 7.8406 3.81863 7.64762 3.75416L7.064 5.57978C7.01896 5.56541 7.01033 5.55103 7.07358 5.59512C7.14354 5.64591 7.2365 5.72066 7.40804 5.86153L8.62033 4.37707ZM9.3295 4.95687C9.42821 4.97028 9.43971 5.00862 9.2835 4.90032C9.05725 4.73373 8.83671 4.55954 8.62225 4.37803L7.40804 5.86153C7.70129 6.10112 7.96387 6.3177 8.18908 6.47487C8.40566 6.62533 8.70466 6.80645 9.07266 6.85628L9.3295 4.95687ZM9.3295 4.95687L9.07362 6.85628C9.40899 6.90133 9.75031 6.85678 10.0629 6.72717C10.3755 6.59756 10.6482 6.38751 10.8532 6.11837L9.3295 4.95687ZM9.42054 4.04645C9.37933 4.45662 9.35346 4.7077 9.32183 4.88499C9.28829 5.07187 9.26912 5.03641 9.3295 4.95687L10.8532 6.11837C11.0785 5.8232 11.1609 5.48395 11.2078 5.22424C11.2557 4.95495 11.2902 4.61474 11.3276 4.23716L9.42054 4.04645ZM9.66779 2.91753C9.57674 3.09958 9.51528 3.29498 9.48571 3.49637C9.45887 3.65928 9.43971 3.85191 9.42054 4.04741L11.3276 4.23716C11.3401 4.09527 11.3561 3.95467 11.3755 3.81357C11.389 3.73691 11.3937 3.75416 11.3717 3.79632L9.66779 2.91753ZM10.6673 2.01382C10.2358 2.18415 9.8806 2.50525 9.66779 2.91753L11.3717 3.79632L10.6673 2.01382ZM11.8154 1.87966C11.6199 1.87966 11.4254 1.87966 11.2605 1.8902C11.0572 1.89959 10.8566 1.94132 10.6664 2.01382L11.3727 3.79632C11.3276 3.81357 11.3123 3.80782 11.389 3.80303C11.4752 3.79728 11.595 3.79632 11.8164 3.79632L11.8154 1.87966ZM13.0267 1.87966H11.8154V3.79632H13.0267V1.87966ZM14.1748 2.01382C13.9846 1.94132 13.784 1.89959 13.5807 1.8902C13.4177 1.8787 13.2232 1.87966 13.0277 1.87966V3.79632C13.2491 3.79632 13.3689 3.79632 13.4551 3.80303C13.5318 3.80782 13.5155 3.81357 13.4705 3.79632L14.1748 2.01382ZM15.1744 2.91753C14.9616 2.50525 14.6064 2.18415 14.1748 2.01382L13.4705 3.79632L15.1744 2.91753ZM15.2961 12.4213C15.2961 13.1838 14.9932 13.9151 14.454 14.4543C13.9148 14.9934 13.1836 15.2963 12.4211 15.2963V17.213C13.6919 17.213 14.9107 16.7082 15.8093 15.8095C16.7079 14.9109 17.2127 13.6922 17.2127 12.4213H15.2961ZM12.4211 9.54632C13.1836 9.54632 13.9148 9.84923 14.454 10.3884C14.9932 10.9276 15.2961 11.6588 15.2961 12.4213H17.2127C17.2127 11.1505 16.7079 9.93172 15.8093 9.0331C14.9107 8.13449 13.6919 7.62966 12.4211 7.62966V9.54632ZM9.54608 12.4213C9.54608 11.6588 9.84898 10.9276 10.3881 10.3884C10.9273 9.84923 11.6586 9.54632 12.4211 9.54632V7.62966C11.1503 7.62966 9.93147 8.13449 9.03286 9.0331C8.13425 9.93172 7.62941 11.1505 7.62941 12.4213H9.54608ZM12.4211 15.2963C11.6586 15.2963 10.9273 14.9934 10.3881 14.4543C9.84898 13.9151 9.54608 13.1838 9.54608 12.4213H7.62941C7.62941 13.6922 8.13425 14.9109 9.03286 15.8095C9.93147 16.7082 11.1503 17.213 12.4211 17.213V15.2963Z" fill="#EB7A91"/>
</g>
<defs>
<filter id="filter0_d_1025_5458" x="-0.958683" y="-0.958317" width="28.6387" height="28.6387" filterUnits="userSpaceOnUse" color-interpolation-filters="sRGB">
<feFlood flood-opacity="0" result="BackgroundImageFix"/>
<feColorMatrix in="SourceAlpha" type="matrix" values="0 0 0 0 0 0 0 0 0 0 0 0 0 0 0 0 0 0 127 0" result="hardAlpha"/>
<feOffset dx="0.939791" dy="0.939791"/>
<feGaussianBlur stdDeviation="1.40969"/>
<feColorMatrix type="matrix" values="0 0 0 0 0.94902 0 0 0 0 0.65098 0 0 0 0 0.709804 0 0 0 1 0"/>
<feBlend mode="normal" in2="BackgroundImageFix" result="effect1_dropShadow_1025_5458"/>
<feBlend mode="normal" in="SourceGraphic" in2="effect1_dropShadow_1025_5458" result="shape"/>
</filter>
</defs>
</svg>
