<svg width="21" height="21" viewBox="0 0 21 21" fill="none" xmlns="http://www.w3.org/2000/svg">
<g clip-path="url(#clip0_140_2949)">
<path d="M15.9023 5.71094C16.2421 5.71094 16.5176 5.43549 16.5176 5.0957C16.5176 4.75592 16.2421 4.48047 15.9023 4.48047C15.5626 4.48047 15.2871 4.75592 15.2871 5.0957C15.2871 5.43549 15.5626 5.71094 15.9023 5.71094Z" fill="#666666"/>
<path d="M0 21.0001L9.23143 15.2877L5.71229 11.7686L0 21.0001Z" fill="#666666"/>
<path d="M11.1598 17.2158L12.0299 16.3457L10.3063 14.6221L9.23145 15.2874L11.1598 17.2158Z" fill="#666666"/>
<path d="M19.9914 8.31506L19.941 8.26461C19.691 8.59117 19.4024 8.88731 19.0816 9.14542L19.1214 9.18516C19.5393 9.60307 19.7693 10.1585 19.7696 10.7493C19.7693 11.3401 19.5393 11.8955 19.1214 12.3134C18.2591 13.1757 16.856 13.1757 15.9935 12.3131L15.2458 11.5654L18.5643 9.51202C18.7444 9.40037 18.9172 9.27798 19.0817 9.14542L16.6974 6.7611C16.0115 7.08795 15.164 6.9679 14.5967 6.40061C13.8772 5.68107 13.8772 4.50991 14.5967 3.79038C15.3166 3.07055 16.4874 3.07084 17.2069 3.79038C17.7742 4.35766 17.8943 5.20513 17.5674 5.89103L19.941 8.26461C20.0918 8.06798 20.2283 7.86003 20.3496 7.64248C20.775 6.87943 20.9998 6.01429 20.9995 5.14041C20.9998 2.30602 18.6936 -0.000286835 15.8592 2.74715e-07C14.9854 -0.000286835 14.1202 0.224479 13.3572 0.649934C12.5938 1.0751 11.9477 1.6923 11.4877 2.43534L9.4343 5.75384L8.7429 5.0624C7.40095 3.72045 5.21707 3.72045 3.87488 5.06268C2.53264 6.40492 2.53264 8.58884 3.87459 9.93079L5.71217 11.7684L6.37749 10.6936L4.74465 9.06068C3.88242 8.19845 3.88242 6.79526 4.74494 5.93275C5.60746 5.07019 7.0106 5.07019 7.87283 5.93246L8.76903 6.82865L6.37749 10.6936L10.3061 14.6223L14.171 12.2307L15.1234 13.1832C15.7945 13.8543 16.6759 14.1898 17.5576 14.1898C18.439 14.1901 19.3206 13.8543 19.9914 13.1834C20.6417 12.5332 20.9998 11.6687 20.9998 10.7493C20.9998 9.82989 20.6417 8.96532 19.9914 8.31506Z" fill="#666666"/>
</g>
<defs>
<clipPath id="clip0_140_2949">
<rect width="21" height="21" fill="white"/>
</clipPath>
</defs>
</svg>
