<svg width="14" height="12" viewBox="0 0 14 12" fill="none" xmlns="http://www.w3.org/2000/svg">
<path d="M13.0035 5.09771L8.25013 0.162852C8.17396 0.0858255 8.07669 0.0330742 7.97059 0.0112492C7.86448 -0.0105759 7.7543 -0.000497368 7.65392 0.0402139C7.55354 0.0809252 7.46745 0.150446 7.40652 0.240012C7.34559 0.329578 7.31255 0.435179 7.31155 0.543499V2.91498H7.12905C5.23899 2.91719 3.42696 3.66899 2.09048 5.00547C0.754001 6.34195 0.00220802 8.15397 0 10.044V11.1411C0.00170189 11.2635 0.0447993 11.3816 0.122259 11.4763C0.199719 11.571 0.306967 11.6366 0.42653 11.6626C0.466088 11.6725 0.506725 11.6774 0.5475 11.6772C0.651613 11.676 0.753388 11.6462 0.841682 11.591C0.929976 11.5358 1.00139 11.4574 1.04809 11.3643C1.54545 10.3594 2.31457 9.51399 3.26815 8.92411C4.22172 8.33423 5.32156 8.02347 6.44284 8.02713H7.31155V10.4143C7.31255 10.5226 7.34559 10.6282 7.40652 10.7177C7.46745 10.8073 7.55354 10.8768 7.65392 10.9175C7.7543 10.9582 7.86448 10.9683 7.97059 10.9465C8.07669 10.9247 8.17396 10.8719 8.25013 10.7949L13.0025 5.86004C13.1015 5.7579 13.1569 5.62131 13.1571 5.47909C13.1573 5.33686 13.1022 5.20012 13.0035 5.09771Z" fill="#F2A6B5"/>
</svg>
