<svg width="24" height="24" viewBox="0 0 24 24" fill="none" xmlns="http://www.w3.org/2000/svg">
<g clip-path="url(#clip0_2283_6495)">
<path d="M1.8188 12.2814C1.82349 12.2861 1.82817 12.2908 1.83286 12.2955L4.41099 14.733C3.87661 15.5814 3.97505 16.7205 4.71567 17.4611C5.13755 17.883 5.68599 18.0939 6.23442 18.1033C6.25317 18.6658 6.47817 19.2236 6.90942 19.6549C7.33599 20.0814 7.90317 20.3205 8.50786 20.3299C8.51724 20.9111 8.74224 21.483 9.18286 21.9283C10.0407 22.8236 11.5875 22.8236 12.45 21.9283L13.8516 20.5267L14.1657 20.8408C15.075 21.7502 16.561 21.7502 17.4704 20.8408L17.4891 20.822C17.9297 20.3814 18.1547 19.8095 18.1735 19.2283C18.7782 19.233 19.3782 19.0033 19.8375 18.5439L19.8563 18.5252C20.2922 18.0892 20.536 17.5127 20.5407 16.8939C21.1313 16.8892 21.7172 16.6595 22.1672 16.2095L22.186 16.1908C23.0954 15.2814 23.0954 13.7955 22.186 12.8861L21.9469 12.647L22.0688 12.5252C27.9141 6.1736 19.2235 -2.50765 12.8766 3.33298L11.6766 4.53298L10.6032 3.48766C8.17505 1.0736 4.23755 1.0736 1.8188 3.49235C-0.604639 5.91579 -0.604639 9.85798 1.8188 12.2814ZM21.1688 15.2158C20.8032 15.5814 20.2125 15.5814 19.8516 15.2158L18.5625 13.9267C18.2016 13.5799 18.2016 12.9564 18.5625 12.6095L18.5813 12.5908C18.9282 12.2299 19.5516 12.2299 19.8985 12.5908L21.1875 13.8799C21.5532 14.2455 21.5532 14.8361 21.1875 15.197L21.1688 15.2158ZM17.5172 17.5502L15.4079 15.4408C15.0469 15.0939 15.0469 14.4705 15.4079 14.1236L15.4266 14.1049C15.7922 13.7392 16.3829 13.7392 16.7438 14.1049L17.5594 14.9205L18.8485 16.2095C19.2094 16.5564 19.2094 17.1799 18.8485 17.5267L18.8297 17.5455C18.4735 17.9111 17.8829 17.9111 17.5172 17.5502ZM15.15 19.847L14.3157 19.0127C13.9547 18.6658 13.9547 18.0424 14.3157 17.6955L14.3344 17.6767C14.7 17.3111 15.2907 17.3111 15.6516 17.6767L16.486 18.5111C16.8516 18.8767 16.8516 19.4674 16.486 19.8283L16.4672 19.847C16.1063 20.208 15.5157 20.208 15.15 19.847ZM5.70942 15.347L10.5329 10.5236C10.5563 10.5002 10.5985 10.5002 10.6219 10.5236L11.4 11.3017C12.3375 12.2814 14.0297 12.2814 14.9672 11.3017C15.9563 10.3549 15.9422 8.63923 14.9391 7.70641L12.6844 5.51735L13.8704 4.33141C15.8579 2.34391 19.0875 2.34391 21.075 4.33141C23.0625 6.31891 23.0625 9.5486 21.075 11.5361L20.9532 11.658L20.8922 11.597C20.0204 10.6924 18.4547 10.6924 17.5875 11.597L17.5688 11.6158C17.2875 11.897 17.0907 12.2345 16.9829 12.6002C16.1344 12.2533 15.1266 12.422 14.4422 13.1064L14.4235 13.1252C13.6172 13.8986 13.5141 15.2486 14.175 16.1392C13.875 16.2517 13.5891 16.4299 13.3454 16.6736L13.3266 16.6924C12.6 17.3955 12.4313 18.5814 12.9235 19.4627L11.4563 20.9299C11.1188 21.2814 10.5141 21.2814 10.1766 20.9299C9.82036 20.5736 9.82505 19.997 10.1813 19.6455L11.4844 18.3424C11.761 18.0658 11.761 17.6252 11.4844 17.3486C11.2079 17.072 10.7672 17.072 10.4907 17.3486L9.18286 18.6564C8.84536 19.008 8.24067 19.008 7.90317 18.6564C7.55161 18.3049 7.55161 17.733 7.90317 17.3767L9.22036 16.0595C9.49692 15.783 9.49692 15.3424 9.22036 15.0658C8.9438 14.7892 8.50317 14.7892 8.22661 15.0658C8.22661 15.0658 6.83911 16.4533 6.83442 16.458C6.52505 16.7674 6.02349 16.7674 5.71411 16.458C5.40005 16.158 5.40005 15.6564 5.70942 15.347ZM2.81255 4.49079C4.68755 2.61579 7.7438 2.61579 9.6188 4.50016L13.9594 8.71891C14.175 8.92985 14.2969 9.2111 14.3016 9.5111C14.311 10.5095 13.1016 11.0111 12.3938 10.308L11.6157 9.52985C11.0672 8.95798 10.0875 8.95798 9.53911 9.52985L5.36724 13.7017L2.80786 11.2783C0.937549 9.40798 0.937549 6.3611 2.81255 4.49079Z" fill="#4D4D4D"/>
</g>
<defs>
<clipPath id="clip0_2283_6495">
<rect width="24" height="24" fill="white"/>
</clipPath>
</defs>
</svg>
