<svg width="21" height="21" viewBox="0 0 21 21" fill="none" xmlns="http://www.w3.org/2000/svg">
<g clip-path="url(#clip0_138_2853)">
<path d="M11.8537 8.10887C12.1572 7.32548 12.6822 6.63641 13.3426 6.11962C13.3426 6.11551 13.3467 6.11551 13.3467 6.11551C13.4451 6.75536 13.6174 7.3788 13.8471 7.97762C13.2031 8.20321 12.5018 8.24833 11.8537 8.10887ZM16.2711 5.12294C15.3975 5.11473 14.5156 5.36083 13.7732 5.8243C13.8594 6.50516 14.0357 7.16962 14.2818 7.80126C15.3359 7.27215 16.0742 6.27958 16.2711 5.12294ZM17.0299 12.0464C16.4229 11.6157 15.8773 11.1194 15.3934 10.5534C14.7248 11.6198 14.2941 12.8298 14.1547 14.0807C14.8273 14.413 15.582 14.5893 16.3326 14.5647C16.3285 14.495 16.3244 14.4253 16.3244 14.3556C16.3203 13.527 16.5664 12.7313 17.0299 12.0464ZM16.8002 14.5319C17.8051 14.4212 18.7648 13.97 19.4908 13.2686C18.7607 13.039 18.0676 12.7149 17.4195 12.3048C16.9807 12.9651 16.7592 13.7403 16.8002 14.5319ZM17.7148 11.9315C18.3834 12.3499 19.0971 12.6698 19.8518 12.8872C20.3768 12.2638 20.7459 11.4968 20.8854 10.6888C19.6877 10.5534 18.4941 11.0333 17.7148 11.9315ZM19.9871 6.97274C18.2521 7.53055 16.7305 8.65028 15.6641 10.1432C16.1439 10.7216 16.6977 11.2343 17.3129 11.6649C18.1988 10.6108 19.5729 10.0571 20.9469 10.2253C20.9551 10.1022 20.9633 9.97919 20.9633 9.84383C20.9633 8.81844 20.6187 7.78485 19.9871 6.97274ZM14.4664 8.23602C14.7125 8.77333 15.0119 9.28602 15.3605 9.7577C16.4393 8.28934 17.9445 7.17782 19.6549 6.58719C18.8838 5.77919 17.8502 5.27059 16.7428 5.15575C16.5295 6.49286 15.6805 7.6413 14.4664 8.23602ZM14.0275 8.41649C13.2893 8.68309 12.4607 8.73641 11.702 8.55594C11.1113 10.5288 11.9727 12.7641 13.7117 13.8388C13.8881 12.5345 14.3557 11.2753 15.0775 10.172C14.6633 9.63055 14.3105 9.03993 14.0275 8.41649ZM10.0244 11.6444C9.77012 11.0907 8.9457 9.45829 8.30176 10.0407C7.99004 10.5534 8.26484 11.6608 8.34688 12.0833C8.60938 11.9972 8.82266 11.9069 8.98262 11.8044C9.34355 11.5665 9.7168 11.5624 10.0244 11.6444ZM12.0752 17.3784C13.7322 18.3218 14.0973 18.5022 14.7822 18.0306C14.0768 17.5384 13.2729 17.1241 12.6576 16.5212C12.51 16.5581 12.3582 16.6934 12.2434 16.8944C12.1818 17.0093 12.0301 17.0462 11.9234 16.9847C11.5666 16.7345 12.1285 16.271 12.3254 16.152C12.1777 15.9634 12.0342 15.7706 11.9193 15.5573C11.6486 15.4958 11.3574 15.6681 11.1523 15.9921C11.1072 16.0618 11.0293 16.0987 10.9514 16.0987C10.7709 16.1028 10.652 15.8854 10.7545 15.7378C10.9842 15.3727 11.3123 15.1431 11.6527 15.0856C11.5502 14.9011 11.4518 14.7165 11.3492 14.5319C10.9678 14.4007 10.5576 14.577 10.2828 14.9503C10.2336 15.0118 10.1639 15.0487 10.09 15.0487C9.90547 15.0528 9.78242 14.8231 9.90137 14.6714C10.2008 14.2653 10.6355 14.0274 11.0785 14.0192C10.9883 13.8429 10.9104 13.6665 10.8242 13.4942C10.4305 13.3384 10.008 13.5147 9.725 13.8962C9.67988 13.9618 9.60605 13.9946 9.53223 13.9946C9.34766 13.9987 9.22461 13.769 9.34356 13.6173C9.65527 13.1948 10.1188 12.9528 10.5822 12.9692C10.4756 12.7436 10.373 12.5057 10.2787 12.2802C10.1434 12.1858 9.69629 11.911 9.24102 12.2063C9.04824 12.3294 8.78984 12.4442 8.47813 12.5427C8.83086 14.4909 10.4633 16.5786 12.0752 17.3784ZM10.6684 19.2159C9.31074 18.7893 7.44453 16.9231 6.14023 15.8362C5.19688 15.0692 1.68594 12.719 1.00918 12.2679C0.828711 12.3622 0.611328 12.5181 0.422656 12.76C0.151953 13.1046 0.0658203 13.4737 0.0371094 13.7157C3.08867 16.0413 6.36172 18.1003 9.77012 19.8434C10.25 20.0895 10.7586 20.2495 11.2795 20.3192C12.8627 20.5284 14.4664 20.5653 16.0537 20.4259C16.1111 20.1141 16.0865 19.8352 16.0619 19.663C14.1383 19.8106 11.9932 19.6343 10.6684 19.2159ZM10.8119 18.7688C12.0752 19.1667 14.126 19.3307 15.984 19.1995C15.9061 18.7729 15.5533 18.5145 15.2006 18.3054C13.9332 19.2241 13.3303 18.5761 11.7594 17.7434C9.50762 16.5089 8.05156 14.0356 7.73164 11.2794C5.83672 12.0792 4.06074 11.1276 3.36348 9.06864C3.34297 9.06044 3.30605 9.04813 3.26504 9.06454C2.80566 9.26962 2.41191 9.56083 2.08789 9.93817C1.48496 10.6354 1.3168 11.4106 1.27578 11.8823C1.96484 12.3458 5.46758 14.6837 6.43965 15.4753C7.67422 16.4966 9.52813 18.3464 10.8119 18.7688ZM3.19941 6.44774C3.21172 6.48876 3.24453 6.51337 3.25273 6.51337L3.90898 6.30829L3.11738 3.77352L2.46113 3.9786C2.45293 3.9827 2.44062 4.01962 2.45293 4.06063L3.19941 6.44774ZM4.2125 5.69715L4.49961 6.61591C4.52832 6.69383 4.55293 6.8538 4.66367 6.83739L5.97207 6.43133C6.00899 6.41903 6.0418 6.3493 6.01309 6.26317C5.83262 5.68895 5.38965 4.26161 5.21328 3.7079L4.87285 2.61278C4.86055 2.57176 4.83184 2.53075 4.79902 2.51024C4.79082 2.50614 4.76211 2.48973 4.7457 2.49794L3.4332 2.90399C3.37578 2.9368 3.37578 3.01063 3.39219 3.07216L4.2125 5.69715ZM10.0408 3.31005L9.87676 2.78505L9.86445 2.74813L5.80391 4.01962C5.82852 4.10575 5.94746 4.48719 5.98027 4.57743L10.0408 3.31005ZM13.3836 3.34696C13.3877 3.34286 13.4041 3.30594 13.3877 3.26083L12.6453 0.877819C12.633 0.832702 12.6002 0.812194 12.592 0.812194L11.9357 1.01727L12.7273 3.54794L13.3836 3.34696ZM10.209 2.27235C10.3977 2.87528 10.7832 4.11805 10.9719 4.71688C10.9924 4.77841 11.0334 4.83583 11.099 4.83173L12.4115 4.42567C12.4977 4.39286 12.4484 4.22469 12.4197 4.14676L11.3492 0.717859L11.3123 0.611218C11.2877 0.533288 11.2344 0.492273 11.1852 0.496374L9.87266 0.90653C9.81523 0.939343 9.81523 1.00907 9.83164 1.07059C9.83164 1.06239 10.209 2.27235 10.209 2.27235Z" fill="#666666"/>
</g>
<defs>
<clipPath id="clip0_138_2853">
<rect width="21" height="21" fill="white"/>
</clipPath>
</defs>
</svg>
