<svg width="38" height="12" viewBox="0 0 38 12" fill="none" xmlns="http://www.w3.org/2000/svg">
<path d="M24.5947 8.28273V2.35253H25.595V2.82695C25.9146 2.43407 26.4012 2.21416 26.9075 2.2364C28.0553 2.2364 28.8737 3.15805 28.8737 4.47999C28.8737 5.80193 28.0454 6.74088 26.9075 6.74088C26.4036 6.76312 25.917 6.54815 25.595 6.15774V8.28273H24.5947ZM25.595 3.93392V5.02359C25.7867 5.48813 26.2365 5.78958 26.7354 5.78711C27.399 5.78711 27.8414 5.29292 27.8414 4.47505C27.8414 3.65718 27.399 3.17782 26.7354 3.17782C26.2365 3.16794 25.7818 3.46939 25.595 3.93392Z" fill="#00C48C"/>
<path d="M29.5277 5.41642C29.4958 4.72703 30.0218 4.14142 30.7075 4.10436L32.4058 3.88692V3.66207C32.4328 3.47675 32.3075 3.30131 32.1207 3.27413C32.0937 3.26919 32.0642 3.26919 32.0371 3.27166H29.9038V2.35742H32.0789C32.9391 2.35742 33.4135 2.78242 33.4135 3.53852V6.61975H32.4058V6.09592C32.0765 6.53327 31.5505 6.77789 31.0049 6.74577C30.1274 6.74577 29.5302 6.20464 29.5302 5.40653M31.2506 5.93037C31.7422 5.94272 32.1944 5.66351 32.4058 5.21627V4.67514L31.1106 4.85799C30.7493 4.90988 30.5526 5.10508 30.5526 5.40653C30.5526 5.70798 30.7984 5.93037 31.2506 5.93037Z" fill="#00C48C"/>
<path d="M34.1408 7.36844H34.8782C35.1141 7.39068 35.3279 7.23007 35.3697 6.99533L35.5025 6.61975L33.9614 2.35742H34.9839L35.9449 5.32252H35.9694L36.8862 2.35742H37.9332L36.2447 7.25231C36.0161 7.92439 35.7114 8.28268 34.9667 8.28268H34.1531L34.1408 7.36844Z" fill="#00C48C"/>
<path d="M3.667 11.213C4.82952 11.213 5.7856 10.8473 6.41233 10.2246C6.89405 9.73788 7.15949 9.07814 7.14966 8.39123C7.15949 7.7562 6.91617 7.14342 6.47377 6.68877C5.94535 6.18717 5.2793 5.85854 4.56163 5.74488L3.2246 5.48296C2.66914 5.37918 2.357 5.09997 2.357 4.71451C2.357 4.22032 2.84856 3.85957 3.62522 3.85957C4.06024 3.84227 4.48544 4.00041 4.80495 4.29692C4.98682 4.4946 5.10234 4.74663 5.13675 5.01349L7.06364 4.57613C7.00465 4.02265 6.7515 3.5087 6.35089 3.12571C5.60372 2.43138 4.6157 2.06074 3.59818 2.09534C2.66177 2.06569 1.74994 2.38938 1.0421 3.00463C0.518591 3.48893 0.223657 4.17338 0.226115 4.88994C0.206453 5.49037 0.432568 6.07104 0.852848 6.49604C1.36406 6.96798 1.99571 7.2892 2.67652 7.42263L3.99634 7.73644C4.65748 7.89457 4.95241 8.13919 4.95241 8.57655C4.95241 9.11768 4.46086 9.43148 3.667 9.43148C3.17299 9.45866 2.6888 9.27829 2.32997 8.9373C2.1186 8.72233 1.99325 8.4357 1.98097 8.13425L0 8.57161C0.0589866 9.15474 0.319511 9.70081 0.737332 10.1085C1.39847 10.8053 2.45777 11.2254 3.65717 11.2254M18.3202 11.2254C19.414 11.255 20.4733 10.8473 21.2696 10.0912C21.7685 9.60692 22.1273 8.99907 22.3117 8.32698L20.2938 7.64007C20.053 8.52219 19.237 9.12262 18.3276 9.0905C17.7525 9.08803 17.2044 8.8607 16.7964 8.453C16.3516 7.96376 16.1156 7.31638 16.1402 6.6517C16.1132 5.9895 16.3491 5.34212 16.7964 4.85535C17.2044 4.45259 17.755 4.23268 18.3252 4.24503C18.8364 4.22032 19.3328 4.41058 19.6991 4.76887C19.9424 5.03078 20.1218 5.34706 20.2201 5.69299L22.2871 4.99619C22.1126 4.34387 21.7734 3.74838 21.304 3.26655C20.488 2.48574 19.3967 2.06321 18.2711 2.09534C17.0963 2.08298 15.9632 2.54257 15.1251 3.37033C14.2772 4.2475 13.8127 5.4286 13.8299 6.6517C13.8127 7.88222 14.2895 9.06579 15.1522 9.93802C16.0001 10.7707 17.1454 11.2303 18.3301 11.213M11.3107 11.213C12.2151 11.213 12.8566 10.9338 13.1368 10.6892V8.80387C12.7927 9.03614 12.3872 9.15968 11.9718 9.15227C11.6572 9.17698 11.3451 9.07814 11.1018 8.87553C10.9076 8.62844 10.8142 8.31463 10.8412 8.00082V0H8.54814V2.35725H13.1368V4.59343H8.54814V8.5469C8.51619 9.24616 8.7595 9.93061 9.22648 10.4495C9.71804 10.9437 10.4259 11.1908 11.3107 11.1908" fill="#4F008C"/>
</svg>
