<svg width="21" height="19" viewBox="0 0 21 19" fill="none" xmlns="http://www.w3.org/2000/svg">
<path d="M15.6161 15.7514C13.914 15.7514 12.0806 15.2428 10.1611 14.2215C8.59426 13.3889 6.29739 13.7949 4.64856 14.2789C3.49192 14.6234 2.36809 15.0664 1.29348 15.6119C0.862818 15.8416 0.329615 15.6775 0.104029 15.2469C-0.121557 14.8162 0.0384037 14.283 0.469068 14.0574C1.65032 13.4586 2.88489 12.9664 4.15227 12.5932C7.01106 11.7523 9.30793 11.7769 10.9855 12.667C14.3816 14.4717 17.2691 14.4348 19.5577 12.5603C19.9351 12.2527 20.4888 12.306 20.7964 12.6834C21.104 13.0607 21.0507 13.6144 20.6734 13.9221C19.1845 15.1402 17.4782 15.7514 15.6161 15.7514Z" fill="#666666"/>
<path d="M15.6161 18.8523C13.914 18.8523 12.0806 18.3437 10.161 17.3224C8.59424 16.4898 6.29737 16.8959 4.64854 17.3799C3.4919 17.7244 2.36807 18.1674 1.29346 18.7129C0.862797 18.9426 0.329594 18.7785 0.104008 18.3478C-0.125679 17.9172 0.0383834 17.384 0.464946 17.1543C1.6462 16.5554 2.88077 16.0633 4.14815 15.6859C7.00284 14.8451 9.30381 14.8738 10.9814 15.7638C14.3774 17.5685 17.2649 17.5316 19.5536 15.6572C19.931 15.3496 20.4847 15.4029 20.7923 15.7803C21.0999 16.1576 21.0466 16.7113 20.6692 17.0189C19.1845 18.2412 17.4782 18.8523 15.6161 18.8523Z" fill="#666666"/>
<path d="M9.60294 6.53513C8.91388 5.47283 8.26173 4.45974 7.59728 3.45486C6.94923 2.48279 7.21173 1.724 8.33966 1.41638C9.98029 0.96521 11.6209 0.522241 13.2615 0.0792725C14.1147 -0.150415 14.6848 0.12439 14.8735 0.83396C15.0416 1.4656 14.6643 2.03162 13.8686 2.28591C12.8924 2.59763 11.9121 2.88884 10.936 3.19646C10.7473 3.25388 10.5668 3.33591 10.3371 3.42205C10.977 4.48435 11.666 5.44001 12.15 6.48591C12.7488 7.78201 13.2328 9.13552 13.6635 10.4972C13.9588 11.4365 13.1508 12.1338 12.1828 11.8795C11.4692 11.6949 10.7637 11.4775 10.0418 11.334C8.13458 10.9566 6.24787 11.0304 4.40626 11.7031C4.31193 11.74 4.21349 11.7769 4.11505 11.8015C3.47521 11.9738 2.9379 11.7769 2.68771 11.2765C2.42521 10.7515 2.56876 10.1363 3.15119 9.78357C4.25451 9.11912 5.37833 8.47927 6.53087 7.89685C7.49884 7.40876 8.51193 7.01501 9.60294 6.53513Z" fill="#666666"/>
<path d="M16.1905 4.34473C17.6056 4.34883 18.7663 5.53418 18.754 6.95332C18.7417 8.34375 17.5892 9.47578 16.1782 9.47988C14.7591 9.49219 13.5983 8.35605 13.586 6.93691C13.5737 5.51777 14.7099 4.35703 16.129 4.34473H16.1905Z" fill="#666666"/>
</svg>
