<svg width="34" height="34" viewBox="0 0 34 34" fill="none" xmlns="http://www.w3.org/2000/svg">
<g filter="url(#filter0_d_6815_17783)">
<g clip-path="url(#clip0_6815_17783)">
<path d="M16.8299 16.6836H23.7546C24.2379 16.6836 24.6296 16.2918 24.6296 15.8086C24.6296 15.3253 24.2379 14.9336 23.7546 14.9336H16.8299C16.3466 14.9336 15.9549 15.3253 15.9549 15.8086C15.9549 16.2918 16.3466 16.6836 16.8299 16.6836Z" fill="#EB7A91"/>
<path d="M20.3325 13.1006H23.7546C24.2379 13.1006 24.6296 12.7088 24.6296 12.2256C24.6296 11.7423 24.2379 11.3506 23.7546 11.3506H20.3325C19.8493 11.3506 19.4575 11.7423 19.4575 12.2256C19.4575 12.7088 19.8493 13.1006 20.3325 13.1006Z" fill="#EB7A91"/>
<path d="M12.1724 14.9336C11.6891 14.9336 11.2974 15.3253 11.2974 15.8086C11.2974 16.2918 11.6891 16.6836 12.1724 16.6836C12.6556 16.6836 13.0474 16.2918 13.0474 15.8086C13.0474 15.3253 12.6556 14.9336 12.1724 14.9336Z" fill="#EB7A91"/>
<path d="M12.1724 11.3506C11.6891 11.3506 11.2974 11.7423 11.2974 12.2256C11.2974 12.7088 11.6891 13.1006 12.1724 13.1006C12.6556 13.1006 13.0474 12.7088 13.0474 12.2256C13.0474 11.7423 12.6556 11.3506 12.1724 11.3506Z" fill="#EB7A91"/>
<path d="M12.1724 7.76953C11.6891 7.76953 11.2974 8.16128 11.2974 8.64453C11.2974 9.12778 11.6891 9.51953 12.1724 9.51953C12.6556 9.51953 13.0474 9.12778 13.0474 8.64453C13.0474 8.16128 12.6556 7.76953 12.1724 7.76953Z" fill="#EB7A91"/>
<path d="M7.12964 2.67676H7.71239C8.65477 2.67676 9.58839 2.98826 10.34 3.5535L10.8003 3.90001C11.7286 4.59738 13.0254 4.59738 13.9538 3.90001L14.4158 3.5535C15.1665 2.98826 16.1001 2.67676 17.0425 2.67676H24.6296C27.042 2.67676 29.0046 4.63938 29.0046 7.05176V17.5518C29.0046 19.9641 27.042 21.9268 24.6296 21.9268H17.0425C16.1001 21.9268 15.1665 21.6153 14.4149 21.05L13.9546 20.7044C13.0254 20.007 11.7286 20.007 10.8011 20.7044L10.3409 21.05C9.58927 21.6153 8.65564 21.9268 7.71327 21.9268H7.13052C4.71814 21.9268 2.75552 19.9641 2.75552 17.5518V7.05176C2.75552 4.63938 4.71727 2.67676 7.12964 2.67676ZM12.3779 6.16976C11.4504 6.16976 10.5238 5.88013 9.74939 5.29913L9.28914 4.95263C8.83764 4.61313 8.27852 4.42588 7.71239 4.42588H7.12964C5.68239 4.42588 4.50464 5.60363 4.50464 7.05088V17.5518C4.50464 18.999 5.68239 20.1768 7.12964 20.1768H7.71239C8.27764 20.1768 8.83764 19.9904 9.28914 19.6509L9.74939 19.3044C11.2973 18.1406 13.4585 18.1424 15.0046 19.3044L15.4649 19.65C15.9173 19.9895 16.4764 20.1768 17.0425 20.1768H24.6296C26.0769 20.1768 27.2546 18.999 27.2546 17.5518V7.05176C27.2546 5.60451 26.0769 4.42676 24.6296 4.42676H17.0425C16.4773 4.42676 15.9173 4.61401 15.4658 4.95351L15.0038 5.30001C14.2311 5.88013 13.3045 6.16976 12.3779 6.16976Z" fill="#EB7A91"/>
<path d="M5.0734 22.9384C5.4724 22.9857 5.7594 23.3033 5.8364 23.6979C6.01315 24.6071 6.75953 25.3394 7.72728 25.4541L8.23478 25.5136C8.70553 25.5687 9.18065 25.4698 9.59015 25.2318L10.0259 24.9781C11.5388 24.0969 13.4524 24.3218 14.7203 25.5302L15.0878 25.8802C15.4308 26.2074 15.8718 26.4148 16.3425 26.4699L22.9339 27.2478C24.1327 27.3904 25.2212 26.5286 25.362 25.3316L25.5038 23.7268C25.5467 23.2377 25.9842 22.8798 26.4715 22.9341C26.944 22.9866 27.2888 23.4066 27.2468 23.8808L27.1007 25.5311C26.8452 27.6923 24.8817 29.2402 22.7283 28.9864L16.1352 28.2086C15.289 28.1088 14.498 27.7369 13.8812 27.1489L13.5128 26.7981C12.8084 26.1269 11.7462 26.0018 10.9053 26.4918L10.4713 26.7447C9.73365 27.1743 8.87615 27.3528 8.02828 27.2522L7.52165 27.1927C5.75328 26.9836 4.3944 25.6273 4.1039 23.9569C4.00328 23.3821 4.49328 22.8702 5.0734 22.9384Z" fill="#EB7A91"/>
</g>
</g>
<defs>
<filter id="filter0_d_6815_17783" x="-1.49994" y="-1.4997" width="36.6387" height="36.6387" filterUnits="userSpaceOnUse" color-interpolation-filters="sRGB">
<feFlood flood-opacity="0" result="BackgroundImageFix"/>
<feColorMatrix in="SourceAlpha" type="matrix" values="0 0 0 0 0 0 0 0 0 0 0 0 0 0 0 0 0 0 127 0" result="hardAlpha"/>
<feOffset dx="0.939791" dy="0.939791"/>
<feGaussianBlur stdDeviation="1.40969"/>
<feColorMatrix type="matrix" values="0 0 0 0 0.94902 0 0 0 0 0.65098 0 0 0 0 0.709804 0 0 0 1 0"/>
<feBlend mode="normal" in2="BackgroundImageFix" result="effect1_dropShadow_6815_17783"/>
<feBlend mode="normal" in="SourceGraphic" in2="effect1_dropShadow_6815_17783" result="shape"/>
</filter>
<clipPath id="clip0_6815_17783">
<rect width="28" height="28" fill="white" transform="matrix(-1 0 0 -1 29.8796 29.8799)"/>
</clipPath>
</defs>
</svg>
