<svg width="21" height="21" viewBox="0 0 21 21" fill="none" xmlns="http://www.w3.org/2000/svg">
<g clip-path="url(#clip0_138_2850)">
<path d="M14.3922 13.6692L13.4364 13.4481L13.5501 12.9565L14.5058 13.1778L14.3922 13.6692ZM13.1993 12.8754L12.2436 12.6542L12.1298 13.1456L13.0856 13.3668L13.1993 12.8754ZM12.8199 17.6462L13.233 17.7419L13.2863 17.5113L12.8733 17.4157L12.8199 17.6462ZM13.5408 14.5313L12.9513 17.0787L13.3643 17.1742L13.9539 14.6269L13.5408 14.5313ZM11.6065 17.3654L12.4326 17.5565L12.4858 17.3261L11.6599 17.135L11.6065 17.3654ZM12.3274 14.2504L11.7378 16.7978L12.5638 16.989L13.1534 14.4416L12.3274 14.2504ZM15.5548 14.9973L14.9653 17.5448L15.3782 17.6403L15.9678 15.093L15.5548 14.9973ZM17.9278 5.52343C17.9262 5.52433 17.9247 5.52531 17.9232 5.5263L16.8266 6.25112L13.2715 5.34226C13.2069 5.32622 13.1381 5.34341 13.0894 5.38902L12.7167 5.73827C12.6013 5.85331 12.6619 5.99535 12.7488 6.0481L15.1233 7.49148L13.8609 8.39698L13.0621 8.11701C13.0102 8.09892 12.9533 8.10331 12.905 8.12927L12.2411 8.48541C12.0859 8.58007 12.1151 8.76337 12.2413 8.83002L12.8934 9.17907C12.781 9.30572 12.628 9.54263 12.7494 9.73536C12.8755 9.93531 13.2026 9.84003 13.3254 9.79036L13.4362 10.523C13.4721 10.7256 13.6882 10.7135 13.761 10.6386L14.3186 10.1325C14.3592 10.0956 14.3824 10.0434 14.3827 9.98855L14.3867 9.14203L15.6627 8.2558L16.227 10.9769C16.2711 11.145 16.4314 11.1529 16.5082 11.1108L16.9623 10.8763C17.0216 10.8456 17.0612 10.7868 17.0673 10.7204L17.402 7.06647L18.4521 6.27561C18.4535 6.27459 18.4549 6.27344 18.4563 6.27233C18.9377 5.88867 18.9546 5.52117 18.8366 5.41166C18.6565 5.24468 18.2777 5.3058 17.9278 5.52343ZM16.0497 14.0529L17.0054 14.274L17.1191 13.7825L16.1633 13.5613L16.0497 14.0529ZM20.9713 4.31355L18.7941 13.7211C18.7354 13.9748 18.5935 14.1881 18.4039 14.3388C18.508 14.5575 18.5418 14.8113 18.4831 15.0651L17.4845 19.3798C17.3465 19.9761 16.749 20.349 16.1526 20.2109L9.23539 18.6102C7.57643 18.623 1.64373 18.6005 1.64364 18.6002C1.10408 18.6282 0.660909 18.2009 0.634372 17.604L0.00125458 3.40292C-0.0268821 2.77156 0.421665 2.19009 1.0031 2.10399L10.0066 0.770494C10.5881 0.684361 11.0822 1.1263 11.1103 1.75762L11.2325 4.49721L11.7679 2.1836C11.906 1.5872 12.5035 1.21424 13.0999 1.35226L20.14 2.98169C20.7364 3.11958 21.1094 3.71714 20.9713 4.31355ZM6.09396 13.2695C8.38116 12.927 10.1427 10.6366 10.0286 8.15355C9.91444 5.67067 7.96788 3.93546 5.68069 4.27786C3.39353 4.62038 1.63195 6.91078 1.74602 9.39382C1.86016 11.8768 3.80677 13.612 6.09396 13.2695ZM8.38046 18.0157C8.29371 17.8507 8.24769 17.6636 8.25294 17.4704C6.18407 17.7185 3.75016 18.0106 3.75016 18.0106C3.75016 18.0106 6.56006 18.0164 8.38046 18.0157ZM19.9504 3.80093L12.9103 2.17155C12.7656 2.13808 12.6206 2.22848 12.5872 2.37314L11.3719 7.62437L11.5893 12.5027L11.8927 12.5729L11.779 13.0643L11.6126 13.0258L11.6603 14.0961L11.94 14.1608L11.7079 15.1636L11.7433 15.9587C11.7651 16.4471 11.5708 17.0666 11.1117 17.128C11.1111 17.1278 10.2501 17.231 9.11718 17.3668C9.11718 17.3668 9.01386 17.6882 9.30196 17.7624L16.3421 19.3918C16.4868 19.4253 16.6317 19.3347 16.6653 19.19L17.7032 14.7051C17.7367 14.5606 17.6448 14.4218 17.5001 14.3884L17.6139 13.8969C17.7584 13.9305 17.9012 13.8494 17.9347 13.7047L20.152 4.12385C20.1855 3.97923 20.0951 3.83436 19.9504 3.80093ZM13.6205 17.8316L14.4465 18.0227L14.4999 17.7921L13.6738 17.6009L13.6205 17.8316ZM15.8125 13.4801L14.8569 13.2589L14.7431 13.7504L15.6988 13.9716L15.8125 13.4801ZM14.3413 14.7165L13.7518 17.2639L14.5778 17.4551L15.1673 14.9077L14.3413 14.7165ZM14.8339 18.1123L15.2468 18.2079L15.3002 17.9775L14.8873 17.8818L14.8339 18.1123ZM15.5967 18.4603L16.0097 18.556L16.7682 15.2782L16.3552 15.1827L15.5967 18.4603ZM7.24703 6.33258C6.88191 6.53963 6.48882 6.69405 6.07616 6.78498L6.15142 8.4736L7.86395 8.21996C7.78417 7.2695 7.33058 6.46957 7.24703 6.33258ZM5.49809 6.26692L5.44817 5.14666C5.27923 5.31125 4.91927 5.71263 4.61769 6.20416C4.9041 6.26569 5.19863 6.28668 5.49809 6.26692ZM7.42213 5.54516C7.53332 5.46321 7.64054 5.37491 7.74386 5.28115C7.46839 5.12373 7.16878 5.00831 6.85201 4.9415C7.05877 5.12237 7.24999 5.32405 7.42213 5.54516ZM6.91272 5.86426C6.66834 5.52978 6.18063 5.17766 5.9995 5.06503L6.04946 6.18525C6.34674 6.11672 6.63549 6.00926 6.91272 5.86426ZM5.73114 11.4962C5.46093 11.5586 5.19769 11.653 4.94388 11.7786C5.04269 11.89 5.42684 12.2748 5.77519 12.4825L5.73114 11.4962ZM8.41627 8.13817L9.42587 7.98859C9.32013 6.99642 8.86793 6.16064 8.20819 5.6055C8.06013 5.75049 7.90361 5.88572 7.7393 6.00938C8.105 6.62207 8.34387 7.34358 8.41627 8.13817ZM4.59152 11.3164C4.94019 11.1256 5.31356 10.9825 5.70444 10.8964L5.62675 9.1538L3.9187 9.40678C3.97395 9.8945 4.12894 10.6049 4.59152 11.3164ZM4.59574 5.27573C4.28899 5.43495 4.00344 5.63675 3.74561 5.87329C3.85586 5.93535 3.9696 5.99096 4.08662 6.03911C4.23686 5.77038 4.40765 5.5151 4.59574 5.27573ZM3.81481 6.59057C3.64168 6.51686 3.4754 6.42954 3.31642 6.33C2.71419 7.07226 2.34206 8.03014 2.32561 9.04015L3.33517 8.8906C3.33615 8.08522 3.50813 7.30293 3.81481 6.59057ZM2.35793 9.63795C2.48373 10.6341 2.96094 11.4665 3.64541 12.006C3.78778 11.8724 3.93732 11.7477 4.09367 11.6333C3.70771 11.0206 3.45124 10.2932 3.36618 9.48857L2.35793 9.63795ZM4.42253 12.0901C4.32114 12.1616 4.2232 12.2385 4.12816 12.3198C4.37635 12.4501 4.64271 12.5469 4.92239 12.606C4.74324 12.4492 4.57585 12.277 4.42253 12.0901ZM4.32922 6.76476C4.25888 6.92452 3.85328 7.93834 3.88749 8.80878L5.60005 8.55522L5.52479 6.86656C5.10955 6.89835 4.70792 6.86168 4.32922 6.76476ZM7.39129 10.9018C7.74993 10.223 7.87474 9.31676 7.88606 8.81924L6.17813 9.07218L6.25577 10.8148C6.64927 10.7847 7.03031 10.816 7.39129 10.9018ZM7.17903 12.2716C7.4499 12.1309 7.70415 11.957 7.93733 11.7555C7.83643 11.7033 7.7329 11.6564 7.62659 11.6155C7.49177 11.8452 7.34186 12.0643 7.17903 12.2716ZM6.28247 11.4145L6.32644 12.4007C6.6478 12.1006 6.99688 11.6005 7.08441 11.4616C6.82285 11.4123 6.55469 11.3965 6.28247 11.4145ZM7.91067 11.068C8.07522 11.1348 8.23383 11.2139 8.38604 11.3039C9.01403 10.5698 9.41102 9.6078 9.44691 8.58799L8.43874 8.73733C8.42607 9.55645 8.23727 10.3497 7.91067 11.068Z" fill="#666666"/>
</g>
<defs>
<clipPath id="clip0_138_2850">
<rect width="21" height="21" fill="white"/>
</clipPath>
</defs>
</svg>
