<svg width="36" height="36" viewBox="0 0 36 36" fill="none" xmlns="http://www.w3.org/2000/svg">
<path d="M22.5 12H22.515M18.75 31.5H9C7.80653 31.5 6.66193 31.0259 5.81802 30.182C4.97411 29.3381 4.5 28.1935 4.5 27V9C4.5 7.80653 4.97411 6.66193 5.81802 5.81802C6.66193 4.97411 7.80653 4.5 9 4.5H27C28.1935 4.5 29.3381 4.97411 30.182 5.81802C31.0259 6.66193 31.5 7.80653 31.5 9V18.75" stroke="#F2A6B5" stroke-width="3" stroke-linecap="round" stroke-linejoin="round"/>
<path d="M4.5 23.9997L12 16.4997C13.392 15.1602 15.108 15.1602 16.5 16.4997L21.75 21.7497" stroke="#F2A6B5" stroke-width="3" stroke-linecap="round" stroke-linejoin="round"/>
<path d="M21 20.9998L22.5 19.4998C23.5185 18.5203 24.7095 18.2563 25.821 18.7108M28.5 32.9998V23.9998M28.5 23.9998L33 28.4998M28.5 23.9998L24 28.4998" stroke="#F2A6B5" stroke-width="3" stroke-linecap="round" stroke-linejoin="round"/>
</svg>
