<svg width="34" height="31" viewBox="0 0 34 31" fill="none" xmlns="http://www.w3.org/2000/svg">
<path d="M13.5996 18.7H20.3996V8.5H25.4996L16.9996 0L8.49955 8.5H13.5996V18.7ZM32.8742 21.3044C32.5172 20.9236 30.1355 18.3753 29.4555 17.7106C28.9792 17.2534 28.3442 16.9986 27.6841 17H24.6972L29.906 22.0898H23.8812C23.7991 22.0876 23.718 22.1074 23.6463 22.1472C23.5745 22.1869 23.5147 22.2452 23.4732 22.3159L22.086 25.5H11.9132L10.526 22.3159C10.4831 22.2464 10.423 22.189 10.3515 22.1495C10.2801 22.1099 10.1996 22.0893 10.118 22.0898H4.09315L9.30025 17H6.31505C5.64015 17 4.99585 17.2703 4.54365 17.7106C3.86365 18.377 1.48195 20.9253 1.12495 21.3044C0.293653 22.1901 -0.163647 22.8956 0.0539526 23.7677L1.00765 28.9935C1.22525 29.8673 2.18235 30.5847 3.13605 30.5847H30.8665C31.8202 30.5847 32.7773 29.8673 32.9949 28.9935L33.9486 23.7677C34.1628 22.8956 33.7072 22.1901 32.8742 21.3044Z" fill="#6284FF" fill-opacity="0.76"/>
</svg>
