<svg width="28" height="28" viewBox="0 0 28 28" fill="none" xmlns="http://www.w3.org/2000/svg">
<path d="M3.5 18.3748V9.62484C3.5 9.006 3.74583 8.41251 4.18342 7.97492C4.621 7.53734 5.21449 7.2915 5.83333 7.2915H15.75C16.3688 7.2915 16.9623 7.53734 17.3999 7.97492C17.8375 8.41251 18.0833 9.006 18.0833 9.62484V18.3748C18.0833 18.9937 17.8375 19.5872 17.3999 20.0248C16.9623 20.4623 16.3688 20.7082 15.75 20.7082H5.83333C5.21449 20.7082 4.621 20.4623 4.18342 20.0248C3.74583 19.5872 3.5 18.9937 3.5 18.3748ZM23.5293 8.156L18.8627 12.3128C18.8012 12.3675 18.7519 12.4345 18.7181 12.5095C18.6843 12.5845 18.6668 12.6658 18.6667 12.748V14.8223C18.6668 14.9046 18.6843 14.9859 18.7181 15.0609C18.7519 15.1359 18.8012 15.2029 18.8627 15.2575L23.5293 19.4143C23.6134 19.489 23.7173 19.5378 23.8284 19.5548C23.9396 19.5718 24.0533 19.5563 24.1558 19.5102C24.2584 19.4641 24.3454 19.3893 24.4065 19.2949C24.4676 19.2005 24.5 19.0904 24.5 18.978V8.59234C24.5 8.47989 24.4676 8.36984 24.4065 8.27542C24.3454 8.18099 24.2584 8.10623 24.1558 8.06013C24.0533 8.01403 23.9396 7.99855 23.8284 8.01556C23.7173 8.03257 23.6134 8.08134 23.5293 8.156Z" stroke="black" stroke-width="1.5" stroke-linecap="round" stroke-linejoin="round"/>
</svg>
