<svg width="24" height="24" viewBox="0 0 24 24" fill="none" xmlns="http://www.w3.org/2000/svg">
<g clip-path="url(#clip0_718_3256)">
<path d="M21.805 5.99486H21.5064V3.09487C21.5064 1.88455 20.5217 0.899826 19.3113 0.899826H3.39063C1.63377 0.899826 0.185231 2.24362 0.0180168 3.95728C-0.00752011 4.07837 0.00157327 2.99941 0.00157327 19.7111C0.00157327 21.5798 1.52187 23.1001 3.39058 23.1001H21.8049C23.0153 23.1001 24 22.1155 24 20.9051V8.1899C24 6.97958 23.0153 5.99486 21.805 5.99486ZM3.39063 2.40759H19.3113C19.6903 2.40759 19.9986 2.71591 19.9986 3.09491V5.9949H3.39063C2.38267 5.9949 1.55753 5.19803 1.51155 4.20124C1.55749 3.20441 2.38263 2.40759 3.39063 2.40759ZM21.805 21.5924H3.39063C2.35327 21.5924 1.50933 20.7485 1.50933 19.7111V6.93124C2.04792 7.29201 2.6951 7.50257 3.39063 7.50257H21.805C22.184 7.50257 22.4923 7.8109 22.4923 8.1899V11.2461H16.8192C14.8871 11.2461 13.3152 12.818 13.3152 14.75C13.3152 16.6821 14.8871 18.254 16.8192 18.254H22.4923V20.9051C22.4923 21.2841 22.184 21.5924 21.805 21.5924ZM22.4923 16.7463H16.8192C15.7184 16.7463 14.8229 15.8508 14.8229 14.7501C14.8229 13.6494 15.7184 12.7539 16.8192 12.7539H22.4923V16.7463Z" fill="#4D4D4D"/>
<path d="M17.0974 15.8426C17.7008 15.8426 18.1899 15.3535 18.1899 14.7501C18.1899 14.1467 17.7008 13.6576 17.0974 13.6576C16.494 13.6576 16.0049 14.1467 16.0049 14.7501C16.0049 15.3535 16.494 15.8426 17.0974 15.8426Z" fill="#4D4D4D"/>
</g>
<defs>
<clipPath id="clip0_718_3256">
<rect width="24" height="24" fill="white"/>
</clipPath>
</defs>
</svg>
