<svg width="24" height="24" viewBox="0 0 24 24" fill="none" xmlns="http://www.w3.org/2000/svg">
<path d="M9 12C9 12.7956 9.31607 13.5587 9.87868 14.1213C10.4413 14.6839 11.2044 15 12 15C12.7956 15 13.5587 14.6839 14.1213 14.1213C14.6839 13.5587 15 12.7956 15 12C15 11.2044 14.6839 10.4413 14.1213 9.87868C13.5587 9.31607 12.7956 9 12 9C11.2044 9 10.4413 9.31607 9.87868 9.87868C9.31607 10.4413 9 11.2044 9 12Z" stroke="#D9D9D9" stroke-width="2" stroke-linecap="round" stroke-linejoin="round"/>
<path d="M19 5C19.7957 5 20.5585 5.3163 21.1211 5.87891C21.6837 6.44152 22 7.20435 22 8V12.5C22 13.0523 21.5523 13.5 21 13.5C20.4477 13.5 20 13.0523 20 12.5V8C20 7.73478 19.8946 7.48051 19.707 7.29297C19.5429 7.12883 19.3276 7.02757 19.0986 7.00488L19 7H5C4.73478 7 4.4805 7.10543 4.29297 7.29297C4.10543 7.4805 4 7.73478 4 8V16C4 16.2652 4.10543 16.5195 4.29297 16.707C4.48051 16.8946 4.73478 17 5 17H12.25C12.8023 17 13.25 17.4477 13.25 18C13.25 18.5523 12.8023 19 12.25 19H5C4.20435 19 3.44152 18.6837 2.87891 18.1211C2.3163 17.5585 2 16.7956 2 16V8C2 7.20435 2.3163 6.44152 2.87891 5.87891C3.44152 5.3163 4.20435 5 5 5H19ZM6.00977 11C6.56205 11 7.00977 11.4477 7.00977 12C7.00977 12.5523 6.56205 13 6.00977 13H6C5.44772 13 5 12.5523 5 12C5 11.4477 5.44772 11 6 11H6.00977ZM18.0098 11C18.562 11 19.0098 11.4477 19.0098 12C19.0098 12.5523 18.562 13 18.0098 13H18C17.4477 13 17 12.5523 17 12C17 11.4477 17.4477 11 18 11H18.0098Z" fill="#D9D9D9"/>
<path d="M19 17.4961V19.0001L20 20.0001" stroke="#D9D9D9" stroke-width="2" stroke-linecap="round" stroke-linejoin="round"/>
<path d="M19.248 14.0059C20.4838 14.0672 21.6561 14.5858 22.5352 15.4648C23.4728 16.4025 24 17.6739 24 19C24 20.3261 23.4728 21.5975 22.5352 22.5352C21.5975 23.4728 20.3261 24 19 24C17.6739 24 16.4025 23.4728 15.4648 22.5352C14.5858 21.6561 14.0672 20.4838 14.0059 19.248L14 19C14 17.6739 14.5272 16.4025 15.4648 15.4648C16.4025 14.5272 17.6739 14 19 14L19.248 14.0059ZM19 16C18.2044 16 17.4415 16.3163 16.8789 16.8789C16.3163 17.4415 16 18.2044 16 19L16.0146 19.2969C16.0829 19.9835 16.3867 20.6289 16.8789 21.1211C17.4415 21.6837 18.2044 22 19 22C19.7956 22 20.5585 21.6837 21.1211 21.1211C21.6837 20.5585 22 19.7956 22 19C22 18.2044 21.6837 17.4415 21.1211 16.8789C20.6289 16.3867 19.9835 16.0829 19.2969 16.0146L19 16Z" fill="#D9D9D9"/>
</svg>
