<svg width="337" height="298" viewBox="0 0 337 298" fill="none" xmlns="http://www.w3.org/2000/svg">
<path d="M175.35 0.043905C216.748 -0.971013 254.544 16.0754 276.006 44.2454C319.157 100.884 327.153 157.477 298.199 187.223C292.162 193.427 274.917 208.325 249.404 213.658C208.253 222.261 190.356 196.621 156.34 203.222C111.324 211.957 106.537 263.87 76.2836 265.426C47.4131 266.91 15.8057 221.482 11.1412 178.598C3.06603 104.36 72.7172 10.0141 164.179 0.745146C167.964 0.361926 171.69 0.133734 175.35 0.043905Z" fill="#FCE9ED"/>
<path d="M91.0422 64.8037L91.3885 66.9523L91.3356 66.9582L91.0422 64.8037Z" fill="#ABBAC2"/>
<path d="M91.6399 71.3972C91.6196 72.8844 91.4943 74.3724 91.2632 75.8444L90.9973 75.7995C91.2617 74.3463 91.4226 72.8721 91.4791 71.3936L91.6399 71.3972Z" fill="#ABBAC2"/>
<path d="M90.2506 80.1979C89.8015 81.6207 89.2488 83.0123 88.5953 84.3554L88.2078 84.1635C88.8699 82.8486 89.4342 81.4831 89.8971 80.0835L90.2506 80.1979Z" fill="#ABBAC2"/>
<path d="M86.3376 88.2254C85.4879 89.4562 84.5418 90.6218 83.5066 91.7041L83.1089 91.3179C84.1376 90.2712 85.0822 89.1396 85.9341 87.9414L86.3376 88.2254Z" fill="#ABBAC2"/>
<path d="M80.1443 94.6813C78.9381 95.5731 77.6537 96.3613 76.3077 97.0277L76.0281 96.4605C77.3429 95.8165 78.5991 95.0537 79.7813 94.188L80.1443 94.6813Z" fill="#ABBAC2"/>
<path d="M72.1086 98.6493C70.6605 99.0564 69.1783 99.3274 67.6867 99.4853L67.6172 98.8159C69.0755 98.6681 70.5228 98.4102 71.9326 98.0205L72.1086 98.6493Z" fill="#ABBAC2"/>
<path d="M63.1977 99.6352C61.7004 99.5824 60.208 99.4317 58.7295 99.1883L58.8469 98.4849C60.2935 98.7297 61.7569 98.884 63.2231 98.9427L63.1977 99.6352Z" fill="#ABBAC2"/>
<path d="M54.3545 98.1612C52.9223 97.7149 51.5176 97.1702 50.1738 96.4856L50.4882 95.8662C51.7915 96.5225 53.1635 97.0485 54.5646 97.4773L54.3545 98.1612Z" fill="#ABBAC2"/>
<path d="M46.4532 93.8785C45.9186 93.3258 45.4339 92.6963 45.1253 91.9544C44.8022 91.2119 44.758 90.36 44.8761 89.5972L45.5238 89.6899C45.4231 90.389 45.4651 91.0735 45.7382 91.6994C46.0033 92.3304 46.4387 92.8991 46.9349 93.4069L46.4532 93.8785Z" fill="#ABBAC2"/>
<path d="M47.0647 85.5459C47.4023 85.3126 47.8558 85.1337 48.3158 85.1866C48.7671 85.2279 49.1568 85.4227 49.4886 85.6589C50.1515 86.1414 50.6289 86.81 50.9099 87.5685L50.3319 87.7735C50.0979 87.144 49.6697 86.5536 49.1264 86.1674C48.8569 85.9755 48.5541 85.8364 48.2614 85.8132C47.9746 85.7799 47.6906 85.8871 47.4218 86.0696L47.0647 85.5459Z" fill="#ABBAC2"/>
<path d="M49.9281 92.0183C49.0718 93.2832 47.9685 94.3495 46.7298 95.2167L46.4443 94.8117C47.6222 93.9634 48.6719 92.9166 49.463 91.7119L49.9281 92.0183Z" fill="#ABBAC2"/>
<path d="M42.5393 96.8949C41.0238 97.0673 39.4967 96.8348 38.0688 96.3762L38.1804 96.0205C39.5756 96.4479 41.0506 96.6479 42.4871 96.4639L42.5393 96.8949Z" fill="#ABBAC2"/>
<path d="M34.0475 94.3988C32.7993 93.5802 31.641 92.6341 30.5659 91.6076L30.6768 91.4888C31.7706 92.4827 32.942 93.3918 34.1931 94.1699L34.0475 94.3988Z" fill="#ABBAC2"/>
<path d="M27.5871 88.3063L26.2998 86.5532L27.6284 88.273L27.5871 88.3063Z" fill="#ABBAC2"/>
<path d="M267.843 20.9355L269.868 21.7331L269.846 21.7817L267.843 20.9355Z" fill="#ABBAC2"/>
<path d="M273.819 23.7852C275.088 24.5617 276.303 25.4282 277.451 26.3786L277.276 26.5843C276.161 25.615 274.976 24.7247 273.732 23.9221L273.819 23.7852Z" fill="#ABBAC2"/>
<path d="M280.678 29.4717C281.673 30.5837 282.588 31.7688 283.409 33.0163L283.046 33.2517C282.253 32.0115 281.367 30.8293 280.399 29.7173L280.678 29.4717Z" fill="#ABBAC2"/>
<path d="M285.585 36.9307C286.21 38.2897 286.73 39.698 287.133 41.141L286.598 41.2866C286.223 39.8675 285.732 38.478 285.136 37.1342L285.585 36.9307Z" fill="#ABBAC2"/>
<path d="M287.979 45.5532C288.13 47.0455 288.153 48.5523 288.039 50.0504L287.408 50.0012C287.525 48.5422 287.51 47.0716 287.369 45.6133L287.979 45.5532Z" fill="#ABBAC2"/>
<path d="M287.291 54.4876C286.902 55.9401 286.379 57.3534 285.753 58.7168L285.142 58.435C285.759 57.1057 286.276 55.7293 286.66 54.3174L287.291 54.4876Z" fill="#ABBAC2"/>
<path d="M283.591 62.6553C282.782 63.9158 281.89 65.1227 280.927 66.2694L280.381 65.8094C281.33 64.6902 282.21 63.5101 283.008 62.2793L283.591 62.6553Z" fill="#ABBAC2"/>
<path d="M277.811 69.5081C276.697 70.5121 275.511 71.4423 274.237 72.2486L273.864 71.6618C275.094 70.8758 276.246 69.9645 277.33 68.9785L277.811 69.5081Z" fill="#ABBAC2"/>
<path d="M270.097 74.1173C269.348 74.2948 268.56 74.3904 267.765 74.2781C266.961 74.1774 266.206 73.7804 265.61 73.2893L266.02 72.7793C266.571 73.2226 267.18 73.5363 267.858 73.6203C268.536 73.7145 269.247 73.6305 269.937 73.4624L270.097 74.1173Z" fill="#ABBAC2"/>
<path d="M263.243 69.3405C263.215 68.9305 263.292 68.4495 263.572 68.0815C263.838 67.7142 264.204 67.4788 264.577 67.3136C265.329 66.9898 266.148 66.9202 266.944 67.0651L266.825 67.6671C266.165 67.5469 265.439 67.6142 264.829 67.8837C264.526 68.0177 264.251 68.2068 264.083 68.4473C263.907 68.677 263.854 68.9761 263.875 69.3007L263.243 69.3405Z" fill="#ABBAC2"/>
<path d="M270.27 70.1802C270.921 71.5624 271.275 73.0554 271.389 74.5622L270.895 74.6006C270.767 73.1547 270.401 71.7174 269.769 70.4229L270.27 70.1802Z" fill="#ABBAC2"/>
<path d="M270.693 79.0237C270.068 80.4153 269.089 81.6099 267.966 82.6038L267.718 82.3263C268.797 81.344 269.722 80.1777 270.296 78.8491L270.693 79.0237Z" fill="#ABBAC2"/>
<path d="M264.215 85.053C262.874 85.7086 261.469 86.2215 260.038 86.6228L259.992 86.4671C261.406 86.0339 262.785 85.4905 264.092 84.811L264.215 85.053Z" fill="#ABBAC2"/>
<path d="M255.678 87.5003L253.514 87.7128L255.671 87.4482L255.678 87.5003Z" fill="#ABBAC2"/>
<path d="M83.1432 38.9155C83.1432 38.9155 69.2821 90.4271 70.7164 92.8366C72.1515 95.246 106.098 107.486 117.111 98.7022C117.111 98.7022 116.281 90.6532 117.408 84.1913C118.535 77.7294 125.938 46.4763 125.938 46.4763L83.1432 38.9155Z" fill="white"/>
<path d="M109.679 99.7953C110.794 98.8601 111.822 97.9176 112.737 96.8614C113.203 96.3434 113.634 95.7943 114.041 95.2227C114.462 94.6577 114.817 94.0499 115.229 93.4399C115.1 94.1571 114.872 94.8678 114.524 95.5161C114.197 96.1783 113.763 96.7832 113.28 97.3395C112.79 97.8908 112.244 98.3928 111.638 98.8101C111.037 99.231 110.385 99.5896 109.679 99.7953Z" fill="#ABBAC2"/>
<path d="M86.9185 47.6821L90.7456 48.4558L94.5619 49.2599L102.193 50.8493C104.734 51.3868 107.284 51.8729 109.835 52.3525C112.388 52.8176 114.947 53.2537 117.541 53.4782C116.892 53.4811 116.238 53.4877 115.586 53.4667L113.632 53.3544C112.336 53.2225 111.038 53.0834 109.747 52.9023C107.163 52.5503 104.599 52.0808 102.047 51.5578C99.4988 51.0217 96.9568 50.4552 94.4365 49.7996C91.9141 49.1527 89.4003 48.4732 86.9185 47.6821Z" fill="#ABBAC2"/>
<path d="M86.0156 53.6895L89.8428 54.4631L93.659 55.2672L101.29 56.8566C103.831 57.3942 106.381 57.8802 108.932 58.3598C111.486 58.8249 114.044 59.261 116.638 59.4856C115.989 59.4885 115.335 59.495 114.683 59.474L112.729 59.3617C111.433 59.2298 110.135 59.0908 108.844 58.9096C106.26 58.5576 103.696 58.0882 101.144 57.5651C98.596 57.029 96.054 56.4625 93.5337 55.8069C91.012 55.16 88.4982 54.4805 86.0156 53.6895Z" fill="#ABBAC2"/>
<path d="M85.1135 59.6997L88.9406 60.4734L92.7569 61.2775L100.388 62.8669C102.929 63.4044 105.479 63.8905 108.03 64.3701C110.584 64.8351 113.142 65.2713 115.736 65.4958C115.087 65.4987 114.433 65.5052 113.781 65.4842L111.827 65.3719C110.531 65.2401 109.233 65.101 107.942 64.9199C105.358 64.5678 102.794 64.0984 100.242 63.5754C97.6939 63.0393 95.1519 62.4728 92.6316 61.8172C90.1099 61.1703 87.5961 60.4908 85.1135 59.6997Z" fill="#ABBAC2"/>
<path d="M84.2119 65.7075L88.039 66.4812L91.8553 67.2853L99.4864 68.8747C102.028 69.4122 104.578 69.8983 107.128 70.3779C109.682 70.843 112.241 71.2791 114.835 71.5036C114.185 71.5065 113.532 71.513 112.88 71.492L110.926 71.3798C109.629 71.2479 108.332 71.1088 107.041 70.9277C104.457 70.5756 101.892 70.1062 99.3408 69.5832C96.7923 69.0471 94.2503 68.4806 91.73 67.825C89.2075 67.1781 86.6938 66.4986 84.2119 65.7075Z" fill="#ABBAC2"/>
<path d="M83.3091 71.7148L87.1362 72.4885L90.9525 73.2926L98.5836 74.882C101.125 75.4195 103.675 75.9056 106.226 76.3852C108.779 76.8503 111.338 77.2864 113.932 77.511C113.282 77.5139 112.629 77.5204 111.977 77.4994L110.023 77.3871C108.726 77.2552 107.429 77.1161 106.138 76.935C103.554 76.583 100.989 76.1136 98.4379 75.5905C95.8894 75.0544 93.3474 74.4879 90.8271 73.8323C88.3054 73.1854 85.7917 72.5059 83.3091 71.7148Z" fill="#ABBAC2"/>
<path d="M82.4075 77.7241L86.2346 78.4978L90.0509 79.3019L97.682 80.8913C100.223 81.4288 102.773 81.9149 105.324 82.3945C107.877 82.8596 110.436 83.2957 113.03 83.5202C112.381 83.5231 111.727 83.5297 111.075 83.5086L109.121 83.3964C107.825 83.2645 106.527 83.1254 105.236 82.9443C102.652 82.5922 100.088 82.1228 97.5363 81.5998C94.9878 81.0637 92.4458 80.4972 89.9255 79.8416C87.4031 79.1947 84.8901 78.5152 82.4075 77.7241Z" fill="#ABBAC2"/>
<path d="M81.5046 83.7334L85.3318 84.5064L89.148 85.3105L96.7791 86.8999C99.3204 87.4374 101.87 87.9235 104.421 88.403C106.975 88.8681 109.533 89.3042 112.127 89.5288C111.478 89.5317 110.824 89.5382 110.172 89.5172L108.219 89.4049C106.922 89.2731 105.624 89.134 104.333 88.9529C101.749 88.6008 99.1849 88.1314 96.6335 87.6083C94.085 87.0723 91.543 86.5058 89.0227 85.8502C86.501 85.204 83.9872 84.5245 81.5046 83.7334Z" fill="#ABBAC2"/>
<path d="M273.252 164.288C273.252 164.288 286.85 151.904 285.021 145.723C283.192 139.543 286.321 132.698 282.102 125.243C277.882 117.788 275.962 119.052 266.043 117.257C256.123 115.462 254.595 110.059 245.805 116.818C237.188 123.445 239.053 127.584 249.941 128.557C256.459 129.139 264.481 127.258 265.23 139.103C266.148 153.61 273.252 164.288 273.252 164.288Z" fill="#F8D3DA"/>
<path d="M278.915 191.054C275.624 188.64 279.767 179.198 286.103 174.673C290.48 171.547 294.173 175.053 300.47 171.062C304.918 168.243 305.045 165.246 308.343 164.922C312.239 164.54 313.251 168.607 319.154 170.536C324.837 172.392 326.631 169.516 330.058 171.418C336.343 174.906 339.363 189.608 334.815 193.459C332.032 195.817 326.906 187.118 320.011 189.076C316.575 190.052 316.371 192.526 313 192.97C308.28 193.593 306.451 189.035 301.73 187.657C292.606 184.992 282.594 193.752 278.915 191.054Z" fill="#F8D3DA"/>
<path d="M247.495 254.172C250.078 245.413 253.036 236.758 256.387 228.255C258.03 223.99 259.845 219.792 261.737 215.63C263.624 211.465 265.675 207.37 267.923 203.38C270.204 199.418 272.67 195.511 275.76 192.095L278.104 189.576C278.908 188.757 279.777 188.005 280.61 187.217C281.038 186.835 281.437 186.419 281.889 186.066L283.236 184.994C284.136 184.281 285.024 183.554 285.996 182.94C289.757 180.314 293.87 178.181 298.212 176.711C302.553 175.281 307.12 174.362 311.694 174.569C307.12 174.481 302.598 175.515 298.329 177.046C294.044 178.573 289.999 180.741 286.316 183.396C285.364 184.016 284.496 184.751 283.616 185.467L282.29 186.536C281.844 186.888 281.452 187.302 281.031 187.681C280.21 188.466 279.353 189.213 278.562 190.027L276.253 192.533C273.224 195.911 270.803 199.79 268.552 203.739C266.299 207.693 264.237 211.763 262.335 215.905C260.419 220.043 258.624 224.236 256.902 228.461C255.177 232.685 253.534 236.943 251.982 241.234C250.404 245.516 248.896 249.826 247.495 254.172Z" fill="#40635B"/>
<path d="M256.395 220.521C258.493 212.968 260.681 205.442 262.889 197.921L269.592 175.385C271.856 167.883 274.106 160.376 276.166 152.822C277.182 149.044 278.163 145.247 278.782 141.39C279.088 139.466 279.303 137.513 279.156 135.57C279.061 134.603 278.863 133.642 278.483 132.746C278.111 131.847 277.541 131.033 276.858 130.331C277.567 131.006 278.172 131.803 278.584 132.702C278.996 133.599 279.224 134.571 279.348 135.55C279.551 137.517 279.388 139.495 279.134 141.442C278.582 145.338 277.658 149.159 276.705 152.963C274.752 160.563 272.496 168.072 270.286 175.592L263.421 198.081C261.102 205.568 258.78 213.053 256.395 220.521Z" fill="#40635B"/>
<path d="M259.343 226.82C259.343 226.82 259.955 211.471 264.955 209.485C269.955 207.498 272.834 201.914 279.903 200.838C286.973 199.763 287.133 201.675 293.427 207.26C299.72 212.845 304.055 211.062 304.152 220.316C304.246 229.39 300.567 230.301 294.313 223.657C290.57 219.679 287.668 213.443 279.506 219.06C269.513 225.94 259.343 226.82 259.343 226.82Z" fill="#F8D3DA"/>
<path d="M249.464 254.65C250.438 250.323 251.625 246.041 253.023 241.826C254.419 237.61 256.066 233.473 257.958 229.446C259.906 225.45 262.102 221.549 264.803 218C265.447 217.09 266.199 216.263 266.924 215.419C267.623 214.55 268.458 213.803 269.24 213.012C269.44 212.819 269.635 212.621 269.842 212.434L270.491 211.907L271.787 210.856C272.664 210.174 273.637 209.622 274.558 209.012L273.22 209.999C272.784 210.339 272.301 210.616 271.906 211.007L270.672 212.112L270.056 212.664C269.861 212.858 269.678 213.066 269.488 213.266C268.741 214.077 267.936 214.833 267.271 215.717C266.578 216.575 265.861 217.411 265.25 218.332C262.672 221.909 260.494 225.766 258.611 229.759C256.678 233.731 255.051 237.847 253.547 242.007L252.45 245.14L251.42 248.297L250.421 251.467L249.464 254.65Z" fill="#40635B"/>
<path d="M178.276 41.5586H155.144V61.72H178.276V41.5586Z" fill="#EB7A91"/>
<path d="M182.131 53.0193H151.288V32.2327C161.136 29.3886 172.284 29.3886 182.131 32.2327V53.0193Z" fill="#B11B39"/>
<path d="M153.234 33.4946C154.325 33.7895 155.425 34.0213 156.536 34.1966C157.642 34.3886 158.754 34.5436 159.872 34.6407C162.104 34.8493 164.344 34.9442 166.584 34.9196C167.704 34.8761 168.825 34.8783 169.942 34.7754L171.62 34.6595C172.177 34.5943 172.735 34.5385 173.294 34.4864C175.529 34.2589 177.743 33.8648 179.975 33.4954C178.892 33.8148 177.802 34.1213 176.704 34.3951C175.594 34.6088 174.492 34.8884 173.369 35.0391C171.134 35.4332 168.862 35.5716 166.594 35.644C164.323 35.6512 162.049 35.5353 159.803 35.192C157.562 34.8471 155.327 34.3632 153.234 33.4946Z" fill="#EB7A91"/>
<path d="M153.242 37.2236C153.416 39.5469 153.448 41.8505 153.53 44.1506C153.557 45.301 153.607 46.4492 153.669 47.5952C153.746 48.7398 153.8 49.888 154.003 51.0348C153.528 49.9648 153.279 48.805 153.106 47.6539C152.927 46.4992 152.845 45.3357 152.805 44.1738C152.747 41.8491 152.847 39.5222 153.242 37.2236Z" fill="#EB7A91"/>
<path d="M157.399 38.0073C157.662 40.19 157.731 42.3655 157.794 44.5387L157.846 47.7965L157.877 49.4228C157.901 49.9618 157.89 50.5109 158.046 51.0346C157.526 50.0451 157.422 48.9092 157.281 47.832C157.155 46.741 157.101 45.6478 157.07 44.5554C157.03 42.3705 157.092 40.1849 157.399 38.0073Z" fill="#EB7A91"/>
<path d="M162.089 38.7539C162.279 40.7033 162.32 42.6317 162.405 44.5573C162.433 45.52 162.481 46.4799 162.537 47.439C162.607 48.3967 162.655 49.3566 162.826 50.3201C162.384 49.4399 162.142 48.4692 161.976 47.5049C161.803 46.5378 161.723 45.5599 161.682 44.5848C161.619 42.6332 161.71 40.6787 162.089 38.7539Z" fill="#EB7A91"/>
<path d="M179.609 37.2236C180.005 39.5222 180.105 41.8491 180.045 44.1738C180.005 45.3357 179.923 46.4999 179.745 47.6539C179.572 48.805 179.323 49.9648 178.848 51.0348C179.051 49.888 179.105 48.7405 179.182 47.5952C179.245 46.4492 179.295 45.301 179.321 44.1506C179.404 41.8498 179.435 39.5469 179.609 37.2236Z" fill="#EB7A91"/>
<path d="M175.452 38.0073C175.759 40.1849 175.821 42.3705 175.781 44.5561C175.751 45.6485 175.696 46.7424 175.57 47.8327C175.429 48.9092 175.325 50.0458 174.805 51.0354C174.961 50.5116 174.95 49.9625 174.974 49.4235L175.005 47.7972L175.057 44.5395C175.121 42.3647 175.189 40.1893 175.452 38.0073Z" fill="#EB7A91"/>
<path d="M170.762 38.7539C171.142 40.6787 171.232 42.6332 171.17 44.5848C171.129 45.5599 171.049 46.5371 170.876 47.5049C170.71 48.4692 170.467 49.4392 170.025 50.3201C170.197 49.3566 170.244 48.3967 170.314 47.439C170.371 46.4806 170.418 45.52 170.447 44.5573C170.531 42.6325 170.572 40.7041 170.762 38.7539Z" fill="#EB7A91"/>
<path d="M166.493 38.7539C166.795 40.6809 166.867 42.6122 166.865 44.5435C166.852 45.5092 166.825 46.4755 166.742 47.4412C166.661 48.4032 166.562 49.3805 166.278 50.3193C166.282 49.3493 166.191 48.3902 166.177 47.4267C166.145 46.4639 166.141 45.5012 166.141 44.5384C166.166 42.6122 166.226 40.6852 166.493 38.7539Z" fill="#EB7A91"/>
<path opacity="0.11" d="M171.134 269.635C221.062 269.635 261.536 268.816 261.536 267.805C261.536 266.795 221.062 265.976 171.134 265.976C121.206 265.976 80.7317 266.795 80.7317 267.805C80.7317 268.816 121.206 269.635 171.134 269.635Z" fill="#344C82"/>
<path d="M168.498 255.702C219.796 255.702 261.382 214.116 261.382 162.818C261.382 111.519 219.796 69.9336 168.498 69.9336C117.199 69.9336 75.6138 111.519 75.6138 162.818C75.6138 214.116 117.199 255.702 168.498 255.702Z" fill="#F3F8FA"/>
<path d="M189.003 158.44C208.362 158.44 224.056 142.746 224.056 123.387C224.056 104.028 208.362 88.3345 189.003 88.3345C169.644 88.3345 153.951 104.028 153.951 123.387C153.951 142.746 169.644 158.44 189.003 158.44Z" fill="white"/>
<path d="M86.1916 219.08C86.1916 219.08 69.7668 266.406 74.7559 267.761C79.745 269.116 115.384 239.152 115.384 239.152L86.1916 219.08Z" fill="#B11B39"/>
<path d="M250.207 219.08C250.207 219.08 266.632 266.406 261.643 267.761C256.654 269.116 221.015 239.152 221.015 239.152L250.207 219.08Z" fill="#B11B39"/>
<path d="M168.498 58.7734C111.036 58.7734 64.4539 105.355 64.4539 162.817C64.4539 220.279 111.036 266.861 168.498 266.861C225.96 266.861 272.542 220.279 272.542 162.817C272.542 105.355 225.96 58.7734 168.498 58.7734ZM168.498 255.702C117.199 255.702 75.6136 214.116 75.6136 162.817C75.6136 111.519 117.199 69.9332 168.498 69.9332C219.796 69.9332 261.382 111.519 261.382 162.817C261.382 214.116 219.796 255.702 168.498 255.702Z" fill="#B11B39"/>
<path opacity="0.23" d="M164.879 167.194H171.045L167.962 112.475L164.879 167.194Z" fill="#EB7A91"/>
<path d="M163.967 165.94H170.132L167.049 111.22L163.967 165.94Z" fill="#EB7A91"/>
<path opacity="0.23" d="M165.067 165.611L169.731 169.643L214.766 112.812L165.067 165.611Z" fill="#EB7A91"/>
<path d="M164.154 164.357L168.819 168.388L213.853 111.558L164.154 164.357Z" fill="#EB7A91"/>
<path opacity="0.23" d="M167.049 171.995C171.305 171.995 174.756 168.545 174.756 164.288C174.756 160.032 171.305 156.581 167.049 156.581C162.792 156.581 159.342 160.032 159.342 164.288C159.342 168.545 162.792 171.995 167.049 171.995Z" fill="#EB7A91"/>
<path opacity="0.23" d="M167.049 174.921C171.305 174.921 174.756 171.471 174.756 167.214C174.756 162.957 171.305 159.507 167.049 159.507C162.792 159.507 159.342 162.957 159.342 167.214C159.342 171.471 162.792 174.921 167.049 174.921Z" fill="#EB7A91"/>
<path d="M167.049 173.647C171.305 173.647 174.756 170.196 174.756 165.94C174.756 161.683 171.305 158.232 167.049 158.232C162.792 158.232 159.342 161.683 159.342 165.94C159.342 170.196 162.792 173.647 167.049 173.647Z" fill="#EB7A91"/>
<path opacity="0.23" d="M163.612 168.283C164.212 170.261 166.376 171.235 168.046 170.76C170.348 170.105 171.417 166.777 170.002 164.892C169.094 163.682 167.248 163.18 165.699 163.849C164.035 164.567 163.066 166.482 163.612 168.283Z" fill="#EB7A91"/>
<path d="M168.498 74.7661C168.947 75.5058 169.181 76.2461 169.349 76.9857C169.508 77.7254 169.582 78.4657 169.583 79.2054C169.585 79.945 169.511 80.6854 169.352 81.425C169.184 82.1646 168.95 82.905 168.497 83.6446C168.044 82.905 167.81 82.1646 167.643 81.425C167.483 80.6854 167.409 79.945 167.411 79.2054C167.412 78.4657 167.486 77.7254 167.646 76.9857C167.814 76.2461 168.048 75.5065 168.498 74.7661Z" fill="#EB7A91"/>
<path d="M124.472 86.563C125.231 86.9788 125.803 87.5033 126.319 88.0597C126.827 88.6204 127.261 89.2245 127.632 89.8642C128.004 90.5039 128.31 91.1819 128.541 91.9027C128.766 92.6271 128.933 93.3849 128.911 94.252C128.149 93.8377 127.577 93.3139 127.061 92.7568C126.554 92.1954 126.119 91.5919 125.751 90.9508C125.382 90.3097 125.077 89.6316 124.845 88.9108C124.62 88.1857 124.453 87.428 124.472 86.563Z" fill="#EB7A91"/>
<path d="M92.2429 118.792C93.1086 118.773 93.8656 118.941 94.5908 119.164C95.3109 119.396 95.9889 119.702 96.63 120.071C97.2719 120.439 97.8753 120.873 98.436 121.381C98.9931 121.896 99.5169 122.469 99.9312 123.231C99.0641 123.252 98.3063 123.086 97.5819 122.86C96.8618 122.629 96.1838 122.323 95.5441 121.951C94.9037 121.58 94.3003 121.146 93.7396 120.638C93.1825 120.124 92.6587 119.551 92.2429 118.792Z" fill="#EB7A91"/>
<path d="M80.4463 162.819C81.1859 162.369 81.9263 162.136 82.6659 161.968C83.4056 161.809 84.1459 161.735 84.8856 161.733C85.6252 161.732 86.3656 161.806 87.1052 161.965C87.8448 162.133 88.5852 162.367 89.3248 162.82C88.5852 163.273 87.8448 163.507 87.1052 163.674C86.3656 163.834 85.6252 163.908 84.8856 163.906C84.1459 163.905 83.4056 163.831 82.6659 163.671C81.9256 163.502 81.1859 163.269 80.4463 162.819Z" fill="#EB7A91"/>
<path d="M92.2429 206.844C92.6587 206.085 93.1825 205.513 93.7396 204.997C94.3003 204.489 94.9044 204.054 95.5441 203.684C96.1838 203.312 96.8618 203.006 97.5819 202.774C98.3063 202.55 99.0641 202.383 99.9312 202.404C99.5169 203.166 98.9931 203.739 98.436 204.254C97.8746 204.762 97.2711 205.196 96.63 205.564C95.9889 205.933 95.3109 206.239 94.5908 206.47C93.8664 206.696 93.1086 206.864 92.2429 206.844Z" fill="#EB7A91"/>
<path d="M124.472 239.073C124.452 238.208 124.62 237.451 124.844 236.725C125.076 236.005 125.382 235.327 125.75 234.685C126.119 234.044 126.553 233.44 127.061 232.879C127.576 232.322 128.149 231.799 128.91 231.384C128.932 232.251 128.765 233.009 128.541 233.734C128.309 234.454 128.003 235.132 127.632 235.772C127.261 236.413 126.827 237.016 126.318 237.577C125.803 238.134 125.232 238.658 124.472 239.073Z" fill="#EB7A91"/>
<path d="M168.498 250.869C168.048 250.13 167.815 249.389 167.647 248.65C167.487 247.91 167.414 247.17 167.412 246.43C167.411 245.69 167.485 244.95 167.644 244.21C167.811 243.471 168.046 242.73 168.498 241.991C168.951 242.73 169.185 243.471 169.353 244.21C169.512 244.95 169.587 245.69 169.585 246.43C169.583 247.17 169.509 247.91 169.35 248.65C169.181 249.39 168.948 250.13 168.498 250.869Z" fill="#EB7A91"/>
<path d="M212.524 239.073C211.765 238.658 211.193 238.133 210.677 237.577C210.169 237.015 209.734 236.412 209.363 235.772C208.992 235.132 208.686 234.454 208.454 233.734C208.23 233.009 208.062 232.251 208.085 231.384C208.847 231.799 209.419 232.322 209.934 232.879C210.442 233.441 210.877 234.044 211.245 234.685C211.613 235.327 211.919 236.005 212.151 236.725C212.376 237.451 212.544 238.208 212.524 239.073Z" fill="#EB7A91"/>
<path d="M244.754 206.845C243.888 206.864 243.13 206.696 242.406 206.472C241.686 206.241 241.008 205.935 240.367 205.566C239.725 205.197 239.121 204.763 238.561 204.256C238.004 203.741 237.48 203.168 237.065 202.406C237.933 202.384 238.69 202.551 239.415 202.776C240.135 203.008 240.813 203.314 241.453 203.686C242.093 204.056 242.696 204.49 243.257 204.999C243.813 205.513 244.337 206.085 244.754 206.845Z" fill="#EB7A91"/>
<path d="M256.55 162.818C255.811 163.268 255.07 163.501 254.331 163.669C253.591 163.829 252.851 163.903 252.111 163.904C251.371 163.905 250.631 163.832 249.891 163.672C249.152 163.505 248.411 163.27 247.672 162.818C248.411 162.365 249.152 162.131 249.891 161.963C250.631 161.804 251.371 161.73 252.111 161.731C252.851 161.733 253.591 161.807 254.331 161.966C255.07 162.135 255.811 162.368 256.55 162.818Z" fill="#EB7A91"/>
<path d="M244.754 118.792C244.338 119.551 243.814 120.124 243.257 120.639C242.696 121.147 242.092 121.582 241.453 121.953C240.813 122.324 240.135 122.629 239.415 122.862C238.69 123.086 237.933 123.254 237.065 123.232C237.48 122.47 238.004 121.898 238.561 121.383C239.122 120.875 239.725 120.44 240.367 120.072C241.008 119.703 241.686 119.398 242.406 119.166C243.13 118.941 243.888 118.773 244.754 118.792Z" fill="#EB7A91"/>
<path d="M212.524 86.563C212.544 87.4287 212.376 88.1857 212.152 88.9108C211.92 89.6309 211.614 90.309 211.246 90.9508C210.877 91.5927 210.443 92.1961 209.935 92.7568C209.42 93.3139 208.847 93.8377 208.086 94.252C208.064 93.3849 208.231 92.6271 208.455 91.9027C208.687 91.1826 208.993 90.5046 209.364 89.8642C209.735 89.2238 210.169 88.6204 210.678 88.0597C211.193 87.5026 211.765 86.9788 212.524 86.563Z" fill="#EB7A91"/>
<path opacity="0.23" d="M168.498 74.7546C218.958 74.7546 260.02 114.993 261.347 165.134C261.368 164.364 261.382 163.592 261.382 162.818C261.382 111.519 219.797 69.9336 168.498 69.9336C117.199 69.9336 75.6138 111.519 75.6138 162.818C75.6138 163.592 75.6275 164.364 75.6485 165.134C76.9764 114.993 118.037 74.7546 168.498 74.7546Z" fill="#EB7A91"/>
<path d="M163.612 167.042C164.212 169.021 166.376 169.995 168.046 169.52C170.348 168.865 171.417 165.537 170.002 163.652C169.094 162.442 167.248 161.94 165.699 162.609C164.035 163.327 163.066 165.241 163.612 167.042Z" fill="#B11B39"/>
<path d="M189.003 63.5825C195.891 64.7336 202.581 66.9395 209.002 69.6916C215.431 72.4516 221.529 75.9622 227.243 80.0045C230.076 82.0618 232.783 84.288 235.386 86.6264C237.956 89.0025 240.426 91.4888 242.701 94.1481C247.257 99.4589 251.151 105.325 254.286 111.558C252.543 108.537 250.784 105.525 248.735 102.707C246.773 99.832 244.566 97.1335 242.281 94.5154C239.954 91.9321 237.517 89.451 234.943 87.1162C232.344 84.8103 229.642 82.6197 226.819 80.5927C221.181 76.5309 215.122 73.0529 208.777 70.2001C205.609 68.7622 202.368 67.4814 199.068 66.3759C195.775 65.2494 192.421 64.2809 189.003 63.5825Z" fill="#EB7A91"/>
<path d="M166.916 260.001C159.934 260.117 152.955 259.16 146.141 257.617C139.319 256.069 132.685 253.721 126.333 250.781C123.174 249.271 120.109 247.573 117.125 245.744C114.168 243.873 111.288 241.876 108.568 239.673C103.125 235.276 98.2323 230.212 94.0198 224.65C96.2807 227.306 98.5568 229.949 101.082 232.35C103.533 234.822 106.192 237.076 108.913 239.236C111.67 241.355 114.516 243.354 117.471 245.183C120.445 246.979 123.499 248.644 126.642 250.126C132.924 253.099 139.512 255.421 146.269 257.077C149.644 257.917 153.063 258.59 156.51 259.079C159.955 259.589 163.428 259.933 166.916 260.001Z" fill="#EB7A91"/>
<path d="M199.553 129.603C199.822 129.865 199.915 129.827 200.089 130.087C200.649 130.919 202.482 131.576 203.526 131.97C205.328 133.411 208.204 136.3 208.844 133.473C209.411 130.97 209.879 129.719 209.432 128.25C209.405 128.102 208.337 127.425 208.248 127.26C207.382 125.661 206.54 124.003 205.532 122.588C204.048 120.506 202.101 121.677 202.416 122.297C202.514 122.489 205.985 123.991 205.323 123.575C204.53 122.378 204.584 122.583 203.709 121.934C201.932 120.615 199.988 122.037 201.494 122.999C201.726 123.146 202.646 123.127 203.068 123.249C203.147 123.272 203.206 123.303 203.234 123.346C203.267 123.396 202.507 122.869 202.091 122.609C200.223 121.442 198.964 123.249 199.494 123.96C199.69 124.221 201.088 123.806 201.315 124.031C201.515 124.229 199.834 122.999 199.299 123.388C197.936 124.381 198.362 126.954 198.749 127.591L200.135 126.29C200.07 126.188 200.677 127.164 200.902 127.661C201.141 128.351 201.109 128.272 200.807 128.021" fill="#EDBDA3"/>
<path d="M199.552 123.311C199.858 123.234 200.181 123.261 200.491 123.345C200.803 123.428 201.093 123.597 201.335 123.82C201.577 124.05 201.738 124.335 201.875 124.597C202.018 124.867 202.156 125.138 202.26 125.433C202.03 125.222 201.834 124.988 201.642 124.751C201.442 124.511 201.292 124.265 201.085 124.083C200.683 123.696 200.154 123.455 199.552 123.311Z" fill="#CC8972"/>
<path d="M201.025 122.232C201.332 122.259 201.631 122.325 201.93 122.397C202.237 122.485 202.506 122.519 202.828 122.701C203.104 122.916 203.281 123.164 203.445 123.427C203.605 123.69 203.747 123.962 203.843 124.258C203.62 124.042 203.423 123.815 203.222 123.595C203.019 123.382 202.825 123.145 202.617 122.995C202.546 122.927 202.37 122.888 202.241 122.831C202.104 122.773 201.964 122.723 201.831 122.656C201.56 122.532 201.289 122.401 201.025 122.232Z" fill="#CC8972"/>
<path d="M202.75 121.467C203.016 121.521 203.26 121.614 203.503 121.706C203.743 121.801 203.978 121.913 204.202 122.017L204.278 122.05L204.315 122.063C204.348 122.076 204.387 122.094 204.409 122.111C204.488 122.171 204.532 122.232 204.574 122.289C204.658 122.403 204.722 122.521 204.778 122.642C204.895 122.879 204.991 123.125 205.052 123.386C204.872 123.189 204.714 122.982 204.557 122.781L204.318 122.497C204.28 122.452 204.235 122.418 204.211 122.398C204.208 122.397 204.216 122.404 204.219 122.401C204.219 122.401 204.182 122.389 204.164 122.384L204.059 122.345C203.809 122.238 203.586 122.109 203.367 121.964C203.152 121.815 202.939 121.662 202.75 121.467Z" fill="#CC8972"/>
<path opacity="0.11" d="M284.259 292.941C284.259 293.951 271.694 294.771 256.193 294.771C240.693 294.771 228.127 293.951 228.127 292.941C228.127 291.93 240.693 291.111 256.193 291.111C271.694 291.111 284.259 291.93 284.259 292.941Z" fill="#344C82"/>
<path d="M271.884 211.288C271.741 212.579 271.324 214.44 271.023 215.923C270.632 217.845 269.654 217.789 269.725 217.003C269.751 216.713 270.322 212.198 270.389 211.921C270.448 211.678 270.159 211.709 270.054 212.679C270.051 212.683 269.782 213.833 269.586 214.858C269.111 217.355 268.216 216.802 268.212 216.138C268.211 215.893 268.54 211.907 268.545 211.666C268.547 211.559 268.442 209.843 268.382 209.361C268.201 208.55 268.056 208.442 267.943 208.866C267.703 210.852 267.274 212.114 266.698 211.745C266.226 211.442 266.573 209.349 266.633 207.9C266.669 207.008 267.357 205.081 267.965 204.296C268.659 202.363 269.887 199.404 271.691 201.248C273.29 202.881 274.362 205.187 274.709 206.509C274.757 206.633 274.81 207.009 274.819 207.177C274.909 208.794 274.837 209.764 274.732 211.307C274.578 213.578 273.794 214.153 273.744 213.536C273.728 213.344 273.947 209.771 273.639 210.396C273.597 211.674 273.14 213.207 272.968 214.687C272.741 216.644 271.804 216.488 271.809 215.697C271.81 215.406 272.156 211.832 272.163 211.545C272.165 211.491 272.18 211.131 272.02 211.11C271.948 211.099 271.896 211.198 271.884 211.288Z" fill="#EDBDA3"/>
<path d="M208.487 128.243L227.207 143.884L224.922 142.643L242.622 146.879L240.663 160.937L222.59 152.387L221.129 152.038L220.304 151.147L203.734 133.244L208.487 128.243Z" fill="#F6B551"/>
<path d="M261.991 194.695C261.991 194.695 268.241 220.546 269.716 242.501C269.716 242.501 264.043 247.258 258.721 248.016C258.721 248.016 249.512 227.547 242.438 207.926L261.991 194.695Z" fill="#DECDCF"/>
<path d="M256.193 200.262C256.193 200.262 250.37 225.895 240.945 247.699C240.945 247.699 234.476 248.743 229.37 247.042C229.37 247.042 231.298 215.46 234.599 193.348L256.193 200.262Z" fill="#DECDCF"/>
<path d="M244.528 144.949C245.974 144.001 245.403 140.69 245.276 138.912L253.858 132.326C253.892 132.55 253.897 139.43 253.932 139.66C254.423 142.831 259.935 146.308 260.494 146.621C263.852 148.5 258.981 165.576 241.959 156.205C241.886 156.167 241.815 156.126 241.744 156.081C238.334 154.152 241.61 146.862 244.528 144.949Z" fill="#EDBDA3"/>
<path d="M233.021 161.893C233.097 160.433 233.659 151.524 238.94 147.843C240.895 146.48 244.528 144.949 244.528 144.949C244.873 145.981 245.176 147.843 248.295 147.893C254.889 147.999 256.627 143.677 256.627 143.677C260.944 147.07 262.279 146.624 263.563 147.743C267.642 151.298 270.486 152.97 265.226 166.477L261.903 182.26L263.565 196.382C248.746 203.417 239.289 203.126 234.1 196.54C234.1 196.54 232.19 177.676 233.021 161.893Z" fill="#F6B551"/>
<path d="M252.117 148.597L247.148 154.034L244.034 148.681L252.117 148.597Z" fill="white"/>
<path d="M249.594 148.909C249.594 148.909 247.812 151.776 245.187 148.555L247.626 147.85L249.594 148.909Z" fill="#735846"/>
<path d="M274.043 204.632C274.065 204.523 274.093 204.386 274.122 204.236C274.088 204.405 274.063 204.533 274.043 204.632Z" fill="#F6B551"/>
<path d="M273.996 204.864C273.994 204.873 273.994 204.874 273.996 204.864V204.864Z" fill="#F6B551"/>
<path d="M273.997 204.864C273.999 204.849 274.006 204.816 274.016 204.766C274.006 204.818 273.999 204.85 273.997 204.864Z" fill="#F6B551"/>
<path d="M274.123 204.236C274.137 204.162 274.154 204.082 274.171 203.994C274.154 204.076 274.138 204.157 274.123 204.236Z" fill="#F6B551"/>
<path d="M274.017 204.765C274.024 204.73 274.033 204.686 274.044 204.632C274.033 204.683 274.024 204.729 274.017 204.765Z" fill="#F6B551"/>
<path d="M274.171 203.993C274.181 203.941 274.192 203.889 274.202 203.838C274.192 203.891 274.18 203.945 274.171 203.993Z" fill="#F6B551"/>
<path d="M277.782 177.119C275.931 172.46 273.076 162.013 269.425 154.022C266.054 146.643 256.324 141.787 259.821 157.848C260.913 162.863 264.859 173.283 268.291 179.639L267.689 203.162C269.321 203.294 274.364 203.029 274.364 203.029C275.195 198.876 277.782 177.119 277.782 177.119Z" fill="#F6B551"/>
<path d="M274.344 203.129C274.336 203.171 274.326 203.225 274.312 203.286C274.323 203.235 274.333 203.183 274.344 203.129Z" fill="#F6B551"/>
<path d="M274.202 203.836C274.229 203.702 274.258 203.559 274.291 203.395C274.264 203.525 274.234 203.678 274.202 203.836Z" fill="#F6B551"/>
<path d="M274.364 203.029C274.357 203.065 274.351 203.094 274.344 203.128C274.357 203.065 274.364 203.029 274.364 203.029Z" fill="#F6B551"/>
<path d="M267.383 203.185C267.383 203.185 272.545 202.804 274.625 202.352C274.625 202.352 275.078 204.454 274.264 205.21C273.45 205.965 268.42 206.276 267.8 205.612C267.241 205.011 267.383 203.185 267.383 203.185Z" fill="#F2F2F2"/>
<path d="M268.218 204.607C268.382 204.677 268.571 204.6 268.641 204.436C268.71 204.271 268.633 204.082 268.469 204.012C268.305 203.943 268.115 204.02 268.046 204.184C267.976 204.349 268.053 204.538 268.218 204.607Z" fill="#F6B551"/>
<path d="M210.626 128.958C210.626 128.958 206.443 133.452 204.998 135.523C204.998 135.523 202.908 134.058 203.007 132.746C203.105 131.432 207.23 127.105 208.305 127.184C209.277 127.255 210.626 128.958 210.626 128.958Z" fill="#F2F2F2"/>
<path d="M204.614 132.753C204.415 132.825 204.313 133.044 204.385 133.244C204.457 133.442 204.676 133.545 204.875 133.473C205.074 133.401 205.177 133.181 205.105 132.983C205.033 132.784 204.812 132.681 204.614 132.753Z" fill="#F6B551"/>
<path d="M249.717 226.328C249.338 225.77 248.996 225.194 248.645 224.624C248.302 224.048 247.975 223.465 247.648 222.881C247.012 221.706 246.388 220.524 245.808 219.319L245.959 219.474C244.174 218.504 242.416 217.483 240.735 216.317C242.646 217.048 244.481 217.923 246.289 218.849L246.385 218.898L246.44 219.004C247.059 220.188 247.632 221.396 248.192 222.609C248.464 223.22 248.736 223.831 248.991 224.45C249.239 225.073 249.496 225.691 249.717 226.328Z" fill="#0D1017"/>
<path d="M278.547 274.986L258.583 247.744L266.396 237.663C266.396 237.663 273.37 243.425 275.879 249.191C280.909 260.749 283.897 267.018 285.653 270.418C283.611 272.214 281.055 274.103 278.547 274.986Z" fill="#DECDCF"/>
<path d="M281.999 279.697L278.547 274.986C281.055 274.102 283.611 272.214 285.653 270.417C287.645 274.274 288.051 274.438 288.051 274.438C288.051 274.438 286.752 278.104 281.999 279.697Z" fill="#EDBDA3"/>
<path d="M225.952 281.922L229.663 245.363L241.252 243.906C241.252 243.906 241.849 258.959 239.878 264.931C237.014 273.606 235.368 279.232 234.426 282.877C231.847 282.836 228.6 282.619 225.952 281.922Z" fill="#DECDCF"/>
<path d="M233.305 288.031C233.305 288.031 229.751 290.816 225.28 288.549L225.953 281.92C228.6 282.617 231.848 282.834 234.427 282.876C233.268 287.814 233.305 288.031 233.305 288.031Z" fill="#EDBDA3"/>
<path d="M245.048 120.505C245.048 120.505 241.764 122.471 241.86 126.101C241.883 127.021 240.751 131.671 240.751 131.671C240.182 137.43 243.718 141.264 245.083 141.314C248.372 141.434 251.054 139.794 252.682 138.242C255.673 135.39 257.469 125.689 255.127 122.501C251.982 118.216 246.644 118.585 245.048 120.505Z" fill="#EDBDA3"/>
<path d="M240.721 133.764C240.721 133.764 241.608 134.292 243.466 133.704C244.646 133.33 246.404 132.09 246.781 132.876C248.495 136.443 248.43 140.788 245.359 141.318C242.289 141.848 240.292 135.057 240.721 133.764Z" fill="#735846"/>
<path d="M253.596 131.695C253.497 130.959 253.083 126.821 253.336 125.98C253.206 125.892 252.966 125.846 252.673 125.828C251.225 125.736 250.09 124.543 250.034 123.094C250.034 123.094 247.236 123.157 244.402 122.6C240.743 121.88 241.703 117.722 241.775 117.704C242.745 117.458 250.583 116.224 255.049 119.135C259.433 121.993 257.318 128.987 256.926 130.157C256.892 130.261 256.797 130.327 256.687 130.331L253.868 131.923C253.732 131.927 253.614 131.83 253.596 131.695Z" fill="#735846"/>
<path d="M256.776 120.929C256.776 120.929 260.246 122.866 257.51 129.576C257.51 129.576 255.255 127.361 256.776 120.929Z" fill="#735846"/>
<path d="M242.401 126.712C242.401 126.712 241.024 129.483 239.052 131.29C238.39 131.897 240.388 133.882 241.262 133.969C243.201 134.163 242.401 126.712 242.401 126.712Z" fill="#EDBDA3"/>
<path d="M257.186 132.681C256.288 134.251 254.66 134.936 253.549 134.211C252.439 133.486 252.265 131.625 253.163 130.055C254.06 128.486 255.689 127.801 256.8 128.526C257.911 129.251 258.084 131.112 257.186 132.681Z" fill="#EDBDA3"/>
<path d="M252.809 136.52C252.64 137.229 252.291 137.891 251.852 138.48C251.411 139.07 250.868 139.592 250.241 139.989C249.611 140.372 248.937 140.705 248.213 140.853C247.861 140.961 247.49 140.978 247.132 141.04C246.767 141.062 246.402 141.061 246.041 141.057C246.757 140.932 247.464 140.819 248.136 140.585C248.817 140.38 249.448 140.054 250.044 139.685C250.644 139.316 251.162 138.83 251.635 138.306C252.103 137.774 252.501 137.176 252.809 136.52Z" fill="#CC8972"/>
<path d="M245.359 134.292C245.145 134.838 244.7 135.283 244.164 135.551C243.627 135.82 242.964 135.857 242.431 135.619C242.723 135.582 242.996 135.572 243.257 135.496C243.517 135.428 243.769 135.348 244.006 135.225C244.487 134.997 244.918 134.668 245.359 134.292Z" fill="#EDBDA3"/>
<path d="M243.547 129.04C243.529 129.349 243.681 129.61 243.887 129.622C244.094 129.634 244.276 129.393 244.294 129.084C244.312 128.775 244.16 128.514 243.953 128.501C243.747 128.489 243.565 128.73 243.547 129.04Z" fill="#735846"/>
<path d="M256.222 129.434C255.806 129.412 255.39 129.492 255.079 129.707C254.924 129.815 254.801 129.957 254.71 130.12C254.61 130.277 254.562 130.464 254.508 130.647L254.402 130.443C254.595 130.522 254.769 130.611 254.939 130.743C255.088 130.869 255.307 131.072 255.252 131.388C255.225 131.534 255.134 131.634 255.057 131.712L254.844 131.905C254.772 131.969 254.694 132.028 254.614 132.086C254.516 132.145 254.492 132.195 254.3 132.251L254.411 132.141C254.375 132.511 254.416 132.941 254.704 133.249C254.52 133.146 254.382 132.963 254.295 132.764C254.204 132.562 254.172 132.349 254.169 132.119L254.28 132.008C254.266 132 254.387 131.922 254.436 131.867L254.63 131.676C254.758 131.542 254.917 131.402 254.909 131.322C254.934 131.247 254.844 131.124 254.715 131.025C254.587 130.925 254.427 130.834 254.274 130.769L254.263 130.764C254.184 130.73 254.145 130.644 254.167 130.564C254.228 130.349 254.31 130.136 254.444 129.948C254.565 129.752 254.755 129.602 254.954 129.497C255.36 129.284 255.83 129.296 256.222 129.434Z" fill="#CC8972"/>
<path d="M245.628 127.645C245.797 127.431 245.708 126.744 244.8 126.323C244.294 126.088 243.835 126.226 243.77 126.266C243.633 126.35 243.564 126.551 243.625 126.709C243.734 126.992 244.157 126.889 244.694 127.256C245.079 127.52 244.926 127.584 245.31 127.705C245.347 127.718 245.528 127.773 245.628 127.645Z" fill="#735846"/>
<path d="M254.531 141.22C254.531 141.22 251.481 146.409 247.625 147.848C247.625 147.848 250.1 149.098 251.894 150.312C251.894 150.312 257.17 145.302 257.51 144.348C257.51 144.348 257.129 141.982 254.531 141.22Z" fill="white"/>
<path d="M245.298 143.769L244.758 145.662L247.625 147.85C247.625 147.85 245.319 148.871 244.263 149.517C244.263 149.517 243.032 148.147 243.011 145.852C243.011 145.852 243.488 144.265 245.298 143.769Z" fill="white"/>
<path d="M254.938 120.323C254.938 120.323 253.112 117.437 243.969 115.805C243.969 115.805 242.452 120.133 254.938 120.323Z" fill="#735846"/>
<path d="M256.157 120.086C256.157 120.086 254.434 117.733 248.949 116.168C248.949 116.168 248.541 119.195 256.157 120.086Z" fill="#735846"/>
<path d="M255.371 120.701C255.371 120.701 255.362 119.433 257.141 118.063C257.141 118.063 258.09 119.623 255.371 120.701Z" fill="#735846"/>
<path d="M255.34 120.519C255.34 120.519 256.245 119.631 258.466 119.958C258.466 119.958 258.005 121.723 255.34 120.519Z" fill="#735846"/>
<path d="M242.508 129.043C242.508 130.2 243.215 131.138 244.087 131.138C244.96 131.138 245.667 130.2 245.667 129.043C245.667 127.886 244.96 126.948 244.087 126.948C243.215 126.948 242.508 127.886 242.508 129.043Z" stroke="#F2F2F2" stroke-width="0.493368" stroke-miterlimit="10"/>
<path d="M242.555 128.501C242.555 128.501 242.322 127.864 241.538 127.991" stroke="#F2F2F2" stroke-width="0.493368" stroke-miterlimit="10"/>
<path d="M246.915 133.272C246.915 133.272 248.452 135.055 248.348 136.661C248.348 136.661 246.708 134.952 246.915 133.272Z" fill="#735846"/>
<path d="M241.538 134.09C241.538 134.09 243.594 131.839 245.146 132.743C245.146 132.743 243.142 135.231 241.538 134.09Z" fill="#735846"/>
<path d="M247.299 134.39C247.299 134.39 248.71 136.548 247.998 138.055C247.998 138.055 246.421 135.936 247.299 134.39Z" fill="#735846"/>
<path d="M247.409 149.517L249.594 151.357L247.148 154.034L245.318 150.889L247.409 149.517Z" fill="#735846"/>
<path d="M223.587 288.696C223.589 288.695 223.589 288.693 223.592 288.693C225.004 288.036 224.483 285.882 226.205 287.097C227.311 287.876 227.894 289.279 229.044 289.433C231.589 289.371 233.305 288.031 233.305 288.031L233.586 288.013C233.586 288.013 234.821 290.189 234.467 294.455C234.447 294.694 234.25 294.886 234.012 294.899L229.549 295.154C225.32 293.717 226.3 296.387 214.35 294.923C214.139 294.897 213.959 294.738 213.926 294.527C213.738 293.306 213.885 289.323 223.587 288.696Z" fill="#735846"/>
<path d="M279.971 280.257C279.973 280.254 279.972 280.253 279.974 280.251C280.689 278.868 278.959 277.482 281.065 277.39C282.417 277.33 283.736 278.083 284.74 277.502C286.715 275.897 287.253 273.787 287.253 273.787L287.464 273.601C287.464 273.601 289.772 274.567 292.1 278.159C292.23 278.36 292.192 278.632 292.011 278.789L288.636 281.719C284.411 283.169 286.819 284.682 276.47 290.831C276.286 290.941 276.046 290.924 275.892 290.777C274.999 289.927 272.679 286.686 279.971 280.257Z" fill="#735846"/>
<path d="M245.591 129.062L253.482 129.576" stroke="#F2F2F2" stroke-width="0.493368" stroke-miterlimit="10"/>
<path d="M264.078 170.514C263.445 169.221 262.969 167.878 262.53 166.522C262.108 165.162 261.725 163.79 261.5 162.367C262.134 163.66 262.611 165.003 263.048 166.359C263.469 167.719 263.852 169.092 264.078 170.514Z" fill="#B58C40"/>
<path d="M235 152.968C234.794 153.773 234.578 154.526 234.355 155.291C234.124 156.053 233.908 156.816 233.574 157.583C233.482 156.75 233.61 155.928 233.834 155.137C234.078 154.356 234.414 153.576 235 152.968Z" fill="#B58C40"/>
<path d="M254.286 158.997C253.735 160.959 253.068 162.885 252.356 164.796C251.642 166.705 250.836 168.58 249.986 170.436C249.092 172.27 248.154 174.093 247.01 175.795C246.434 176.643 245.809 177.463 245.086 178.198C244.364 178.902 243.48 179.609 242.431 179.639C243.455 179.483 244.242 178.766 244.892 178.016C245.557 177.263 246.134 176.431 246.658 175.569C247.713 173.846 248.645 172.044 249.495 170.204C250.381 168.38 251.174 166.511 251.969 164.641C252.76 162.77 253.523 160.885 254.286 158.997Z" fill="#B58C40"/>
<path d="M237.065 168.387C237.386 170.561 237.712 172.731 238.076 174.893C238.442 177.053 238.811 179.214 239.288 181.35C239.724 183.494 240.254 185.619 240.924 187.695C241.26 188.733 241.64 189.757 242.122 190.733C242.593 191.708 243.174 192.656 244.035 193.346C243.096 192.754 242.442 191.804 241.886 190.857C241.347 189.888 240.917 188.865 240.529 187.831C239.768 185.755 239.237 183.61 238.757 181.462C238.322 179.303 237.943 177.134 237.665 174.952C237.386 172.773 237.162 170.584 237.065 168.387Z" fill="#B58C40"/>
<path d="M259.852 181.901C259.378 182.023 258.916 182.162 258.447 182.262C257.98 182.373 257.51 182.462 257.044 182.557L255.649 182.825C255.427 182.875 255.182 182.927 255.022 183.012C254.996 183.037 254.981 183.02 254.975 183.022C254.976 183.043 255.013 183.084 255.059 183.116C255.151 183.178 255.261 183.234 255.37 183.292C255.246 183.29 255.123 183.284 254.996 183.246C254.933 183.225 254.862 183.204 254.797 183.124C254.712 183.013 254.79 182.874 254.84 182.817C255.062 182.604 255.291 182.517 255.524 182.419C255.987 182.235 256.463 182.121 256.94 182.024C257.897 181.858 258.871 181.744 259.852 181.901Z" fill="#B58C40"/>
<path d="M259.272 182.595C258.871 183.117 258.408 183.521 257.968 183.932C257.748 184.132 257.527 184.337 257.358 184.542C257.279 184.646 257.21 184.747 257.215 184.831C257.198 184.936 257.332 185.042 257.464 185.137C257.305 185.15 257.105 185.131 256.969 184.932C256.849 184.717 256.922 184.493 256.988 184.333C257.136 183.998 257.367 183.759 257.6 183.533C258.086 183.103 258.632 182.764 259.272 182.595Z" fill="#B58C40"/>
<path opacity="0.23" d="M77.0485 119.163C75.9119 119.234 74.8926 119.274 73.9704 119.304C68.354 131.484 65.0245 144.933 64.5269 159.104C65.2129 159.959 65.6584 160.474 65.6584 160.474C65.6584 160.474 73.1352 151.669 75.4801 138.789C77.3948 128.273 84.3724 130.799 90.2635 130.963C100.105 131.237 102.207 127.729 95.1961 120.897C88.0446 113.926 86.1096 118.599 77.0485 119.163Z" fill="#B11B39"/>
<path d="M65.6586 156.359C65.6586 156.359 54.7966 143.852 57.0821 138.516C59.3677 133.18 57.2871 126.729 61.8452 120.504C66.4026 114.279 67.9876 115.611 77.0487 115.048C86.1098 114.486 88.0447 109.813 95.1962 116.782C102.207 123.615 100.105 127.122 90.2636 126.848C84.3726 126.684 77.3942 124.158 75.4803 134.674C73.1354 147.553 65.6586 156.359 65.6586 156.359Z" fill="#F8D3DA"/>
<path d="M51.6148 148.9C54.8117 147.087 52.0988 138.206 46.9068 133.493C43.3202 130.238 39.6481 132.985 34.4351 128.754C30.7529 125.765 30.9543 123.071 28.0385 122.435C24.5938 121.684 23.2616 125.215 17.7784 126.321C12.501 127.384 11.1978 124.623 7.9328 125.964C1.94471 128.424 -2.30113 141.256 1.36155 145.18C3.60292 147.58 9.10202 140.338 15.0633 142.814C18.0342 144.047 17.9574 146.282 20.9246 147.033C25.0814 148.087 27.196 144.202 31.5635 143.465C40.0059 142.041 48.0405 150.928 51.6148 148.9Z" fill="#F8D3DA"/>
<path d="M73.0875 208.66C72.2624 204.631 71.3837 200.615 70.4158 196.619C69.4763 192.619 68.4505 188.638 67.3479 184.68C65.1348 176.774 62.7253 168.897 59.5191 161.349C57.9217 157.582 56.165 153.86 53.8142 150.521L52.014 148.038C51.3925 147.228 50.705 146.469 50.0537 145.682C49.7169 145.298 49.4097 144.886 49.0482 144.525L47.9753 143.43C47.264 142.696 46.5656 141.948 45.7803 141.292C42.7689 138.53 39.3822 136.164 35.7138 134.346C32.0583 132.522 28.1232 131.14 24.0273 130.71C28.1442 130.977 32.1336 132.296 35.8688 134.026C39.601 135.795 43.0601 138.134 46.152 140.877C46.9575 141.529 47.6762 142.272 48.4078 143.003L49.5017 144.104C49.869 144.468 50.1819 144.882 50.5253 145.269C51.1882 146.061 51.888 146.826 52.5211 147.643L54.3546 150.144C56.7626 153.526 58.5599 157.282 60.1848 161.066C61.7756 164.873 63.1788 168.752 64.4285 172.677C65.6824 176.599 66.8647 180.545 67.8832 184.534C69.9747 192.498 71.7263 200.547 73.0875 208.66Z" fill="#40635B"/>
<path d="M74.8288 208.427C73.4654 201.5 72.168 194.561 70.8749 187.622L67.0891 166.787C65.9046 159.828 64.6746 152.874 63.7321 145.869C63.2829 142.366 62.8606 138.85 62.7795 135.305C62.7599 133.536 62.8244 131.749 63.2156 130.01C63.4307 129.147 63.7386 128.301 64.203 127.541C64.668 126.781 65.2947 126.134 65.9995 125.605C65.3164 126.163 64.7224 126.832 64.2971 127.598C63.8647 128.36 63.5879 129.198 63.4032 130.052C63.0714 131.774 63.0613 133.543 63.1344 135.296C63.2866 138.808 63.7683 142.307 64.2834 145.792C65.3381 152.764 66.561 159.714 67.8012 166.662L71.4204 187.525C72.6005 194.485 73.7603 201.449 74.8288 208.427Z" fill="#40635B"/>
<path d="M65.3636 182.949C65.3636 182.949 66.4285 169.155 62.1645 166.853C57.9006 164.551 55.9128 159.253 49.7023 157.549C43.4918 155.844 43.147 157.538 36.9307 161.872C30.7144 166.207 27.0242 164.156 25.9658 172.424C24.9284 180.53 28.1231 181.731 34.4148 176.445C38.181 173.281 41.4323 168.008 48.1419 173.89C56.3597 181.094 65.3636 182.949 65.3636 182.949Z" fill="#F8D3DA"/>
<path d="M71.2765 208.881L70.7463 205.933L70.1776 202.995L69.5821 200.065L68.9251 197.149C68.0116 193.272 66.9894 189.419 65.6753 185.667C64.4134 181.898 62.8711 178.222 60.9477 174.751C60.4993 173.863 59.948 173.039 59.4199 172.199C58.9186 171.338 58.2804 170.577 57.6987 169.772L57.256 169.172L56.7649 168.613L55.7804 167.492C55.4696 167.1 55.0676 166.8 54.714 166.45L53.6245 165.422C54.3866 166.062 55.2016 166.656 55.9166 167.356L56.9692 168.43L57.4966 168.968L57.9761 169.547C58.5941 170.336 59.2649 171.092 59.8002 171.942C60.3624 172.773 60.9492 173.591 61.4316 174.472C63.4803 177.93 65.0356 181.653 66.3606 185.432C67.6276 189.235 68.6664 193.109 69.4677 197.029C70.2689 200.951 70.8745 204.907 71.2765 208.881Z" fill="#40635B"/>
<path opacity="0.11" d="M75.3252 297.207C109.985 297.207 138.083 292.923 138.083 287.639C138.083 282.355 109.985 278.072 75.3252 278.072C40.6651 278.072 12.5676 282.355 12.5676 287.639C12.5676 292.923 40.6651 297.207 75.3252 297.207Z" fill="#344C82"/>
<path d="M21.084 188.885L12.5676 285.543H33.2014L21.084 188.885Z" fill="#ABBAC2"/>
<path d="M22.3706 207.239C22.3706 207.239 25.4212 289.25 30.495 292.182C35.5689 295.114 124.451 298.442 144.409 280.704C144.409 280.704 136.838 269.19 135.007 259.167C133.176 249.145 128.941 199.825 128.941 199.825L22.3706 207.239Z" fill="white"/>
<path d="M58.4326 231.844L42.1033 234.058L40.8906 216.764L57.8755 215.574L58.4326 231.844Z" stroke="#CCCCCC" stroke-width="0.674" stroke-miterlimit="10"/>
<path d="M80.274 231.38L63.2892 232.571L61.9939 214.096L79.0613 214.087L80.274 231.38Z" stroke="#CCCCCC" stroke-width="0.674" stroke-miterlimit="10"/>
<path d="M100.795 228.747L84.4746 231.087L83.262 213.794L100.247 212.603L100.795 228.747Z" stroke="#CCCCCC" stroke-width="0.674" stroke-miterlimit="10"/>
<path d="M60.7652 256.785L43.7188 257.098L42.5061 239.805L59.4909 238.614L60.7652 256.785Z" stroke="#CCCCCC" stroke-width="0.674" stroke-miterlimit="10"/>
<path d="M81.8892 254.423L64.992 256.869L63.6917 238.32L80.6149 236.249L81.8892 254.423Z" stroke="#CCCCCC" stroke-width="0.674" stroke-miterlimit="10"/>
<path d="M103.163 254.192L86.0904 254.127L84.8777 236.834L101.863 235.643L103.163 254.192Z" stroke="#CCCCCC" stroke-width="0.674" stroke-miterlimit="10"/>
<path d="M62.3189 278.948L45.3341 280.138L44.0808 262.265L61.1062 261.655L62.3189 278.948Z" stroke="#CCCCCC" stroke-width="0.674" stroke-miterlimit="10"/>
<path d="M120.939 211.169L103.954 212.359L105.166 229.653L122.151 228.463L120.939 211.169Z" stroke="#CCCCCC" stroke-width="0.674" stroke-miterlimit="10"/>
<path d="M122.555 234.21L105.57 235.4L106.781 252.694L123.767 251.504L122.555 234.21Z" stroke="#CCCCCC" stroke-width="0.674" stroke-miterlimit="10"/>
<path d="M125.387 274.526L108.402 275.717L107.81 257.29L124.174 257.233L125.387 274.526Z" stroke="#CCCCCC" stroke-width="0.674" stroke-miterlimit="10"/>
<path d="M83.5047 277.463L65.5744 276.988L65.3071 261.36L82.292 260.169L83.5047 277.463Z" stroke="#CCCCCC" stroke-width="0.674" stroke-miterlimit="10"/>
<path d="M104.691 275.977L87.7059 277.168L86.4932 259.875L103.437 258.104L104.691 275.977Z" stroke="#CCCCCC" stroke-width="0.674" stroke-miterlimit="10"/>
<path d="M127.655 181.469L21.0842 188.884L22.3708 207.238L128.942 199.823L127.655 181.469ZM41.0015 199.763C39.3231 199.881 37.867 198.616 37.7496 196.937C37.6322 195.259 38.8971 193.803 40.5756 193.685C42.2541 193.567 43.7102 194.833 43.8275 196.511C43.9449 198.19 42.68 199.646 41.0015 199.763ZM59.1484 198.491C57.4699 198.609 56.0138 197.344 55.8964 195.665C55.7791 193.987 57.0439 192.531 58.7224 192.413C60.4009 192.296 61.857 193.561 61.9743 195.239C62.0917 196.918 60.8269 198.373 59.1484 198.491ZM77.2952 197.218C75.6167 197.336 74.1606 196.071 74.0432 194.392C73.9259 192.714 75.1907 191.258 76.8692 191.141C78.5477 191.022 80.0038 192.288 80.1212 193.966C80.2385 195.645 78.9737 197.101 77.2952 197.218ZM95.442 195.946C93.7635 196.064 92.3074 194.799 92.1901 193.12C92.0727 191.442 93.3376 189.986 95.016 189.868C96.6945 189.751 98.1506 191.016 98.268 192.694C98.3853 194.373 97.1205 195.829 95.442 195.946ZM113.589 194.674C111.91 194.792 110.454 193.527 110.337 191.848C110.219 190.17 111.484 188.714 113.163 188.596C114.841 188.478 116.297 189.744 116.415 191.422C116.532 193.101 115.267 194.557 113.589 194.674Z" fill="#F6B551"/>
<path d="M74.5746 219.417C74.2356 220.266 73.7828 221.017 73.3032 221.745C72.8171 222.466 72.2876 223.151 71.7218 223.804C71.156 224.456 70.5519 225.076 69.9057 225.658C69.2523 226.235 68.572 226.788 67.7759 227.24C68.1135 226.389 68.5655 225.638 69.0458 224.911C69.5326 224.189 70.0614 223.504 70.6287 222.853C71.1959 222.202 71.8001 221.582 72.4462 221C73.0997 220.424 73.7799 219.871 74.5746 219.417Z" fill="#4D4D4D"/>
<path d="M75.087 226.729C74.2372 226.39 73.4867 225.937 72.7587 225.458C72.0371 224.971 71.3526 224.442 70.6999 223.876C70.0471 223.31 69.4278 222.706 68.8453 222.06C68.2687 221.407 67.7159 220.726 67.2632 219.93C68.1144 220.268 68.8656 220.72 69.5929 221.2C70.3145 221.687 70.999 222.216 71.6503 222.783C72.3016 223.35 72.9217 223.954 73.5034 224.601C74.0793 225.255 74.6328 225.934 75.087 226.729Z" fill="#4D4D4D"/>
<path d="M99.0326 263.724C98.6936 264.574 98.2408 265.324 97.7612 266.052C97.2752 266.774 96.7456 267.459 96.1798 268.111C95.6141 268.764 95.0099 269.383 94.3637 269.966C93.7103 270.542 93.03 271.095 92.2339 271.548C92.5715 270.697 93.0235 269.945 93.5038 269.218C93.9906 268.497 94.5194 267.812 95.0867 267.161C95.6539 266.51 96.2581 265.89 96.9043 265.308C97.5584 264.732 98.2379 264.178 99.0326 263.724Z" fill="#4D4D4D"/>
<path d="M99.545 271.036C98.6952 270.697 97.9447 270.244 97.2167 269.765C96.4951 269.279 95.8106 268.749 95.1579 268.183C94.5051 267.617 93.8858 267.013 93.3033 266.367C92.7267 265.714 92.174 265.033 91.7212 264.237C92.5724 264.575 93.3236 265.027 94.0509 265.507C94.7725 265.994 95.457 266.523 96.1083 267.09C96.7596 267.657 97.3797 268.261 97.9614 268.908C98.538 269.562 99.0907 270.241 99.545 271.036Z" fill="#4D4D4D"/>
<path d="M55.0036 243.945C54.6645 244.795 54.2118 245.545 53.7322 246.273C53.2461 246.995 52.7165 247.679 52.1508 248.332C51.585 248.985 50.9808 249.604 50.3346 250.186C49.6812 250.763 49.001 251.316 48.2048 251.769C48.5424 250.917 48.9945 250.166 49.4747 249.439C49.9608 248.717 50.4904 248.033 51.0576 247.382C51.6248 246.73 52.229 246.11 52.8752 245.528C53.5293 244.953 54.2096 244.399 55.0036 243.945Z" fill="#EB7A91"/>
<path d="M55.5164 251.256C54.6667 250.917 53.9162 250.464 53.1881 249.984C52.4666 249.498 51.782 248.969 51.1293 248.403C50.4766 247.837 49.8572 247.233 49.2748 246.587C48.6981 245.933 48.1454 245.253 47.6926 244.457C48.5438 244.795 49.2951 245.247 50.0224 245.727C50.7439 246.214 51.4285 246.743 52.0797 247.31C52.731 247.877 53.3511 248.481 53.9328 249.127C54.5087 249.781 55.0622 250.461 55.5164 251.256Z" fill="#EB7A91"/>
<path d="M127.576 285.542C128.581 284.77 129.52 283.936 130.429 283.083C131.329 282.22 132.183 281.316 132.956 280.351C133.738 279.391 134.398 278.346 134.984 277.259C135.555 276.159 135.962 274.988 136.291 273.758C136.242 275.02 136.006 276.309 135.497 277.496C134.993 278.68 134.323 279.797 133.521 280.802C131.894 282.788 129.876 284.457 127.576 285.542Z" fill="#CCCCCC"/>
<path d="M25.3938 209.839L25.9871 219.632L26.6246 229.42C27.081 235.942 27.5497 242.463 28.1676 248.97C28.7341 255.481 29.4404 261.98 30.3547 268.447C30.8205 271.679 31.3544 274.903 32.0621 278.088C32.2229 278.889 32.42 279.68 32.6257 280.468C32.8105 281.265 33.064 282.038 33.3002 282.819C33.4081 283.213 33.5639 283.59 33.7066 283.972C33.8609 284.348 33.9724 284.745 34.1622 285.106L34.6954 286.207L35.3814 287.221C34.2883 285.979 33.7087 284.401 33.1183 282.883C32.8554 282.107 32.5736 281.335 32.362 280.543C32.1288 279.757 31.9042 278.968 31.7158 278.171C30.9349 274.987 30.3373 271.763 29.8034 268.532C28.7718 262.063 28.0698 255.551 27.4461 249.036C26.8876 242.515 26.408 235.989 26.0704 229.454C25.7364 222.92 25.4764 216.382 25.3938 209.839Z" fill="#CCCCCC"/>
<path d="M22.3708 207.239L26.5036 206.949L25.3938 190.215L21.0842 188.885L22.3708 207.239Z" fill="#B58C40"/>
<path d="M30.3879 188.231C30.9588 186.996 31.7209 185.844 32.63 184.8C33.5479 183.772 34.6396 182.821 36.0015 182.264C36.6781 181.987 37.4185 181.814 38.1762 181.799C38.934 181.79 39.6917 181.944 40.3937 182.212C41.7969 182.782 42.9255 183.73 43.8593 184.842C44.8105 185.951 45.4538 187.4 45.5653 188.904C45.6827 190.413 45.2567 191.895 44.5606 193.147C43.8572 194.406 42.8879 195.47 41.7788 196.32C40.6661 197.156 39.4012 197.823 38.0516 198.061C39.2889 197.495 40.3633 196.689 41.2847 195.756C42.2055 194.826 42.9828 193.762 43.5073 192.609C44.0397 191.462 44.3005 190.221 44.173 189.027C44.0672 187.826 43.5217 186.711 42.7517 185.743C41.9722 184.773 40.9718 183.936 39.8888 183.425C38.7898 182.942 37.5539 182.876 36.3702 183.264C35.1887 183.653 34.0796 184.385 33.0929 185.261C32.1027 186.141 31.2007 187.145 30.3879 188.231Z" fill="#4D4D4D"/>
<path d="M48.6323 186.59C49.2032 185.355 49.9653 184.203 50.8744 183.159C51.7923 182.131 52.884 181.18 54.2459 180.623C54.9225 180.346 55.6629 180.173 56.4206 180.158C57.1784 180.149 57.9361 180.303 58.6381 180.571C60.0413 181.141 61.1699 182.089 62.1037 183.201C63.0549 184.31 63.6982 185.759 63.8097 187.263C63.9271 188.771 63.5011 190.254 62.805 191.505C62.1015 192.764 61.1323 193.829 60.0232 194.679C58.9104 195.515 57.6456 196.182 56.296 196.42C57.534 195.853 58.6076 195.048 59.5291 194.115C60.4499 193.185 61.2272 192.12 61.7516 190.968C62.2841 189.821 62.5449 188.579 62.4174 187.386C62.3116 186.185 61.7661 185.07 60.9961 184.103C60.2166 183.133 59.2162 182.296 58.1331 181.784C57.0342 181.301 55.7983 181.236 54.6146 181.624C53.4331 182.013 52.324 182.745 51.3373 183.622C50.3478 184.5 49.4459 185.504 48.6323 186.59Z" fill="#4D4D4D"/>
<path d="M67.0098 185.755C67.5241 184.614 68.2181 183.551 69.049 182.585C69.8886 181.635 70.8905 180.753 72.1481 180.236C72.7726 179.977 73.4579 179.816 74.1606 179.8C74.8625 179.79 75.5659 179.932 76.2165 180.179C77.5175 180.705 78.5585 181.58 79.4228 182.607C80.3029 183.63 80.8977 184.974 81.0006 186.367C81.1078 187.764 80.7101 189.135 80.0646 190.289C79.4112 191.449 78.5143 192.426 77.4878 193.203C76.4584 193.967 75.2899 194.574 74.0461 194.778C75.1776 194.244 76.1556 193.499 76.9938 192.639C77.8312 191.782 78.5368 190.804 79.0113 189.751C79.4938 188.703 79.7256 187.573 79.6082 186.49C79.5119 185.4 79.0142 184.39 78.3151 183.507C77.6059 182.623 76.6931 181.859 75.7115 181.392C74.7147 180.952 73.5977 180.888 72.5176 181.236C71.4403 181.586 70.4211 182.249 69.5127 183.047C68.5999 183.847 67.7661 184.764 67.0098 185.755Z" fill="#4D4D4D"/>
<path d="M85.0188 184.155C85.5302 183.02 86.2206 181.961 87.0465 181C87.8817 180.054 88.8785 179.176 90.1303 178.661C90.7519 178.403 91.4343 178.242 92.1334 178.226C92.8324 178.217 93.5322 178.357 94.1799 178.603C95.4751 179.126 96.5118 179.997 97.3717 181.02C98.2482 182.039 98.8401 183.377 98.9422 184.764C99.0494 186.155 98.6525 187.519 98.0099 188.668C97.3594 189.823 96.4661 190.795 95.4447 191.568C94.4196 192.328 93.2562 192.93 92.0182 193.133C93.1439 192.601 94.1161 191.86 94.9506 191.003C95.783 190.15 96.485 189.178 96.9573 188.13C97.4369 187.087 97.6672 185.964 97.5506 184.886C97.4543 183.803 96.9602 182.799 96.2647 181.921C95.5592 181.04 94.6515 180.281 93.6757 179.817C92.6847 179.379 91.5734 179.315 90.4991 179.661C89.4276 180.009 88.4134 180.668 87.5094 181.462C86.6024 182.257 85.7722 183.169 85.0188 184.155Z" fill="#4D4D4D"/>
<path d="M104.092 182.693C104.59 181.579 105.265 180.541 106.074 179.597C106.892 178.669 107.869 177.806 109.097 177.299C109.707 177.046 110.377 176.887 111.064 176.871C111.751 176.861 112.438 176.999 113.074 177.241C114.347 177.754 115.364 178.608 116.208 179.612C117.069 180.611 117.651 181.926 117.751 183.288C117.855 184.654 117.465 185.994 116.833 187.12C116.195 188.253 115.317 189.205 114.314 189.962C113.308 190.706 112.166 191.295 110.952 191.491C112.054 190.966 113.005 190.238 113.82 189.398C114.634 188.561 115.32 187.609 115.78 186.583C116.248 185.562 116.473 184.463 116.358 183.411C116.264 182.352 115.78 181.371 115.101 180.512C114.411 179.652 113.523 178.908 112.569 178.454C111.602 178.026 110.517 177.962 109.466 178.299C108.418 178.639 107.424 179.282 106.537 180.059C105.647 180.837 104.832 181.729 104.092 182.693Z" fill="#4D4D4D"/>
<path d="M68.2816 245.598C68.2251 247.432 68.7155 249.276 69.7681 250.739C70.7881 252.198 72.4043 253.3 74.1574 253.362C75.8997 253.411 77.6129 252.604 78.8539 251.359C80.0847 250.12 80.9786 248.45 80.9866 246.716C81.0518 244.993 80.1491 243.314 78.8655 242.133C77.5897 240.945 75.8026 240.209 74.0951 240.549C72.3862 240.882 70.9837 242.288 70.3404 243.945C69.6435 245.603 69.6696 247.535 70.3129 249.255C69.516 247.596 69.3907 245.601 70.0086 243.819C70.6179 242.055 72.0508 240.462 73.977 240.005C74.926 239.775 75.9402 239.854 76.8501 240.175C77.7651 240.491 78.5952 241.006 79.3081 241.644C80.7156 242.911 81.7566 244.746 81.7095 246.732C81.6682 248.705 80.6606 250.503 79.3131 251.831C77.957 253.148 76.075 254.062 74.1226 253.916C72.1616 253.769 70.4795 252.502 69.4747 250.937C68.4765 249.343 68.0628 247.425 68.2816 245.598Z" fill="#F6B551"/>
<path d="M116.583 213.902C114.762 213.676 112.88 213.993 111.326 214.906C109.78 215.787 108.532 217.294 108.308 219.034C108.099 220.764 108.743 222.546 109.868 223.896C110.988 225.236 112.568 226.281 114.294 226.449C116.003 226.673 117.759 225.93 119.054 224.761C120.354 223.6 121.253 221.889 121.072 220.157C120.898 218.425 119.628 216.898 118.038 216.105C116.452 215.258 114.525 215.104 112.753 215.586C114.479 214.946 116.477 215.006 118.195 215.786C119.894 216.556 121.349 218.13 121.626 220.09C121.767 221.057 121.595 222.059 121.191 222.936C120.792 223.818 120.202 224.597 119.5 225.248C118.108 226.532 116.186 227.398 114.212 227.168C112.251 226.944 110.555 225.775 109.358 224.31C108.172 222.837 107.436 220.879 107.762 218.949C108.089 217.009 109.506 215.452 111.158 214.596C112.837 213.749 114.785 213.515 116.583 213.902Z" fill="#F6B551"/>
<path d="M72.1936 246.911C73.0615 247.468 73.8518 248.109 74.6255 248.767L74.1445 248.816C74.4335 248.354 74.745 247.912 75.0594 247.471C75.3847 247.037 75.7042 246.598 76.057 246.185C76.4032 245.767 76.764 245.359 77.153 244.973C77.5406 244.592 77.9484 244.204 78.4389 243.945C78.0824 244.359 77.8043 244.816 77.4935 245.256L76.58 246.585C75.9635 247.465 75.3311 248.336 74.6682 249.183L74.4306 249.487L74.1872 249.232C73.4853 248.496 72.8007 247.744 72.1936 246.911Z" fill="#F6B551"/>
<path opacity="0.23" d="M212.313 80.9019C214.211 81.919 216.068 83.0013 217.884 84.1437C220.498 83.1781 224.798 81.099 229.262 78.3592C220.88 72.3182 211.565 67.4928 201.572 64.1445C205.453 70.4485 209.544 76.9357 212.313 80.9019Z" fill="#B11B39"/>
<path d="M197.746 47.7945C197.746 47.7945 220.27 85.8275 222.53 86.3715C224.788 86.9149 251.694 73.8687 252.86 62.254C252.86 62.254 247.606 58.0878 244.426 53.6797C241.247 49.2716 226.998 26.7935 226.998 26.7935L197.746 47.7945Z" fill="white"/>
<path d="M249.207 67.2934C249.25 66.0793 249.273 64.9347 249.175 63.7865C249.139 63.2135 249.066 62.6441 248.973 62.0725C248.891 61.4958 248.751 60.9322 248.651 60.3237C249.024 60.8047 249.328 61.3495 249.521 61.932C249.734 62.5093 249.845 63.12 249.897 63.7321C249.939 64.3457 249.919 64.9637 249.805 65.5664C249.697 66.1669 249.518 66.7624 249.207 67.2934Z" fill="#ABBAC2"/>
<path d="M205.13 50.6302L207.788 48.783L210.464 46.9705L215.813 43.3541C217.604 42.1596 219.367 40.9309 221.134 39.7052C222.893 38.4686 224.638 37.2146 226.291 35.8252C225.921 36.2171 225.55 36.6126 225.164 36.9908L223.974 38.0955C223.149 38.7932 222.318 39.4872 221.467 40.1529C219.769 41.4909 218.006 42.742 216.22 43.954C214.425 45.1543 212.617 46.333 210.763 47.4384C208.914 48.5504 207.05 49.6378 205.13 50.6302Z" fill="#ABBAC2"/>
<path d="M208.171 54.6427L210.828 52.7954L213.504 50.9836L218.854 47.3673C220.644 46.1727 222.408 44.9441 224.175 43.7184C225.934 42.4818 227.679 41.2278 229.331 39.8384C228.962 40.2303 228.591 40.6258 228.204 41.004L227.014 42.1087C226.189 42.8063 225.358 43.5003 224.507 44.1661C222.809 45.5041 221.046 46.7552 219.26 47.9671C217.466 49.1675 215.658 50.3461 213.804 51.4516C211.955 52.5629 210.09 53.6502 208.171 54.6427Z" fill="#ABBAC2"/>
<path d="M211.212 58.6556L213.869 56.8084L216.545 54.9966L221.895 51.3795C223.685 50.185 225.449 48.9563 227.216 47.7306C228.975 46.494 230.72 45.24 232.372 43.8506C232.003 44.2425 231.632 44.638 231.244 45.0162L230.055 46.1209C229.23 46.8186 228.399 47.5126 227.547 48.1783C225.849 49.5163 224.086 50.7674 222.3 51.9793C220.506 53.1797 218.698 54.3584 216.844 55.4638C214.995 56.5758 213.131 57.6632 211.212 58.6556Z" fill="#ABBAC2"/>
<path d="M214.253 62.6676L216.91 60.8203L219.586 59.0085L224.936 55.3922C226.726 54.1976 228.49 52.969 230.257 51.7433C232.016 50.5067 233.761 49.2527 235.413 47.8633C235.044 48.2552 234.673 48.6507 234.285 49.0289L233.096 50.1336C232.271 50.8312 231.44 51.5252 230.589 52.191C228.891 53.529 227.127 54.7801 225.342 55.992C223.547 57.1924 221.739 58.371 219.885 59.4765C218.037 60.5885 216.172 61.6759 214.253 62.6676Z" fill="#ABBAC2"/>
<path d="M217.293 66.6791L219.95 64.8318L222.626 63.0193L227.976 59.403C229.766 58.2084 231.53 56.9798 233.297 55.754C235.056 54.5174 236.801 53.2635 238.454 51.874C238.084 52.2659 237.713 52.6615 237.326 53.0396L236.137 54.1444C235.312 54.842 234.481 55.536 233.63 56.2017C231.931 57.5397 230.168 58.7908 228.383 60.0028C226.588 61.2032 224.78 62.3818 222.926 63.4873C221.077 64.6 219.213 65.6873 217.293 66.6791Z" fill="#ABBAC2"/>
<path d="M220.334 70.693L222.992 68.8457L225.668 67.0339L231.018 63.4176C232.808 62.223 234.572 60.9944 236.338 59.7687C238.097 58.5321 239.842 57.2781 241.495 55.8887C241.125 56.2806 240.755 56.6761 240.368 57.0543L239.178 58.159C238.353 58.8566 237.522 59.5506 236.671 60.2164C234.973 61.5544 233.21 62.8055 231.424 64.0174C229.63 65.2178 227.821 66.3964 225.968 67.5019C224.118 68.6132 222.254 69.7005 220.334 70.693Z" fill="#ABBAC2"/>
<path d="M223.376 74.704L226.033 72.8567L228.709 71.0442L234.059 67.4279C235.848 66.2333 237.613 65.0047 239.38 63.7789C241.139 62.5423 242.884 61.2884 244.536 59.8989C244.167 60.2908 243.796 60.6864 243.408 61.0645L242.219 62.1693C241.394 62.8669 240.563 63.5609 239.711 64.2266C238.013 65.5646 236.25 66.8157 234.464 68.0277C232.67 69.2281 230.862 70.4067 229.008 71.5114C227.159 72.6242 225.295 73.7115 223.376 74.704Z" fill="#ABBAC2"/>
</svg>
