<svg width="21" height="21" viewBox="0 0 21 21" fill="none" xmlns="http://www.w3.org/2000/svg">
<g clip-path="url(#clip0_140_2927)">
<path d="M16.0992 9.80048C16.0992 9.99375 15.9425 10.1504 15.7493 10.1504H15.5288L14.8289 10.8503H15.7493C15.9425 10.8503 16.0992 11.0069 16.0992 11.2002C16.0992 11.3934 15.9425 11.5501 15.7493 11.5501H13.1178L12.3969 12.2499H15.7492C15.9425 12.2499 16.0991 12.4066 16.0991 12.5999C16.1 12.6495 16.0892 12.6986 16.0676 12.7433C16.0616 12.7595 16.0534 12.7749 16.0432 12.7888C16.0287 12.8091 16.0123 12.8278 15.9942 12.8448C15.9806 12.8594 15.9654 12.8724 15.9487 12.8833C15.9308 12.8972 15.9107 12.9078 15.8892 12.9148C15.8683 12.9255 15.8459 12.9326 15.8227 12.9358L15.7492 12.9498H11.6761L5.72736 18.7446L5.61537 18.8146L3.92871 19.7944C4.15031 19.8868 4.38844 19.9333 4.62858 19.9308H16.4246C17.3976 19.9309 18.1891 19.1472 18.1987 18.1742V7.48047L16.0502 9.62903C16.0825 9.68033 16.0995 9.73983 16.0992 9.80048Z" fill="white"/>
<path d="M4.83132 12.2606L5.55218 11.5608H4.90132C4.70805 11.5608 4.5514 11.4041 4.5514 11.2109C4.5514 11.0176 4.70805 10.8609 4.90132 10.8609H6.27304L6.97291 10.1611H4.90136C4.70809 10.1611 4.55144 10.0044 4.55144 9.81117C4.55144 9.6179 4.70809 9.46125 4.90136 9.46125H7.70078L8.40065 8.76139H4.9014C4.70813 8.76139 4.55148 8.6047 4.55148 8.41147C4.55148 8.21821 4.70813 8.06156 4.9014 8.06156H9.12852L13.6495 3.62797L13.9994 3.25706C13.9958 3.21396 13.9958 3.17066 13.9994 3.1276V1.19597L15.0491 2.23176L15.532 1.75235L13.8979 0.104199C13.8537 0.0556055 13.7967 0.0204215 13.7334 0.00270646C13.7056 -0.000902154 13.6773 -0.000902154 13.6495 0.00270646H4.57588C3.59606 0.00270646 2.80176 0.797012 2.80176 1.77683V14.2552L4.5514 12.5336C4.58044 12.3941 4.69115 12.2861 4.83132 12.2606Z" fill="white"/>
<path d="M20.9985 1.90663C21.0009 1.41344 20.8129 0.938374 20.4736 0.580424C20.1217 0.212879 19.6353 0.00439931 19.1264 0.00304608C18.5795 -0.00277691 18.0529 0.21009 17.6638 0.594408L16.0261 2.23206L15.5327 2.72894L14.3499 3.91519L14.1365 4.12863L10.1263 8.05132L9.42648 8.75119L8.72661 9.45105L7.29892 10.8507L6.59905 11.5506L5.17135 12.9503L2.80234 15.2318L2.58188 15.4488C2.56556 15.4701 2.55035 15.4923 2.53641 15.5152C2.53641 15.5152 2.53641 15.5328 2.51541 15.5433L0.0414609 20.4912C-0.0292351 20.6291 -0.000776247 20.7971 0.11146 20.9041C0.224024 21.011 0.393588 21.0309 0.527886 20.9531L3.26432 19.3679L5.23089 18.2307L5.25189 18.1992L5.29388 18.1712L10.6757 12.9503L11.3756 12.2504L12.8173 10.8507L13.1147 10.5603L13.3666 10.8122L13.4156 10.8507C13.4742 10.8916 13.5437 10.9136 13.6151 10.9137C13.6855 10.9142 13.7542 10.8922 13.8111 10.8507L13.8601 10.8122L14.5389 10.1509L19.0879 5.60185C19.4011 5.28708 19.4824 4.80923 19.2909 4.40859L20.4491 3.25035C20.8035 2.89322 21.0012 2.40975 20.9985 1.90663ZM2.90736 18.7661L1.18921 19.7599L2.80238 16.5371L2.92487 16.2921L4.48555 17.8493L2.90736 18.7661ZM13.6501 10.0704L13.4016 9.82192L13.1532 9.57346L13.2756 9.45097L13.6501 9.08006L14.1435 9.57346L13.6501 10.0704ZM18.5826 5.1169C18.5808 5.11879 18.5789 5.12063 18.5771 5.12244L18.1991 5.50036L15.6482 8.05132L14.6194 9.0801L14.294 8.75119L14.126 8.58322L14.6579 8.05132L16.3515 6.35769L18.1012 4.60805C18.1296 4.58275 18.1629 4.56368 18.1991 4.55207C18.3286 4.50635 18.4726 4.533 18.5771 4.62207C18.7152 4.75715 18.7177 4.97871 18.5826 5.1169Z" fill="white"/>
</g>
<defs>
<clipPath id="clip0_140_2927">
<rect width="21" height="21" fill="white"/>
</clipPath>
</defs>
</svg>
